<svg xmlns="http://www.w3.org/2000/svg" width="300" height="156"><path data-name="THE National Comprehensive Cancer Network® (NCCN®) RECOMMEND" d="M15.476 70.792a.356.356 0 0 0 .437.361h3.343a.214.214 0 0 1 .209.266v10.39a.32.32 0 0 0 .342.38h3.609a.341.341 0 0 0 .266-.1.452.452 0 0 0 .095-.313V71.343a.187.187 0 0 1 .223-.19h3.362a.346.346 0 0 0 .418-.361v-2.26a.426.426 0 0 0-.123-.313.476.476 0 0 0-.351-.124H15.951a.476.476 0 0 0-.351.124.425.425 0 0 0-.123.313v2.26zm21.235 5.755a.3.3 0 0 1 .218.085.274.274 0 0 1 .085.2v4.805a.522.522 0 0 0 .152.427.746.746 0 0 0 .475.123h3.172a.556.556 0 0 0 .4-.114.493.493 0 0 0 .114-.361v-13.18a.492.492 0 0 0-.1-.323.327.327 0 0 0-.266-.114h-3.604a.318.318 0 0 0-.247.1.422.422 0 0 0-.095.294V72.9a.32.32 0 0 1-.342.38h-3.191a.32.32 0 0 1-.342-.38v-4.406a.423.423 0 0 0-.095-.294.319.319 0 0 0-.247-.1h-3.609a.327.327 0 0 0-.266.114.49.49 0 0 0-.095.323v13.177a.493.493 0 0 0 .114.361.556.556 0 0 0 .4.114h3.172a.747.747 0 0 0 .475-.123.523.523 0 0 0 .152-.427v-4.807a.274.274 0 0 1 .085-.2.3.3 0 0 1 .219-.085h3.267zm6.116-8.015v13.182a.493.493 0 0 0 .114.361.556.556 0 0 0 .4.114H53.5a.465.465 0 0 0 .342-.114.411.411 0 0 0 .114-.3v-2.341a.347.347 0 0 0-.418-.361h-6.172a.227.227 0 0 1-.18-.057.336.336 0 0 1-.047-.209v-1.9a.244.244 0 0 1 .085-.19.317.317 0 0 1 .218-.076h3.514a.294.294 0 0 0 .342-.323v-2.354a.344.344 0 0 0-.4-.38H47.48a.318.318 0 0 1-.247-.1.421.421 0 0 1-.095-.294v-1.619a.356.356 0 0 1 .437-.361h5.7a.445.445 0 0 0 .494-.513l.019-2.2a.33.33 0 0 0-.342-.4H43.188a.356.356 0 0 0-.361.437zm25.034-.432a.361.361 0 0 0-.418.4v6.2q0 .247-.095.247a.3.3 0 0 1-.209-.171l-4.559-6.339a.936.936 0 0 0-.275-.275.808.808 0 0 0-.37-.067h-3.1a.378.378 0 0 0-.418.437v13.277a.383.383 0 0 0 .475.38h2.583a.553.553 0 0 0 .37-.095.377.377 0 0 0 .086-.323v-6.914a.1.1 0 0 1 .057-.114.136.136 0 0 1 .133.076l5.227 7.081a.851.851 0 0 0 .237.228.574.574 0 0 0 .275.057h2.6a.5.5 0 0 0 .313-.095.3.3 0 0 0 .124-.247V68.418a.27.27 0 0 0-.285-.323h-2.751zm4.368 14.094h2.887a.443.443 0 0 0 .456-.285l.779-2.241a.265.265 0 0 1 .285-.209h4.027a.259.259 0 0 1 .18.047.62.62 0 0 1 .1.18l.741 2.184a.4.4 0 0 0 .418.323h3.723a.25.25 0 0 0 .228-.123.553.553 0 0 0 .076-.294 1.051 1.051 0 0 0-.038-.228l-4.555-12.94a.907.907 0 0 0-.275-.37.642.642 0 0 0-.408-.142H77.11a.56.56 0 0 0-.361.095.837.837 0 0 0-.209.342l-4.6 12.954a.977.977 0 0 0-.057.3.421.421 0 0 0 .095.294.317.317 0 0 0 .247.1zm5.318-5.964a.193.193 0 0 1-.228-.209.42.42 0 0 1 .038-.19l1.159-3.231a.116.116 0 0 1 .228 0l1.14 3.248a1.164 1.164 0 0 1 .038.19.177.177 0 0 1-.209.19h-2.166zm6.819-5.432a.356.356 0 0 0 .437.361h3.343a.214.214 0 0 1 .209.266v10.39a.32.32 0 0 0 .342.38h3.609a.341.341 0 0 0 .266-.1.452.452 0 0 0 .095-.313V71.343a.187.187 0 0 1 .228-.19h3.362a.346.346 0 0 0 .418-.361v-2.26a.426.426 0 0 0-.123-.313.476.476 0 0 0-.352-.119H84.841a.476.476 0 0 0-.351.124.424.424 0 0 0-.123.313v2.26zM98.08 68.1a.327.327 0 0 0-.266.114.49.49 0 0 0-.095.323v13.177a.494.494 0 0 0 .114.361.557.557 0 0 0 .4.114h3.167a.745.745 0 0 0 .475-.123.52.52 0 0 0 .152-.427V68.494a.33.33 0 0 0-.342-.4H98.08zm11.89 14.284a7.081 7.081 0 0 0 3.589-.883 5.965 5.965 0 0 0 2.375-2.517 9.074 9.074 0 0 0-.01-7.626 6.129 6.129 0 0 0-2.384-2.545 6.927 6.927 0 0 0-3.57-.9 7.021 7.021 0 0 0-3.6.9 6.112 6.112 0 0 0-2.393 2.545 9.091 9.091 0 0 0-.009 7.635 5.954 5.954 0 0 0 2.383 2.507 7.177 7.177 0 0 0 3.619.883zm0-2.963a2.09 2.09 0 0 1-1.358-.408 2.384 2.384 0 0 1-.732-1.32 10.5 10.5 0 0 1-.228-2.45 7.715 7.715 0 0 1 .542-3.381 1.856 1.856 0 0 1 1.776-1.026 1.821 1.821 0 0 1 1.747 1.026 7.849 7.849 0 0 1 .532 3.381 10.5 10.5 0 0 1-.228 2.45 2.42 2.42 0 0 1-.722 1.32 2.019 2.019 0 0 1-1.329.408zM127.311 68.1a.361.361 0 0 0-.418.4v6.2c0 .165-.032.247-.095.247a.3.3 0 0 1-.209-.171l-4.558-6.344a.933.933 0 0 0-.276-.275.806.806 0 0 0-.37-.067h-3.1a.378.378 0 0 0-.418.437v13.282a.383.383 0 0 0 .475.38h2.583a.551.551 0 0 0 .37-.095.377.377 0 0 0 .086-.323v-6.914a.1.1 0 0 1 .057-.114.137.137 0 0 1 .133.076L126.8 81.9a.855.855 0 0 0 .238.228.571.571 0 0 0 .275.057h2.6a.5.5 0 0 0 .314-.095.3.3 0 0 0 .123-.247V68.418a.27.27 0 0 0-.285-.323h-2.754zm4.368 14.094h2.887a.444.444 0 0 0 .456-.285l.779-2.241a.265.265 0 0 1 .285-.209h4.027a.258.258 0 0 1 .18.047.605.605 0 0 1 .1.18l.74 2.184a.4.4 0 0 0 .418.323h3.723a.251.251 0 0 0 .228-.123.557.557 0 0 0 .076-.294 1.064 1.064 0 0 0-.038-.228l-4.559-12.935a.9.9 0 0 0-.275-.37.64.64 0 0 0-.406-.143h-3.742a.56.56 0 0 0-.361.095.834.834 0 0 0-.209.342l-4.6 12.954a1 1 0 0 0-.056.3.423.423 0 0 0 .094.294.319.319 0 0 0 .247.1zm5.321-5.97a.193.193 0 0 1-.228-.209.414.414 0 0 1 .038-.19l1.158-3.229a.126.126 0 0 1 .114-.095.124.124 0 0 1 .114.095l1.14 3.248a1.188 1.188 0 0 1 .038.19.177.177 0 0 1-.209.19H137zm9.554-7.693v13.183a.493.493 0 0 0 .114.361.554.554 0 0 0 .4.114h9.706a.5.5 0 0 0 .352-.114.394.394 0 0 0 .123-.3v-2.341a.357.357 0 0 0-.437-.361h-5.717a.225.225 0 0 1-.18-.057.334.334 0 0 1-.048-.209V68.494a.33.33 0 0 0-.342-.4h-3.609a.325.325 0 0 0-.265.114.487.487 0 0 0-.095.323zM22.257 85.9a7.115 7.115 0 0 0-3.561.864 5.849 5.849 0 0 0-2.355 2.46 7.987 7.987 0 0 0-.826 3.723 8.564 8.564 0 0 0 .826 3.827 6.373 6.373 0 0 0 2.346 2.64 6.476 6.476 0 0 0 3.533.96 6.283 6.283 0 0 0 5.575-2.935 3.83 3.83 0 0 0 .655-1.643.41.41 0 0 0-.285-.437l-2.374-.475a.912.912 0 0 0-.209-.019.3.3 0 0 0-.323.171 3.739 3.739 0 0 1-1.187 1.71 2.864 2.864 0 0 1-1.719.513 1.885 1.885 0 0 1-1.757-.969 6.935 6.935 0 0 1-.56-3.267 6.378 6.378 0 0 1 .608-3.21 1.921 1.921 0 0 1 1.728-.988 1.67 1.67 0 0 1 1.33.522 2.974 2.974 0 0 1 .627 1.434.814.814 0 0 0 .114.294.328.328 0 0 0 .247.067l3.324-.209a.45.45 0 0 0 .238-.076.3.3 0 0 0 .066-.228 1.585 1.585 0 0 0-.057-.361 4.982 4.982 0 0 0-1.064-2.26 5.578 5.578 0 0 0-2.089-1.548 7 7 0 0 0-2.849-.56zm13.638 14.474a7.087 7.087 0 0 0 3.59-.883 5.961 5.961 0 0 0 2.374-2.517 9.07 9.07 0 0 0-.01-7.626 6.135 6.135 0 0 0-2.384-2.548 6.931 6.931 0 0 0-3.571-.9 7.02 7.02 0 0 0-3.6.9 6.113 6.113 0 0 0-2.394 2.547 9.092 9.092 0 0 0-.01 7.636 5.956 5.956 0 0 0 2.384 2.507 7.179 7.179 0 0 0 3.618.883zm0-2.963A2.092 2.092 0 0 1 34.536 97a2.386 2.386 0 0 1-.731-1.32 10.5 10.5 0 0 1-.228-2.45 7.718 7.718 0 0 1 .541-3.381 1.856 1.856 0 0 1 1.776-1.026 1.822 1.822 0 0 1 1.747 1.026 7.843 7.843 0 0 1 .532 3.381 10.5 10.5 0 0 1-.228 2.45 2.419 2.419 0 0 1-.721 1.32 2.022 2.022 0 0 1-1.33.408zm8.4 2.773h2.526a.473.473 0 0 0 .342-.086.521.521 0 0 0 .076-.332v-8.4q0-.209.095-.209a.214.214 0 0 1 .133.19l2.735 8.49a.447.447 0 0 0 .456.342h1.994a.467.467 0 0 0 .456-.342l2.73-8.637a.194.194 0 0 1 .152-.171c.05 0 .076.051.076.152v8.528a.406.406 0 0 0 .494.475h3.21a.7.7 0 0 0 .465-.124.541.541 0 0 0 .142-.427V86.488a.33.33 0 0 0-.342-.4h-5.489a.59.59 0 0 0-.513.551l-1.766 5.831a.191.191 0 0 1-.114.152.183.183 0 0 1-.133-.152l-1.975-6.04a.535.535 0 0 0-.18-.275.688.688 0 0 0-.351-.067h-5.319a.393.393 0 0 0-.3.1.484.484 0 0 0-.1.332v13.131a.547.547 0 0 0 .133.389.47.47 0 0 0 .361.143zm29.953-9.516a4.1 4.1 0 0 0-.76-2.507 4.656 4.656 0 0 0-2.061-1.548 7.714 7.714 0 0 0-2.9-.522h-6.288a.356.356 0 0 0-.361.437v13.18a.406.406 0 0 0 .494.475h3.191a.744.744 0 0 0 .475-.124.522.522 0 0 0 .152-.427v-4.293a.193.193 0 0 1 .228-.209h2.6a6.506 6.506 0 0 0 2.726-.541 4.1 4.1 0 0 0 2.5-3.922zm-4.407-.057a1.487 1.487 0 0 1-.4 1.054 1.386 1.386 0 0 1-1.064.427h-1.865a.3.3 0 0 1-.247-.092.525.525 0 0 1-.076-.323v-2.15a.416.416 0 0 1 .095-.3.48.48 0 0 1 .342-.095h1.634a1.619 1.619 0 0 1 1.121.408 1.372 1.372 0 0 1 .456 1.073zm17.778 8.965l-2.393-5.318a.594.594 0 0 1-.038-.171.2.2 0 0 1 .112-.187 3.727 3.727 0 0 0 1.8-1.444 4.075 4.075 0 0 0 .693-2.336 3.409 3.409 0 0 0-1.52-2.973 7.429 7.429 0 0 0-4.274-1.054h-6.351a.356.356 0 0 0-.361.437v13.178a.406.406 0 0 0 .494.475h3.191a.744.744 0 0 0 .475-.124.522.522 0 0 0 .152-.427v-4.843a.235.235 0 0 1 .057-.133.2.2 0 0 1 .171-.076h.873a.828.828 0 0 1 .4.076.427.427 0 0 1 .19.228l1.785 4.9a.492.492 0 0 0 .513.4h3.685a.356.356 0 0 0 .275-.114.407.407 0 0 0 .1-.285.476.476 0 0 0-.038-.209zm-5.798-7.826h-1.9a.294.294 0 0 1-.257-.095.538.538 0 0 1-.066-.3V89.28a.382.382 0 0 1 .095-.294.518.518 0 0 1 .342-.085h1.671a1.732 1.732 0 0 1 1.149.389 1.346 1.346 0 0 1 .465 1.092 1.312 1.312 0 0 1-.389 1 1.55 1.55 0 0 1-1.111.37zm7.028-5.223v13.181a.494.494 0 0 0 .114.361.556.556 0 0 0 .4.114h10.16a.464.464 0 0 0 .342-.114.411.411 0 0 0 .114-.3v-2.34a.347.347 0 0 0-.418-.361h-6.173a.227.227 0 0 1-.18-.057.336.336 0 0 1-.047-.209V94.9a.244.244 0 0 1 .085-.19.318.318 0 0 1 .218-.076h3.514a.294.294 0 0 0 .342-.323v-2.353a.344.344 0 0 0-.4-.38H93.5a.318.318 0 0 1-.247-.1.42.42 0 0 1-.095-.294v-1.619a.356.356 0 0 1 .442-.365h5.7a.445.445 0 0 0 .494-.513l.019-2.2a.33.33 0 0 0-.342-.4H89.21a.356.356 0 0 0-.361.437zM109 94.542a.3.3 0 0 1 .219.085.273.273 0 0 1 .085.2v4.805a.522.522 0 0 0 .152.427.742.742 0 0 0 .475.124h3.169a.556.556 0 0 0 .4-.114.494.494 0 0 0 .114-.361V86.526a.493.493 0 0 0-.095-.323.328.328 0 0 0-.266-.114h-3.609a.318.318 0 0 0-.247.1.424.424 0 0 0-.095.294v4.407a.32.32 0 0 1-.342.38h-3.191a.32.32 0 0 1-.342-.38v-4.402a.42.42 0 0 0-.1-.294.318.318 0 0 0-.247-.1h-3.6a.327.327 0 0 0-.266.114.487.487 0 0 0-.095.323v13.177a.494.494 0 0 0 .114.361.556.556 0 0 0 .4.114h3.167a.741.741 0 0 0 .474-.124.519.519 0 0 0 .152-.427v-4.805a.274.274 0 0 1 .086-.2.3.3 0 0 1 .218-.085H109zm6.116-8.016v13.182a.494.494 0 0 0 .114.361.556.556 0 0 0 .4.114h10.162a.464.464 0 0 0 .342-.114.411.411 0 0 0 .114-.3v-2.34a.347.347 0 0 0-.418-.361h-6.173a.229.229 0 0 1-.181-.057.335.335 0 0 1-.047-.209V94.9a.243.243 0 0 1 .085-.19.319.319 0 0 1 .219-.076h3.514a.294.294 0 0 0 .341-.323v-2.353a.344.344 0 0 0-.4-.38h-3.419a.316.316 0 0 1-.247-.1.418.418 0 0 1-.095-.294v-1.619a.356.356 0 0 1 .437-.361h5.7a.445.445 0 0 0 .494-.513l.019-2.2a.33.33 0 0 0-.342-.4h-10.257a.356.356 0 0 0-.361.437zm21.71-.437a.361.361 0 0 0-.418.4V92.7c0 .165-.032.247-.095.247a.3.3 0 0 1-.209-.171l-4.558-6.344a.945.945 0 0 0-.276-.275.8.8 0 0 0-.37-.067h-3.1a.378.378 0 0 0-.418.437V99.8a.384.384 0 0 0 .475.38h2.583a.554.554 0 0 0 .37-.1.377.377 0 0 0 .086-.323v-6.906a.1.1 0 0 1 .057-.114.137.137 0 0 1 .133.076l5.223 7.085a.855.855 0 0 0 .238.228.571.571 0 0 0 .275.057h2.6a.5.5 0 0 0 .314-.1.3.3 0 0 0 .123-.247V86.412a.27.27 0 0 0-.285-.323h-2.754zm12.935 3.78a.626.626 0 0 0 .36.228.326.326 0 0 0 .209-.076l2.071-1.5a.328.328 0 0 0 .133-.247.541.541 0 0 0-.133-.323 4.379 4.379 0 0 0-2.109-1.491 8.8 8.8 0 0 0-3.172-.56 7.435 7.435 0 0 0-3.077.6 4.857 4.857 0 0 0-2.051 1.633 3.962 3.962 0 0 0 .285 4.919 5.1 5.1 0 0 0 2.716 1.567l2.887.7a2.023 2.023 0 0 1 .893.4.812.812 0 0 1 .3.627.9.9 0 0 1-.618.807 3.954 3.954 0 0 1-1.68.294 3.879 3.879 0 0 1-1.767-.342 4.092 4.092 0 0 1-1.31-1.178.415.415 0 0 0-.342-.171.726.726 0 0 0-.38.133l-1.957 1.349a.428.428 0 0 0-.209.342.732.732 0 0 0 .095.285 4.669 4.669 0 0 0 2.384 1.814 10.085 10.085 0 0 0 3.808.694 8.374 8.374 0 0 0 3.22-.57 4.734 4.734 0 0 0 2.118-1.614 4.124 4.124 0 0 0 .74-2.45 4.054 4.054 0 0 0-.873-2.612 4.673 4.673 0 0 0-2.6-1.529l-3.153-.817q-1.216-.285-1.216-.969a.81.81 0 0 1 .475-.684 2.92 2.92 0 0 1 1.462-.285 3.412 3.412 0 0 1 1.51.266 3.5 3.5 0 0 1 .979.76zm4.805-3.78a.327.327 0 0 0-.266.114.487.487 0 0 0-.095.323v13.182a.494.494 0 0 0 .114.361.556.556 0 0 0 .4.114h3.172a.746.746 0 0 0 .475-.124.522.522 0 0 0 .152-.427V86.488a.33.33 0 0 0-.342-.4h-3.609zm17.892 0h-2.83a.521.521 0 0 0-.314.1.461.461 0 0 0-.18.294l-2.374 8.319a.223.223 0 0 1-.095.152.144.144 0 0 1-.095-.133l-2.545-8.338a.472.472 0 0 0-.475-.4h-3.666a.407.407 0 0 0-.285.1.356.356 0 0 0-.114.275.615.615 0 0 0 .038.171l4.407 13.068a.641.641 0 0 0 .7.475h3.077a.642.642 0 0 0 .7-.475l4.413-13.057a.6.6 0 0 0 .019-.171.36.36 0 0 0-.38-.38zm1.348.437v13.182a.494.494 0 0 0 .114.361.556.556 0 0 0 .4.114h10.162a.464.464 0 0 0 .342-.114.411.411 0 0 0 .114-.3v-2.34a.347.347 0 0 0-.418-.361h-6.173a.229.229 0 0 1-.181-.057.342.342 0 0 1-.047-.209V94.9a.247.247 0 0 1 .085-.19.319.319 0 0 1 .219-.076h3.514a.294.294 0 0 0 .342-.323v-2.353a.345.345 0 0 0-.4-.38h-3.419a.316.316 0 0 1-.247-.1.418.418 0 0 1-.095-.294v-1.619a.356.356 0 0 1 .437-.361h5.7a.445.445 0 0 0 .494-.513l.019-2.2a.33.33 0 0 0-.342-.4h-10.258a.357.357 0 0 0-.361.437zM22.257 103.894a7.116 7.116 0 0 0-3.561.864 5.846 5.846 0 0 0-2.355 2.46 7.982 7.982 0 0 0-.826 3.722 8.568 8.568 0 0 0 .826 3.828 6.38 6.38 0 0 0 2.346 2.64 6.48 6.48 0 0 0 3.533.959 6.283 6.283 0 0 0 5.575-2.935 3.825 3.825 0 0 0 .655-1.643.409.409 0 0 0-.285-.436l-2.374-.475a.884.884 0 0 0-.209-.019.3.3 0 0 0-.323.171 3.742 3.742 0 0 1-1.187 1.709 2.863 2.863 0 0 1-1.719.513 1.885 1.885 0 0 1-1.757-.969 6.934 6.934 0 0 1-.56-3.267 6.381 6.381 0 0 1 .608-3.21 1.921 1.921 0 0 1 1.728-.987 1.671 1.671 0 0 1 1.33.522 2.97 2.97 0 0 1 .627 1.434.808.808 0 0 0 .114.294.326.326 0 0 0 .247.067l3.324-.209a.456.456 0 0 0 .238-.076.3.3 0 0 0 .066-.228 1.589 1.589 0 0 0-.057-.361A4.98 4.98 0 0 0 27.2 106a5.586 5.586 0 0 0-2.089-1.548 7.007 7.007 0 0 0-2.849-.56zm6.458 14.283H31.6a.443.443 0 0 0 .456-.285l.779-2.241a.265.265 0 0 1 .285-.209h4.027a.261.261 0 0 1 .18.047.619.619 0 0 1 .1.181l.741 2.184a.4.4 0 0 0 .418.323h3.723a.251.251 0 0 0 .228-.123.557.557 0 0 0 .076-.3 1.06 1.06 0 0 0-.038-.228L38.022 104.6a.906.906 0 0 0-.275-.37.641.641 0 0 0-.408-.142H33.6a.561.561 0 0 0-.361.094.843.843 0 0 0-.209.342l-4.6 12.954a.98.98 0 0 0-.057.3.423.423 0 0 0 .1.295.32.32 0 0 0 .247.1zm5.318-5.964a.194.194 0 0 1-.228-.213.42.42 0 0 1 .038-.19L35 108.585a.116.116 0 0 1 .228 0l1.14 3.248a1.173 1.173 0 0 1 .038.19.177.177 0 0 1-.209.19h-2.164zm18.994-8.129a.361.361 0 0 0-.418.4v6.211c0 .165-.032.247-.095.247a.3.3 0 0 1-.209-.171l-4.559-6.344a.943.943 0 0 0-.276-.275.811.811 0 0 0-.37-.066H44a.377.377 0 0 0-.418.436V117.8a.383.383 0 0 0 .475.38h2.583a.551.551 0 0 0 .37-.1.377.377 0 0 0 .086-.323v-6.914a.1.1 0 0 1 .057-.114.138.138 0 0 1 .133.076l5.223 7.085a.851.851 0 0 0 .237.228.574.574 0 0 0 .275.057h2.6a.5.5 0 0 0 .313-.1.3.3 0 0 0 .123-.247v-13.422a.269.269 0 0 0-.285-.322h-2.745zm10.864-.19a7.115 7.115 0 0 0-3.561.864 5.846 5.846 0 0 0-2.355 2.46 7.983 7.983 0 0 0-.826 3.722 8.569 8.569 0 0 0 .826 3.828 6.381 6.381 0 0 0 2.346 2.64 6.48 6.48 0 0 0 3.533.959 6.283 6.283 0 0 0 5.575-2.935 3.826 3.826 0 0 0 .655-1.643.409.409 0 0 0-.285-.436l-2.374-.475a.885.885 0 0 0-.209-.019.3.3 0 0 0-.323.171 3.741 3.741 0 0 1-1.187 1.709 2.863 2.863 0 0 1-1.719.513 1.885 1.885 0 0 1-1.757-.969 6.932 6.932 0 0 1-.56-3.267 6.381 6.381 0 0 1 .608-3.21 1.921 1.921 0 0 1 1.728-.987 1.671 1.671 0 0 1 1.33.522 2.97 2.97 0 0 1 .627 1.434.807.807 0 0 0 .114.294.326.326 0 0 0 .247.067l3.324-.209a.455.455 0 0 0 .237-.076.3.3 0 0 0 .067-.228 1.589 1.589 0 0 0-.057-.361A4.98 4.98 0 0 0 68.829 106a5.586 5.586 0 0 0-2.089-1.548 7.007 7.007 0 0 0-2.849-.56zm7.2.626v13.18a.493.493 0 0 0 .114.361.556.556 0 0 0 .4.114h10.159a.464.464 0 0 0 .342-.114.41.41 0 0 0 .114-.3v-2.336a.346.346 0 0 0-.418-.361h-6.173a.227.227 0 0 1-.18-.057.336.336 0 0 1-.049-.207v-1.9a.243.243 0 0 1 .085-.19.315.315 0 0 1 .218-.076h3.514a.294.294 0 0 0 .342-.323v-2.355a.344.344 0 0 0-.4-.38h-3.416a.317.317 0 0 1-.247-.1.418.418 0 0 1-.095-.294v-1.615a.356.356 0 0 1 .437-.36h5.7a.445.445 0 0 0 .494-.513l.019-2.2a.329.329 0 0 0-.342-.4H71.451a.356.356 0 0 0-.361.436zm24.6 13.049l-2.393-5.318a.6.6 0 0 1-.038-.171.2.2 0 0 1 .114-.19 3.725 3.725 0 0 0 1.795-1.444 4.072 4.072 0 0 0 .693-2.336 3.407 3.407 0 0 0-1.52-2.972 7.427 7.427 0 0 0-4.274-1.054h-6.347a.356.356 0 0 0-.361.436v13.18a.406.406 0 0 0 .494.475h3.191a.751.751 0 0 0 .475-.123.525.525 0 0 0 .152-.428v-4.843a.235.235 0 0 1 .057-.133.2.2 0 0 1 .171-.076h.874a.821.821 0 0 1 .4.076.424.424 0 0 1 .19.228l1.785 4.9a.492.492 0 0 0 .513.4h3.685a.356.356 0 0 0 .275-.114.407.407 0 0 0 .1-.285.477.477 0 0 0-.038-.209zm-5.793-7.825h-1.9a.3.3 0 0 1-.256-.095.539.539 0 0 1-.067-.3v-2.071a.381.381 0 0 1 .095-.294.517.517 0 0 1 .342-.085h1.668a1.734 1.734 0 0 1 1.149.389 1.347 1.347 0 0 1 .465 1.092 1.311 1.311 0 0 1-.389 1 1.55 1.55 0 0 1-1.111.371zm19.792-5.66a.36.36 0 0 0-.418.4v6.211c0 .165-.032.247-.095.247a.3.3 0 0 1-.209-.171l-4.558-6.344a.94.94 0 0 0-.276-.275.81.81 0 0 0-.37-.066h-3.1a.377.377 0 0 0-.418.436V117.8a.383.383 0 0 0 .475.38h2.579a.549.549 0 0 0 .37-.1.377.377 0 0 0 .086-.323v-6.914a.1.1 0 0 1 .057-.114.138.138 0 0 1 .133.076l5.223 7.085a.856.856 0 0 0 .238.228.571.571 0 0 0 .275.057h2.6a.5.5 0 0 0 .314-.1.3.3 0 0 0 .123-.247v-13.422a.269.269 0 0 0-.285-.322h-2.754zm4.539.436v13.18a.493.493 0 0 0 .114.361.556.556 0 0 0 .4.114H124.9a.464.464 0 0 0 .342-.114.41.41 0 0 0 .114-.3v-2.336a.347.347 0 0 0-.418-.361h-6.173a.229.229 0 0 1-.181-.057.341.341 0 0 1-.047-.209v-1.9a.242.242 0 0 1 .085-.19.316.316 0 0 1 .219-.076h3.514a.294.294 0 0 0 .342-.323v-2.355a.344.344 0 0 0-.4-.38h-3.419a.316.316 0 0 1-.247-.1.416.416 0 0 1-.095-.294v-1.615a.356.356 0 0 1 .437-.36h5.7a.445.445 0 0 0 .494-.513l.019-2.2a.329.329 0 0 0-.342-.4h-10.259a.356.356 0 0 0-.361.436zm11.814 2.261a.357.357 0 0 0 .437.361h3.343a.213.213 0 0 1 .209.265V117.8a.32.32 0 0 0 .342.38h3.609a.344.344 0 0 0 .266-.1.455.455 0 0 0 .095-.314v-10.435a.186.186 0 0 1 .228-.189h3.362a.346.346 0 0 0 .417-.361v-2.261a.425.425 0 0 0-.123-.313.476.476 0 0 0-.351-.123h-11.364a.475.475 0 0 0-.351.123.422.422 0 0 0-.124.313v2.261zm32.347-2.7h-2.2a.536.536 0 0 0-.608.4l-1.938 7.256c-.012.076-.044.108-.095.095a.179.179 0 0 1-.114-.133l-2.089-7.218a.529.529 0 0 0-.19-.3.732.732 0 0 0-.418-.094h-2.659a.537.537 0 0 0-.608.4l-1.994 7.123a.161.161 0 0 1-.095.152.252.252 0 0 1-.133-.228l-2.013-7.047a.534.534 0 0 0-.19-.3.732.732 0 0 0-.418-.094h-3.134a.649.649 0 0 0-.446.142.492.492 0 0 0-.162.389 1.054 1.054 0 0 0 .038.228l3.875 12.859a.783.783 0 0 0 .247.361.718.718 0 0 0 .437.114h2.716a.763.763 0 0 0 .446-.114.66.66 0 0 0 .238-.361l1.956-6.648a.486.486 0 0 1 .171-.285.278.278 0 0 1 .133.247l1.975 6.686a.63.63 0 0 0 .684.475h2.621a.718.718 0 0 0 .437-.114.8.8 0 0 0 .247-.361l3.856-12.859a1.054 1.054 0 0 0 .038-.228.492.492 0 0 0-.162-.389.649.649 0 0 0-.446-.142zm7.085 14.283a7.085 7.085 0 0 0 3.59-.883 5.972 5.972 0 0 0 2.374-2.517 9.064 9.064 0 0 0-.01-7.626 6.13 6.13 0 0 0-2.383-2.545 6.934 6.934 0 0 0-3.571-.9 7.024 7.024 0 0 0-3.6.9 6.109 6.109 0 0 0-2.393 2.545 9.092 9.092 0 0 0-.009 7.636 5.959 5.959 0 0 0 2.383 2.507 7.174 7.174 0 0 0 3.619.883zm0-2.963a2.093 2.093 0 0 1-1.358-.408 2.389 2.389 0 0 1-.732-1.321 10.489 10.489 0 0 1-.228-2.45 7.716 7.716 0 0 1 .542-3.381 1.857 1.857 0 0 1 1.776-1.025 1.821 1.821 0 0 1 1.747 1.025 7.834 7.834 0 0 1 .532 3.381 10.489 10.489 0 0 1-.228 2.45A2.425 2.425 0 0 1 166.8 115a2.022 2.022 0 0 1-1.329.408zm20.228 2.165l-2.393-5.318a.58.58 0 0 1-.038-.171.2.2 0 0 1 .114-.19 3.724 3.724 0 0 0 1.795-1.444 4.072 4.072 0 0 0 .693-2.336 3.406 3.406 0 0 0-1.519-2.972 7.43 7.43 0 0 0-4.274-1.054h-6.344a.356.356 0 0 0-.361.436V117.7a.407.407 0 0 0 .494.475h3.191a.752.752 0 0 0 .475-.123.526.526 0 0 0 .152-.428v-4.843a.235.235 0 0 1 .057-.133.2.2 0 0 1 .171-.076h.873a.817.817 0 0 1 .4.076.422.422 0 0 1 .19.228l1.786 4.9a.492.492 0 0 0 .513.4h3.684a.358.358 0 0 0 .276-.114.408.408 0 0 0 .1-.285.482.482 0 0 0-.038-.209zm-5.793-7.825h-1.9a.3.3 0 0 1-.257-.095.544.544 0 0 1-.066-.3v-2.071a.379.379 0 0 1 .095-.294.517.517 0 0 1 .342-.085h1.671a1.732 1.732 0 0 1 1.149.389 1.348 1.348 0 0 1 .466 1.092 1.31 1.31 0 0 1-.39 1 1.549 1.549 0 0 1-1.111.371zm20.191 7.844l-4.141-8.528a.634.634 0 0 1-.076-.285.483.483 0 0 1 .133-.323l3.115-3.818a.311.311 0 0 0 .095-.228.269.269 0 0 0-.133-.237.663.663 0 0 0-.361-.085h-2.887a.828.828 0 0 0-.817.4l-3.5 4.9a.3.3 0 0 1-.19.133c-.063 0-.095-.076-.095-.228v-4.806a.329.329 0 0 0-.341-.4h-3.609a.326.326 0 0 0-.266.113.488.488 0 0 0-.095.323V117.7a.493.493 0 0 0 .114.361.556.556 0 0 0 .4.114h3.172a.747.747 0 0 0 .474-.123.522.522 0 0 0 .152-.428v-2.868a.635.635 0 0 1 .114-.418l1.349-1.728a.466.466 0 0 1 .266-.209.205.205 0 0 1 .152.114l2.317 5.28a.673.673 0 0 0 .684.38h3.7a.28.28 0 0 0 .342-.285.687.687 0 0 0-.076-.3zm2.111-8.781a2.56 2.56 0 0 0 1.323-.355 2.655 2.655 0 0 0 .958-.957 2.66 2.66 0 0 0 0-2.652 2.629 2.629 0 0 0-.964-.964 2.649 2.649 0 0 0-2.646 0 2.629 2.629 0 0 0-.964.964 2.66 2.66 0 0 0 0 2.652 2.641 2.641 0 0 0 .964.957 2.589 2.589 0 0 0 1.329.355zm0-.786a1.721 1.721 0 0 1-1.3-.5 1.857 1.857 0 0 1-.482-1.351 1.883 1.883 0 0 1 .482-1.351 1.9 1.9 0 0 1 2.591 0 1.887 1.887 0 0 1 .481 1.351 1.868 1.868 0 0 1-.481 1.346 1.7 1.7 0 0 1-1.29.5zm1.207-.643l-.454-1.029a.072.072 0 0 1 .022-.067.782.782 0 0 0 .338-.266.687.687 0 0 0 .127-.409.612.612 0 0 0-.288-.537 1.409 1.409 0 0 0-.8-.194h-1.207a.064.064 0 0 0-.067.077v2.45a.079.079 0 0 0 .089.089h.587a.1.1 0 0 0 .122-.1v-.941a.039.039 0 0 1 .044-.044h.2a.118.118 0 0 1 .111.055l.321.953a.107.107 0 0 0 .1.077h.686a.069.069 0 0 0 .078-.077zm-1.085-1.5h-.388c-.037 0-.055-.025-.055-.077v-.343a.064.064 0 0 1 .077-.067h.354a.337.337 0 0 1 .211.067.209.209 0 0 1 .088.177.226.226 0 0 1-.077.171.293.293 0 0 1-.21.072zm-182.2 15.685h-1.791a.578.578 0 0 0-.476.238 14.338 14.338 0 0 0-1.716 3.577 12.891 12.891 0 0 0-.612 3.951 11.2 11.2 0 0 0 .586 3.7 21.7 21.7 0 0 0 1.776 3.722.675.675 0 0 0 .161.17.345.345 0 0 0 .2.051h1.848a.24.24 0 0 0 .161-.051.154.154 0 0 0 .059-.119.274.274 0 0 0-.034-.119 21.386 21.386 0 0 1-1.385-3.739 14.4 14.4 0 0 1-.45-3.6 15.754 15.754 0 0 1 .484-3.883 18 18 0 0 1 1.351-3.645.163.163 0 0 0-.17-.255zm10.461.516a.361.361 0 0 0-.418.4v6.211c0 .165-.032.247-.095.247a.3.3 0 0 1-.209-.171l-4.559-6.344a.942.942 0 0 0-.275-.275.812.812 0 0 0-.37-.066h-3.1a.377.377 0 0 0-.418.436V135.8a.383.383 0 0 0 .475.38h2.583a.551.551 0 0 0 .37-.095.377.377 0 0 0 .085-.323v-6.914a.1.1 0 0 1 .057-.114.138.138 0 0 1 .133.076l5.223 7.085a.851.851 0 0 0 .237.228.574.574 0 0 0 .275.057h2.6a.5.5 0 0 0 .313-.095.3.3 0 0 0 .123-.247v-13.432a.269.269 0 0 0-.285-.322h-2.751zm10.864-.19a7.115 7.115 0 0 0-3.561.864 5.846 5.846 0 0 0-2.355 2.46 7.983 7.983 0 0 0-.826 3.722 8.569 8.569 0 0 0 .826 3.828 6.381 6.381 0 0 0 2.346 2.64 6.48 6.48 0 0 0 3.533.959 6.283 6.283 0 0 0 5.575-2.935 3.825 3.825 0 0 0 .655-1.643.409.409 0 0 0-.285-.436l-2.374-.475a.885.885 0 0 0-.209-.019.3.3 0 0 0-.323.171 3.741 3.741 0 0 1-1.187 1.709 2.863 2.863 0 0 1-1.719.513 1.885 1.885 0 0 1-1.757-.969 6.932 6.932 0 0 1-.56-3.267 6.381 6.381 0 0 1 .608-3.21 1.921 1.921 0 0 1 1.728-.987 1.671 1.671 0 0 1 1.33.522 2.97 2.97 0 0 1 .627 1.434.807.807 0 0 0 .114.294.326.326 0 0 0 .247.067l3.324-.209a.455.455 0 0 0 .237-.076.3.3 0 0 0 .066-.228 1.589 1.589 0 0 0-.057-.361A4.98 4.98 0 0 0 46.391 124a5.586 5.586 0 0 0-2.089-1.548 7.007 7.007 0 0 0-2.849-.56zm13.524 0a7.116 7.116 0 0 0-3.561.864 5.846 5.846 0 0 0-2.355 2.46 7.982 7.982 0 0 0-.826 3.722 8.568 8.568 0 0 0 .826 3.828 6.38 6.38 0 0 0 2.346 2.64 6.48 6.48 0 0 0 3.533.959 6.283 6.283 0 0 0 5.575-2.935 3.825 3.825 0 0 0 .655-1.643.409.409 0 0 0-.285-.436l-2.374-.475a.884.884 0 0 0-.209-.019.3.3 0 0 0-.323.171 3.742 3.742 0 0 1-1.187 1.709 2.863 2.863 0 0 1-1.719.513 1.885 1.885 0 0 1-1.757-.969 6.934 6.934 0 0 1-.56-3.267 6.381 6.381 0 0 1 .608-3.21 1.921 1.921 0 0 1 1.728-.987 1.671 1.671 0 0 1 1.33.522 2.97 2.97 0 0 1 .627 1.434.808.808 0 0 0 .114.294.326.326 0 0 0 .247.067l3.324-.209a.456.456 0 0 0 .237-.076.3.3 0 0 0 .066-.228 1.589 1.589 0 0 0-.057-.361A4.98 4.98 0 0 0 59.915 124a5.586 5.586 0 0 0-2.089-1.548 7.007 7.007 0 0 0-2.849-.56zm16.639.19a.36.36 0 0 0-.418.4v6.211c0 .165-.032.247-.095.247a.3.3 0 0 1-.209-.171l-4.559-6.344a.942.942 0 0 0-.275-.275.812.812 0 0 0-.37-.066h-3.1a.377.377 0 0 0-.418.436V135.8a.383.383 0 0 0 .475.38h2.583a.551.551 0 0 0 .37-.095.377.377 0 0 0 .085-.323v-6.914a.1.1 0 0 1 .057-.114.138.138 0 0 1 .133.076l5.223 7.085a.851.851 0 0 0 .237.228.574.574 0 0 0 .275.057h2.6a.5.5 0 0 0 .313-.095.3.3 0 0 0 .123-.247v-13.432a.269.269 0 0 0-.285-.322h-2.752zm6.575 4.723a2.56 2.56 0 0 0 1.323-.355 2.647 2.647 0 0 0 .958-.957 2.658 2.658 0 0 0 0-2.652 2.623 2.623 0 0 0-.963-.964 2.65 2.65 0 0 0-2.647 0 2.621 2.621 0 0 0-.963.964 2.658 2.658 0 0 0 0 2.652 2.633 2.633 0 0 0 .963.957 2.588 2.588 0 0 0 1.329.355zm0-.786a1.723 1.723 0 0 1-1.3-.5 1.86 1.86 0 0 1-.482-1.351 1.886 1.886 0 0 1 .482-1.351 1.9 1.9 0 0 1 2.591 0 1.886 1.886 0 0 1 .482 1.351 1.868 1.868 0 0 1-.482 1.346 1.7 1.7 0 0 1-1.29.5zm1.207-.643l-.454-1.029a.072.072 0 0 1 .022-.067.78.78 0 0 0 .338-.266.682.682 0 0 0 .127-.409.612.612 0 0 0-.288-.537 1.409 1.409 0 0 0-.8-.194h-1.211a.064.064 0 0 0-.066.077v2.455a.078.078 0 0 0 .089.089h.587a.1.1 0 0 0 .122-.1v-.941a.039.039 0 0 1 .044-.044h.2a.119.119 0 0 1 .111.055l.321.953a.108.108 0 0 0 .1.077h.687a.068.068 0 0 0 .078-.077zm-1.085-1.5h-.395c-.037 0-.055-.025-.055-.077v-.343a.064.064 0 0 1 .078-.067h.353a.337.337 0 0 1 .21.067.21.21 0 0 1 .089.177.224.224 0 0 1-.078.171.293.293 0 0 1-.21.072zm3.072-2.315q-.2 0-.2.153a.265.265 0 0 0 .034.1 18 18 0 0 1 1.351 3.645 15.754 15.754 0 0 1 .484 3.883 14.413 14.413 0 0 1-.45 3.6 21.426 21.426 0 0 1-1.385 3.739.216.216 0 0 0-.008.195.192.192 0 0 0 .2.094h1.852a.346.346 0 0 0 .2-.051.68.68 0 0 0 .161-.17 21.719 21.719 0 0 0 1.776-3.722 11.2 11.2 0 0 0 .586-3.7 12.888 12.888 0 0 0-.612-3.951 14.345 14.345 0 0 0-1.716-3.577.579.579 0 0 0-.476-.238h-1.804zm21.4 14l-2.393-5.318a.58.58 0 0 1-.038-.171.2.2 0 0 1 .114-.19 3.722 3.722 0 0 0 1.794-1.444 4.066 4.066 0 0 0 .694-2.336 3.407 3.407 0 0 0-1.52-2.972 7.425 7.425 0 0 0-4.273-1.054h-6.354a.356.356 0 0 0-.361.436V135.7a.406.406 0 0 0 .494.475h3.191a.75.75 0 0 0 .475-.123.525.525 0 0 0 .152-.428v-4.843a.236.236 0 0 1 .057-.133.2.2 0 0 1 .171-.076h.874a.821.821 0 0 1 .4.076.425.425 0 0 1 .19.228l1.785 4.9a.492.492 0 0 0 .513.4h3.685a.354.354 0 0 0 .275-.114.4.4 0 0 0 .105-.285.482.482 0 0 0-.038-.209zm-5.793-7.825h-1.9a.3.3 0 0 1-.257-.095.539.539 0 0 1-.066-.3v-2.071a.381.381 0 0 1 .095-.294.517.517 0 0 1 .33-.07h1.671a1.733 1.733 0 0 1 1.149.389 1.347 1.347 0 0 1 .465 1.092 1.311 1.311 0 0 1-.389 1 1.55 1.55 0 0 1-1.111.371zm7.027-5.224V135.7a.493.493 0 0 0 .114.361.556.556 0 0 0 .4.114h10.151a.464.464 0 0 0 .342-.114.41.41 0 0 0 .114-.3v-2.336a.347.347 0 0 0-.418-.361h-6.173a.229.229 0 0 1-.181-.057.341.341 0 0 1-.047-.209v-1.9a.242.242 0 0 1 .085-.19.316.316 0 0 1 .219-.076h3.514a.294.294 0 0 0 .342-.323v-2.355a.344.344 0 0 0-.4-.38h-3.419a.316.316 0 0 1-.247-.1.416.416 0 0 1-.095-.294v-1.615a.356.356 0 0 1 .437-.36h5.7a.445.445 0 0 0 .494-.513l.019-2.2a.329.329 0 0 0-.342-.4h-10.258a.356.356 0 0 0-.361.436zm17.456-.626a7.118 7.118 0 0 0-3.562.864 5.849 5.849 0 0 0-2.355 2.46 7.981 7.981 0 0 0-.826 3.722 8.566 8.566 0 0 0 .826 3.828 6.384 6.384 0 0 0 2.346 2.64 6.479 6.479 0 0 0 3.533.959 6.282 6.282 0 0 0 5.574-2.935 3.827 3.827 0 0 0 .656-1.643.409.409 0 0 0-.285-.436l-2.388-.461a.874.874 0 0 0-.208-.019.3.3 0 0 0-.323.171 3.75 3.75 0 0 1-1.187 1.709 2.863 2.863 0 0 1-1.719.513 1.885 1.885 0 0 1-1.757-.969 6.927 6.927 0 0 1-.561-3.267 6.385 6.385 0 0 1 .608-3.21 1.921 1.921 0 0 1 1.729-.987 1.67 1.67 0 0 1 1.329.522 2.97 2.97 0 0 1 .627 1.434.808.808 0 0 0 .114.294.325.325 0 0 0 .247.067l3.324-.209a.452.452 0 0 0 .237-.076.3.3 0 0 0 .067-.228 1.589 1.589 0 0 0-.057-.361 4.987 4.987 0 0 0-1.064-2.26 5.589 5.589 0 0 0-2.089-1.548 7.008 7.008 0 0 0-2.849-.56zm13.637 14.473a7.083 7.083 0 0 0 3.59-.883 5.96 5.96 0 0 0 2.374-2.517 9.069 9.069 0 0 0-.009-7.626 6.132 6.132 0 0 0-2.384-2.545 6.934 6.934 0 0 0-3.571-.9 7.022 7.022 0 0 0-3.6.9 6.109 6.109 0 0 0-2.393 2.545 9.087 9.087 0 0 0-.01 7.636 5.961 5.961 0 0 0 2.384 2.507 7.173 7.173 0 0 0 3.618.883zm0-2.963a2.094 2.094 0 0 1-1.368-.39 2.4 2.4 0 0 1-.731-1.321 10.489 10.489 0 0 1-.228-2.45 7.718 7.718 0 0 1 .541-3.381 1.858 1.858 0 0 1 1.776-1.025 1.824 1.824 0 0 1 1.748 1.025 7.85 7.85 0 0 1 .532 3.381 10.489 10.489 0 0 1-.228 2.45 2.425 2.425 0 0 1-.722 1.321 2.026 2.026 0 0 1-1.33.408zm8.4 2.773h2.526a.475.475 0 0 0 .342-.085.526.526 0 0 0 .076-.333v-8.395c0-.139.031-.209.095-.209a.214.214 0 0 1 .133.19l2.735 8.49a.447.447 0 0 0 .455.342h1.995a.467.467 0 0 0 .456-.342l2.735-8.642a.194.194 0 0 1 .152-.171c.05 0 .076.051.076.152v8.54a.406.406 0 0 0 .494.475h3.21a.707.707 0 0 0 .465-.123.544.544 0 0 0 .142-.428v-13.142a.329.329 0 0 0-.342-.4h-5.503a.59.59 0 0 0-.513.55l-1.766 5.831a.19.19 0 0 1-.114.152.182.182 0 0 1-.133-.152l-1.975-6.04a.535.535 0 0 0-.181-.275.689.689 0 0 0-.351-.066h-5.318a.394.394 0 0 0-.3.1.481.481 0 0 0-.095.332v13.125a.548.548 0 0 0 .133.39.469.469 0 0 0 .361.142zm18.082 0h2.526a.475.475 0 0 0 .342-.085.526.526 0 0 0 .076-.333v-8.395c0-.139.031-.209.095-.209a.214.214 0 0 1 .133.19l2.735 8.49a.447.447 0 0 0 .456.342h1.994a.467.467 0 0 0 .456-.342l2.735-8.642a.194.194 0 0 1 .152-.171c.05 0 .076.051.076.152v8.54a.406.406 0 0 0 .494.475h3.21a.707.707 0 0 0 .465-.123.544.544 0 0 0 .142-.428v-13.142a.329.329 0 0 0-.341-.4h-5.49a.59.59 0 0 0-.513.55l-1.766 5.831a.19.19 0 0 1-.114.152.182.182 0 0 1-.133-.152l-1.975-6.04a.535.535 0 0 0-.181-.275.689.689 0 0 0-.351-.066h-5.318a.394.394 0 0 0-.3.1.481.481 0 0 0-.095.332v13.125a.548.548 0 0 0 .133.39.469.469 0 0 0 .361.142zm17.588-13.657V135.7a.493.493 0 0 0 .114.361.556.556 0 0 0 .4.114h10.161a.464.464 0 0 0 .342-.114.41.41 0 0 0 .114-.3v-2.336a.346.346 0 0 0-.418-.361h-6.173a.227.227 0 0 1-.18-.057.333.333 0 0 1-.048-.209v-1.9a.243.243 0 0 1 .086-.19.315.315 0 0 1 .218-.076h3.496a.294.294 0 0 0 .342-.323v-2.355a.344.344 0 0 0-.4-.38h-3.419a.319.319 0 0 1-.247-.1.421.421 0 0 1-.095-.294v-1.615a.356.356 0 0 1 .437-.36h5.7a.445.445 0 0 0 .494-.513l.019-2.2a.329.329 0 0 0-.342-.4h-10.254a.356.356 0 0 0-.361.436zm21.71-.436a.36.36 0 0 0-.418.4v6.211c0 .165-.032.247-.095.247a.3.3 0 0 1-.209-.171l-4.559-6.344a.939.939 0 0 0-.275-.275.815.815 0 0 0-.371-.066h-3.1a.377.377 0 0 0-.417.436V135.8a.383.383 0 0 0 .474.38h2.572a.55.55 0 0 0 .37-.095.377.377 0 0 0 .085-.323v-6.914a.1.1 0 0 1 .057-.114.137.137 0 0 1 .133.076l5.224 7.085a.842.842 0 0 0 .237.228.578.578 0 0 0 .276.057h2.6a.494.494 0 0 0 .313-.095.3.3 0 0 0 .124-.247v-13.432a.269.269 0 0 0-.285-.322h-2.754zm5.052 0a.6.6 0 0 0-.4.1.489.489 0 0 0-.114.37v13.049a.6.6 0 0 0 .133.437.568.568 0 0 0 .418.133h5a8.665 8.665 0 0 0 4.122-.9 6.016 6.016 0 0 0 2.545-2.5 7.684 7.684 0 0 0 .855-3.685 6.686 6.686 0 0 0-1.9-4.986 8.1 8.1 0 0 0-5.6-2q-.55-.019-2.811-.019h-2.241zm3.988 2.982l1.14.076a2.975 2.975 0 0 1 2.165 1.063 4.5 4.5 0 0 1 .741 2.83 4.371 4.371 0 0 1-.978 3.182 3.874 3.874 0 0 1-2.859.978H210a.3.3 0 0 1-.209-.057.33.33 0 0 1-.057-.228v-7.579a.332.332 0 0 1 .048-.208.173.173 0 0 1 .142-.057zm18.064.8a.626.626 0 0 0 .36.228.325.325 0 0 0 .209-.076l2.071-1.5a.327.327 0 0 0 .133-.247.542.542 0 0 0-.133-.323 4.383 4.383 0 0 0-2.109-1.491 8.8 8.8 0 0 0-3.172-.56 7.432 7.432 0 0 0-3.077.6 4.857 4.857 0 0 0-2.051 1.633 3.963 3.963 0 0 0 .285 4.92 5.11 5.11 0 0 0 2.716 1.567l2.887.7a2.017 2.017 0 0 1 .893.4.813.813 0 0 1 .3.627.9.9 0 0 1-.618.807 3.945 3.945 0 0 1-1.68.3 3.879 3.879 0 0 1-1.767-.342 4.088 4.088 0 0 1-1.31-1.178.415.415 0 0 0-.342-.171.73.73 0 0 0-.38.133l-1.957 1.349a.427.427 0 0 0-.209.342.738.738 0 0 0 .095.285 4.67 4.67 0 0 0 2.384 1.814 10.1 10.1 0 0 0 3.808.693 8.38 8.38 0 0 0 3.22-.57 4.738 4.738 0 0 0 2.118-1.614 4.126 4.126 0 0 0 .74-2.451 4.054 4.054 0 0 0-.873-2.611 4.671 4.671 0 0 0-2.6-1.529l-3.153-.817q-1.216-.285-1.216-.969a.808.808 0 0 1 .475-.683 2.918 2.918 0 0 1 1.462-.285 3.4 3.4 0 0 1 1.51.266 3.487 3.487 0 0 1 .979.759z" fill-rule="evenodd"/></svg>