<?xml version="1.0" encoding="utf-8"?>
<!-- Generator: Adobe Illustrator 16.0.0, SVG Export Plug-In . SVG Version: 6.00 Build 0)  -->
<!DOCTYPE svg PUBLIC "-//W3C//DTD SVG 1.1//EN" "http://www.w3.org/Graphics/SVG/1.1/DTD/svg11.dtd">
<svg version="1.1" id="Layer_1" xmlns="http://www.w3.org/2000/svg" xmlns:xlink="http://www.w3.org/1999/xlink" x="0px" y="0px"
	 width="788px" height="160.93px" viewBox="30.445 197.21 788 160.93" enable-background="new 30.445 197.21 788 160.93"
	 xml:space="preserve">
<g>
	<path fill="#63A70A" d="M786.869,263.643c0,5.834-0.662,10.715-1.984,14.651c-1.334,3.925-3.188,7.526-5.551,10.801
		c-2.213,2.906-5.281,5.419-9.182,7.547c-3.904,2.119-8.336,3.182-13.266,3.182c-4.918,0-9.34-1.062-13.252-3.182
		c-3.906-2.127-6.969-4.641-9.189-7.547c-2.381-3.275-4.223-6.876-5.549-10.801c-1.32-3.936-1.961-8.817-1.961-14.651
		c0-5.822,0.641-10.714,1.961-14.639c1.326-3.924,3.168-7.527,5.549-10.796c2.223-2.917,5.283-5.448,9.189-7.556
		c3.912-2.127,8.334-3.181,13.252-3.181c4.928,0,9.361,1.054,13.266,3.181c3.9,2.108,6.969,4.639,9.182,7.556
		c2.363,3.269,4.217,6.872,5.551,10.796C786.207,252.928,786.869,257.82,786.869,263.643z M771.21,263.643
		c0-3.268-0.295-6.426-0.885-9.472c-0.564-3.041-1.799-5.676-3.68-7.884c-1.086-1.231-2.436-2.268-4.09-3.123
		c-1.643-0.837-3.51-1.253-5.67-1.253c-2.121,0-4.021,0.416-5.668,1.253c-1.643,0.854-3.004,1.892-4.064,3.123
		c-1.891,2.208-3.113,4.843-3.707,7.884c-0.576,3.046-0.865,6.205-0.865,9.472c0,3.269,0.289,6.42,0.865,9.478
		c0.594,3.046,1.816,5.677,3.707,7.874c1.061,1.241,2.422,2.284,4.064,3.122c1.646,0.832,3.547,1.253,5.668,1.253
		c2.16,0,4.027-0.421,5.67-1.253c1.654-0.838,3.004-1.881,4.09-3.122c1.881-2.197,3.113-4.828,3.68-7.874
		C770.916,270.063,771.21,266.911,771.21,263.643z"/>
	<path fill="#63A70A" d="M652.726,235.571c-2.051-2.055-4.635-3.695-7.676-4.832c-2.979-1.125-6.432-1.717-10.297-1.717h-26.762
		v69.126h14.742V276.73h11.963c3.828,0,7.291-0.568,10.334-1.693c3.025-1.154,5.609-2.806,7.695-4.903
		c2.043-2.104,3.646-4.681,4.686-7.645c1.061-2.917,1.566-6.168,1.566-9.648c0-3.508-0.508-6.765-1.566-9.654
		C656.375,240.205,654.791,237.646,652.726,235.571z M622.734,243.497h11.535c3.422,0,5.941,0.867,7.424,2.565
		c1.543,1.758,2.279,3.996,2.279,6.86c0,2.859-0.729,5.085-2.279,6.818c-1.475,1.664-3.965,2.514-7.424,2.514h-11.535V243.497z"/>
	<path fill="#63A70A" d="M717.193,265.218c2.309-3.678,3.479-8.083,3.479-13.069c0-2.975-0.463-5.875-1.402-8.617
		c-0.979-2.807-2.455-5.302-4.459-7.439c-1.971-2.144-4.49-3.866-7.512-5.149c-2.975-1.271-6.498-1.922-10.471-1.922h-28.674v69.13
		h15.01v-22.776h11.498l9.16,22.776h16.217l-10.58-25.751C712.599,270.808,715.191,268.388,717.193,265.218z M683.07,243.491h13.758
		c1.422,0,2.709,0.246,3.828,0.703c1.121,0.474,2.061,1.107,2.773,1.875c0.77,0.832,1.332,1.733,1.732,2.788
		c0.412,1.025,0.605,2.115,0.605,3.24c0,2.793-0.701,4.85-2.178,6.232c-1.488,1.448-3.711,2.18-6.588,2.18h-13.934v-17.018H683.07z"
		/>
	<path fill="#63A70A" d="M813.861,242.496c0,1.781-0.309,3.403-0.896,4.897c-0.613,1.482-1.465,2.765-2.543,3.82
		c-1.096,1.065-2.383,1.915-3.881,2.507c-1.502,0.609-3.123,0.908-4.887,0.908c-1.771,0-3.416-0.299-4.896-0.908
		c-1.49-0.592-2.768-1.441-3.861-2.507c-1.092-1.055-1.936-2.337-2.539-3.82c-0.605-1.494-0.912-3.116-0.912-4.897
		c0-1.758,0.307-3.386,0.926-4.875c0.615-1.482,1.463-2.758,2.561-3.843c1.074-1.077,2.365-1.91,3.869-2.524
		c1.5-0.603,3.123-0.897,4.855-0.897c1.762,0,3.371,0.294,4.875,0.897c1.467,0.615,2.768,1.458,3.846,2.542
		c1.096,1.096,1.967,2.372,2.547,3.854C813.552,239.11,813.861,240.738,813.861,242.496z M810.763,242.496
		c0-1.342-0.217-2.571-0.658-3.714c-0.441-1.125-1.064-2.109-1.867-2.936c-0.803-0.819-1.77-1.47-2.871-1.938
		c-1.102-0.476-2.354-0.721-3.711-0.721c-1.338,0-2.572,0.245-3.701,0.721c-1.109,0.468-2.082,1.119-2.873,1.938
		c-0.814,0.827-1.428,1.811-1.877,2.936c-0.455,1.143-0.66,2.372-0.66,3.714c0,1.335,0.205,2.584,0.66,3.72
		c0.449,1.143,1.061,2.133,1.852,2.952c0.803,0.838,1.746,1.477,2.861,1.934c1.125,0.462,2.369,0.708,3.738,0.708
		c1.336,0,2.572-0.253,3.682-0.708c1.133-0.493,2.1-1.131,2.9-1.957c0.803-0.826,1.426-1.822,1.867-2.947
		C810.546,245.055,810.763,243.808,810.763,242.496z M803.488,248.3l-1.633-3.953h-1.564v3.953h-3.047v-12.048h4.777
		c0.631,0,1.227,0.098,1.771,0.281c0.549,0.164,1.035,0.427,1.475,0.767c0.404,0.339,0.727,0.762,0.959,1.259
		c0.223,0.522,0.348,1.107,0.348,1.787c0,0.704-0.146,1.372-0.445,1.981c-0.305,0.615-0.791,1.089-1.426,1.416l1.988,4.558
		L803.488,248.3L803.488,248.3z M803.488,240.246c0-0.439-0.152-0.75-0.459-0.955c-0.283-0.199-0.613-0.293-1.008-0.293h-1.744
		v2.601h1.744c0.43,0,0.793-0.111,1.051-0.334C803.339,241.025,803.488,240.691,803.488,240.246z"/>
	<g>
		<path fill="#63A70A" d="M527.257,350.148c-0.268,0-0.543-0.047-0.807-0.148c-1.16-0.449-1.738-1.752-1.291-2.91l57.271-148.439
			c0.449-1.161,1.764-1.735,2.908-1.288c1.16,0.446,1.736,1.748,1.293,2.909l-57.273,148.438
			C529.013,349.601,528.16,350.148,527.257,350.148z"/>
	</g>
	<g>
		<path fill="#63A70A" d="M543.255,350.148c-0.271,0-0.547-0.047-0.811-0.148c-1.16-0.449-1.736-1.752-1.291-2.91l57.277-148.439
			c0.445-1.161,1.76-1.735,2.906-1.288c1.16,0.446,1.736,1.75,1.293,2.909l-57.279,148.438
			C545.009,349.601,544.156,350.148,543.255,350.148z"/>
	</g>
	<g>
		<g>
			<g>
				<path fill="#880063" d="M41.222,348.626v-21.809h10.65v2.186h-8.281v7.199h7.776v2.188h-7.776v8.049h8.348v2.188H41.222
					L41.222,348.626z"/>
				<path fill="#880063" d="M63.052,326.818h2.232v21.809h-2.153v-2.129h-0.06c-0.969,1.922-1.936,2.562-3.842,2.562
					c-4.971,0-4.58-7.123-4.633-8.557c-0.171-4.729,1.358-8.479,4.748-8.479c1.62,0,2.598,0.691,3.649,2.09h0.059V326.818z
					 M63.052,340.279c0-2.209-0.059-6.318-3.075-6.318c-1.887,0-3.12,1.521-3.12,6.486c0,3.494,0.123,6.664,3.208,6.664
					c2.319,0,2.987-2.992,2.987-4.826V340.279z"/>
				<path fill="#880063" d="M77.161,346.498h-0.052c-0.78,1.656-2.232,2.562-3.767,2.562c-2.353,0-3.814-1.281-3.814-4.129v-12.479
					h2.25v12.561c0,1.371,0.438,2.098,2.021,2.098c1.078,0,2.083-0.494,2.703-1.434c0.525-0.803,0.659-1.906,0.659-2.84v-10.387
					h2.246v16.176h-2.246V346.498L77.161,346.498z"/>
				<path fill="#880063" d="M85.044,341.232c0,2.121,0.143,5.879,3.028,5.879c2.439,0,2.665-2.158,2.779-4.129h2.133
					c-0.094,3.111-1.234,6.076-4.749,6.076c-4.829,0-5.506-4.127-5.506-8.309c0-3.963,0.609-8.727,5.454-8.727
					c3.176,0,4.708,2.525,4.678,5.52h-2.083c-0.041-1.77-0.483-3.584-2.625-3.584C84.871,333.96,85.044,338.943,85.044,341.232z"/>
				<path fill="#880063" d="M105.849,348.626c-0.162,0.021-0.329,0.049-0.501,0.109c-1.916,0.088-2.606-0.088-2.847-2.299h-0.059
					c-0.548,1.428-1.997,2.621-3.506,2.621c-3.146,0-4.06-1.803-4.06-4.738c0-0.615,0.084-2.936,2.267-3.926
					c1.277-0.582,4.467-1.805,4.75-2.027c0.483-0.389,0.428-1.021,0.428-1.873c0-1.83-0.67-2.533-2.504-2.533
					c-2.047,0-2.329,0.969-2.299,2.863h-2.022c-0.123-3.338,1.503-4.799,4.701-4.799c4.687,0,4.287,4.012,4.287,4.383v9.27
					c0,0.418-0.051,0.996,0.4,1.225c0.325,0.094,0.641,0.055,0.964,0.029L105.849,348.626L105.849,348.626z M102.154,339.894
					c-1.113,0.676-2.367,1.174-3.553,1.758c-1.06,0.479-1.403,1.678-1.403,2.785c0,1.623,0.405,2.674,2.221,2.674
					c0.847,0,2.735-0.672,2.735-3.291V339.894z"/>
				<path fill="#880063" d="M111.185,332.451h2.641v1.951h-2.608v11.016c0,0.561-0.202,1.256,1.04,1.256h1.52v1.953h-2.493
					c-1.33,0.021-2.319-0.207-2.319-2.648v-11.574h-2.191v-1.951h2.191v-4.381h2.22L111.185,332.451L111.185,332.451z"/>
				<path fill="#880063" d="M116.357,329.73v-2.912h2.255v2.912H116.357z M116.357,348.626v-16.176h2.255v16.176H116.357z"/>
				<path fill="#880063" d="M127.634,349.06c-3.421,0-5.656-2.104-5.656-9.066c0-4.885,1.752-7.969,5.656-7.969
					c3.879,0,5.653,3.084,5.653,7.969C133.287,346.994,131.107,349.06,127.634,349.06z M127.634,333.96
					c-2.319,0-3.336,1.873-3.336,6.752c0,3.811,0.711,6.398,3.336,6.398c2.677,0,3.335-2.59,3.335-6.398
					C130.969,335.833,129.98,333.96,127.634,333.96z"/>
				<path fill="#880063" d="M138.904,334.232h0.059c1.066-1.395,2.248-2.207,3.949-2.207c2.369,0,3.896,1.281,3.896,4.131v12.471
					h-2.268v-11.838c0-1.682-0.515-2.828-2.332-2.828c-0.826,0-1.625,0.336-2.229,0.91c-0.914,0.844-1.017,1.773-1.017,2.938v10.816
					h-2.252v-16.174h2.193L138.904,334.232L138.904,334.232z"/>
				<path fill="#880063" d="M160.608,348.626c-0.167,0.021-0.331,0.049-0.498,0.109c-1.909,0.088-2.626-0.088-2.852-2.299h-0.054
					c-0.524,1.428-1.996,2.621-3.491,2.621c-3.168,0-4.076-1.803-4.076-4.738c0-0.615,0.081-2.936,2.282-3.926
					c1.279-0.582,4.455-1.805,4.762-2.027c0.469-0.389,0.394-1.021,0.394-1.873c0-1.83-0.671-2.533-2.496-2.533
					c-2.047,0-2.334,0.969-2.305,2.863h-2.016c-0.099-3.338,1.526-4.799,4.698-4.799c4.698,0,4.3,4.012,4.3,4.383v9.27
					c0,0.418-0.062,0.996,0.398,1.225c0.314,0.094,0.651,0.055,0.955,0.029L160.608,348.626L160.608,348.626z M156.921,339.894
					c-1.123,0.676-2.37,1.174-3.577,1.758c-1.037,0.479-1.37,1.678-1.37,2.785c0,1.623,0.387,2.674,2.221,2.674
					c0.846,0,2.727-0.672,2.727-3.291L156.921,339.894L156.921,339.894z"/>
				<path fill="#880063" d="M163.323,348.626v-21.809h2.241v21.809H163.323z"/>
				<path fill="#880063" d="M176.929,348.626v-21.809h5.612c1.646,0,3.728,0.209,4.977,1.432c1.269,1.213,1.746,2.904,1.746,4.645
					c0,2.408-0.726,4.766-3.029,5.842c-1.485,0.643-3.899,0.643-5.519,0.643h-1.426v9.248H176.929z M179.29,337.199h2.306
					c3.243-0.027,5.244-0.498,5.205-4.246c0-3.518-2.191-4.01-5.064-3.949h-2.446L179.29,337.199L179.29,337.199z"/>
				<path fill="#880063" d="M197.309,349.06c-3.403,0-5.646-2.104-5.646-9.066c0-4.885,1.757-7.969,5.646-7.969
					c3.901,0,5.664,3.084,5.664,7.969C202.973,346.994,200.783,349.06,197.309,349.06z M197.309,333.96
					c-2.305,0-3.333,1.873-3.333,6.752c0,3.811,0.72,6.398,3.333,6.398c2.665,0,3.328-2.59,3.328-6.398
					C200.637,335.833,199.676,333.96,197.309,333.96z"/>
				<path fill="#880063" d="M208.779,335.107h0.052c0.949-2.131,2.286-3.023,4.643-2.816v2.26c-2.903-0.52-4.606,1.34-4.606,4.277
					v9.799h-2.248v-16.176h2.159V335.107z"/>
				<path fill="#880063" d="M218.334,332.451h2.652v1.951h-2.609v11.016c0,0.561-0.203,1.256,1.053,1.256h1.51v1.953h-2.49
					c-1.33,0.021-2.311-0.207-2.311-2.648v-11.574h-2.211v-1.951h2.211v-4.381h2.194L218.334,332.451L218.334,332.451z"/>
				<path fill="#880063" d="M233.342,348.626c-0.167,0.021-0.343,0.049-0.516,0.109c-1.9,0.088-2.613-0.088-2.847-2.299h-0.053
					c-0.53,1.428-1.988,2.621-3.497,2.621c-3.158,0-4.071-1.803-4.071-4.738c0-0.615,0.082-2.936,2.279-3.926
					c1.279-0.582,4.475-1.805,4.76-2.027c0.475-0.389,0.421-1.021,0.421-1.873c0-1.83-0.685-2.533-2.507-2.533
					c-2.036,0-2.321,0.969-2.311,2.863h-2c-0.115-3.338,1.49-4.799,4.689-4.799c4.683,0,4.288,4.012,4.288,4.383v9.27
					c0,0.418-0.061,0.996,0.396,1.225c0.319,0.094,0.663,0.055,0.97,0.029L233.342,348.626L233.342,348.626z M229.645,339.894
					c-1.106,0.676-2.369,1.174-3.564,1.758c-1.04,0.479-1.379,1.678-1.379,2.785c0,1.623,0.395,2.674,2.214,2.674
					c0.863,0,2.729-0.672,2.729-3.291V339.894z"/>
				<path fill="#880063" d="M236.057,348.626v-21.809h2.246v21.809H236.057z"/>
				<path fill="#880063" d="M249.855,334.402h-2.308v-1.951h2.275v-1.354c0-0.967,0-2.301,0.571-3.125
					c0.739-1.062,2.077-1.357,4.18-1.154v1.949c-1.821-0.176-2.469,0-2.469,1.982v1.701h2.469v1.951h-2.469v14.223h-2.25
					L249.855,334.402L249.855,334.402z"/>
				<path fill="#880063" d="M262.125,349.06c-3.413,0-5.662-2.104-5.662-9.066c0-4.885,1.77-7.969,5.662-7.969
					s5.665,3.084,5.665,7.969C267.79,346.994,265.584,349.06,262.125,349.06z M262.125,333.96c-2.305,0-3.328,1.873-3.328,6.752
					c0,3.811,0.703,6.398,3.328,6.398c2.671,0,3.33-2.59,3.33-6.398C265.455,335.833,264.494,333.96,262.125,333.96z"/>
				<path fill="#880063" d="M273.029,335.107h0.053c0.935-2.131,2.282-3.023,4.637-2.816v2.26c-2.903-0.52-4.608,1.34-4.608,4.277
					v9.799h-2.249v-16.176h2.167V335.107z"/>
				<path fill="#880063" d="M293.688,326.388c6.235,0,7.004,5.873,6.974,10.869c-0.029,6.039-0.794,11.883-7.027,11.883
					c-6.235,0-6.984-5.844-7.038-11.883C286.597,332.261,287.355,326.388,293.688,326.388z M293.58,328.57
					c-3.65,0-4.555,3.881-4.525,8.738c0.015,6.311,0.653,9.646,4.58,9.646c3.92,0,4.546-3.336,4.579-9.646
					C298.246,332.451,297.331,328.57,293.58,328.57z"/>
				<path fill="#880063" d="M306.467,334.232h0.053c1.084-1.395,2.262-2.207,3.957-2.207c2.378,0,3.913,1.281,3.913,4.131v12.471
					h-2.261v-11.838c0-1.682-0.542-2.828-2.351-2.828c-0.824,0-1.623,0.336-2.227,0.91c-0.911,0.844-1.031,1.773-1.031,2.938v10.816
					h-2.237v-16.174h2.185L306.467,334.232L306.467,334.232z"/>
				<path fill="#880063" d="M319.909,341.232c0,2.121,0.137,5.879,3.013,5.879c2.455,0,2.684-2.158,2.795-4.129h2.126
					c-0.091,3.111-1.224,6.076-4.745,6.076c-4.836,0-5.513-4.127-5.513-8.309c0-3.963,0.607-8.727,5.451-8.727
					c3.173,0,4.716,2.525,4.689,5.52h-2.094c-0.026-1.77-0.495-3.584-2.618-3.584C319.727,333.96,319.909,338.943,319.909,341.232z"
					/>
				<path fill="#880063" d="M335.962,349.06c-3.417,0-5.665-2.104-5.665-9.066c0-4.885,1.768-7.969,5.665-7.969
					c3.896,0,5.659,3.084,5.659,7.969C341.621,346.994,339.427,349.06,335.962,349.06z M335.962,333.96
					c-2.312,0-3.344,1.873-3.344,6.752c0,3.811,0.728,6.398,3.344,6.398c2.671,0,3.331-2.59,3.331-6.398
					C339.292,335.833,338.328,333.96,335.962,333.96z"/>
				<path fill="#880063" d="M345.013,348.626v-21.809h2.237v21.809H345.013z"/>
				<path fill="#880063" d="M356.269,349.06c-3.392,0-5.642-2.104-5.642-9.066c0-4.885,1.764-7.969,5.642-7.969
					c3.907,0,5.686,3.084,5.686,7.969C361.955,346.994,359.757,349.06,356.269,349.06z M356.269,333.96
					c-2.285,0-3.307,1.873-3.307,6.752c0,3.811,0.697,6.398,3.307,6.398c2.686,0,3.335-2.59,3.335-6.398
					C359.604,335.833,358.644,333.96,356.269,333.96z"/>
				<path fill="#880063" d="M373.155,332.451h2.264v14.223c0,1.977-0.167,3.482-1.221,5.203c-0.979,1.594-2.607,2.238-4.341,2.238
					c-2.522,0-4.406-1.186-4.716-3.959h2.194c0.193,1.461,1.104,2.014,2.469,2.014c3.638,0,3.275-3.666,3.295-5.441h-0.049
					c-0.944,1.658-1.965,2.332-3.418,2.332c-2.988,0-5.058-2.129-5.058-8.639c0-3.396,0.819-8.396,5.012-8.396
					c1.443,0,2.759,0.727,3.514,2.271h0.057v-1.846H373.155z M366.904,340.533c0,3.955,0.658,6.578,2.87,6.578
					c3.427,0,3.381-4.334,3.381-6.92c0-3.197-0.65-6.23-3.158-6.23C367.009,333.96,366.904,338.367,366.904,340.533z"/>
				<path fill="#880063" d="M379.445,329.73v-2.912h2.25v2.912H379.445z M379.445,348.626v-16.176h2.25v16.176H379.445z"/>
				<path fill="#880063" d="M392.219,336.789c0.095-1.918-0.591-2.828-2.504-2.828c-1.589,0-2.495,0.764-2.495,2.447
					c0,2.1,1.675,2.357,3.209,3.023c2.287,1.047,4.558,1.635,4.558,4.646c0,3.09-2.1,5.006-5.351,4.98
					c-1.397,0.023-3.096-0.471-3.933-1.686c-0.944-1.279-0.892-2.361-0.892-3.467h2.15c-0.075,1.977,0.565,3.203,2.674,3.203
					c1.823,0,3.028-0.746,3.028-2.736c0-2.297-2.271-2.502-3.9-3.197c-2.464-0.934-3.863-1.768-3.863-4.596
					c0-2.787,1.889-4.557,4.613-4.557c3.151,0,4.97,1.461,4.912,4.764h-2.206V336.789z"/>
				<path fill="#880063" d="M400.798,332.451h2.648v1.951h-2.619v11.016c0,0.561-0.202,1.256,1.058,1.256h1.499v1.953h-2.466
					c-1.338,0.021-2.33-0.207-2.33-2.648v-11.574h-2.198v-1.951h2.198v-4.381h2.21V332.451L400.798,332.451z"/>
				<path fill="#880063" d="M412.566,336.789c0.081-1.918-0.608-2.828-2.512-2.828c-1.585,0-2.501,0.764-2.501,2.447
					c0,2.1,1.675,2.357,3.213,3.023c2.269,1.047,4.542,1.635,4.542,4.646c0,3.09-2.102,5.006-5.351,4.98
					c-1.385,0.023-3.099-0.471-3.916-1.686c-0.944-1.279-0.887-2.361-0.887-3.467h2.135c-0.083,1.977,0.579,3.203,2.668,3.203
					c1.824,0,3.017-0.746,3.017-2.736c0-2.297-2.269-2.502-3.883-3.197c-2.461-0.934-3.885-1.768-3.885-4.596
					c0-2.787,1.917-4.557,4.638-4.557c3.13,0,4.959,1.461,4.902,4.764h-2.18V336.789z"/>
			</g>
		</g>
		<path fill="#880063" d="M95.934,262.816c0,5.835-0.642,10.715-1.959,14.651c-1.324,3.926-3.155,7.527-5.545,10.802
			c-2.226,2.906-5.291,5.419-9.18,7.546c-3.92,2.121-8.335,3.183-13.262,3.183c-4.941,0-9.358-1.062-13.268-3.183
			c-3.894-2.127-6.96-4.641-9.177-7.546c-2.37-3.274-4.242-6.876-5.548-10.802c-1.313-3.936-1.974-8.816-1.974-14.651
			c0-5.822,0.661-10.714,1.974-14.639c1.306-3.925,3.178-7.527,5.548-10.796c2.217-2.917,5.284-5.448,9.177-7.557
			c3.909-2.127,8.327-3.182,13.268-3.182c4.927,0,9.341,1.055,13.262,3.182c3.89,2.108,6.954,4.639,9.18,7.557
			c2.39,3.269,4.221,6.871,5.545,10.796C95.292,252.103,95.934,256.994,95.934,262.816z M80.295,262.816
			c0-3.268-0.293-6.426-0.876-9.472c-0.559-3.041-1.807-5.676-3.703-7.884c-1.069-1.231-2.428-2.268-4.062-3.123
			c-1.644-0.838-3.53-1.253-5.668-1.253c-2.135,0-4.039,0.416-5.668,1.253c-1.661,0.855-3.018,1.892-4.077,3.123
			c-1.898,2.208-3.128,4.843-3.697,7.884c-0.595,3.046-0.854,6.205-0.854,9.472c0,3.269,0.26,6.421,0.854,9.479
			c0.569,3.046,1.798,5.677,3.697,7.874c1.06,1.241,2.417,2.284,4.077,3.122c1.629,0.832,3.533,1.253,5.668,1.253
			c2.138,0,4.024-0.422,5.668-1.253c1.634-0.838,2.992-1.88,4.062-3.122c1.896-2.197,3.144-4.828,3.703-7.874
			C80.002,269.237,80.295,266.085,80.295,262.816z"/>
		<path fill="#880063" d="M146.021,297.273v-42.171c0-4.054-0.75-7.241-2.25-9.52c-1.472-2.295-4.272-3.433-8.364-3.433
			c-2.725,0-4.979,0.809-6.784,2.438c-1.812,1.628-3.264,3.732-4.323,6.286c-1.154,2.729-1.78,5.746-1.916,9.061
			c-0.114,3.292-0.178,6.404-0.178,9.303v28.036h-15.421v-68.908h12.964l1.101,8.969c1.881-3.655,4.593-6.351,8.068-8.084
			c3.506-1.74,7.101-2.607,10.806-2.607c3.45,0,6.525,0.615,9.17,1.857c2.686,1.236,4.927,2.935,6.792,5.102
			c1.848,2.162,3.263,4.751,4.248,7.75c1.007,2.994,1.499,6.315,1.499,9.937v45.984H146.021z"/>
		<path fill="#880063" d="M226.848,280.907c-0.823,2.606-1.965,4.926-3.442,6.959c-2.234,3.004-5.214,5.559-8.936,7.68
			c-3.744,2.12-8.075,3.18-13.014,3.18c-4.938,0-9.335-1.078-13.201-3.251c-3.852-2.149-6.903-4.692-9.126-7.609
			c-2.391-3.28-4.145-7.024-5.299-11.259c-1.143-4.247-1.729-8.887-1.729-13.924c0-5.027,0.586-9.667,1.729-13.907
			c1.155-4.235,2.909-8.003,5.299-11.266c2.223-2.911,5.274-5.455,9.126-7.615c3.866-2.161,8.263-3.251,13.201-3.251
			c4.939,0,9.271,1.055,13.014,3.182c3.722,2.108,6.701,4.68,8.936,7.685c1.477,2.027,2.619,4.341,3.442,6.947
			c0.827,2.607,1.31,5.284,1.488,8.026h-15.157c-0.103-1.219-0.302-2.361-0.622-3.41c-0.333-1.042-0.741-2.009-1.224-2.876
			c-0.914-1.494-2.203-2.712-3.837-3.673c-1.652-0.956-3.649-1.441-6.04-1.441c-2.141,0-3.975,0.398-5.485,1.189
			c-1.528,0.786-2.821,1.798-3.891,3.028c-1.888,2.191-3.063,4.827-3.567,7.908c-0.512,3.065-0.743,6.234-0.743,9.474
			c0,3.25,0.231,6.396,0.743,9.413c0.503,3.034,1.679,5.647,3.567,7.838c1.069,1.236,2.362,2.272,3.891,3.111
			c1.511,0.826,3.344,1.236,5.485,1.236c2.391,0,4.388-0.475,6.04-1.442c1.634-0.96,2.923-2.179,3.837-3.661
			c0.483-0.867,0.891-1.833,1.224-2.876c0.32-1.048,0.519-2.179,0.622-3.41h15.157C228.158,275.628,227.674,278.311,226.848,280.907
			z"/>
		<path fill="#880063" d="M300.557,262.816c0,5.835-0.676,10.715-1.977,14.651c-1.312,3.926-3.17,7.527-5.542,10.802
			c-2.218,2.906-5.287,5.419-9.195,7.546c-3.91,2.121-8.327,3.183-13.262,3.183c-4.926,0-9.35-1.062-13.25-3.183
			c-3.898-2.127-6.962-4.641-9.197-7.546c-2.379-3.274-4.218-6.876-5.547-10.802c-1.301-3.936-1.972-8.816-1.972-14.651
			c0-5.822,0.671-10.714,1.972-14.639c1.329-3.925,3.168-7.527,5.547-10.796c2.235-2.917,5.298-5.448,9.197-7.557
			c3.901-2.127,8.324-3.182,13.25-3.182c4.936,0,9.353,1.055,13.262,3.182c3.908,2.108,6.977,4.639,9.195,7.557
			c2.372,3.269,4.23,6.871,5.542,10.796C299.88,252.103,300.557,256.994,300.557,262.816z M284.89,262.816
			c0-3.268-0.297-6.426-0.859-9.472c-0.576-3.041-1.812-5.676-3.702-7.884c-1.069-1.231-2.431-2.268-4.072-3.123
			c-1.649-0.838-3.521-1.253-5.677-1.253c-2.124,0-4.033,0.416-5.67,1.253c-1.646,0.855-3.008,1.892-4.065,3.123
			c-1.89,2.208-3.118,4.843-3.694,7.884c-0.574,3.046-0.87,6.205-0.87,9.472c0,3.269,0.296,6.421,0.87,9.479
			c0.577,3.046,1.804,5.677,3.694,7.874c1.057,1.241,2.419,2.284,4.065,3.122c1.637,0.832,3.546,1.253,5.67,1.253
			c2.156,0,4.027-0.422,5.677-1.253c1.641-0.838,3.003-1.88,4.072-3.122c1.889-2.197,3.125-4.828,3.702-7.874
			C284.593,269.237,284.89,266.085,284.89,262.816z"/>
		<path fill="#880063" d="M334.872,283.36c-2.598,0-4.27-0.598-4.985-1.797c-0.729-1.195-1.102-2.795-1.102-4.822v-75.282h-15.652
			v78.064c0,6.52,1.587,11.259,4.792,14.165c3.211,2.917,7.437,4.369,12.712,4.369c0.422,0,0.753-0.01,1.119-0.028l5.665-14.394
			v-0.409L334.872,283.36z"/>
		<path fill="#880063" d="M403.532,262.816c0,5.835-0.683,10.715-1.996,14.651c-1.321,3.926-3.157,7.527-5.545,10.802
			c-2.217,2.906-5.278,5.419-9.17,7.546c-3.919,2.121-8.336,3.183-13.271,3.183c-4.93,0-9.345-1.062-13.256-3.183
			c-3.904-2.127-6.962-4.641-9.197-7.546c-2.373-3.274-4.215-6.876-5.536-10.802c-1.325-3.936-1.977-8.816-1.977-14.651
			c0-5.822,0.652-10.714,1.977-14.639c1.321-3.925,3.163-7.527,5.536-10.796c2.235-2.917,5.292-5.448,9.197-7.557
			c3.911-2.127,8.327-3.182,13.256-3.182c4.935,0,9.352,1.055,13.271,3.182c3.893,2.108,6.953,4.639,9.17,7.557
			c2.388,3.269,4.224,6.871,5.545,10.796C402.849,252.103,403.532,256.994,403.532,262.816z M387.853,262.816
			c0-3.268-0.282-6.426-0.87-9.472c-0.557-3.041-1.804-5.676-3.688-7.884c-1.066-1.231-2.434-2.268-4.074-3.123
			c-1.649-0.838-3.525-1.253-5.671-1.253c-2.139,0-4.036,0.416-5.679,1.253c-1.631,0.855-2.987,1.892-4.048,3.123
			c-1.889,2.208-3.131,4.843-3.729,7.884c-0.556,3.046-0.849,6.205-0.849,9.472c0,3.269,0.292,6.421,0.849,9.479
			c0.598,3.046,1.839,5.677,3.729,7.874c1.061,1.241,2.417,2.284,4.048,3.122c1.644,0.832,3.541,1.253,5.679,1.253
			c2.146,0,4.022-0.422,5.671-1.253c1.64-0.838,3.007-1.88,4.074-3.122c1.884-2.197,3.131-4.828,3.688-7.874
			C387.571,269.237,387.853,266.085,387.853,262.816z"/>
		<path fill="#880063" d="M466.158,287.294c-1.498-1.096-3.111-1.939-4.891-2.531c-1.777-0.585-3.562-1.024-5.416-1.335
			c-1.873-0.276-3.66-0.448-5.441-0.495c-1.768-0.044-3.465-0.062-5.119-0.062h-10.592c-1.648,0-3.225-0.317-4.756-0.958
			c-1.525-0.622-2.279-1.907-2.279-3.84c0-1.09,0.346-2.035,1.049-2.835c0.688-0.808,1.416-1.415,2.164-1.839
			c3.287,1.198,6.75,1.771,10.359,1.771c3.451,0,6.762-0.544,9.93-1.634c3.146-1.102,5.922-2.655,8.312-4.677
			c2.383-2.013,4.311-4.5,5.752-7.448c1.424-2.947,2.15-6.31,2.15-10.097c0-4.206-1.105-8.155-3.318-11.853
			c0.072-0.275,6.832-16.549,6.832-16.549c-0.865,0-1.562,0-2.041,0c-2.695,0-5.229,0.652-7.523,1.957
			c-2.297,1.309-4.16,3.402-5.543,6.247c-2.131-1.263-4.434-2.254-6.91-2.967c-2.467-0.708-5.01-1.066-7.641-1.066
			c-3.609,0-7.021,0.521-10.174,1.579c-3.172,1.037-5.939,2.587-8.326,4.613c-2.39,2.013-4.282,4.521-5.667,7.499
			c-1.395,2.991-2.092,6.462-2.092,10.422c0,3.356,0.566,6.397,1.713,9.082c1.143,2.689,2.719,5.041,4.69,7.062
			c-5.118,3.208-7.651,7.631-7.651,13.266c0,2.185,0.55,4.304,1.678,6.365c1.104,2.071,2.684,3.693,4.734,4.859
			c-2.463,1.273-4.354,3.095-5.662,5.501c-1.334,2.399-1.989,5.026-1.989,7.883c0,3.123,0.688,5.846,2.044,8.205
			c1.345,2.352,3.266,4.416,5.732,6.191c3.368,2.424,7.007,3.947,10.923,4.543c3.896,0.574,7.816,0.885,11.764,0.885
			c3.625,0,7.266-0.344,10.924-1.018c3.65-0.67,6.955-1.83,9.912-3.477c2.955-1.629,5.395-3.871,7.289-6.752
			c1.891-2.857,2.83-6.432,2.83-10.719c0-3.201-0.605-6.151-1.801-8.841C470.919,291.541,468.927,289.233,466.158,287.294z
			 M432.906,242.407c2.018-2.299,4.787-3.464,8.33-3.464c3.527,0,6.309,1.166,8.324,3.464c2.01,2.326,2.998,5.252,2.998,8.788
			c0,3.526-0.988,6.438-2.998,8.695c-2.016,2.274-4.797,3.416-8.324,3.416c-3.543,0-6.312-1.142-8.33-3.416
			c-2.006-2.258-3.027-5.169-3.027-8.695C429.878,247.659,430.9,244.733,432.906,242.407z M457.568,308.56
			c-1.189,1.227-2.65,2.117-4.373,2.715c-1.729,0.582-3.582,0.945-5.539,1.066c-1.979,0.139-3.748,0.193-5.318,0.193
			c-1.48,0-3.176-0.074-5.055-0.248c-1.869-0.176-3.658-0.584-5.307-1.197c-1.643-0.645-3.014-1.537-4.127-2.721
			c-1.111-1.174-1.656-2.818-1.656-4.92c0-2.105,0.545-3.848,1.656-5.229c1.113-1.395,2.484-2.347,4.127-2.848h12.09
			c1.486,0,3.102,0.047,4.873,0.121c1.775,0.083,3.41,0.38,4.938,0.902c1.506,0.497,2.797,1.291,3.873,2.382
			c1.082,1.096,1.604,2.645,1.604,4.672C459.355,305.628,458.767,307.332,457.568,308.56z"/>
		<path fill="#880063" d="M526.05,229.804l-16.027,48.458l-16.766-48.458h-16.891l25.297,66.887l-11.375,28.234
			c1.062,0.082,2.215,0.111,3.465,0.111c2.789,0,5.24-0.438,7.316-1.342c2.109-0.906,3.947-2.125,5.502-3.678
			c1.545-1.533,2.898-3.328,4.012-5.348c1.102-2.018,2.068-4.137,2.877-6.393l28.248-78.475H526.05V229.804z"/>
	</g>
</g>
</svg>
