<svg xmlns="http://www.w3.org/2000/svg" width="300" height="175"><rect data-name="Rounded Rectangle 2 copy 4" x="98.5" y="136.531" width="97.031" height="21.969" rx="5" ry="5" fill="#fff" stroke="#f5a81c" stroke-linejoin="round"/><path data-name="Learn more" d="M114.97 152.546v-1.5h-4.534v-9.206h-1.75v10.708h6.284zm6.222.022a5.294 5.294 0 0 0 1.275-.425v-1.4a6.981 6.981 0 0 1-1.33.45 6.2 6.2 0 0 1-1.336.136 2.216 2.216 0 0 1-1.692-.634 2.654 2.654 0 0 1-.637-1.813h5.4v-.93a3.722 3.722 0 0 0-.931-2.68 3.336 3.336 0 0 0-2.534-.974 3.414 3.414 0 0 0-2.717 1.135 4.592 4.592 0 0 0-.989 3.12 4.183 4.183 0 0 0 1.066 3.036 3.916 3.916 0 0 0 2.955 1.1 7.809 7.809 0 0 0 1.47-.121zm-.5-6.449a2.238 2.238 0 0 1 .484 1.519H117.5a2.479 2.479 0 0 1 .589-1.516 1.733 1.733 0 0 1 1.315-.52 1.65 1.65 0 0 1 1.29.517zm9.98 6.427v-5.457a2.643 2.643 0 0 0-.787-2.117 3.507 3.507 0 0 0-2.333-.673 6.624 6.624 0 0 0-1.48.179 6 6 0 0 0-1.443.524l.557 1.23a9.024 9.024 0 0 1 1.1-.432 3.887 3.887 0 0 1 1.194-.183 1.481 1.481 0 0 1 1.12.383 1.639 1.639 0 0 1 .362 1.161v.432l-1.4.044a5.36 5.36 0 0 0-2.834.7 2.142 2.142 0 0 0-.93 1.89 2.412 2.412 0 0 0 .67 1.824 2.581 2.581 0 0 0 1.864.644 3.73 3.73 0 0 0 1.523-.267 3.318 3.318 0 0 0 1.18-1.007h.065l.344 1.128h1.231zm-4.761-1.469a1.082 1.082 0 0 1-.322-.839 1.234 1.234 0 0 1 .553-1.109 3.56 3.56 0 0 1 1.769-.407l1.04-.044v.7a1.9 1.9 0 0 1-.568 1.468 2.132 2.132 0 0 1-1.5.524 1.384 1.384 0 0 1-.97-.293zm9.427-6.354a3.216 3.216 0 0 0-1.051 1.15h-.087l-.227-1.428h-1.348v8.1h1.721v-4.234a2.435 2.435 0 0 1 .641-1.75 2.206 2.206 0 0 1 1.674-.674 3.237 3.237 0 0 1 .762.088l.168-1.6a4.135 4.135 0 0 0-.857-.073 2.5 2.5 0 0 0-1.394.421zm10.43 2.542q0-2.967-2.915-2.966a3.5 3.5 0 0 0-1.494.314 2.4 2.4 0 0 0-1.04.894h-.088l-.242-1.062h-1.347v8.1h1.721v-4.035a3.56 3.56 0 0 1 .5-2.161 1.906 1.906 0 0 1 1.6-.644 1.458 1.458 0 0 1 1.2.461 2.178 2.178 0 0 1 .377 1.4v4.981h1.729v-5.281zm12.218.989a3.227 3.227 0 0 1 .465-1.923 1.706 1.706 0 0 1 1.468-.626 1.307 1.307 0 0 1 1.1.458 2.25 2.25 0 0 1 .355 1.387v5h1.726v-5.281a3.243 3.243 0 0 0-.663-2.234 2.722 2.722 0 0 0-2.113-.732 3.214 3.214 0 0 0-1.494.336 2.472 2.472 0 0 0-1.011.938h-.119a2.462 2.462 0 0 0-2.476-1.274 3.163 3.163 0 0 0-1.409.314 2.237 2.237 0 0 0-.978.894h-.088l-.242-1.062h-1.348v8.1h1.722v-4.039a3.8 3.8 0 0 1 .465-2.157 1.676 1.676 0 0 1 1.461-.648 1.3 1.3 0 0 1 1.1.458 2.265 2.265 0 0 1 .351 1.387v5h1.729v-4.292zm13.224-2.824a3.57 3.57 0 0 0-2.783-1.131 3.663 3.663 0 0 0-2.849 1.1 4.393 4.393 0 0 0-1.011 3.077 5 5 0 0 0 .469 2.226 3.375 3.375 0 0 0 1.34 1.472 3.882 3.882 0 0 0 2.007.513 3.646 3.646 0 0 0 2.834-1.113 4.42 4.42 0 0 0 1.018-3.1 4.368 4.368 0 0 0-1.023-3.044zm-4.384.993a1.761 1.761 0 0 1 1.571-.718q2.066 0 2.066 2.776 0 2.805-2.051 2.805-2.073 0-2.073-2.805a3.656 3.656 0 0 1 .489-2.058zm9.651-1.7a3.207 3.207 0 0 0-1.051 1.15h-.086l-.227-1.428h-1.348v8.1h1.721v-4.234a2.435 2.435 0 0 1 .641-1.75 2.2 2.2 0 0 1 1.674-.674 3.229 3.229 0 0 1 .761.088l.169-1.6a4.141 4.141 0 0 0-.857-.073 2.5 2.5 0 0 0-1.395.421zm8.313 7.845a5.287 5.287 0 0 0 1.274-.425v-1.4a6.95 6.95 0 0 1-1.329.45 6.2 6.2 0 0 1-1.337.136 2.219 2.219 0 0 1-1.692-.634 2.664 2.664 0 0 1-.637-1.813h5.4v-.93a3.721 3.721 0 0 0-.93-2.68 3.336 3.336 0 0 0-2.534-.974 3.413 3.413 0 0 0-2.717 1.135 4.587 4.587 0 0 0-.989 3.12 4.187 4.187 0 0 0 1.065 3.036 3.92 3.92 0 0 0 2.956 1.1 7.817 7.817 0 0 0 1.472-.121zm-.5-6.449a2.243 2.243 0 0 1 .483 1.519H181.1a2.479 2.479 0 0 1 .589-1.516 1.733 1.733 0 0 1 1.315-.52 1.652 1.652 0 0 1 1.29.517z" fill-rule="evenodd"/></svg>