<svg xmlns="http://www.w3.org/2000/svg" width="300" height="157"><path data-name="Category 1: Based upon high-level evidence, there is uniform" d="M34.362 70.786a12.149 12.149 0 0 1 1.209.5l.729-1.848a7.206 7.206 0 0 0-3.135-.754 5.167 5.167 0 0 0-2.67.67 4.393 4.393 0 0 0-1.747 1.926 6.644 6.644 0 0 0-.608 2.926 6 6 0 0 0 1.238 4.069 4.491 4.491 0 0 0 3.574 1.417 7.585 7.585 0 0 0 2.944-.549v-1.9a8.495 8.495 0 0 1-2.732.564q-2.688 0-2.688-3.582a4.481 4.481 0 0 1 .7-2.684 2.314 2.314 0 0 1 1.985-.963 3.606 3.606 0 0 1 1.201.208zm9.95 8.76v-5.457a2.653 2.653 0 0 0-.879-2.183 3.905 3.905 0 0 0-2.527-.718 6.658 6.658 0 0 0-3.135.74l.74 1.509a5.807 5.807 0 0 1 2.307-.593 1.114 1.114 0 0 1 1.274 1.245v.359l-1.421.044a5.283 5.283 0 0 0-2.75.685 2.161 2.161 0 0 0-.911 1.923 2.587 2.587 0 0 0 .678 1.919 2.516 2.516 0 0 0 1.857.674 3.752 3.752 0 0 0 1.556-.275 3.3 3.3 0 0 0 1.161-.985h.058l.432 1.113h1.56zm-2.219-3.12a1.569 1.569 0 0 1-.465 1.186 1.717 1.717 0 0 1-1.241.447.9.9 0 0 1-1.084-.945 1.1 1.1 0 0 1 .476-.981 2.768 2.768 0 0 1 1.45-.352l.864-.029v.674zm6.812 1.26a.872.872 0 0 1-.267-.7v-3.952h2.292v-1.677h-2.292v-1.743H47.21l-.645 1.728-1.23.747v.945H46.4v3.948a2.948 2.948 0 0 0 .612 2.032 2.51 2.51 0 0 0 1.952.677 5.014 5.014 0 0 0 2.051-.374v-1.661a4.839 4.839 0 0 1-1.406.256 1.055 1.055 0 0 1-.704-.227zm7.837-4.442a1.863 1.863 0 0 1 .432 1.278H54.04a2.085 2.085 0 0 1 .461-1.278 1.417 1.417 0 0 1 1.113-.451 1.463 1.463 0 0 1 1.129.45zm.813 6.306a5.243 5.243 0 0 0 1.252-.436v-1.729a7 7 0 0 1-1.377.491 6.144 6.144 0 0 1-1.4.154 1.984 1.984 0 0 1-1.479-.535 2.15 2.15 0 0 1-.564-1.487h5.281v-1.084a3.741 3.741 0 0 0-.967-2.732 3.606 3.606 0 0 0-2.7-.989 3.664 3.664 0 0 0-2.846 1.124 4.544 4.544 0 0 0-1.029 3.182 4.132 4.132 0 0 0 1.113 3.091 4.226 4.226 0 0 0 3.091 1.091 7.9 7.9 0 0 0 1.625-.142zm7.35-8.192q-.132-.029-.6-.092a6.393 6.393 0 0 0-.817-.062 3.769 3.769 0 0 0-2.49.732 2.557 2.557 0 0 0-.872 2.073 2.719 2.719 0 0 0 .377 1.45 2.2 2.2 0 0 0 1.022.894 3.135 3.135 0 0 0-.784.612 1.179 1.179 0 0 0-.015 1.487 1.494 1.494 0 0 0 .6.48 2.621 2.621 0 0 0-1.355.71 1.752 1.752 0 0 0-.461 1.238 1.9 1.9 0 0 0 .9 1.674 4.761 4.761 0 0 0 2.618.6 6.237 6.237 0 0 0 3.439-.791 2.52 2.52 0 0 0 1.2-2.227 2.068 2.068 0 0 0-.707-1.7 3.175 3.175 0 0 0-2.055-.579h-1.391q-1.23 0-1.23-.483a.743.743 0 0 1 .344-.586l.33.037.4.022a3.981 3.981 0 0 0 2.553-.736 2.485 2.485 0 0 0 .919-2.054 2.235 2.235 0 0 0-.352-1.231l1.282-.329v-1.14h-2.854zm-3.05 8.58a1.752 1.752 0 0 1 1.029-.289h1.157a3.3 3.3 0 0 1 1.245.176.638.638 0 0 1 .4.637 1 1 0 0 1-.681.9 4.4 4.4 0 0 1-1.882.33 2.438 2.438 0 0 1-1.241-.264.809.809 0 0 1-.443-.725.892.892 0 0 1 .416-.766zm1.63-7.379q1.216 0 1.216 1.48a1.712 1.712 0 0 1-.293 1.055 1.081 1.081 0 0 1-.923.388 1.1 1.1 0 0 1-.926-.388 1.666 1.666 0 0 1-.3-1.055 1.21 1.21 0 0 1 1.23-1.48zm7.35 1.051a1.682 1.682 0 0 1 2.585 0 3.383 3.383 0 0 1 .4 1.824 3.486 3.486 0 0 1-.392 1.842 1.4 1.4 0 0 1-1.285.619 1.427 1.427 0 0 1-1.3-.623 3.436 3.436 0 0 1-.4-1.838 3.38 3.38 0 0 1 .392-1.825zm4.783-.421a3.422 3.422 0 0 0-1.384-1.472 4.133 4.133 0 0 0-2.08-.513 3.846 3.846 0 0 0-2.944 1.113 4.376 4.376 0 0 0-1.047 3.12 4.983 4.983 0 0 0 .483 2.256 3.435 3.435 0 0 0 1.384 1.483 4.108 4.108 0 0 0 2.08.516 3.824 3.824 0 0 0 2.937-1.128 4.4 4.4 0 0 0 1.053-3.127 4.937 4.937 0 0 0-.482-2.249zm5.04-1.564a3.079 3.079 0 0 0-1.029 1.11h-.11l-.33-1.377H77.5v8.188h2.234v-4.168a1.985 1.985 0 0 1 .6-1.538A2.369 2.369 0 0 1 82 73.291a2.565 2.565 0 0 1 .659.073l.169-2.095a3.607 3.607 0 0 0-.754-.066 2.538 2.538 0 0 0-1.417.421zm5.281 7.863l-.132.4a2.352 2.352 0 0 1-.692 1.1 1.587 1.587 0 0 1-1.036.362 3.822 3.822 0 0 1-.879-.1v1.773a5.19 5.19 0 0 0 1.135.124 3.429 3.429 0 0 0 2.062-.637 4 4 0 0 0 1.359-1.919l3.464-9.236h-2.4l-1.516 4.607a6.278 6.278 0 0 0-.315 1.421h-.04a6.4 6.4 0 0 0-.271-1.421l-1.545-4.607h-2.446zm14.474-10.649h-1.86L95.1 71.584l1.091 1.362 1.231-.989q.22-.176.784-.74l-.037 1.113-.022 1.018v6.2h2.263v-10.71zm3.11 10.58a1.313 1.313 0 0 0 .952.326 1.274 1.274 0 0 0 .937-.333 1.423 1.423 0 0 0 0-1.835 1.3 1.3 0 0 0-.941-.322 1.339 1.339 0 0 0-.96.315 1.231 1.231 0 0 0-.329.93 1.218 1.218 0 0 0 .34.917zm0-6.046a1.321 1.321 0 0 0 .952.322 1.3 1.3 0 0 0 .934-.326 1.212 1.212 0 0 0 .34-.919 1.225 1.225 0 0 0-.333-.923 1.3 1.3 0 0 0-.941-.322 1.339 1.339 0 0 0-.96.315 1.23 1.23 0 0 0-.329.93 1.216 1.216 0 0 0 .336.921zm-74.837 28.173h3.867a4.335 4.335 0 0 0 2.8-.817 2.749 2.749 0 0 0 1.007-2.26 2.537 2.537 0 0 0-.531-1.7 2.764 2.764 0 0 0-1.659-.839v-.068a2.162 2.162 0 0 0 1.392-.784 2.468 2.468 0 0 0 .483-1.56 2.257 2.257 0 0 0-.985-2.036 6.034 6.034 0 0 0-3.2-.645h-3.174v10.709zm1.75-9.244h1.516a3.409 3.409 0 0 1 1.732.337 1.185 1.185 0 0 1 .546 1.091 1.333 1.333 0 0 1-.505 1.183 2.885 2.885 0 0 1-1.6.348h-1.689V92.3zm1.773 4.38a3.028 3.028 0 0 1 1.736.4 1.412 1.412 0 0 1 .571 1.238 1.555 1.555 0 0 1-.56 1.329 2.738 2.738 0 0 1-1.659.421h-1.86v-3.388h1.773zm12.045 4.864v-5.457a2.638 2.638 0 0 0-.787-2.117 3.5 3.5 0 0 0-2.333-.674 6.64 6.64 0 0 0-1.479.179 6 6 0 0 0-1.444.523l.557 1.231a9.017 9.017 0 0 1 1.1-.432 3.889 3.889 0 0 1 1.194-.183 1.478 1.478 0 0 1 1.123.384 1.638 1.638 0 0 1 .362 1.161v.432l-1.4.044a5.365 5.365 0 0 0-2.834.7 2.141 2.141 0 0 0-.93 1.89 2.414 2.414 0 0 0 .67 1.824 2.581 2.581 0 0 0 1.864.644 3.734 3.734 0 0 0 1.523-.267 3.318 3.318 0 0 0 1.179-1.007h.059l.344 1.128h1.23zm-4.761-1.469a1.082 1.082 0 0 1-.322-.839 1.235 1.235 0 0 1 .553-1.11 3.559 3.559 0 0 1 1.769-.406l1.04-.044v.7a1.9 1.9 0 0 1-.568 1.468 2.133 2.133 0 0 1-1.505.524 1.383 1.383 0 0 1-.967-.293zm11.935-1.846a2.125 2.125 0 0 0-.674-.743 7.091 7.091 0 0 0-1.458-.71 7.808 7.808 0 0 1-1.549-.725.781.781 0 0 1-.355-.645q0-.776 1.362-.776a6.012 6.012 0 0 1 2.2.542l.557-1.3a6.463 6.463 0 0 0-2.7-.579 3.98 3.98 0 0 0-2.281.575 1.847 1.847 0 0 0-.839 1.615 2.006 2.006 0 0 0 .494 1.406 5.182 5.182 0 0 0 1.893 1.084 9.97 9.97 0 0 1 1.121.5 2.082 2.082 0 0 1 .579.425.76.76 0 0 1 .176.513q0 .96-1.589.96a6.383 6.383 0 0 1-2.659-.659v1.486a5.835 5.835 0 0 0 2.6.491 4.134 4.134 0 0 0 2.476-.634 2.119 2.119 0 0 0 .864-1.82 2.152 2.152 0 0 0-.218-1.006zm6.64 3.337a5.3 5.3 0 0 0 1.274-.425v-1.4a6.98 6.98 0 0 1-1.329.45 6.2 6.2 0 0 1-1.337.136 2.218 2.218 0 0 1-1.692-.634 2.66 2.66 0 0 1-.637-1.813h5.4v-.93a3.723 3.723 0 0 0-.93-2.681 3.338 3.338 0 0 0-2.534-.974 3.415 3.415 0 0 0-2.717 1.135 4.592 4.592 0 0 0-.989 3.12 4.185 4.185 0 0 0 1.066 3.036 3.918 3.918 0 0 0 2.955 1.1 7.9 7.9 0 0 0 1.47-.12zm-.5-6.449a2.243 2.243 0 0 1 .483 1.52h-3.674a2.478 2.478 0 0 1 .59-1.516 1.73 1.73 0 0 1 1.315-.52 1.653 1.653 0 0 1 1.288.516zm8.837 5.365h.081l.3 1.062h1.348v-11.4h-1.727V93.1a10.3 10.3 0 0 0 .124 1.377h-.087a2.793 2.793 0 0 0-2.432-1.177 2.848 2.848 0 0 0-2.384 1.11 6.019 6.019 0 0 0-.011 6.185 2.82 2.82 0 0 0 2.366 1.1 2.753 2.753 0 0 0 2.424-1.208zm-3.391-.89a3.677 3.677 0 0 1-.476-2.055 3.772 3.772 0 0 1 .491-2.1 1.583 1.583 0 0 1 1.4-.736 1.848 1.848 0 0 1 1.56.645 3.631 3.631 0 0 1 .5 2.175v.242a3.143 3.143 0 0 1-.5 1.937 1.872 1.872 0 0 1-1.545.6 1.606 1.606 0 0 1-1.428-.708zm17.645 1.952v-8.1h-1.726v4.036a3.572 3.572 0 0 1-.509 2.172 1.9 1.9 0 0 1-1.593.648 1.455 1.455 0 0 1-1.194-.465 2.167 2.167 0 0 1-.381-1.4v-5H73.52v5.3a3.038 3.038 0 0 0 .725 2.22 2.97 2.97 0 0 0 2.2.732 3.414 3.414 0 0 0 1.512-.322 2.443 2.443 0 0 0 1.022-.886h.088l.242 1.062h1.355zm8.489-.967a6.025 6.025 0 0 0 .015-6.182A2.812 2.812 0 0 0 86.8 93.3a2.7 2.7 0 0 0-2.417 1.23H84.3q-.183-.857-.242-1.084h-1.393v11.7h1.721v-3.318q0-.219-.1-1.245h.1a3.112 3.112 0 0 0 4.764-.004zM87.766 95.4a3.65 3.65 0 0 1 .48 2.062 3.783 3.783 0 0 1-.483 2.087 1.554 1.554 0 0 1-1.377.733 1.743 1.743 0 0 1-1.531-.663 3.788 3.788 0 0 1-.469-2.142v-.253a3.113 3.113 0 0 1 .472-1.919 1.789 1.789 0 0 1 1.5-.6 1.6 1.6 0 0 1 1.408.695zm9.954-.974a3.569 3.569 0 0 0-2.783-1.126 3.665 3.665 0 0 0-2.849 1.1 4.392 4.392 0 0 0-1.011 3.076 5.012 5.012 0 0 0 .469 2.227 3.378 3.378 0 0 0 1.34 1.472 3.881 3.881 0 0 0 2.007.513 3.648 3.648 0 0 0 2.835-1.113 4.422 4.422 0 0 0 1.018-3.1 4.371 4.371 0 0 0-1.026-3.045zm-4.383.992a1.761 1.761 0 0 1 1.571-.718q2.065 0 2.065 2.776 0 2.805-2.051 2.805-2.073 0-2.073-2.805a3.652 3.652 0 0 1 .488-2.053zm14.063.847q0-2.966-2.915-2.966a3.485 3.485 0 0 0-1.494.315 2.4 2.4 0 0 0-1.04.894h-.088l-.241-1.062h-1.348v8.1h1.721V97.51a3.565 3.565 0 0 1 .5-2.161 1.906 1.906 0 0 1 1.6-.645 1.459 1.459 0 0 1 1.2.462 2.182 2.182 0 0 1 .377 1.4v4.981h1.728v-5.282zm12.518 0q0-2.966-2.944-2.966a3.148 3.148 0 0 0-1.461.322 2.386 2.386 0 0 0-.978.908h-.11a13.4 13.4 0 0 0 .088-1.487v-2.893h-1.721v11.4h1.721v-4.024a3.575 3.575 0 0 1 .509-2.172 1.9 1.9 0 0 1 1.593-.648 1.459 1.459 0 0 1 1.2.462 2.182 2.182 0 0 1 .377 1.4v4.981h1.728v-5.283zm3.667-2.82h-1.722v8.1h1.722v-8.1zm-1.571-1.454a.973.973 0 0 0 .721.253.956.956 0 0 0 .707-.253.937.937 0 0 0 .252-.692.955.955 0 0 0-.252-.711.965.965 0 0 0-.707-.249.983.983 0 0 0-.721.249.951.951 0 0 0-.253.711.933.933 0 0 0 .252.692zm7.617 1.454a4.571 4.571 0 0 0-.567-.1 5.784 5.784 0 0 0-.722-.048 3.494 3.494 0 0 0-2.369.725 2.565 2.565 0 0 0-.832 2.043 2.6 2.6 0 0 0 .392 1.432 2.254 2.254 0 0 0 1.022.883 2.962 2.962 0 0 0-.762.623 1.178 1.178 0 0 0-.256.769 1.192 1.192 0 0 0 .223.685 1.289 1.289 0 0 0 .568.472 2.533 2.533 0 0 0-1.322.707 1.777 1.777 0 0 0-.473 1.256 1.9 1.9 0 0 0 .872 1.67 4.524 4.524 0 0 0 2.527.586 5.976 5.976 0 0 0 3.281-.747 2.4 2.4 0 0 0 1.135-2.124 2.012 2.012 0 0 0-.7-1.648 3.143 3.143 0 0 0-2.036-.571H128.2a2.253 2.253 0 0 1-.956-.139.448.448 0 0 1-.26-.418.97.97 0 0 1 .557-.806 3.845 3.845 0 0 0 .7.059 3.615 3.615 0 0 0 2.38-.718 2.425 2.425 0 0 0 .865-1.97 2.485 2.485 0 0 0-.125-.791 2.235 2.235 0 0 0-.315-.63l1.384-.256v-.944h-2.8zm-3.124 8.419a1.834 1.834 0 0 1 1.176-.348h1.3a3.024 3.024 0 0 1 1.4.224.8.8 0 0 1 .377.75 1.208 1.208 0 0 1-.688 1.07 4.266 4.266 0 0 1-2.095.4 2.762 2.762 0 0 1-1.41-.3.947.947 0 0 1-.5-.857 1.142 1.142 0 0 1 .439-.939zm.689-7.035a1.447 1.447 0 0 1 1.131-.425 1.407 1.407 0 0 1 1.125.428 1.814 1.814 0 0 1 .37 1.22 1.368 1.368 0 0 1-1.5 1.6 1.481 1.481 0 0 1-1.124-.41 1.631 1.631 0 0 1-.392-1.172 1.788 1.788 0 0 1 .394-1.241zm13.418 1.436q0-2.966-2.944-2.966a3.148 3.148 0 0 0-1.461.322 2.386 2.386 0 0 0-.978.908h-.11a13.4 13.4 0 0 0 .088-1.487v-2.893h-1.721v11.4h1.721v-4.024a3.575 3.575 0 0 1 .509-2.172 1.9 1.9 0 0 1 1.593-.648 1.459 1.459 0 0 1 1.2.462 2.182 2.182 0 0 1 .377 1.4v4.981h1.728v-5.283zm5.007 1.992v-1.465h-3.765v1.465h3.765zm3.036-8.108h-1.721v11.4h1.721v-11.4zm7.021 11.419a5.3 5.3 0 0 0 1.274-.425v-1.4a6.975 6.975 0 0 1-1.329.45 6.2 6.2 0 0 1-1.337.136 2.22 2.22 0 0 1-1.692-.634 2.665 2.665 0 0 1-.637-1.813h5.4v-.93a3.723 3.723 0 0 0-.93-2.681 3.338 3.338 0 0 0-2.534-.974 3.417 3.417 0 0 0-2.718 1.135 4.592 4.592 0 0 0-.988 3.12 4.187 4.187 0 0 0 1.065 3.036 3.92 3.92 0 0 0 2.956 1.1 7.909 7.909 0 0 0 1.469-.12zm-.5-6.449a2.246 2.246 0 0 1 .483 1.52h-3.677a2.48 2.48 0 0 1 .59-1.516 1.731 1.731 0 0 1 1.315-.52 1.654 1.654 0 0 1 1.29.516zm7.387 6.427l3.091-8.1h-1.832l-1.647 4.709a12.9 12.9 0 0 0-.513 1.919h-.059a9.3 9.3 0 0 0-.512-1.919l-1.648-4.709h-1.817l3.076 8.1h1.861zm8.881.022a5.3 5.3 0 0 0 1.274-.425v-1.4a7 7 0 0 1-1.329.45 6.2 6.2 0 0 1-1.337.136 2.22 2.22 0 0 1-1.692-.634 2.66 2.66 0 0 1-.637-1.813h5.4v-.93a3.723 3.723 0 0 0-.93-2.681 3.338 3.338 0 0 0-2.534-.974 3.417 3.417 0 0 0-2.718 1.135 4.592 4.592 0 0 0-.988 3.12 4.187 4.187 0 0 0 1.065 3.036 3.92 3.92 0 0 0 2.956 1.1 7.909 7.909 0 0 0 1.471-.12zm-.5-6.449a2.246 2.246 0 0 1 .483 1.52h-3.677a2.48 2.48 0 0 1 .59-1.516 1.731 1.731 0 0 1 1.315-.52 1.655 1.655 0 0 1 1.292.516zm5.4-4.969h-1.716v11.4h1.721v-11.4zm10.467 11.419a5.287 5.287 0 0 0 1.274-.425v-1.4a6.952 6.952 0 0 1-1.329.45 6.2 6.2 0 0 1-1.337.136 2.22 2.22 0 0 1-1.692-.634 2.665 2.665 0 0 1-.637-1.813h5.4v-.93a3.723 3.723 0 0 0-.93-2.681 3.338 3.338 0 0 0-2.534-.974 3.414 3.414 0 0 0-2.717 1.135 4.587 4.587 0 0 0-.989 3.12 4.187 4.187 0 0 0 1.065 3.036 3.92 3.92 0 0 0 2.956 1.1 7.9 7.9 0 0 0 1.475-.121zm-.5-6.449a2.246 2.246 0 0 1 .483 1.52h-3.676a2.479 2.479 0 0 1 .589-1.516 1.731 1.731 0 0 1 1.315-.52 1.654 1.654 0 0 1 1.296.515zm7.387 6.427l3.091-8.1h-1.831l-1.648 4.709a12.9 12.9 0 0 0-.513 1.919h-.059a9.3 9.3 0 0 0-.512-1.919l-1.648-4.709h-1.81l3.076 8.1h1.861zm5.592-8.1h-1.721v8.1h1.729v-8.1zm-1.571-1.454a.977.977 0 0 0 .722.253.954.954 0 0 0 .706-.253.933.933 0 0 0 .253-.692.951.951 0 0 0-.253-.711.963.963 0 0 0-.706-.249.987.987 0 0 0-.722.249.955.955 0 0 0-.252.711.937.937 0 0 0 .259.69zm8.738 8.493h.081l.3 1.062h1.36v-11.4h-1.729V93.1a10.335 10.335 0 0 0 .125 1.377h-.096a2.793 2.793 0 0 0-2.432-1.179 2.85 2.85 0 0 0-2.384 1.11 6.023 6.023 0 0 0-.011 6.185 2.821 2.821 0 0 0 2.366 1.1 2.751 2.751 0 0 0 2.424-1.208zm-3.391-.89a3.681 3.681 0 0 1-.476-2.055 3.773 3.773 0 0 1 .491-2.1 1.582 1.582 0 0 1 1.4-.736 1.848 1.848 0 0 1 1.56.645 3.631 3.631 0 0 1 .5 2.175v.242a3.146 3.146 0 0 1-.5 1.937 1.87 1.87 0 0 1-1.545.6 1.608 1.608 0 0 1-1.423-.71zm12.141 1.974a5.3 5.3 0 0 0 1.274-.425v-1.4a7 7 0 0 1-1.329.45 6.2 6.2 0 0 1-1.337.136 2.218 2.218 0 0 1-1.692-.634 2.66 2.66 0 0 1-.637-1.813h5.4v-.93a3.723 3.723 0 0 0-.93-2.681 3.338 3.338 0 0 0-2.534-.974 3.416 3.416 0 0 0-2.718 1.135 4.592 4.592 0 0 0-.988 3.12 4.187 4.187 0 0 0 1.065 3.036 3.92 3.92 0 0 0 2.956 1.1 7.909 7.909 0 0 0 1.477-.122zm-.5-6.449a2.246 2.246 0 0 1 .483 1.52h-3.677a2.48 2.48 0 0 1 .59-1.516 1.729 1.729 0 0 1 1.315-.52 1.655 1.655 0 0 1 1.298.514zm10.807 1.146q0-2.966-2.915-2.966a3.485 3.485 0 0 0-1.494.315 2.392 2.392 0 0 0-1.04.894h-.088l-.242-1.062H218.4v8.1h1.721V97.51a3.558 3.558 0 0 1 .5-2.161 1.9 1.9 0 0 1 1.6-.645 1.456 1.456 0 0 1 1.2.462 2.176 2.176 0 0 1 .377 1.4v4.981h1.729v-5.282zm6.482 5.31a3.408 3.408 0 0 0 .985-.388v-1.5a4.4 4.4 0 0 1-2.175.571 1.812 1.812 0 0 1-1.534-.684 3.342 3.342 0 0 1-.524-2.047q0-2.791 2.1-2.791a5.217 5.217 0 0 1 1.8.425l.52-1.384a5.417 5.417 0 0 0-2.307-.476 3.71 3.71 0 0 0-2.89 1.1 5.442 5.442 0 0 0-.044 6.222 3.55 3.55 0 0 0 2.795 1.073 5.912 5.912 0 0 0 1.283-.123zm7.45-.007a5.3 5.3 0 0 0 1.274-.425v-1.4a7 7 0 0 1-1.329.45 6.212 6.212 0 0 1-1.337.136 2.217 2.217 0 0 1-1.692-.634 2.66 2.66 0 0 1-.637-1.813h5.4v-.93a3.723 3.723 0 0 0-.93-2.681 3.341 3.341 0 0 0-2.535-.974 3.415 3.415 0 0 0-2.717 1.135 4.593 4.593 0 0 0-.989 3.12 4.188 4.188 0 0 0 1.066 3.036 3.918 3.918 0 0 0 2.955 1.1 7.912 7.912 0 0 0 1.48-.122zm-.5-6.449a2.241 2.241 0 0 1 .484 1.52h-3.677a2.48 2.48 0 0 1 .59-1.516 1.728 1.728 0 0 1 1.314-.52 1.652 1.652 0 0 1 1.299.514zm5.359 4.684h-1.692a36.021 36.021 0 0 1-.755 3.677h1.267a24.586 24.586 0 0 0 1.289-3.508zM30.7 117a1.216 1.216 0 0 1-.311-.919v-4.336H32.7v-1.3h-2.308v-1.8H29.33l-.586 1.714-1.186.63v.762h1.106v4.365q0 2.578 2.446 2.578a5.085 5.085 0 0 0 .934-.084 3.463 3.463 0 0 0 .736-.209v-1.3a4.179 4.179 0 0 1-1.26.2 1.133 1.133 0 0 1-.82-.301zm10.372-3.739q0-2.967-2.944-2.966a3.149 3.149 0 0 0-1.461.322 2.387 2.387 0 0 0-.978.908h-.11a13.5 13.5 0 0 0 .088-1.487v-2.893h-1.718v11.4h1.721v-4.021a3.572 3.572 0 0 1 .509-2.172 1.9 1.9 0 0 1 1.593-.648 1.46 1.46 0 0 1 1.2.461 2.181 2.181 0 0 1 .377 1.4v4.981h1.728v-5.281zm6.955 5.3a5.3 5.3 0 0 0 1.274-.425v-1.4a6.979 6.979 0 0 1-1.329.45 6.2 6.2 0 0 1-1.337.136 2.217 2.217 0 0 1-1.692-.634 2.658 2.658 0 0 1-.637-1.813h5.4v-.93a3.721 3.721 0 0 0-.93-2.68 3.336 3.336 0 0 0-2.534-.974 3.414 3.414 0 0 0-2.717 1.135 4.591 4.591 0 0 0-.989 3.12 4.185 4.185 0 0 0 1.064 3.044 3.918 3.918 0 0 0 2.955 1.1 7.82 7.82 0 0 0 1.475-.122zm-.5-6.449a2.24 2.24 0 0 1 .483 1.519h-3.671a2.479 2.479 0 0 1 .589-1.516 1.732 1.732 0 0 1 1.315-.52 1.651 1.651 0 0 1 1.289.524zm6.395-1.4a3.218 3.218 0 0 0-1.051 1.15h-.084l-.227-1.428h-1.347v8.1h1.721V114.3a2.433 2.433 0 0 1 .641-1.75 2.205 2.205 0 0 1 1.674-.674 3.232 3.232 0 0 1 .762.088l.169-1.6a4.134 4.134 0 0 0-.857-.073 2.5 2.5 0 0 0-1.397.432zm8.313 7.845a5.3 5.3 0 0 0 1.274-.425v-1.4a6.978 6.978 0 0 1-1.329.45 6.2 6.2 0 0 1-1.337.136 2.217 2.217 0 0 1-1.692-.634 2.659 2.659 0 0 1-.637-1.813h5.4v-.93a3.722 3.722 0 0 0-.93-2.68 3.336 3.336 0 0 0-2.534-.974 3.415 3.415 0 0 0-2.717 1.135 4.591 4.591 0 0 0-.989 3.12 4.185 4.185 0 0 0 1.066 3.036 3.918 3.918 0 0 0 2.955 1.1 7.818 7.818 0 0 0 1.475-.11zm-.5-6.449a2.241 2.241 0 0 1 .483 1.519h-3.67a2.478 2.478 0 0 1 .59-1.516 1.732 1.732 0 0 1 1.315-.52 1.651 1.651 0 0 1 1.289.528zm8.848-1.674h-1.714v8.1h1.721v-8.1zm-1.571-1.454a.974.974 0 0 0 .721.253.954.954 0 0 0 .707-.253.934.934 0 0 0 .26-.68.952.952 0 0 0-.253-.71.964.964 0 0 0-.707-.249.985.985 0 0 0-.721.249.951.951 0 0 0-.253.71.934.934 0 0 0 .253.691zm8.8 6.24a2.13 2.13 0 0 0-.674-.743 7.038 7.038 0 0 0-1.458-.71 7.8 7.8 0 0 1-1.549-.726.779.779 0 0 1-.355-.644q0-.777 1.362-.776a6 6 0 0 1 2.2.542l.557-1.3a6.457 6.457 0 0 0-2.7-.578 3.982 3.982 0 0 0-2.282.574 1.848 1.848 0 0 0-.839 1.615 2.007 2.007 0 0 0 .494 1.407 5.2 5.2 0 0 0 1.893 1.084 9.776 9.776 0 0 1 1.121.5 2.068 2.068 0 0 1 .579.425.757.757 0 0 1 .176.512q0 .96-1.589.96a6.39 6.39 0 0 1-2.659-.659v1.497a5.835 5.835 0 0 0 2.6.491 4.141 4.141 0 0 0 2.476-.633 2.122 2.122 0 0 0 .864-1.821 2.153 2.153 0 0 0-.206-1.006zm12.144 3.315v-8.1h-1.717v4.036a3.571 3.571 0 0 1-.509 2.171 1.9 1.9 0 0 1-1.593.648 1.451 1.451 0 0 1-1.194-.465 2.166 2.166 0 0 1-.381-1.395v-5h-1.735v5.3a3.038 3.038 0 0 0 .725 2.22 2.97 2.97 0 0 0 2.2.732 3.414 3.414 0 0 0 1.512-.322 2.443 2.443 0 0 0 1.022-.886h.088l.242 1.062h1.355zm9.13-5.281q0-2.967-2.915-2.966a3.5 3.5 0 0 0-1.494.314 2.4 2.4 0 0 0-1.04.894h-.076l-.242-1.062h-1.348v8.1h1.721v-4.024a3.56 3.56 0 0 1 .505-2.161 1.906 1.906 0 0 1 1.6-.644 1.46 1.46 0 0 1 1.2.461 2.181 2.181 0 0 1 .377 1.4v4.981H99.1v-5.281zm3.666-2.82h-1.721v8.1h1.721v-8.1zm-1.571-1.454a.973.973 0 0 0 .721.253.953.953 0 0 0 .707-.253.932.932 0 0 0 .253-.692.949.949 0 0 0-.253-.71.963.963 0 0 0-.707-.249.984.984 0 0 0-.721.249.953.953 0 0 0-.253.71.936.936 0 0 0 .265.703zm7.647 1.454h-1.978v-.527a1.821 1.821 0 0 1 .268-1.088.988.988 0 0 1 .853-.363 3.963 3.963 0 0 1 1.216.206l.454-1.3a5.5 5.5 0 0 0-1.787-.3 2.752 2.752 0 0 0-2.058.692 2.942 2.942 0 0 0-.674 2.127v.528l-1.333.527v.806h1.333v6.8h1.728v-6.8h1.978v-1.3zm7.087.985a3.572 3.572 0 0 0-2.784-1.131 3.666 3.666 0 0 0-2.849 1.1 4.393 4.393 0 0 0-1.011 3.077 5.019 5.019 0 0 0 .469 2.226 3.377 3.377 0 0 0 1.341 1.472 3.878 3.878 0 0 0 2.006.513 3.65 3.65 0 0 0 2.835-1.113 4.424 4.424 0 0 0 1.018-3.1 4.373 4.373 0 0 0-1.013-3.033zm-4.384.993a1.76 1.76 0 0 1 1.571-.718q2.065 0 2.065 2.776 0 2.805-2.05 2.805-2.073 0-2.073-2.805a3.648 3.648 0 0 1 .499-2.047zm9.65-1.7a3.225 3.225 0 0 0-1.051 1.15h-.088l-.227-1.428h-1.348v8.1h1.733V114.3a2.431 2.431 0 0 1 .641-1.75 2.2 2.2 0 0 1 1.673-.674 3.231 3.231 0 0 1 .762.088l.168-1.6a4.128 4.128 0 0 0-.857-.073 2.5 2.5 0 0 0-1.394.432zm10.13 3.531a3.227 3.227 0 0 1 .465-1.923 1.707 1.707 0 0 1 1.469-.626 1.305 1.305 0 0 1 1.1.458 2.243 2.243 0 0 1 .355 1.387v5h1.721v-5.281a3.243 3.243 0 0 0-.663-2.234 2.722 2.722 0 0 0-2.113-.732 3.217 3.217 0 0 0-1.494.336 2.485 2.485 0 0 0-1.011.938h-.117a2.462 2.462 0 0 0-2.475-1.274 3.164 3.164 0 0 0-1.41.314 2.242 2.242 0 0 0-.978.894h-.088l-.242-1.062h-1.33v8.1h1.721v-4.028a3.8 3.8 0 0 1 .465-2.157 1.676 1.676 0 0 1 1.461-.648 1.3 1.3 0 0 1 1.1.458 2.265 2.265 0 0 1 .351 1.387v5h1.729v-4.292zm19.615-6.416h-1.6v5.61q0 .593.044 1.652t.059 1.226h-.044l-5.252-8.488h-2.124v10.708h1.59v-5.567q0-1.128-.1-2.49l-.037-.476h.059l5.266 8.533h2.146v-10.697zm8.2 1.541a9.583 9.583 0 0 1 1.146.451l.63-1.458a6.745 6.745 0 0 0-3.032-.688 5.355 5.355 0 0 0-2.718.666 4.373 4.373 0 0 0-1.769 1.919 6.6 6.6 0 0 0-.611 2.923 5.956 5.956 0 0 0 1.26 4.075 4.562 4.562 0 0 0 3.61 1.425 8.048 8.048 0 0 0 2.857-.476v-1.5q-.688.211-1.326.347a6.276 6.276 0 0 1-1.318.136 2.935 2.935 0 0 1-2.406-1.011 5.614 5.614 0 0 1 .033-5.932 2.885 2.885 0 0 1 2.373-1.07 4.146 4.146 0 0 1 1.287.204zm9.056 0a9.533 9.533 0 0 1 1.147.451l.63-1.458a6.746 6.746 0 0 0-3.033-.688 5.353 5.353 0 0 0-2.717.666 4.373 4.373 0 0 0-1.769 1.919 6.6 6.6 0 0 0-.611 2.923 5.961 5.961 0 0 0 1.259 4.075 4.566 4.566 0 0 0 3.611 1.425 8.048 8.048 0 0 0 2.857-.476v-1.5q-.689.211-1.326.347a6.276 6.276 0 0 1-1.318.136 2.935 2.935 0 0 1-2.406-1.011 5.608 5.608 0 0 1 .033-5.932 2.885 2.885 0 0 1 2.373-1.07 4.134 4.134 0 0 1 1.288.204zm12.152-1.541h-1.6v5.61q0 .593.044 1.652t.058 1.226h-.036l-5.251-8.488h-2.124v10.708h1.589v-5.567q0-1.128-.1-2.49l-.037-.476h.059l5.266 8.533h2.146v-10.697zm10.178 10.737a3.419 3.419 0 0 0 .985-.388v-1.5a4.4 4.4 0 0 1-2.176.572 1.814 1.814 0 0 1-1.534-.685 3.343 3.343 0 0 1-.524-2.047q0-2.792 2.1-2.791a5.215 5.215 0 0 1 1.8.425l.52-1.384a5.405 5.405 0 0 0-2.307-.476 3.708 3.708 0 0 0-2.889 1.1 5.438 5.438 0 0 0-.044 6.222 3.546 3.546 0 0 0 2.794 1.073 5.922 5.922 0 0 0 1.291-.11zm8.6-7.145a3.571 3.571 0 0 0-2.783-1.131 3.667 3.667 0 0 0-2.85 1.1 4.4 4.4 0 0 0-1.01 3.077 5.019 5.019 0 0 0 .468 2.226 3.383 3.383 0 0 0 1.341 1.472 3.882 3.882 0 0 0 2.007.513 3.649 3.649 0 0 0 2.834-1.113 4.42 4.42 0 0 0 1.018-3.1 4.373 4.373 0 0 0-1.01-3.033zm-4.384.993a1.761 1.761 0 0 1 1.571-.718q2.066 0 2.066 2.776 0 2.805-2.051 2.805-2.073 0-2.073-2.805a3.648 3.648 0 0 1 .502-2.047zm14.063.842q0-2.967-2.915-2.966a3.5 3.5 0 0 0-1.494.314 2.4 2.4 0 0 0-1.04.894h-.088l-.242-1.062h-1.332v8.1h1.72v-4.024a3.56 3.56 0 0 1 .5-2.161 1.906 1.906 0 0 1 1.6-.644 1.458 1.458 0 0 1 1.2.461 2.177 2.177 0 0 1 .378 1.4v4.981h1.728v-5.281zm7.167 1.966a2.123 2.123 0 0 0-.674-.743 7.008 7.008 0 0 0-1.457-.71 7.809 7.809 0 0 1-1.549-.726.778.778 0 0 1-.355-.644q0-.777 1.362-.776a6 6 0 0 1 2.2.542l.556-1.3a6.453 6.453 0 0 0-2.7-.578 3.983 3.983 0 0 0-2.282.574 1.849 1.849 0 0 0-.839 1.615 2.006 2.006 0 0 0 .5 1.407 5.187 5.187 0 0 0 1.893 1.084 9.776 9.776 0 0 1 1.121.5 2.066 2.066 0 0 1 .578.425.753.753 0 0 1 .176.512q0 .96-1.589.96a6.388 6.388 0 0 1-2.659-.659v1.497a5.835 5.835 0 0 0 2.6.491 4.143 4.143 0 0 0 2.476-.633 2.122 2.122 0 0 0 .864-1.821 2.147 2.147 0 0 0-.207-1.006zm6.64 3.337a5.294 5.294 0 0 0 1.275-.425v-1.4a6.981 6.981 0 0 1-1.33.45 6.2 6.2 0 0 1-1.336.136 2.216 2.216 0 0 1-1.692-.634 2.659 2.659 0 0 1-.638-1.813h5.4v-.93a3.721 3.721 0 0 0-.93-2.68 3.336 3.336 0 0 0-2.534-.974 3.414 3.414 0 0 0-2.717 1.135 4.592 4.592 0 0 0-.989 3.12 4.183 4.183 0 0 0 1.066 3.036 3.916 3.916 0 0 0 2.955 1.1 7.817 7.817 0 0 0 1.485-.11zm-.5-6.449a2.238 2.238 0 0 1 .484 1.519h-3.677a2.479 2.479 0 0 1 .589-1.516 1.733 1.733 0 0 1 1.315-.52 1.65 1.65 0 0 1 1.306.528zm10.807 1.146q0-2.967-2.915-2.966a3.5 3.5 0 0 0-1.494.314 2.4 2.4 0 0 0-1.04.894h-.088l-.241-1.062H225.8v8.1h1.721v-4.024a3.559 3.559 0 0 1 .506-2.161 1.9 1.9 0 0 1 1.6-.644 1.461 1.461 0 0 1 1.2.461 2.184 2.184 0 0 1 .377 1.4v4.981h1.728v-5.281zm7.168 1.966a2.133 2.133 0 0 0-.674-.743 7.048 7.048 0 0 0-1.458-.71 7.809 7.809 0 0 1-1.549-.726.778.778 0 0 1-.355-.644q0-.777 1.362-.776a6 6 0 0 1 2.205.542l.557-1.3a6.461 6.461 0 0 0-2.7-.578 3.983 3.983 0 0 0-2.282.574 1.848 1.848 0 0 0-.838 1.615 2.01 2.01 0 0 0 .494 1.407 5.205 5.205 0 0 0 1.893 1.084 9.776 9.776 0 0 1 1.121.5 2.074 2.074 0 0 1 .579.425.758.758 0 0 1 .175.512q0 .96-1.589.96a6.4 6.4 0 0 1-2.659-.659v1.497a5.839 5.839 0 0 0 2.6.491 4.139 4.139 0 0 0 2.475-.633 2.122 2.122 0 0 0 .864-1.821 2.16 2.16 0 0 0-.204-1.006zm8.7 3.315v-8.1h-1.729v4.036a3.573 3.573 0 0 1-.509 2.171 1.9 1.9 0 0 1-1.593.648 1.452 1.452 0 0 1-1.194-.465 2.166 2.166 0 0 1-.381-1.395v-5h-1.736v5.3a3.036 3.036 0 0 0 .726 2.22 2.968 2.968 0 0 0 2.2.732 3.414 3.414 0 0 0 1.512-.322 2.441 2.441 0 0 0 1.022-.886h.088l.242 1.062h1.355zm7.225-3.315a2.13 2.13 0 0 0-.673-.743 7.048 7.048 0 0 0-1.458-.71 7.809 7.809 0 0 1-1.549-.726.778.778 0 0 1-.355-.644q0-.777 1.362-.776a6 6 0 0 1 2.2.542l.556-1.3a6.453 6.453 0 0 0-2.7-.578 3.983 3.983 0 0 0-2.282.574 1.849 1.849 0 0 0-.839 1.615 2.006 2.006 0 0 0 .5 1.407 5.187 5.187 0 0 0 1.893 1.084 9.776 9.776 0 0 1 1.121.5 2.066 2.066 0 0 1 .578.425.753.753 0 0 1 .176.512q0 .96-1.589.96a6.392 6.392 0 0 1-2.659-.659v1.497a5.835 5.835 0 0 0 2.6.491 4.143 4.143 0 0 0 2.476-.633 2.122 2.122 0 0 0 .864-1.821 2.147 2.147 0 0 0-.207-1.006zM30.7 134a1.216 1.216 0 0 1-.311-.919v-4.336H32.7v-1.3h-2.308v-1.8H29.33l-.586 1.714-1.186.63v.762h1.106v4.365q0 2.578 2.446 2.578a5.085 5.085 0 0 0 .934-.084 3.463 3.463 0 0 0 .736-.209v-1.3a4.179 4.179 0 0 1-1.26.2 1.133 1.133 0 0 1-.82-.301zm10.372-3.739q0-2.967-2.944-2.966a3.149 3.149 0 0 0-1.461.322 2.387 2.387 0 0 0-.978.908h-.11a13.5 13.5 0 0 0 .088-1.487v-2.893h-1.718v11.4h1.721v-4.021a3.572 3.572 0 0 1 .509-2.172 1.9 1.9 0 0 1 1.593-.648 1.46 1.46 0 0 1 1.2.461 2.181 2.181 0 0 1 .377 1.4v4.981h1.728v-5.281zm8.244 5.281v-5.457a2.64 2.64 0 0 0-.787-2.117 3.506 3.506 0 0 0-2.329-.668 6.616 6.616 0 0 0-1.48.179 5.986 5.986 0 0 0-1.443.524l.557 1.23a9 9 0 0 1 1.1-.432 3.89 3.89 0 0 1 1.194-.183 1.48 1.48 0 0 1 1.122.382 1.64 1.64 0 0 1 .363 1.161v.432l-1.4.044a5.36 5.36 0 0 0-2.835.7 2.142 2.142 0 0 0-.93 1.89 2.413 2.413 0 0 0 .67 1.824 2.581 2.581 0 0 0 1.864.644 3.734 3.734 0 0 0 1.523-.267 3.318 3.318 0 0 0 1.179-1.007h.059l.344 1.128h1.23zm-4.761-1.469a1.083 1.083 0 0 1-.322-.839 1.234 1.234 0 0 1 .553-1.109 3.562 3.562 0 0 1 1.769-.407l1.04-.044v.7a1.9 1.9 0 0 1-.568 1.468 2.133 2.133 0 0 1-1.505.524 1.383 1.383 0 0 1-.964-.289zm8.917-.073a1.216 1.216 0 0 1-.311-.919v-4.336h2.307v-1.3h-2.307v-1.8H52.1l-.586 1.714-1.187.63v.762h1.106v4.365q0 2.578 2.446 2.578a5.084 5.084 0 0 0 .934-.084 3.464 3.464 0 0 0 .736-.209v-1.3a4.18 4.18 0 0 1-1.26.2 1.133 1.133 0 0 1-.817-.301zm8.892 0a1.216 1.216 0 0 1-.311-.919v-4.336h2.307v-1.3h-2.307v-1.8h-1.062l-.586 1.714-1.187.63v.762h1.106v4.365q0 2.578 2.446 2.578a5.085 5.085 0 0 0 .934-.084 3.464 3.464 0 0 0 .736-.209v-1.3a4.18 4.18 0 0 1-1.26.2 1.133 1.133 0 0 1-.815-.301zm10.371-3.739q0-2.967-2.944-2.966a3.149 3.149 0 0 0-1.461.322 2.388 2.388 0 0 0-.978.908h-.11a13.5 13.5 0 0 0 .088-1.487v-2.893h-1.72v11.4h1.721v-4.021a3.571 3.571 0 0 1 .509-2.172 1.9 1.9 0 0 1 1.593-.648 1.46 1.46 0 0 1 1.2.461 2.181 2.181 0 0 1 .377 1.4v4.981h1.728v-5.281zm6.955 5.3a5.3 5.3 0 0 0 1.274-.425v-1.4a6.98 6.98 0 0 1-1.329.45 6.2 6.2 0 0 1-1.337.136 2.217 2.217 0 0 1-1.692-.634 2.659 2.659 0 0 1-.637-1.813h5.4v-.93a3.722 3.722 0 0 0-.93-2.68 3.336 3.336 0 0 0-2.539-.965 3.415 3.415 0 0 0-2.717 1.135 4.591 4.591 0 0 0-.989 3.12 4.185 4.185 0 0 0 1.066 3.036 3.918 3.918 0 0 0 2.955 1.1 7.819 7.819 0 0 0 1.476-.123zm-.5-6.449a2.24 2.24 0 0 1 .483 1.519H76a2.478 2.478 0 0 1 .59-1.516 1.732 1.732 0 0 1 1.315-.52 1.651 1.651 0 0 1 1.288.524zm8.849-1.674H86.32v8.1h1.721v-8.1zm-1.571-1.454a.974.974 0 0 0 .722.253.953.953 0 0 0 .707-.253.934.934 0 0 0 .253-.692.951.951 0 0 0-.253-.71.963.963 0 0 0-.707-.249.985.985 0 0 0-.722.249.952.952 0 0 0-.253.71.934.934 0 0 0 .255.699zm10.709 4.274q0-2.967-2.915-2.966a3.5 3.5 0 0 0-1.494.314 2.4 2.4 0 0 0-1.04.894h-.086l-.242-1.055h-1.348v8.1h1.721v-4.035a3.56 3.56 0 0 1 .505-2.161 1.906 1.906 0 0 1 1.6-.644 1.46 1.46 0 0 1 1.2.461 2.181 2.181 0 0 1 .377 1.4v4.981h1.728v-5.281zm4.148 3.742a1.215 1.215 0 0 1-.311-.919v-4.336h2.307v-1.3h-2.307v-1.8h-1.062l-.586 1.714-1.186.63v.762h1.106v4.365q0 2.578 2.446 2.578a5.078 5.078 0 0 0 .934-.084 3.461 3.461 0 0 0 .736-.209v-1.3a4.181 4.181 0 0 1-1.26.2 1.132 1.132 0 0 1-.817-.301zm8.255 1.564a5.3 5.3 0 0 0 1.274-.425v-1.4a7 7 0 0 1-1.329.45 6.2 6.2 0 0 1-1.337.136 2.216 2.216 0 0 1-1.692-.634 2.659 2.659 0 0 1-.637-1.813h5.4v-.93a3.721 3.721 0 0 0-.93-2.68 3.336 3.336 0 0 0-2.534-.974 3.415 3.415 0 0 0-2.718 1.135 4.592 4.592 0 0 0-.989 3.12 4.187 4.187 0 0 0 1.066 3.036 3.919 3.919 0 0 0 2.955 1.1 7.828 7.828 0 0 0 1.471-.117zm-.5-6.449a2.243 2.243 0 0 1 .483 1.519h-3.677a2.48 2.48 0 0 1 .59-1.516 1.731 1.731 0 0 1 1.315-.52 1.653 1.653 0 0 1 1.291.521zm6.394-1.4a3.225 3.225 0 0 0-1.051 1.15h-.088l-.227-1.428h-1.348v8.1h1.722v-4.234a2.431 2.431 0 0 1 .641-1.75 2.2 2.2 0 0 1 1.673-.674 3.231 3.231 0 0 1 .762.088l.168-1.6a4.128 4.128 0 0 0-.857-.073 2.5 2.5 0 0 0-1.393.429zm7.01 7.823l3.091-8.1h-1.831l-1.648 4.709a12.913 12.913 0 0 0-.513 1.919h-.059a9.3 9.3 0 0 0-.512-1.919l-1.648-4.709h-1.817l3.076 8.1h1.861zm8.881.022a5.3 5.3 0 0 0 1.274-.425v-1.4a6.973 6.973 0 0 1-1.329.45 6.2 6.2 0 0 1-1.337.136 2.219 2.219 0 0 1-1.692-.634 2.664 2.664 0 0 1-.637-1.813h5.4v-.93a3.721 3.721 0 0 0-.93-2.68 3.336 3.336 0 0 0-2.534-.974 3.416 3.416 0 0 0-2.718 1.135 4.592 4.592 0 0 0-.988 3.12 4.187 4.187 0 0 0 1.065 3.036 3.92 3.92 0 0 0 2.956 1.1 7.824 7.824 0 0 0 1.472-.113zm-.5-6.449a2.243 2.243 0 0 1 .483 1.519h-3.677a2.48 2.48 0 0 1 .59-1.516 1.733 1.733 0 0 1 1.315-.52 1.652 1.652 0 0 1 1.293.525zm10.807 1.146q0-2.967-2.915-2.966a3.5 3.5 0 0 0-1.494.314 2.4 2.4 0 0 0-1.04.894h-.088l-.242-1.062h-1.343v8.1h1.721v-4.027a3.56 3.56 0 0 1 .505-2.161 1.906 1.906 0 0 1 1.6-.644 1.458 1.458 0 0 1 1.2.461 2.177 2.177 0 0 1 .378 1.4v4.981h1.728v-5.281zm4.15 3.743a1.215 1.215 0 0 1-.311-.919v-4.336h2.307v-1.3h-2.307v-1.8h-1.062l-.586 1.714-1.187.63v.762h1.106v4.365q0 2.578 2.447 2.578a5.075 5.075 0 0 0 .933-.084 3.472 3.472 0 0 0 .737-.209v-1.3a4.181 4.181 0 0 1-1.26.2 1.135 1.135 0 0 1-.817-.301zm4.966-6.559h-1.721v8.1h1.721v-8.1zm-1.571-1.454a.975.975 0 0 0 .722.253.956.956 0 0 0 .707-.253.936.936 0 0 0 .252-.692.953.953 0 0 0-.252-.71.966.966 0 0 0-.707-.249.986.986 0 0 0-.722.249.953.953 0 0 0-.252.71.936.936 0 0 0 .252.696zm9.742 2.439a3.57 3.57 0 0 0-2.783-1.131 3.663 3.663 0 0 0-2.849 1.1 4.393 4.393 0 0 0-1.011 3.077 5 5 0 0 0 .469 2.226 3.375 3.375 0 0 0 1.34 1.472 3.882 3.882 0 0 0 2.007.513 3.646 3.646 0 0 0 2.834-1.113 4.42 4.42 0 0 0 1.018-3.1 4.368 4.368 0 0 0-1.025-3.04zm-4.384.993a1.761 1.761 0 0 1 1.571-.718q2.066 0 2.066 2.776 0 2.805-2.051 2.805-2.073 0-2.073-2.805a3.656 3.656 0 0 1 .487-2.054zm14.063.842q0-2.967-2.915-2.966a3.5 3.5 0 0 0-1.494.314 2.4 2.4 0 0 0-1.04.894h-.089l-.241-1.062h-1.348v8.1h1.721v-4.031a3.567 3.567 0 0 1 .5-2.161 1.907 1.907 0 0 1 1.6-.644 1.461 1.461 0 0 1 1.2.461 2.184 2.184 0 0 1 .377 1.4v4.981h1.728v-5.281zm7.113-2.82h-1.721v8.1h1.721v-8.1zm-1.571-1.454a.973.973 0 0 0 .721.253.953.953 0 0 0 .707-.253.932.932 0 0 0 .253-.692.949.949 0 0 0-.253-.71.963.963 0 0 0-.707-.249.984.984 0 0 0-.721.249.953.953 0 0 0-.253.71.936.936 0 0 0 .253.696zm8.8 6.24a2.123 2.123 0 0 0-.674-.743 7.008 7.008 0 0 0-1.457-.71 7.809 7.809 0 0 1-1.549-.726.778.778 0 0 1-.355-.644q0-.777 1.362-.776a6 6 0 0 1 2.2.542l.557-1.3a6.457 6.457 0 0 0-2.7-.578 3.98 3.98 0 0 0-2.281.574 1.849 1.849 0 0 0-.839 1.615 2.006 2.006 0 0 0 .5 1.407 5.187 5.187 0 0 0 1.893 1.084 9.856 9.856 0 0 1 1.121.5 2.066 2.066 0 0 1 .578.425.758.758 0 0 1 .176.512q0 .96-1.589.96a6.388 6.388 0 0 1-2.659-.659v1.49a5.835 5.835 0 0 0 2.6.491 4.145 4.145 0 0 0 2.476-.633 2.122 2.122 0 0 0 .864-1.821 2.147 2.147 0 0 0-.22-1.006zm11.376 3.315v-5.457a2.64 2.64 0 0 0-.788-2.117 3.5 3.5 0 0 0-2.333-.673 6.608 6.608 0 0 0-1.479.179 5.986 5.986 0 0 0-1.443.524l.557 1.23a8.946 8.946 0 0 1 1.1-.432 3.891 3.891 0 0 1 1.194-.183 1.478 1.478 0 0 1 1.124.384 1.639 1.639 0 0 1 .363 1.161v.432l-1.4.044a5.357 5.357 0 0 0-2.834.7 2.141 2.141 0 0 0-.931 1.89 2.413 2.413 0 0 0 .671 1.824 2.58 2.58 0 0 0 1.864.644 3.73 3.73 0 0 0 1.523-.267 3.308 3.308 0 0 0 1.179-1.007h.059l.344 1.128h1.231zm-4.761-1.469a1.082 1.082 0 0 1-.322-.839 1.234 1.234 0 0 1 .553-1.109 3.559 3.559 0 0 1 1.768-.407l1.04-.044v.7a1.9 1.9 0 0 1-.567 1.468 2.133 2.133 0 0 1-1.5.524 1.384 1.384 0 0 1-.967-.289zm13.2.5a6.024 6.024 0 0 0 .015-6.182 2.812 2.812 0 0 0-2.362-1.1 2.7 2.7 0 0 0-2.417 1.23h-.088q-.183-.856-.242-1.084h-1.391v11.7h1.721v-3.318q0-.219-.1-1.245h.1a3.112 3.112 0 0 0 4.769.005zm-1.384-5.175a3.651 3.651 0 0 1 .48 2.062 3.783 3.783 0 0 1-.483 2.087 1.555 1.555 0 0 1-1.377.733 1.743 1.743 0 0 1-1.531-.663 3.784 3.784 0 0 1-.469-2.142v-.257a3.121 3.121 0 0 1 .472-1.919 1.791 1.791 0 0 1 1.5-.6 1.6 1.6 0 0 1 1.41.701zm10.28 5.175a6.024 6.024 0 0 0 .015-6.182 2.812 2.812 0 0 0-2.362-1.1 2.7 2.7 0 0 0-2.417 1.23h-.088q-.183-.856-.242-1.084h-1.391v11.7h1.721v-3.318q0-.219-.1-1.245h.1a3.112 3.112 0 0 0 4.766.005zm-1.384-5.175a3.651 3.651 0 0 1 .48 2.062 3.774 3.774 0 0 1-.484 2.087 1.552 1.552 0 0 1-1.377.733 1.741 1.741 0 0 1-1.53-.663 3.784 3.784 0 0 1-.469-2.142v-.257a3.114 3.114 0 0 1 .472-1.919 1.79 1.79 0 0 1 1.5-.6 1.6 1.6 0 0 1 1.41.701zm6.508-1.681a3.216 3.216 0 0 0-1.051 1.15h-.088l-.227-1.428H214.1v8.1h1.721v-4.234a2.435 2.435 0 0 1 .641-1.75 2.206 2.206 0 0 1 1.674-.674 3.237 3.237 0 0 1 .762.088l.168-1.6a4.135 4.135 0 0 0-.857-.073 2.5 2.5 0 0 0-1.392.427zm9.463.707a3.568 3.568 0 0 0-2.778-1.124 3.665 3.665 0 0 0-2.849 1.1 4.393 4.393 0 0 0-1.011 3.077 5 5 0 0 0 .469 2.226 3.375 3.375 0 0 0 1.34 1.472 3.882 3.882 0 0 0 2.007.513 3.65 3.65 0 0 0 2.835-1.113 4.424 4.424 0 0 0 1.018-3.1 4.369 4.369 0 0 0-1.029-3.045zm-4.383.993a1.759 1.759 0 0 1 1.571-.718q2.066 0 2.065 2.776 0 2.805-2.051 2.805-2.071 0-2.072-2.805a3.648 3.648 0 0 1 .492-2.052zm13.422 5.156a6.027 6.027 0 0 0 .014-6.182 2.812 2.812 0 0 0-2.362-1.1 2.7 2.7 0 0 0-2.417 1.23h-.088q-.183-.856-.241-1.084h-1.392v11.7h1.721v-3.318q0-.219-.1-1.245h.1a3.113 3.113 0 0 0 4.767.005zm-1.385-5.175a3.651 3.651 0 0 1 .48 2.062 3.783 3.783 0 0 1-.483 2.087 1.552 1.552 0 0 1-1.377.733 1.745 1.745 0 0 1-1.531-.663 3.793 3.793 0 0 1-.469-2.142v-.257a3.113 3.113 0 0 1 .473-1.919 1.79 1.79 0 0 1 1.5-.6 1.6 1.6 0 0 1 1.409.701zm6.508-1.681a3.225 3.225 0 0 0-1.051 1.15h-.089l-.227-1.428h-1.348v8.1h1.721v-4.234a2.435 2.435 0 0 1 .641-1.75 2.2 2.2 0 0 1 1.674-.674 3.229 3.229 0 0 1 .761.088l.169-1.6a4.141 4.141 0 0 0-.857-.073 2.5 2.5 0 0 0-1.392.427zm5.025-.278h-1.721v8.1h1.721v-8.1zm-1.571-1.454a.975.975 0 0 0 .722.253.956.956 0 0 0 .707-.253.936.936 0 0 0 .252-.692.953.953 0 0 0-.252-.71.966.966 0 0 0-.707-.249.986.986 0 0 0-.722.249.953.953 0 0 0-.252.71.936.936 0 0 0 .258.698zm9.881 9.555v-5.457a2.639 2.639 0 0 0-.787-2.117 3.507 3.507 0 0 0-2.333-.673 6.608 6.608 0 0 0-1.479.179 5.971 5.971 0 0 0-1.443.524l.556 1.23a9.024 9.024 0 0 1 1.1-.432 3.891 3.891 0 0 1 1.194-.183 1.479 1.479 0 0 1 1.124.384 1.639 1.639 0 0 1 .363 1.161v.432l-1.4.044a5.361 5.361 0 0 0-2.835.7 2.142 2.142 0 0 0-.93 1.89 2.412 2.412 0 0 0 .67 1.824 2.581 2.581 0 0 0 1.864.644 3.738 3.738 0 0 0 1.524-.267 3.325 3.325 0 0 0 1.179-1.007h.058l.345 1.128h1.23zm-4.761-1.469a1.082 1.082 0 0 1-.322-.839 1.234 1.234 0 0 1 .553-1.109 3.563 3.563 0 0 1 1.769-.407l1.04-.044v.7a1.9 1.9 0 0 1-.568 1.468 2.132 2.132 0 0 1-1.5.524 1.384 1.384 0 0 1-.97-.287zm8.916-.071a1.218 1.218 0 0 1-.311-.919v-4.336h2.307v-1.3h-2.307v-1.8h-1.062l-.586 1.714-1.186.63v.762h1.106v4.365q0 2.578 2.446 2.578a5.094 5.094 0 0 0 .934-.084 3.479 3.479 0 0 0 .736-.209v-1.3a4.181 4.181 0 0 1-1.26.2 1.135 1.135 0 0 1-.817-.301zm8.255 1.564a5.294 5.294 0 0 0 1.275-.425v-1.4a6.981 6.981 0 0 1-1.33.45 6.2 6.2 0 0 1-1.336.136 2.216 2.216 0 0 1-1.692-.634 2.654 2.654 0 0 1-.637-1.813h5.4v-.93a3.721 3.721 0 0 0-.93-2.68 3.336 3.336 0 0 0-2.534-.974 3.414 3.414 0 0 0-2.717 1.135 4.592 4.592 0 0 0-.989 3.12 4.183 4.183 0 0 0 1.066 3.036 3.916 3.916 0 0 0 2.955 1.1 7.809 7.809 0 0 0 1.469-.117zm-.5-6.449a2.238 2.238 0 0 1 .484 1.519h-3.677a2.479 2.479 0 0 1 .589-1.516 1.733 1.733 0 0 1 1.315-.52 1.65 1.65 0 0 1 1.291.521zm3.7 6.339a1.231 1.231 0 0 0 1.615 0 1.164 1.164 0 0 0 .282-.824 1.135 1.135 0 0 0-.278-.809 1.062 1.062 0 0 0-.813-.3 1.073 1.073 0 0 0-.806.286 1.125 1.125 0 0 0-.278.82 1.168 1.168 0 0 0 .283.831z" fill-rule="evenodd"/></svg>