<svg xmlns="http://www.w3.org/2000/svg" width="505" height="90"><rect data-name="Rounded Rectangle 2 copy 4" x="392" y="46" width="97" height="22" rx="5" ry="5" fill="#fff" stroke="#f5a81c" stroke-linejoin="round"/><path data-name="Learn more" d="M407.97 61.546v-1.5h-4.534v-9.208h-1.75v10.708h6.284zm6.222.022a5.276 5.276 0 0 0 1.275-.425v-1.4a7.006 7.006 0 0 1-1.33.45 6.234 6.234 0 0 1-1.336.136 2.218 2.218 0 0 1-1.692-.634 2.655 2.655 0 0 1-.637-1.813h5.4v-.93a3.723 3.723 0 0 0-.931-2.681 3.338 3.338 0 0 0-2.534-.974 3.415 3.415 0 0 0-2.717 1.135 4.592 4.592 0 0 0-.989 3.12 4.182 4.182 0 0 0 1.066 3.036 3.917 3.917 0 0 0 2.955 1.1 7.806 7.806 0 0 0 1.47-.12zm-.5-6.449a2.241 2.241 0 0 1 .484 1.52H410.5a2.479 2.479 0 0 1 .589-1.516 1.731 1.731 0 0 1 1.315-.52 1.652 1.652 0 0 1 1.29.516zm9.98 6.427v-5.457a2.641 2.641 0 0 0-.787-2.117 3.506 3.506 0 0 0-2.333-.674 6.655 6.655 0 0 0-1.48.179 6.019 6.019 0 0 0-1.443.524l.557 1.23a9.057 9.057 0 0 1 1.1-.432 3.887 3.887 0 0 1 1.194-.183 1.479 1.479 0 0 1 1.124.384 1.636 1.636 0 0 1 .362 1.161v.432l-1.4.044a5.364 5.364 0 0 0-2.834.7 2.142 2.142 0 0 0-.93 1.89 2.411 2.411 0 0 0 .67 1.824 2.578 2.578 0 0 0 1.864.645 3.726 3.726 0 0 0 1.523-.267 3.318 3.318 0 0 0 1.18-1.007h.061l.344 1.128h1.231zm-4.761-1.468a1.082 1.082 0 0 1-.322-.839 1.234 1.234 0 0 1 .553-1.11 3.556 3.556 0 0 1 1.769-.407l1.04-.044v.7a1.9 1.9 0 0 1-.568 1.468 2.131 2.131 0 0 1-1.5.524 1.385 1.385 0 0 1-.97-.293zm9.427-6.354a3.206 3.206 0 0 0-1.051 1.15h-.087l-.227-1.428h-1.348v8.1h1.721v-4.234a2.437 2.437 0 0 1 .641-1.75 2.206 2.206 0 0 1 1.674-.674 3.264 3.264 0 0 1 .762.088l.168-1.6a4.154 4.154 0 0 0-.857-.073 2.5 2.5 0 0 0-1.394.42zm10.43 2.541q0-2.966-2.915-2.966a3.486 3.486 0 0 0-1.494.315 2.4 2.4 0 0 0-1.04.894h-.088l-.242-1.062h-1.347v8.1h1.721V57.51a3.558 3.558 0 0 1 .5-2.161 1.9 1.9 0 0 1 1.6-.645 1.456 1.456 0 0 1 1.2.461 2.176 2.176 0 0 1 .377 1.4v4.98h1.729v-5.28zm12.218.989a3.228 3.228 0 0 1 .465-1.923 1.707 1.707 0 0 1 1.468-.626 1.31 1.31 0 0 1 1.1.458 2.253 2.253 0 0 1 .355 1.388v5h1.726v-5.286a3.243 3.243 0 0 0-.663-2.234 2.721 2.721 0 0 0-2.113-.732 3.208 3.208 0 0 0-1.494.337 2.467 2.467 0 0 0-1.011.938h-.119a2.463 2.463 0 0 0-2.476-1.274 3.152 3.152 0 0 0-1.409.315 2.238 2.238 0 0 0-.978.894h-.088l-.242-1.062h-1.348v8.1h1.722V57.51a3.8 3.8 0 0 1 .465-2.157 1.675 1.675 0 0 1 1.461-.648 1.3 1.3 0 0 1 1.1.458 2.268 2.268 0 0 1 .351 1.388v5h1.729v-4.297zm13.224-2.823a3.569 3.569 0 0 0-2.783-1.132 3.663 3.663 0 0 0-2.847 1.101 4.391 4.391 0 0 0-1.011 3.076 5.007 5.007 0 0 0 .469 2.227 3.381 3.381 0 0 0 1.34 1.472 3.884 3.884 0 0 0 2.007.513 3.646 3.646 0 0 0 2.834-1.113 4.42 4.42 0 0 0 1.018-3.1 4.369 4.369 0 0 0-1.025-3.045zm-4.384.992a1.762 1.762 0 0 1 1.574-.723q2.066 0 2.066 2.776 0 2.805-2.051 2.805-2.073 0-2.073-2.805a3.659 3.659 0 0 1 .486-2.053zm9.651-1.7a3.2 3.2 0 0 0-1.051 1.15h-.086l-.227-1.428h-1.348v8.1h1.721v-4.233a2.437 2.437 0 0 1 .641-1.75 2.2 2.2 0 0 1 1.674-.674 3.255 3.255 0 0 1 .761.088l.169-1.6a4.16 4.16 0 0 0-.857-.073 2.5 2.5 0 0 0-1.395.42zm8.313 7.844a5.269 5.269 0 0 0 1.274-.425v-1.4a6.975 6.975 0 0 1-1.329.45 6.244 6.244 0 0 1-1.337.136 2.221 2.221 0 0 1-1.692-.634 2.665 2.665 0 0 1-.637-1.813h5.4v-.93a3.723 3.723 0 0 0-.93-2.681 3.338 3.338 0 0 0-2.534-.974 3.414 3.414 0 0 0-2.717 1.135 4.587 4.587 0 0 0-.989 3.12 4.186 4.186 0 0 0 1.065 3.036 3.92 3.92 0 0 0 2.956 1.1 7.813 7.813 0 0 0 1.472-.119zm-.5-6.449a2.246 2.246 0 0 1 .483 1.52H474.1a2.479 2.479 0 0 1 .589-1.516 1.731 1.731 0 0 1 1.315-.52 1.654 1.654 0 0 1 1.29.517z" fill-rule="evenodd"/></svg>