<svg xmlns="http://www.w3.org/2000/svg" width="488" height="90"><path data-name="THE National Comprehensive Cancer Network® (NCCN®) RecommendS" d="M167.475 21.745a.355.355 0 0 0 .435.36h3.336a.213.213 0 0 1 .208.265v10.366a.319.319 0 0 0 .341.379h3.6a.342.342 0 0 0 .266-.1.452.452 0 0 0 .095-.313v-10.4a.186.186 0 0 1 .227-.189h3.354a.346.346 0 0 0 .417-.36V19.49a.425.425 0 0 0-.123-.313.477.477 0 0 0-.351-.123h-11.332a.474.474 0 0 0-.35.123.421.421 0 0 0-.123.313v2.255zm21.09 5.742a.3.3 0 0 1 .218.085.272.272 0 0 1 .085.2v4.794a.522.522 0 0 0 .152.426.745.745 0 0 0 .474.123h3.164a.554.554 0 0 0 .4-.114.491.491 0 0 0 .114-.36V19.49a.491.491 0 0 0-.095-.322.325.325 0 0 0-.265-.114h-3.6a.318.318 0 0 0-.247.1.422.422 0 0 0-.095.294v4.4a.319.319 0 0 1-.341.379h-3.183a.319.319 0 0 1-.346-.379v-4.4a.422.422 0 0 0-.095-.294.317.317 0 0 0-.246-.1h-3.6a.326.326 0 0 0-.265.114.491.491 0 0 0-.095.322v13.151a.491.491 0 0 0 .114.36.554.554 0 0 0 .4.114h3.164a.745.745 0 0 0 .474-.123.522.522 0 0 0 .149-.427v-4.794a.272.272 0 0 1 .085-.2.3.3 0 0 1 .218-.085h3.259zm6.007-8v13.154a.491.491 0 0 0 .114.36.554.554 0 0 0 .4.114h10.138a.464.464 0 0 0 .339-.115.409.409 0 0 0 .114-.3v-2.333a.346.346 0 0 0-.417-.36h-6.16a.227.227 0 0 1-.18-.057.334.334 0 0 1-.047-.209v-1.894a.242.242 0 0 1 .085-.189.316.316 0 0 1 .218-.076h3.506a.293.293 0 0 0 .341-.322v-2.35a.344.344 0 0 0-.4-.379h-3.411a.317.317 0 0 1-.247-.1.421.421 0 0 1-.094-.294v-1.615a.355.355 0 0 1 .435-.36h5.685a.444.444 0 0 0 .493-.512l.019-2.2a.329.329 0 0 0-.341-.4h-10.23a.356.356 0 0 0-.36.436zm24.786-.436a.36.36 0 0 0-.417.4v6.2c0 .164-.032.246-.095.246a.3.3 0 0 1-.208-.171L214.09 19.4a.932.932 0 0 0-.275-.275.8.8 0 0 0-.369-.066h-3.089a.377.377 0 0 0-.417.436v13.241a.383.383 0 0 0 .474.379h2.577a.549.549 0 0 0 .369-.095.375.375 0 0 0 .086-.322V25.8a.1.1 0 0 1 .056-.114.137.137 0 0 1 .133.076l5.211 7.068a.841.841 0 0 0 .237.227.572.572 0 0 0 .275.057h2.6a.5.5 0 0 0 .313-.095.3.3 0 0 0 .123-.246v-13.4a.27.27 0 0 0-.285-.322h-2.747zm4.263 14.061h2.88a.442.442 0 0 0 .455-.284l.777-2.236a.265.265 0 0 1 .284-.209h4.018a.259.259 0 0 1 .18.047.63.63 0 0 1 .1.18l.739 2.179a.4.4 0 0 0 .417.322h3.714a.248.248 0 0 0 .227-.123.545.545 0 0 0 .076-.294 1.057 1.057 0 0 0-.038-.227l-4.548-12.9a.9.9 0 0 0-.274-.369.643.643 0 0 0-.408-.142h-3.733a.559.559 0 0 0-.36.095.831.831 0 0 0-.208.341l-4.586 12.924a.972.972 0 0 0-.057.3.417.417 0 0 0 .095.294.316.316 0 0 0 .246.1zm5.306-5.95a.193.193 0 0 1-.227-.208.426.426 0 0 1 .037-.189l1.156-3.221a.116.116 0 0 1 .228 0l1.137 3.24a1.182 1.182 0 0 1 .038.19.177.177 0 0 1-.209.189h-2.16zm6.708-5.419a.356.356 0 0 0 .436.36h3.335a.213.213 0 0 1 .209.265v10.368a.319.319 0 0 0 .341.379h3.6a.339.339 0 0 0 .265-.1.452.452 0 0 0 .095-.313v-10.4a.186.186 0 0 1 .227-.189h3.357a.345.345 0 0 0 .416-.36V19.49a.425.425 0 0 0-.123-.313.474.474 0 0 0-.35-.123h-11.334a.475.475 0 0 0-.351.123.425.425 0 0 0-.123.313v2.255zm13.587-2.691a.325.325 0 0 0-.265.114.486.486 0 0 0-.095.322v13.153a.5.5 0 0 0 .113.36.556.556 0 0 0 .4.114h3.165a.747.747 0 0 0 .474-.123.521.521 0 0 0 .151-.426V19.452a.329.329 0 0 0-.341-.4h-3.6zM260.989 33.3a7.07 7.07 0 0 0 3.582-.881 5.948 5.948 0 0 0 2.368-2.511 8.21 8.21 0 0 0 .834-3.79 8.239 8.239 0 0 0-.843-3.818 6.12 6.12 0 0 0-2.378-2.539 6.915 6.915 0 0 0-3.563-.9 7.006 7.006 0 0 0-3.591.9 6.1 6.1 0 0 0-2.387 2.539 8.227 8.227 0 0 0-.843 3.818 8.2 8.2 0 0 0 .833 3.8 5.948 5.948 0 0 0 2.378 2.5 7.161 7.161 0 0 0 3.61.881zm0-2.956a2.088 2.088 0 0 1-1.355-.407 2.381 2.381 0 0 1-.729-1.317 10.449 10.449 0 0 1-.228-2.445 7.7 7.7 0 0 1 .541-3.373 1.851 1.851 0 0 1 1.771-1.023 1.818 1.818 0 0 1 1.744 1.023 7.835 7.835 0 0 1 .53 3.373 10.512 10.512 0 0 1-.227 2.445 2.418 2.418 0 0 1-.72 1.317 2.019 2.019 0 0 1-1.327.407zm17.211-11.29a.36.36 0 0 0-.416.4v6.2c0 .164-.032.246-.095.246a.3.3 0 0 1-.209-.171l-4.553-6.329a.931.931 0 0 0-.274-.275.809.809 0 0 0-.37-.066h-3.089a.377.377 0 0 0-.416.436v13.241a.382.382 0 0 0 .473.379h2.577a.554.554 0 0 0 .37-.095.375.375 0 0 0 .085-.322V25.8a.1.1 0 0 1 .057-.114.137.137 0 0 1 .133.076l5.211 7.068a.841.841 0 0 0 .237.227.571.571 0 0 0 .274.057h2.6a.5.5 0 0 0 .313-.095.3.3 0 0 0 .123-.246v-13.4a.269.269 0 0 0-.284-.322H278.2zm4.264 14.061h2.88a.443.443 0 0 0 .455-.284l.777-2.236a.264.264 0 0 1 .284-.209h4.017a.255.255 0 0 1 .18.047.6.6 0 0 1 .1.18l.739 2.179a.4.4 0 0 0 .416.322h3.715a.249.249 0 0 0 .227-.123.554.554 0 0 0 .076-.294 1.057 1.057 0 0 0-.038-.227l-4.548-12.9a.9.9 0 0 0-.275-.369.64.64 0 0 0-.407-.142h-3.733a.557.557 0 0 0-.36.095.831.831 0 0 0-.209.341l-4.585 12.924a.972.972 0 0 0-.057.3.421.421 0 0 0 .094.294.318.318 0 0 0 .247.1zm5.306-5.95a.193.193 0 0 1-.228-.208.426.426 0 0 1 .038-.189l1.156-3.221a.115.115 0 0 1 .227 0l1.137 3.24a1.072 1.072 0 0 1 .038.19.176.176 0 0 1-.208.189h-2.16zm9.43-7.675v13.151a.491.491 0 0 0 .114.36.556.556 0 0 0 .4.114h9.686a.5.5 0 0 0 .347-.115.393.393 0 0 0 .123-.3v-2.333a.356.356 0 0 0-.436-.36h-5.7a.228.228 0 0 1-.18-.057.341.341 0 0 1-.047-.209V19.452a.329.329 0 0 0-.341-.4h-3.6a.326.326 0 0 0-.265.114.491.491 0 0 0-.095.322zm21.148-.625a7.1 7.1 0 0 0-3.553.862 5.839 5.839 0 0 0-2.35 2.454 7.964 7.964 0 0 0-.824 3.714 8.538 8.538 0 0 0 .824 3.818 6.359 6.359 0 0 0 2.34 2.634 6.464 6.464 0 0 0 3.525.957 6.269 6.269 0 0 0 5.562-2.928 3.828 3.828 0 0 0 .653-1.639.409.409 0 0 0-.284-.436l-2.369-.474a.908.908 0 0 0-.208-.019.294.294 0 0 0-.322.17 3.729 3.729 0 0 1-1.185 1.706 2.854 2.854 0 0 1-1.715.512 1.88 1.88 0 0 1-1.752-.966 6.915 6.915 0 0 1-.559-3.259 6.369 6.369 0 0 1 .606-3.2 1.916 1.916 0 0 1 1.724-.985 1.667 1.667 0 0 1 1.327.521 2.961 2.961 0 0 1 .625 1.431.811.811 0 0 0 .114.294.327.327 0 0 0 .246.066l3.316-.209a.447.447 0 0 0 .237-.076.3.3 0 0 0 .067-.227 1.577 1.577 0 0 0-.057-.36 4.978 4.978 0 0 0-1.061-2.255 5.576 5.576 0 0 0-2.085-1.544 6.984 6.984 0 0 0-2.842-.559zM331.86 33.3a7.067 7.067 0 0 0 3.581-.881 5.95 5.95 0 0 0 2.369-2.511 8.21 8.21 0 0 0 .834-3.79 8.239 8.239 0 0 0-.844-3.818 6.12 6.12 0 0 0-2.378-2.539 6.914 6.914 0 0 0-3.562-.9 7 7 0 0 0-3.591.9 6.1 6.1 0 0 0-2.388 2.539 8.239 8.239 0 0 0-.843 3.818 8.2 8.2 0 0 0 .834 3.8 5.936 5.936 0 0 0 2.378 2.5 7.158 7.158 0 0 0 3.61.881zm0-2.956a2.085 2.085 0 0 1-1.355-.407 2.382 2.382 0 0 1-.73-1.317 10.512 10.512 0 0 1-.227-2.445 7.7 7.7 0 0 1 .54-3.373 1.852 1.852 0 0 1 1.772-1.023 1.817 1.817 0 0 1 1.743 1.023 7.817 7.817 0 0 1 .531 3.373 10.449 10.449 0 0 1-.228 2.445 2.4 2.4 0 0 1-.72 1.317 2.018 2.018 0 0 1-1.326.407zm8.281 2.767h2.52a.473.473 0 0 0 .339-.082.523.523 0 0 0 .076-.332v-8.375c0-.139.031-.208.1-.208a.214.214 0 0 1 .132.189l2.729 8.47a.446.446 0 0 0 .455.341h1.989a.465.465 0 0 0 .455-.341l2.729-8.622a.194.194 0 0 1 .151-.17c.051 0 .076.051.076.152v8.508a.4.4 0 0 0 .493.474h3.2a.706.706 0 0 0 .465-.123.544.544 0 0 0 .142-.426V19.452a.329.329 0 0 0-.341-.4h-5.477a.588.588 0 0 0-.511.55l-1.763 5.819a.19.19 0 0 1-.113.152.182.182 0 0 1-.133-.152l-1.972-6.021a.526.526 0 0 0-.18-.275.682.682 0 0 0-.35-.066h-5.306a.392.392 0 0 0-.3.1.479.479 0 0 0-.095.332v13.093a.544.544 0 0 0 .133.388.467.467 0 0 0 .36.142zm29.788-9.494a4.087 4.087 0 0 0-.758-2.5 4.644 4.644 0 0 0-2.056-1.544 7.7 7.7 0 0 0-2.89-.521h-6.272a.356.356 0 0 0-.36.436v13.153a.524.524 0 0 0 .1.36.519.519 0 0 0 .389.114h3.183a.745.745 0 0 0 .474-.123.521.521 0 0 0 .151-.426v-4.283a.193.193 0 0 1 .228-.208h2.6a6.49 6.49 0 0 0 2.719-.54 4.093 4.093 0 0 0 2.492-3.913zm-4.4-.057a1.484 1.484 0 0 1-.4 1.052 1.383 1.383 0 0 1-1.061.426h-1.857a.3.3 0 0 1-.247-.095.528.528 0 0 1-.076-.322v-2.137a.417.417 0 0 1 .095-.3.479.479 0 0 1 .341-.095h1.63a1.615 1.615 0 0 1 1.118.408 1.37 1.37 0 0 1 .455 1.071zm17.641 8.944l-2.383-5.304a.577.577 0 0 1-.038-.171.2.2 0 0 1 .114-.189 3.718 3.718 0 0 0 1.79-1.44 4.066 4.066 0 0 0 .692-2.331 3.4 3.4 0 0 0-1.516-2.966 7.412 7.412 0 0 0-4.264-1.052h-6.329a.356.356 0 0 0-.36.436v13.154a.4.4 0 0 0 .493.474h3.183a.745.745 0 0 0 .474-.123.522.522 0 0 0 .152-.426v-4.833a.234.234 0 0 1 .057-.133.2.2 0 0 1 .17-.076h.872a.827.827 0 0 1 .4.076.426.426 0 0 1 .189.227l1.781 4.889a.492.492 0 0 0 .512.4h3.676a.354.354 0 0 0 .273-.116.407.407 0 0 0 .1-.284.463.463 0 0 0-.038-.208zM377.4 24.7h-1.9a.292.292 0 0 1-.256-.095.54.54 0 0 1-.066-.3v-2.067a.382.382 0 0 1 .094-.294.52.52 0 0 1 .342-.085h1.667a1.729 1.729 0 0 1 1.147.388 1.344 1.344 0 0 1 .464 1.09 1.309 1.309 0 0 1-.389.995 1.545 1.545 0 0 1-1.108.369zm6.916-5.211v13.152a.491.491 0 0 0 .114.36.554.554 0 0 0 .4.114h10.138A.463.463 0 0 0 395.3 33a.409.409 0 0 0 .114-.3v-2.333a.346.346 0 0 0-.417-.36h-6.157a.228.228 0 0 1-.18-.057.341.341 0 0 1-.047-.209v-1.894a.242.242 0 0 1 .085-.189.318.318 0 0 1 .218-.076h3.506a.293.293 0 0 0 .341-.322v-2.35a.344.344 0 0 0-.4-.379h-3.411a.316.316 0 0 1-.246-.1.417.417 0 0 1-.1-.294v-1.615a.356.356 0 0 1 .436-.36h5.685a.444.444 0 0 0 .492-.512l.019-2.2a.329.329 0 0 0-.341-.4h-10.226a.356.356 0 0 0-.36.436zm20.011 8a.3.3 0 0 1 .218.085.272.272 0 0 1 .085.2v4.794a.519.519 0 0 0 .152.426.742.742 0 0 0 .473.123h3.165a.556.556 0 0 0 .4-.114.491.491 0 0 0 .114-.36V19.49a.491.491 0 0 0-.1-.322.328.328 0 0 0-.266-.114h-3.6a.317.317 0 0 0-.246.1.417.417 0 0 0-.1.294v4.4a.319.319 0 0 1-.341.379H401.1a.319.319 0 0 1-.341-.379v-4.4a.422.422 0 0 0-.094-.294.321.321 0 0 0-.247-.1h-3.6a.325.325 0 0 0-.265.114.486.486 0 0 0-.095.322v13.151a.5.5 0 0 0 .113.36.556.556 0 0 0 .4.114h3.165a.747.747 0 0 0 .474-.123.521.521 0 0 0 .151-.426v-4.795a.273.273 0 0 1 .086-.2.293.293 0 0 1 .217-.085h3.26zm6.007-8v13.152a.5.5 0 0 0 .113.36.556.556 0 0 0 .4.114h10.138a.461.461 0 0 0 .334-.115.409.409 0 0 0 .114-.3v-2.333a.346.346 0 0 0-.417-.36h-6.158a.225.225 0 0 1-.18-.057.333.333 0 0 1-.048-.209v-1.894a.246.246 0 0 1 .085-.189.318.318 0 0 1 .218-.076h3.506a.293.293 0 0 0 .341-.322v-2.35a.344.344 0 0 0-.4-.379h-3.411a.316.316 0 0 1-.246-.1.422.422 0 0 1-.1-.294v-1.615a.356.356 0 0 1 .436-.36h5.685a.444.444 0 0 0 .493-.512l.018-2.2a.329.329 0 0 0-.341-.4h-10.225a.356.356 0 0 0-.36.436zm21.564-.436a.36.36 0 0 0-.417.4v6.2c0 .164-.032.246-.1.246a.3.3 0 0 1-.208-.171l-4.548-6.328a.932.932 0 0 0-.275-.275.8.8 0 0 0-.369-.066h-3.089a.377.377 0 0 0-.417.436v13.241a.383.383 0 0 0 .474.379h2.577a.549.549 0 0 0 .369-.095.375.375 0 0 0 .086-.322V25.8a.1.1 0 0 1 .057-.114.136.136 0 0 1 .132.076l5.211 7.068a.868.868 0 0 0 .237.227.572.572 0 0 0 .275.057h2.6a.5.5 0 0 0 .313-.095.3.3 0 0 0 .123-.246v-13.4a.269.269 0 0 0-.284-.322h-2.748zm12.81 3.771a.621.621 0 0 0 .36.227.326.326 0 0 0 .208-.076l2.066-1.5a.325.325 0 0 0 .132-.246.537.537 0 0 0-.132-.322 4.368 4.368 0 0 0-2.1-1.488 8.776 8.776 0 0 0-3.164-.559 7.413 7.413 0 0 0-3.07.6 4.843 4.843 0 0 0-2.047 1.63 3.954 3.954 0 0 0 .275 4.91 5.1 5.1 0 0 0 2.71 1.563l2.881.7a2.016 2.016 0 0 1 .89.4.808.808 0 0 1 .3.625.9.9 0 0 1-.616.805 3.948 3.948 0 0 1-1.677.294 3.871 3.871 0 0 1-1.762-.341 4.083 4.083 0 0 1-1.307-1.175.415.415 0 0 0-.341-.171.721.721 0 0 0-.379.133l-1.952 1.345a.427.427 0 0 0-.209.341.73.73 0 0 0 .1.284 4.654 4.654 0 0 0 2.378 1.81 10.068 10.068 0 0 0 3.8.692 8.364 8.364 0 0 0 3.212-.569 4.718 4.718 0 0 0 2.112-1.611 4.113 4.113 0 0 0 .739-2.444 4.043 4.043 0 0 0-.871-2.606 4.661 4.661 0 0 0-2.6-1.525l-3.146-.815q-1.214-.284-1.213-.966a.809.809 0 0 1 .474-.682 2.916 2.916 0 0 1 1.459-.284 3.41 3.41 0 0 1 1.507.265 3.513 3.513 0 0 1 .976.758zm4.7-3.771a.325.325 0 0 0-.265.114.486.486 0 0 0-.1.322v13.152a.5.5 0 0 0 .113.36.556.556 0 0 0 .4.114h3.165a.747.747 0 0 0 .474-.123.521.521 0 0 0 .151-.426V19.452a.329.329 0 0 0-.341-.4h-3.6zm17.755 0h-2.823a.519.519 0 0 0-.313.1.459.459 0 0 0-.18.294l-2.368 8.3a.222.222 0 0 1-.1.152.144.144 0 0 1-.095-.133l-2.539-8.319a.471.471 0 0 0-.474-.4h-3.657a.4.4 0 0 0-.284.1.354.354 0 0 0-.114.275.578.578 0 0 0 .038.171l4.4 13.037a.64.64 0 0 0 .7.474h3.07a.64.64 0 0 0 .7-.474l4.4-13.037a.563.563 0 0 0 .019-.171.358.358 0 0 0-.379-.379zm1.251.436v13.152a.491.491 0 0 0 .114.36.553.553 0 0 0 .4.114h10.137A.465.465 0 0 0 479.4 33a.412.412 0 0 0 .113-.3v-2.333a.346.346 0 0 0-.417-.36h-6.158a.225.225 0 0 1-.18-.057.333.333 0 0 1-.048-.209v-1.894a.243.243 0 0 1 .086-.189.316.316 0 0 1 .218-.076h3.5a.293.293 0 0 0 .341-.322v-2.35a.343.343 0 0 0-.4-.379h-3.405a.316.316 0 0 1-.246-.1.422.422 0 0 1-.095-.294v-1.615a.356.356 0 0 1 .436-.36h5.685a.444.444 0 0 0 .493-.512l.019-2.2a.329.329 0 0 0-.341-.4h-10.233a.356.356 0 0 0-.36.436zM174.24 37.814a7.1 7.1 0 0 0-3.553.862 5.827 5.827 0 0 0-2.35 2.454 7.964 7.964 0 0 0-.825 3.714 8.538 8.538 0 0 0 .825 3.818 6.353 6.353 0 0 0 2.34 2.634 6.462 6.462 0 0 0 3.525.957 6.266 6.266 0 0 0 5.561-2.928 3.82 3.82 0 0 0 .654-1.639.41.41 0 0 0-.284-.436l-2.369-.474a.908.908 0 0 0-.208-.019.293.293 0 0 0-.322.171 3.729 3.729 0 0 1-1.185 1.706 2.856 2.856 0 0 1-1.715.512 1.881 1.881 0 0 1-1.753-.966 6.928 6.928 0 0 1-.559-3.259 6.357 6.357 0 0 1 .607-3.2 1.916 1.916 0 0 1 1.724-.985 1.667 1.667 0 0 1 1.327.521 2.97 2.97 0 0 1 .625 1.431.81.81 0 0 0 .114.294.327.327 0 0 0 .246.066l3.316-.208a.447.447 0 0 0 .237-.076.3.3 0 0 0 .066-.227 1.623 1.623 0 0 0-.056-.36 4.98 4.98 0 0 0-1.062-2.255 5.564 5.564 0 0 0-2.084-1.544 6.986 6.986 0 0 0-2.842-.559zm6.348 14.25h2.88a.443.443 0 0 0 .455-.284l.777-2.236a.264.264 0 0 1 .284-.208H189a.257.257 0 0 1 .18.047.585.585 0 0 1 .1.18l.739 2.179a.4.4 0 0 0 .417.322h3.714a.251.251 0 0 0 .228-.123.554.554 0 0 0 .076-.294 1.059 1.059 0 0 0-.038-.227l-4.548-12.9a.9.9 0 0 0-.275-.37.64.64 0 0 0-.402-.15h-3.733a.555.555 0 0 0-.36.095.831.831 0 0 0-.209.341L180.3 51.363a1 1 0 0 0-.056.3.421.421 0 0 0 .094.294.317.317 0 0 0 .247.1zm5.306-5.95a.193.193 0 0 1-.228-.208.426.426 0 0 1 .038-.19l1.156-3.221a.115.115 0 0 1 .227 0l1.137 3.24a1.182 1.182 0 0 1 .038.19.176.176 0 0 1-.208.189h-2.16zM204.748 38a.36.36 0 0 0-.417.4v6.2c0 .164-.031.246-.094.246a.3.3 0 0 1-.209-.171l-4.548-6.329a.931.931 0 0 0-.275-.275.8.8 0 0 0-.369-.071h-3.089a.377.377 0 0 0-.417.436v13.249a.383.383 0 0 0 .474.379h2.577a.554.554 0 0 0 .37-.095.379.379 0 0 0 .085-.322v-6.9a.1.1 0 0 1 .057-.114.135.135 0 0 1 .132.076l5.212 7.068a.853.853 0 0 0 .236.227.575.575 0 0 0 .275.057h2.6a.5.5 0 0 0 .313-.095.3.3 0 0 0 .123-.246v-13.4a.269.269 0 0 0-.284-.32h-2.748zm10.744-.189a7.1 7.1 0 0 0-3.553.862 5.839 5.839 0 0 0-2.35 2.454 7.976 7.976 0 0 0-.824 3.714 8.551 8.551 0 0 0 .824 3.818 6.362 6.362 0 0 0 2.341 2.641 6.458 6.458 0 0 0 3.524.957 6.27 6.27 0 0 0 5.562-2.928 3.82 3.82 0 0 0 .654-1.639.41.41 0 0 0-.284-.436l-2.369-.474a.918.918 0 0 0-.209-.019.294.294 0 0 0-.322.171 3.728 3.728 0 0 1-1.184 1.706 2.858 2.858 0 0 1-1.715.512 1.881 1.881 0 0 1-1.753-.966 6.915 6.915 0 0 1-.559-3.259 6.357 6.357 0 0 1 .607-3.2 1.915 1.915 0 0 1 1.724-.985 1.665 1.665 0 0 1 1.326.521 2.961 2.961 0 0 1 .626 1.431.834.834 0 0 0 .113.294.328.328 0 0 0 .247.066l3.316-.208a.451.451 0 0 0 .237-.076.3.3 0 0 0 .066-.227 1.577 1.577 0 0 0-.057-.36 4.968 4.968 0 0 0-1.061-2.255 5.564 5.564 0 0 0-2.084-1.544 6.987 6.987 0 0 0-2.843-.559zm7.087.625V51.59a.491.491 0 0 0 .114.36.554.554 0 0 0 .4.114h10.138a.463.463 0 0 0 .341-.114.409.409 0 0 0 .114-.3v-2.334a.346.346 0 0 0-.417-.36h-6.159a.228.228 0 0 1-.18-.057.341.341 0 0 1-.047-.209V46.8a.242.242 0 0 1 .085-.19.318.318 0 0 1 .218-.076h3.506a.293.293 0 0 0 .341-.322v-2.35a.344.344 0 0 0-.4-.379h-3.411a.316.316 0 0 1-.246-.1.417.417 0 0 1-.095-.294v-1.618a.356.356 0 0 1 .436-.36H233a.444.444 0 0 0 .492-.512l.019-2.2a.329.329 0 0 0-.341-.4h-10.231a.356.356 0 0 0-.36.436zm24.445 13.018l-2.388-5.306a.612.612 0 0 1-.038-.171.2.2 0 0 1 .114-.189 3.715 3.715 0 0 0 1.791-1.44 4.065 4.065 0 0 0 .691-2.331 3.4 3.4 0 0 0-1.515-2.966A7.414 7.414 0 0 0 241.415 38h-6.329a.356.356 0 0 0-.36.436V51.59a.4.4 0 0 0 .492.474h3.182a.746.746 0 0 0 .474-.123.521.521 0 0 0 .151-.426v-4.832a.234.234 0 0 1 .057-.133.2.2 0 0 1 .171-.076h.871a.824.824 0 0 1 .4.076.423.423 0 0 1 .19.227l1.781 4.889a.491.491 0 0 0 .512.4h3.676a.356.356 0 0 0 .275-.114.407.407 0 0 0 .1-.284.477.477 0 0 0-.038-.209zm-5.78-7.807h-1.9a.291.291 0 0 1-.255-.095.531.531 0 0 1-.067-.3v-2.065a.382.382 0 0 1 .1-.294.517.517 0 0 1 .341-.085h1.668a1.728 1.728 0 0 1 1.146.388 1.341 1.341 0 0 1 .464 1.09 1.308 1.308 0 0 1-.388.995 1.547 1.547 0 0 1-1.109.37zM260.8 38a.36.36 0 0 0-.417.4v6.2c0 .164-.031.246-.095.246a.3.3 0 0 1-.208-.171l-4.548-6.329a.931.931 0 0 0-.275-.275.8.8 0 0 0-.369-.071H251.8a.377.377 0 0 0-.417.436v13.249a.383.383 0 0 0 .474.379h2.577a.554.554 0 0 0 .37-.095.379.379 0 0 0 .085-.322v-6.9a.1.1 0 0 1 .057-.114.135.135 0 0 1 .132.076l5.211 7.068a.868.868 0 0 0 .237.227.575.575 0 0 0 .275.057h2.6a.5.5 0 0 0 .313-.095.3.3 0 0 0 .123-.246v-13.4a.269.269 0 0 0-.289-.32H260.8zm4.434.436V51.59a.491.491 0 0 0 .114.36.554.554 0 0 0 .4.114h10.138a.464.464 0 0 0 .341-.114.408.408 0 0 0 .113-.3v-2.334a.345.345 0 0 0-.416-.36h-6.159a.225.225 0 0 1-.18-.057.334.334 0 0 1-.047-.209V46.8a.242.242 0 0 1 .085-.19.316.316 0 0 1 .218-.076h3.5a.294.294 0 0 0 .342-.322v-2.35a.344.344 0 0 0-.4-.379h-3.411a.317.317 0 0 1-.247-.1.421.421 0 0 1-.094-.294v-1.618a.355.355 0 0 1 .435-.36h5.685a.444.444 0 0 0 .493-.512l.019-2.2a.329.329 0 0 0-.341-.4h-10.228a.356.356 0 0 0-.36.436zm11.692 2.255a.356.356 0 0 0 .436.36h3.338a.213.213 0 0 1 .208.265v10.369a.319.319 0 0 0 .341.379h3.6a.341.341 0 0 0 .265-.1.452.452 0 0 0 .095-.313v-10.4a.186.186 0 0 1 .227-.19h3.354a.346.346 0 0 0 .417-.36v-2.262a.424.424 0 0 0-.123-.313.477.477 0 0 0-.353-.126H277.4a.474.474 0 0 0-.35.123.424.424 0 0 0-.123.313v2.255zM309.1 38h-2.2a.537.537 0 0 0-.607.4l-1.933 7.239c-.012.076-.044.108-.094.095a.176.176 0 0 1-.114-.133l-2.084-7.2a.53.53 0 0 0-.19-.3.727.727 0 0 0-.413-.101h-2.653a.535.535 0 0 0-.606.4l-1.99 7.106a.161.161 0 0 1-.1.152.253.253 0 0 1-.132-.227L293.98 38.4a.529.529 0 0 0-.189-.3.729.729 0 0 0-.417-.1h-3.127a.65.65 0 0 0-.445.142.49.49 0 0 0-.161.389.994.994 0 0 0 .038.227l3.865 12.829a.782.782 0 0 0 .247.36.715.715 0 0 0 .435.114h2.71a.764.764 0 0 0 .446-.114.657.657 0 0 0 .236-.36l1.952-6.632a.485.485 0 0 1 .171-.284.276.276 0 0 1 .132.246l1.971 6.67a.627.627 0 0 0 .682.474h2.615a.716.716 0 0 0 .436-.114.8.8 0 0 0 .247-.36l3.846-12.829a1.054 1.054 0 0 0 .038-.227.493.493 0 0 0-.161-.389.65.65 0 0 0-.447-.142zm6.973 14.25a7.07 7.07 0 0 0 3.582-.881 5.948 5.948 0 0 0 2.368-2.511 9.049 9.049 0 0 0-.009-7.608 6.12 6.12 0 0 0-2.378-2.539 6.914 6.914 0 0 0-3.563-.9 7.005 7.005 0 0 0-3.591.9 6.1 6.1 0 0 0-2.387 2.539 9.065 9.065 0 0 0-.01 7.618 5.947 5.947 0 0 0 2.378 2.5 7.161 7.161 0 0 0 3.61.881zm0-2.956a2.088 2.088 0 0 1-1.355-.407 2.381 2.381 0 0 1-.729-1.317 10.449 10.449 0 0 1-.228-2.444 7.683 7.683 0 0 1 .541-3.373 1.851 1.851 0 0 1 1.771-1.023 1.818 1.818 0 0 1 1.744 1.023 7.835 7.835 0 0 1 .53 3.373 10.512 10.512 0 0 1-.227 2.444 2.418 2.418 0 0 1-.72 1.317 2.019 2.019 0 0 1-1.327.407zm20.087 2.16l-2.388-5.306a.612.612 0 0 1-.038-.171.2.2 0 0 1 .114-.189 3.724 3.724 0 0 0 1.791-1.44 4.065 4.065 0 0 0 .691-2.331 3.4 3.4 0 0 0-1.516-2.966A7.411 7.411 0 0 0 330.553 38h-6.329a.355.355 0 0 0-.36.436V51.59a.4.4 0 0 0 .492.474h3.184a.743.743 0 0 0 .473-.123.521.521 0 0 0 .152-.426v-4.832a.234.234 0 0 1 .057-.133.2.2 0 0 1 .17-.076h.872a.824.824 0 0 1 .4.076.428.428 0 0 1 .19.227l1.781 4.889a.491.491 0 0 0 .511.4h3.677a.354.354 0 0 0 .274-.114.4.4 0 0 0 .1-.284.477.477 0 0 0-.038-.209zm-5.78-7.807h-1.895a.293.293 0 0 1-.256-.095.541.541 0 0 1-.066-.3v-2.065a.378.378 0 0 1 .095-.294.517.517 0 0 1 .341-.085h1.667a1.729 1.729 0 0 1 1.147.388 1.344 1.344 0 0 1 .464 1.09 1.311 1.311 0 0 1-.388.995 1.547 1.547 0 0 1-1.109.37zm20.049 7.826l-4.129-8.505a.633.633 0 0 1-.076-.284.48.48 0 0 1 .133-.322l3.107-3.809a.31.31 0 0 0 .1-.227.266.266 0 0 0-.133-.237.658.658 0 0 0-.36-.085h-2.88a.827.827 0 0 0-.815.4l-3.487 4.889a.3.3 0 0 1-.189.133c-.063 0-.095-.076-.095-.227V38.4a.329.329 0 0 0-.341-.4h-3.6a.327.327 0 0 0-.266.114.491.491 0 0 0-.094.322V51.59a.5.5 0 0 0 .113.36.556.556 0 0 0 .4.114h3.165a.746.746 0 0 0 .474-.123.521.521 0 0 0 .151-.426v-2.862a.631.631 0 0 1 .114-.417l1.345-1.724a.465.465 0 0 1 .266-.208.2.2 0 0 1 .151.114l2.312 5.268a.672.672 0 0 0 .682.379h3.695a.279.279 0 0 0 .341-.284.679.679 0 0 0-.075-.3zm5.116-4.624a4.387 4.387 0 0 0 2.264-.606 4.522 4.522 0 0 0 1.639-1.639 4.384 4.384 0 0 0 .607-2.264 4.436 4.436 0 0 0-.607-2.274 4.493 4.493 0 0 0-1.648-1.649 4.531 4.531 0 0 0-4.529 0 4.513 4.513 0 0 0-2.255 3.923 4.393 4.393 0 0 0 .606 2.264 4.5 4.5 0 0 0 1.649 1.639 4.436 4.436 0 0 0 2.274.606zm0-1.345a2.954 2.954 0 0 1-2.227-.853 3.187 3.187 0 0 1-.824-2.312 3.229 3.229 0 0 1 .824-2.312 3.255 3.255 0 0 1 4.434 0 3.225 3.225 0 0 1 .825 2.312 3.191 3.191 0 0 1-.825 2.3 2.909 2.909 0 0 1-2.207.862zm2.065-1.1l-.777-1.762a.122.122 0 0 1 .038-.114 1.328 1.328 0 0 0 .578-.455 1.172 1.172 0 0 0 .218-.7 1.048 1.048 0 0 0-.493-.919 2.42 2.42 0 0 0-1.364-.332h-2.065a.11.11 0 0 0-.114.133v4.188a.134.134 0 0 0 .151.152h1a.169.169 0 0 0 .208-.17v-1.608a.067.067 0 0 1 .076-.076h.341a.205.205 0 0 1 .19.095l.549 1.63a.184.184 0 0 0 .171.133h1.183a.117.117 0 0 0 .132-.133zm-1.857-2.558h-.663c-.063 0-.095-.044-.095-.133v-.583a.11.11 0 0 1 .133-.114h.606a.583.583 0 0 1 .36.114.361.361 0 0 1 .152.3.389.389 0 0 1-.133.294.506.506 0 0 1-.36.123zM172.115 56.438h-1.78a.579.579 0 0 0-.475.237 14.318 14.318 0 0 0-1.712 3.569 12.853 12.853 0 0 0-.611 3.942 11.166 11.166 0 0 0 .585 3.7 21.668 21.668 0 0 0 1.772 3.713.678.678 0 0 0 .161.17.345.345 0 0 0 .195.051h1.85a.238.238 0 0 0 .161-.051.152.152 0 0 0 .06-.119.281.281 0 0 0-.034-.119A21.27 21.27 0 0 1 170.9 67.8a14.345 14.345 0 0 1-.449-3.594 15.722 15.722 0 0 1 .483-3.874 17.938 17.938 0 0 1 1.348-3.637.163.163 0 0 0-.17-.254zm10.352.515a.36.36 0 0 0-.417.4v6.2c0 .164-.031.246-.094.246a.3.3 0 0 1-.209-.17l-4.547-6.335a.93.93 0 0 0-.274-.275.811.811 0 0 0-.37-.066h-3.089a.377.377 0 0 0-.417.436v13.246a.383.383 0 0 0 .474.379h2.576a.554.554 0 0 0 .37-.095.375.375 0 0 0 .085-.322V63.7a.1.1 0 0 1 .057-.114.137.137 0 0 1 .133.076l5.211 7.068a.841.841 0 0 0 .237.227.571.571 0 0 0 .274.057h2.6a.5.5 0 0 0 .313-.095.3.3 0 0 0 .123-.246v-13.4a.269.269 0 0 0-.284-.322h-2.748zm10.744-.19a7.1 7.1 0 0 0-3.553.862 5.831 5.831 0 0 0-2.349 2.454 7.964 7.964 0 0 0-.825 3.714 8.539 8.539 0 0 0 .825 3.818 6.352 6.352 0 0 0 2.34 2.634 6.458 6.458 0 0 0 3.525.957 6.266 6.266 0 0 0 5.561-2.928 3.82 3.82 0 0 0 .654-1.639.41.41 0 0 0-.284-.436l-2.369-.474a.907.907 0 0 0-.208-.019.3.3 0 0 0-.323.171 3.72 3.72 0 0 1-1.184 1.705 2.856 2.856 0 0 1-1.715.512 1.882 1.882 0 0 1-1.753-.966 6.928 6.928 0 0 1-.559-3.259 6.356 6.356 0 0 1 .607-3.2 1.916 1.916 0 0 1 1.724-.985 1.669 1.669 0 0 1 1.327.521 2.97 2.97 0 0 1 .625 1.431.81.81 0 0 0 .114.294.327.327 0 0 0 .246.066l3.316-.208a.447.447 0 0 0 .237-.076.3.3 0 0 0 .066-.227 1.577 1.577 0 0 0-.057-.36 4.967 4.967 0 0 0-1.061-2.255 5.564 5.564 0 0 0-2.084-1.544 6.987 6.987 0 0 0-2.843-.559zm13.4 0a7.1 7.1 0 0 0-3.553.862 5.834 5.834 0 0 0-2.35 2.454 7.964 7.964 0 0 0-.824 3.714 8.538 8.538 0 0 0 .824 3.818 6.352 6.352 0 0 0 2.34 2.634 6.463 6.463 0 0 0 3.525.957 6.266 6.266 0 0 0 5.561-2.928 3.82 3.82 0 0 0 .654-1.639.41.41 0 0 0-.288-.435l-2.369-.474a.9.9 0 0 0-.208-.019.294.294 0 0 0-.322.171 3.729 3.729 0 0 1-1.185 1.705 2.854 2.854 0 0 1-1.715.512 1.88 1.88 0 0 1-1.752-.966 6.915 6.915 0 0 1-.559-3.259 6.369 6.369 0 0 1 .606-3.2 1.916 1.916 0 0 1 1.724-.985 1.667 1.667 0 0 1 1.327.521 2.961 2.961 0 0 1 .625 1.431.81.81 0 0 0 .114.294.327.327 0 0 0 .246.066l3.316-.208a.447.447 0 0 0 .237-.076.3.3 0 0 0 .067-.227 1.577 1.577 0 0 0-.057-.36 4.978 4.978 0 0 0-1.061-2.255 5.576 5.576 0 0 0-2.085-1.544 6.982 6.982 0 0 0-2.842-.559zm16.5.19a.36.36 0 0 0-.417.4v6.2c0 .164-.032.246-.095.246a.3.3 0 0 1-.208-.17l-4.548-6.329a.943.943 0 0 0-.275-.275.808.808 0 0 0-.37-.066h-3.088a.377.377 0 0 0-.417.436v13.24a.383.383 0 0 0 .474.379h2.577a.551.551 0 0 0 .369-.095.375.375 0 0 0 .087-.319v-6.9a.1.1 0 0 1 .057-.114.137.137 0 0 1 .133.076l5.211 7.068a.841.841 0 0 0 .237.227.572.572 0 0 0 .275.057h2.6a.5.5 0 0 0 .312-.095.3.3 0 0 0 .124-.246v-13.4a.27.27 0 0 0-.285-.322h-2.747zm8.621 8.849A4.394 4.394 0 0 0 234 65.2a4.531 4.531 0 0 0 1.639-1.639 4.393 4.393 0 0 0 .606-2.265 4.519 4.519 0 1 0-9.038 0 4.384 4.384 0 0 0 .606 2.265 4.5 4.5 0 0 0 1.649 1.639 4.436 4.436 0 0 0 2.273.606zm0-1.345a2.951 2.951 0 0 1-2.226-.853 3.183 3.183 0 0 1-.824-2.312 3.225 3.225 0 0 1 .824-2.312 3.255 3.255 0 0 1 4.434 0 3.225 3.225 0 0 1 .824 2.312 3.19 3.19 0 0 1-.824 2.3 2.911 2.911 0 0 1-2.208.862zm2.066-1.1l-.774-1.757a.119.119 0 0 1 .038-.114 1.335 1.335 0 0 0 .578-.455 1.172 1.172 0 0 0 .218-.7 1.051 1.051 0 0 0-.493-.919 2.423 2.423 0 0 0-1.365-.337h-2.066a.109.109 0 0 0-.113.133V63.4a.134.134 0 0 0 .151.152h1a.17.17 0 0 0 .209-.171v-1.615a.067.067 0 0 1 .076-.076h.343a.2.2 0 0 1 .189.095l.55 1.63a.184.184 0 0 0 .17.133h1.175a.118.118 0 0 0 .133-.133zm-1.854-2.557h-.663c-.064 0-.095-.044-.095-.133v-.587a.11.11 0 0 1 .133-.114h.606a.583.583 0 0 1 .36.114.361.361 0 0 1 .152.3.389.389 0 0 1-.133.294.509.509 0 0 1-.36.123zm4.835-4.361q-.2 0-.2.153a.27.27 0 0 0 .034.1 17.938 17.938 0 0 1 1.348 3.637 15.723 15.723 0 0 1 .484 3.874 14.346 14.346 0 0 1-.45 3.594 21.27 21.27 0 0 1-1.382 3.73.217.217 0 0 0-.008.2.191.191 0 0 0 .195.093h1.848a.345.345 0 0 0 .195-.051.678.678 0 0 0 .157-.169 21.668 21.668 0 0 0 1.772-3.713 11.166 11.166 0 0 0 .585-3.7 12.853 12.853 0 0 0-.611-3.942 14.318 14.318 0 0 0-1.712-3.569.58.58 0 0 0-.475-.237h-1.78zm21.167 13.969l-2.387-5.308a.577.577 0 0 1-.038-.17.2.2 0 0 1 .113-.19 3.716 3.716 0 0 0 1.791-1.44 4.066 4.066 0 0 0 .692-2.331A3.4 3.4 0 0 0 256.6 58a7.411 7.411 0 0 0-4.264-1.052h-6.329a.356.356 0 0 0-.36.436V70.54a.524.524 0 0 0 .1.36.519.519 0 0 0 .389.114h3.183a.745.745 0 0 0 .474-.123.522.522 0 0 0 .152-.426v-4.833a.231.231 0 0 1 .056-.133.2.2 0 0 1 .171-.076h.872a.829.829 0 0 1 .4.076.426.426 0 0 1 .189.227l1.781 4.889a.492.492 0 0 0 .512.4h3.676a.356.356 0 0 0 .275-.114.407.407 0 0 0 .1-.284.477.477 0 0 0-.038-.208zm-5.779-7.808h-1.9a.292.292 0 0 1-.256-.095.533.533 0 0 1-.066-.3v-2.068a.382.382 0 0 1 .094-.294.516.516 0 0 1 .341-.085h1.668a1.725 1.725 0 0 1 1.146.389 1.342 1.342 0 0 1 .465 1.09 1.308 1.308 0 0 1-.389.995 1.545 1.545 0 0 1-1.108.37zm6.916-5.211V70.54a.491.491 0 0 0 .114.36.554.554 0 0 0 .4.114h10.138a.464.464 0 0 0 .341-.114.409.409 0 0 0 .114-.3v-2.334a.346.346 0 0 0-.417-.36h-6.159a.227.227 0 0 1-.18-.057.334.334 0 0 1-.047-.208v-1.9a.243.243 0 0 1 .085-.189.316.316 0 0 1 .218-.076h3.506a.293.293 0 0 0 .341-.322v-2.35a.344.344 0 0 0-.4-.379h-3.411a.317.317 0 0 1-.247-.1.421.421 0 0 1-.094-.294v-1.61a.355.355 0 0 1 .435-.36h5.685a.444.444 0 0 0 .495-.512l.019-2.2a.329.329 0 0 0-.341-.4h-10.235a.356.356 0 0 0-.36.436zm17.32-.625a7.1 7.1 0 0 0-3.553.862 5.84 5.84 0 0 0-2.35 2.454 7.976 7.976 0 0 0-.824 3.714 8.552 8.552 0 0 0 .824 3.818 6.359 6.359 0 0 0 2.34 2.634 6.463 6.463 0 0 0 3.525.957 6.27 6.27 0 0 0 5.562-2.928 3.828 3.828 0 0 0 .653-1.639.409.409 0 0 0-.28-.436l-2.369-.474a.9.9 0 0 0-.208-.019.294.294 0 0 0-.322.171 3.729 3.729 0 0 1-1.185 1.705 2.853 2.853 0 0 1-1.714.512 1.881 1.881 0 0 1-1.753-.966 6.915 6.915 0 0 1-.559-3.259 6.369 6.369 0 0 1 .606-3.2 1.917 1.917 0 0 1 1.725-.985 1.666 1.666 0 0 1 1.326.521 2.961 2.961 0 0 1 .625 1.431.81.81 0 0 0 .114.294.327.327 0 0 0 .246.066l3.317-.208a.447.447 0 0 0 .236-.076.3.3 0 0 0 .067-.227 1.577 1.577 0 0 0-.057-.36 4.967 4.967 0 0 0-1.061-2.255 5.576 5.576 0 0 0-2.085-1.544 6.982 6.982 0 0 0-2.842-.559zM289.914 71.2a7.066 7.066 0 0 0 3.581-.881 5.949 5.949 0 0 0 2.369-2.511 9.044 9.044 0 0 0-.01-7.608 6.113 6.113 0 0 0-2.378-2.539 6.913 6.913 0 0 0-3.562-.9 7 7 0 0 0-3.591.9 6.1 6.1 0 0 0-2.388 2.539 9.07 9.07 0 0 0-.009 7.618 5.935 5.935 0 0 0 2.378 2.5 7.157 7.157 0 0 0 3.61.881zm0-2.956a2.084 2.084 0 0 1-1.355-.407 2.382 2.382 0 0 1-.73-1.317 10.513 10.513 0 0 1-.227-2.444 7.7 7.7 0 0 1 .54-3.373 1.852 1.852 0 0 1 1.772-1.023 1.817 1.817 0 0 1 1.743 1.023 7.817 7.817 0 0 1 .531 3.373 10.45 10.45 0 0 1-.228 2.444 2.4 2.4 0 0 1-.72 1.317 2.013 2.013 0 0 1-1.326.407zm8.281 2.767h2.52a.472.472 0 0 0 .341-.085.523.523 0 0 0 .076-.332v-8.373c0-.139.031-.208.095-.208a.214.214 0 0 1 .132.19l2.729 8.47a.446.446 0 0 0 .455.341h1.989a.465.465 0 0 0 .455-.341l2.729-8.622a.194.194 0 0 1 .152-.171c.05 0 .075.051.075.152v8.508a.406.406 0 0 0 .493.474h3.2a.706.706 0 0 0 .465-.123.544.544 0 0 0 .142-.426V57.351a.329.329 0 0 0-.341-.4h-5.477a.588.588 0 0 0-.511.55l-1.763 5.817a.188.188 0 0 1-.113.152.182.182 0 0 1-.133-.152l-1.971-6.026a.526.526 0 0 0-.18-.275.683.683 0 0 0-.35-.066H298.1a.392.392 0 0 0-.3.1.48.48 0 0 0-.1.332v13.1a.545.545 0 0 0 .133.388.467.467 0 0 0 .36.142zm17.945 0h2.52a.472.472 0 0 0 .34-.083.523.523 0 0 0 .076-.332v-8.375c0-.139.031-.208.1-.208a.214.214 0 0 1 .132.19l2.729 8.47a.446.446 0 0 0 .455.341h1.989a.465.465 0 0 0 .455-.341l2.729-8.622a.194.194 0 0 1 .151-.171c.051 0 .076.051.076.152v8.508a.406.406 0 0 0 .493.474h3.2a.706.706 0 0 0 .465-.123.544.544 0 0 0 .142-.426V57.351a.329.329 0 0 0-.341-.4h-5.477a.588.588 0 0 0-.511.55L324.1 63.32a.19.19 0 0 1-.113.152.182.182 0 0 1-.133-.152l-1.971-6.026a.526.526 0 0 0-.18-.275.683.683 0 0 0-.35-.066h-5.306a.392.392 0 0 0-.3.1.48.48 0 0 0-.1.332v13.098a.545.545 0 0 0 .133.388.467.467 0 0 0 .36.142zm17.452-13.625V70.54a.491.491 0 0 0 .114.36.553.553 0 0 0 .4.114h10.137a.465.465 0 0 0 .342-.114.412.412 0 0 0 .113-.3v-2.334a.346.346 0 0 0-.417-.36h-6.158a.225.225 0 0 1-.18-.057.333.333 0 0 1-.048-.208v-1.9a.243.243 0 0 1 .086-.189.316.316 0 0 1 .218-.076h3.5a.293.293 0 0 0 .341-.322v-2.35a.343.343 0 0 0-.4-.379h-3.41a.317.317 0 0 1-.247-.1.421.421 0 0 1-.1-.294v-1.61a.356.356 0 0 1 .436-.36h5.685a.444.444 0 0 0 .493-.512l.019-2.2a.329.329 0 0 0-.341-.4h-10.223a.356.356 0 0 0-.36.436zm21.564-.436a.36.36 0 0 0-.417.4v6.2c0 .164-.031.246-.094.246a.3.3 0 0 1-.209-.17l-4.548-6.329a.931.931 0 0 0-.275-.275.8.8 0 0 0-.369-.066h-3.089a.377.377 0 0 0-.417.436v13.243a.383.383 0 0 0 .474.379h2.577a.554.554 0 0 0 .37-.095.378.378 0 0 0 .085-.322V63.7a.1.1 0 0 1 .057-.114.135.135 0 0 1 .132.076l5.212 7.068a.853.853 0 0 0 .236.227.578.578 0 0 0 .275.057h2.6a.5.5 0 0 0 .313-.095.3.3 0 0 0 .123-.246v-13.4a.269.269 0 0 0-.284-.322h-2.748zm4.946 0a.59.59 0 0 0-.4.1.487.487 0 0 0-.114.37v13.025a.6.6 0 0 0 .133.436.568.568 0 0 0 .417.133h4.983a8.636 8.636 0 0 0 4.112-.9 6.006 6.006 0 0 0 2.54-2.492 7.671 7.671 0 0 0 .852-3.676 6.668 6.668 0 0 0-1.895-4.974 8.087 8.087 0 0 0-5.59-2q-.549-.019-2.8-.019h-2.24zm3.979 2.975l1.137.075a2.971 2.971 0 0 1 2.16 1.061 4.488 4.488 0 0 1 .739 2.823 4.357 4.357 0 0 1-.976 3.174 3.861 3.861 0 0 1-2.851.976h-.133a.3.3 0 0 1-.209-.057.335.335 0 0 1-.056-.227v-7.557a.334.334 0 0 1 .047-.208.174.174 0 0 1 .142-.057zm17.926.8a.626.626 0 0 0 .36.227.328.328 0 0 0 .209-.076l2.065-1.5a.327.327 0 0 0 .133-.246.539.539 0 0 0-.133-.322 4.364 4.364 0 0 0-2.1-1.487 8.779 8.779 0 0 0-3.165-.559 7.418 7.418 0 0 0-3.07.6 4.845 4.845 0 0 0-2.046 1.63 3.954 3.954 0 0 0 .284 4.908 5.1 5.1 0 0 0 2.71 1.563l2.88.7a2.015 2.015 0 0 1 .891.4.808.808 0 0 1 .3.625.9.9 0 0 1-.616.805 3.947 3.947 0 0 1-1.677.294 3.868 3.868 0 0 1-1.762-.341 4.1 4.1 0 0 1-1.308-1.175.412.412 0 0 0-.341-.171.727.727 0 0 0-.379.133l-1.951 1.345a.425.425 0 0 0-.209.341.712.712 0 0 0 .1.284 4.65 4.65 0 0 0 2.378 1.81 10.066 10.066 0 0 0 3.8.692 8.357 8.357 0 0 0 3.212-.569 4.723 4.723 0 0 0 2.113-1.611 4.114 4.114 0 0 0 .739-2.444 4.043 4.043 0 0 0-.872-2.606 4.658 4.658 0 0 0-2.6-1.526l-3.145-.815q-1.214-.284-1.213-.966a.809.809 0 0 1 .474-.682 2.912 2.912 0 0 1 1.459-.284 3.4 3.4 0 0 1 1.506.265 3.486 3.486 0 0 1 .976.758z" fill-rule="evenodd"/></svg>