<svg xmlns="http://www.w3.org/2000/svg" viewBox="0 0 293 67.2"><path fill="#FFF" d="M34.4 25.3c3.3 3.6 4.7 8.4 4.6 13.5.1 5.9-2.1 11-5 14-3.1 3.3-5.9 4.6-8.4 5.5v.2c12.1 3.8 15.5 3.7 18 3.7 2.2 0 3.7-.7 4.6-1.6.2-.2.4-.1.6 0l.6.7c.3.3.2.5-.1.7-.7.7-4.8 5-9 5-3.1 0-6.5-1.1-23.5-8.5-2.6-.1-7.1-.7-12-6C2.2 50 0 45.3 0 38.7c0-5.3 2.1-10.5 5.6-13.9 4.1-3.8 10.2-5.1 13.6-5.1 7-.1 12 2.1 15.2 5.6zm-23.2.5C8.1 29 7 34.2 7 38.7c0 6.4 2.8 11.4 5 13.7 3.5 3.6 6 4 7.7 4 9.5 0 12.3-11.8 12.3-16.5 0-5.5-1.6-10.8-3.9-13.1-2.8-2.8-5-4.4-9.3-4.4-2.5.1-4.8.5-7.6 3.4zM51.4 26c0-1.5-.3-2.6-2.8-2.6h-1.5c-.3 0-.5-.2-.5-.5v-2.1c0-.2.2-.4.5-.4.5 0 5.8.2 8.4.2 2 0 6.9-.2 7.4-.2.4 0 .6.2.6.5v2c0 .2-.2.5-.5.5h-1.2c-2.6 0-3.6.8-3.6 1.5-.2 1.1-.1 3.9-.1 6.9v3.4c0 2.7.2 9.3.2 10.5.1 2.3.6 4.9 1.9 6.6 1.9 2.6 5.5 3.6 7.7 3.6 2.7 0 5.8-1.1 7.5-2.7 2.3-2.1 2.7-5.3 2.7-8.6V33.1c0-3.9-.2-6.6-.3-7.5-.2-1.4-1-2.2-3.6-2.2h-.9c-.3 0-.5-.3-.5-.7v-1.8c0-.2.2-.5.5-.5.4 0 5 .2 7.2.2 1.4 0 5.5-.2 6-.2.4 0 .6.2.6.6v1.8c0 .3-.2.6-.5.6h-.7c-2.9 0-3.1 1.3-3.4 2.2-.2.7-.2 7-.2 7.9 0 .7-.2 9.9-.2 12-.3 4.3-1.5 7.7-4.5 10.2-2.2 2-5.6 3.1-11 3.1-3.1 0-5.8-.3-7.7-1.1-3.7-1.5-5.6-3.7-6.5-7-.6-2.4-.8-6-.8-13.1V26zM106.3 37.3c.5 0 5.4-.2 6-.4 2.2-.6 3-1.7 3-4.3 0-.3.1-.4.4-.4l1.8.1c.3 0 .6.2.5.5-.2.7-.2 5.1-.2 5.9 0 1.8.2 4.4.3 5.5 0 .3-.2.4-.4.4l-1.7.2c-.2 0-.4 0-.5-.3-.4-2.1-.9-3.4-3.1-3.9-2.5-.6-5.4-.6-6.2-.6v2.8c0 2.9.2 7.7.2 8.8 0 3.9 2.4 4.1 6 4.1s6-.1 8.8-2.3c.7-.5 3.6-4.2 4.4-5.5.4-.6.8-.7 1.1-.5l1.3.7c.2.1.3.3.2.6l-3 8.8c-.2.4-.6.8-.9.8-.3 0-1.5-.1-4.9-.2-3.3 0-8.8-.1-17.5-.1-.7 0-2.2.1-3.7.1-1.4.1-2.8.2-3.3.2-.4 0-.5-.2-.5-.6v-1.9c0-.3.2-.5.6-.5h.7c3.9 0 4.1-.3 4.1-1.5V36c0-4.4-.1-9.8-.2-10.6-.2-1.7-.7-2.1-4.1-2.1h-.8c-.2 0-.3-.2-.3-.6v-2c0-.2.1-.4.4-.4 1.2 0 5.8.2 7 .2l18.5-.1c.8 0 1.9-.2 2.2-.2.2 0 .3.2.5 1.2.2.7 2.5 7.9 2.6 8.4.1.3.1.5-.1.6l-1.3.6c-.2.1-.5.1-.7-.3-.2-.3-4.1-4.9-5.5-6.2-1-.9-2.3-1.2-3.1-1.2l-8.8-.2v14.2zM140.3 55.9c-.6-.4-1.1-.5-1.2.2l-.2.7c-.2.4-.6.6-1.2.4-.5-.2-.7-.5-.7-.9.2-2.3.8-8.9.9-10.3.1-.3.2-.6.6-.6l1.5.2c.3.1.7.3.7.6 0 1.2 0 2.9 1.5 5.6 1.2 2.5 4 4.1 7 4.1 2.7 0 6.6-2.1 6.6-5.6 0-4.7-3.2-6.8-7.6-8.4-1.7-.6-5.6-2.1-8.1-4.3-1.9-1.8-2.9-4.5-2.9-8.5 0-2.8 1.7-5.4 3.6-6.9 2.2-1.7 4.8-2.5 7.8-2.5 3.1 0 4.9.6 5.9 1.1.8.5 1.2.6 1.4.2l.3-.6c.2-.3.4-.3 1.1-.3.7 0 .7.3.7.7 0 2.7.7 8.1.8 9.3 0 .2-.1.4-.3.5l-1.5.3c-.2.1-.4-.1-.5-.3-.5-1-1.2-3.9-2.9-5.9-1.2-1.4-3.1-2.2-5.5-2.2-4.5 0-5.9 3.6-5.9 5 0 1.2.4 3 1.3 4.1 1.2 1.6 4.2 2.8 5.8 3.4 3.8 1.4 6.9 2.3 8.9 4.5 1.7 1.7 2.7 3.8 2.7 7.9 0 6.2-4 11.5-11.5 11.5-4.3-.1-7.2-1.5-9.1-3z"/><g fill="#FFF"><path d="M184.2 23.5c-1.6 0-7.1-.1-10.2.7-2.1 1.6-3.8 4.2-4.9 6.4-.2.3-.4.6-.7.4l-1.5-.6c-.4-.2-.4-.5-.3-.8.6-1.8 2.6-8.5 2.9-10 .2-.6.4-.8.7-.8.2 0 .4.1.7.2l.7.5c1.1.7 1.7.8 3.2.9 2.9.2 6 .3 10.8.3h3.3c3.3 0 8.3-.2 11.7-.3 1.3-.1 2.1-.2 3-.7l1-.7c.2-.2.5-.2.7-.2.3 0 .5.2.7 1.8.2 1.2 1.6 7.1 2 9.3.1.3-.1.5-.4.7l-1.4.4c-.5.2-.7.1-.9-.3-1-2.1-2.4-4.8-4.1-6.4-2.1-.7-9-.8-10.5-.8v13.9c0 8.7 0 14.9.1 15.6.2 1.3.6 2.1 1.9 2.1h3.1c.4 0 .6.3.6.7v1.7c0 .2-.2.5-.6.5-.6 0-5.7-.2-8.4-.2-2.3 0-7.7.2-8.4.2-.5 0-.7-.2-.7-.7v-1.7c0-.4.2-.6.5-.6h3.3c1.2 0 1.8-.7 1.9-1.3.2-3.1.2-7.5.2-12.5V23.5zM226.4 37.3c.5 0 5.4-.2 6-.4 2.2-.6 3-1.7 3-4.3 0-.3.1-.4.4-.4l1.8.1c.3 0 .6.2.5.5-.2.7-.2 5.1-.2 5.9 0 1.8.2 4.4.3 5.5 0 .3-.2.4-.4.4l-1.7.2c-.3 0-.4 0-.5-.3-.4-2.1-.9-3.4-3.1-3.9-2.5-.6-5.4-.6-6.2-.6v2.8c0 2.9.2 7.7.2 8.8 0 3.9 2.4 4.1 6 4.1s6-.1 8.8-2.3c.7-.5 3.6-4.2 4.4-5.5.4-.6.8-.7 1.1-.5l1.3.7c.2.1.3.3.2.6l-3 8.8c-.2.4-.6.8-.9.8-.2 0-1.5-.1-4.9-.2-3.3 0-8.8-.1-17.5-.1-.7 0-2.2.1-3.7.1-1.4.1-2.8.2-3.3.2-.4 0-.5-.2-.5-.6v-1.9c0-.3.2-.5.6-.5h.7c3.9 0 4.1-.3 4.1-1.5V36c0-4.4-.1-9.8-.2-10.6-.2-1.7-.7-2.1-4-2.1h-.7c-.2 0-.3-.2-.3-.6v-2c0-.2.1-.4.4-.4 1.2 0 5.8.2 7 .2l18.5-.1c.8 0 1.9-.2 2.2-.2.2 0 .3.2.5 1.2.2.7 2.5 7.9 2.6 8.4.1.3.1.5-.1.6l-1.3.6c-.2.1-.5.1-.7-.3-.2-.3-4.1-4.9-5.5-6.2-1-.9-2.3-1.2-3.1-1.2l-8.8-.2v14.2z"/></g><path fill="#FFF" d="M293 57.5c0 .2-.2.6-.5.6-.5 0-5.1-.2-7.6-.2-1.8 0-7.2.2-7.7.2-.3 0-.5-.2-.5-.7v-1.7c0-.2.2-.5.6-.5h1c1.1 0 1.6-.5.9-1.6-.6-1-7.7-11.3-8.5-12.2-2 2.5-8.6 11.3-9.1 12.2-.4.7 0 1.7 1.1 1.7h1.6c.4 0 .6.3.6.4v1.9c0 .3-.1.7-.6.7s-5.4-.2-7.3-.2c-1.3 0-5.4.2-5.9.2-.3 0-.4-.3-.4-.8v-1.7c0-.2.2-.5.5-.5h1.2c1.5 0 2.6-.5 3.4-1.1 3.7-2.5 10.6-11.8 13.1-15.1-1.7-2.6-10.3-14.3-11.4-15.1-.5-.3-1.5-.6-2.6-.6H253c-.3 0-.5-.3-.5-.5v-2c0-.2.2-.5.5-.5.4 0 5.6.2 8.3.2 2.3 0 7.8-.2 8.3-.2.4 0 .5.2.5.7v1.7c0 .3-.2.6-.6.6H268c-1.2 0-1.8.8-1.4 1.6.4.8 6 8.8 6.8 10 1-1.2 7.3-9.3 7.6-9.8.6-.8.2-1.7-.7-1.7h-.7c-.3 0-.5-.3-.5-.6V21c0-.3.2-.6.5-.6.6 0 4.7.2 6.2.2 1.6 0 5-.2 5.5-.2.4 0 .6.2.6.7v1.7c0 .4-.2.6-.6.6h-1.4c-1.7 0-2.4.2-3.1.5-.9.4-9.8 10.7-11.7 13.2.7 1.2 11.7 15.8 12.6 16.5 1.4 1.3 2.5 1.6 4.1 1.6h.8c.3 0 .5.3.5.5v1.8z"/><g><path fill="#F47932" d="M33.9 12.2l-1.4.8-13.6-5.6L5.2 13l-1.3-.8L18.9 0l15 12.2z"/></g></svg>