<svg data-name="Layer 1" xmlns="http://www.w3.org/2000/svg" viewBox="0 0 484.58 57.21"><title>fierce-biotech-logo</title><path d="M10.88 24.4h25.25v9H10.88v23.3H0V0h37.49v9H10.88v15.4zM52.11 8.16H42.5V0h9.61v8.16zm0 48.54H42.5V17h9.61v39.7zM95.29 44c0 10.12-4 13.18-17.09 13.18-15.9 0-19.47-3.74-19.47-20.57 0-8.67.94-12.92 3.48-15.81 2.81-3.06 7.23-4.33 15.22-4.33 10.37 0 14.79 2.29 16.83 8.59.85 2.81 1 4.76 1 13.52H68.42v1.53c0 8.08 1.7 9.95 9 9.95 7 0 8.25-.94 8.33-6h9.52zm-9.44-12.89c-.17-6.29-1.44-7.48-8.59-7.48-5.19 0-7.06.68-8.08 3.15-.51 1.27-.6 2.38-.68 5.86h17.35v-1.53zM111.6 17l-.6 5.53.17.08c2.55-4.59 5.36-6.21 10.8-6.21 3.49 0 6.38 1.1 8 3 1.87 2.13 2.47 4.68 2.47 10.12v2.89h-9a18.51 18.51 0 0 0 .08-2.21c0-4.85-1.1-6.21-4.93-6.21-3.06 0-5.27 1.27-6.29 3.57-.51 1.27-.68 2.55-.68 5.78V56.7H102V17h9.61zm60.78 24.57v1.36c0 4.42-.6 7.31-2 9.35-2.38 3.72-6.08 4.93-15.09 4.93-7.74 0-11.73-.94-14.62-3.4-3.32-2.89-4.51-7.23-4.51-17 0-8.25.76-12.24 3.06-15.3 2.55-3.49 7.23-5 15-5 13.77 0 17.6 3.15 17.6 14.54h-9.35c0-5.7-1.45-7-7.74-7-7.74 0-8.76 1.45-8.76 13 0 6.46.6 9.69 2.13 11.22 1 1 3.15 1.44 6.89 1.44 6.89 0 7.91-1.1 7.91-8.16h9.52zM213.52 44c0 10.12-4 13.18-17.09 13.18-15.9 0-19.47-3.74-19.47-20.57 0-8.67.94-12.92 3.48-15.81 2.81-3.06 7.23-4.33 15.22-4.33 10.37 0 14.79 2.29 16.83 8.59.85 2.81 1 4.76 1 13.52h-26.83v1.53c0 8.08 1.7 9.95 9 9.95 7 0 8.25-.94 8.33-6h9.52zm-9.44-12.92c-.17-6.29-1.44-7.48-8.59-7.48-5.19 0-7.06.68-8.08 3.15-.51 1.27-.6 2.38-.68 5.86h17.34v-1.5z" fill="#0f253a"/><path d="M220.57 0h28c6 0 9.1.51 11.48 1.79 3.74 2.13 5.44 6.21 5.44 13.09 0 7.82-2.21 11.14-8.33 12.5v.25c7.4 1.19 9.69 4.42 9.69 13.52 0 11.48-4.33 15.56-16.75 15.56h-29.5V0zm24.06 23.8c4.59 0 6.21-.26 7.57-1 1.79-1 2.46-2.89 2.46-6.8 0-3.66-.76-5.44-2.55-6.38-1-.42-2.21-.6-5.27-.6h-15.39V23.8h13.18zm-1.36 23.89c11.31 0 12.75-.85 12.75-7.65 0-4.51-.76-6.46-3-7.48-1.27-.6-2.63-.68-7.82-.68h-13.75v15.81h11.82zm39.35-39.53H273V0h9.61v8.16zm0 48.54H273V17h9.61v39.7zm40.04-36.89c3 2.81 4.08 7.06 4.08 16.07 0 17.68-3.23 21.34-18.7 21.34-9.35 0-13.86-1.45-16.24-5.36-2-3.15-2.55-6.8-2.55-16.49 0-8.67 1.19-12.92 4.25-15.64 2.81-2.47 6.38-3.23 14.79-3.23 8.08-.01 11.71.84 14.37 3.31zM299 36.47c0 11.65 1.11 13.26 8.84 13.26 8 0 9.1-1.7 9.1-13.69C317 25.59 315.77 24 308 24s-9 1.59-9 12.47zm60.88-12.24h-15.13v19.89c0 4.59.77 5.7 4.08 5.7 3.74 0 4.67-1.36 4.67-6.8a14.19 14.19 0 0 0-.08-1.62h8.08v2.3c0 5.53-.51 7.57-2.13 9.78-2 2.64-5.35 3.74-11.48 3.74-6.63 0-9.95-1.45-11.73-4.93-.85-1.62-1-3-1-6.8V24.23H330V17h5.19V8.16h9.61V17h15.13v7.23zM401.79 44c0 10.12-4 13.18-17.09 13.18-15.9 0-19.47-3.74-19.47-20.57 0-8.67.93-12.92 3.49-15.81 2.8-3.06 7.23-4.33 15.22-4.33 10.37 0 14.79 2.29 16.83 8.59.85 2.81 1 4.76 1 13.52h-26.84v1.53c0 8.08 1.7 9.95 9 9.95 7 0 8.25-.94 8.33-6h9.52zm-9.44-12.92c-.17-6.29-1.45-7.48-8.59-7.48-5.19 0-7.06.68-8.08 3.15-.51 1.27-.6 2.38-.68 5.86h17.34v-1.5zm50.92 10.49v1.36c0 4.42-.6 7.31-2 9.35-2.38 3.74-6.12 4.93-15.13 4.93-7.74 0-11.73-.94-14.62-3.4-3.32-2.89-4.5-7.23-4.5-17 0-8.25.76-12.24 3.06-15.3 2.55-3.49 7.23-5 15-5 13.77 0 17.6 3.15 17.6 14.54h-9.35c0-5.7-1.45-7-7.74-7-7.74 0-8.76 1.45-8.76 13 0 6.46.6 9.69 2.13 11.22 1 1 3.15 1.44 6.89 1.44 6.89 0 7.91-1.1 7.91-8.16h9.52zm15.13-18.02h.17c2-5.35 4.93-7.06 12.33-7.06 9.78 0 13.69 3.83 13.69 13.26V56.7H475V32.3c0-3.65-.08-4.42-.85-5.61-1-1.79-2.81-2.47-6.12-2.47-7.23 0-9.61 2.55-9.61 9.95V56.7h-9.61V0h9.61v23.55z" fill="#e97622"/></svg>