<?xml version="1.0" encoding="UTF-8" standalone="no"?>
<svg xmlns="http://www.w3.org/2000/svg" height="37px" width="98px" version="1.1" xmlns:xlink="http://www.w3.org/1999/xlink" viewBox="0 0 98 37"><!-- Generator: Sketch 39.1 (31720) - http://www.bohemiancoding.com/sketch -->
 <title>Artboard</title>
 <desc>Created with Sketch.</desc>
 <g id="Page-1" fill-rule="evenodd" fill="none">
  <g id="Artboard">
   <path id="A-Division-of" opacity=".36089" fill="#333" d="m6.684 8h1.104l-3.228-8.004h-1.236l-3.216 8.004h1.104l0.708-1.776h4.056l0.708 1.776zm-2.736-7.116l1.728 4.452h-3.468l1.74-4.452zm7.98 7.116h2.736c2.484 0 4.104-1.716 4.104-3.996 0-2.268-1.62-4.008-4.104-4.008h-2.736v8.004zm0.996-0.888v-6.228h1.74c1.98 0 3.072 1.392 3.072 3.12 0 1.716-1.128 3.108-3.072 3.108h-1.74zm7.812-5.844c0.336 0 0.612-0.264 0.612-0.6s-0.276-0.612-0.612-0.612c-0.324 0-0.6 0.276-0.6 0.612s0.276 0.6 0.6 0.6zm-0.444 6.732h0.9v-5.796h-0.9v5.796zm4.248 0h0.984l2.412-5.796h-0.984l-1.92 4.752-1.932-4.752h-0.972l2.412 5.796zm4.776-6.732c0.336 0 0.612-0.264 0.612-0.6s-0.276-0.612-0.612-0.612c-0.324 0-0.6 0.276-0.6 0.612s0.276 0.6 0.6 0.6zm-0.444 6.732h0.9v-5.796h-0.9v5.796zm2.196-0.768c0.588 0.624 1.392 0.912 2.34 0.912 1.5 0 2.28-0.78 2.28-1.752 0-1.284-1.164-1.572-2.172-1.8-0.756-0.18-1.416-0.36-1.416-0.924 0-0.516 0.492-0.876 1.284-0.876 0.744 0 1.38 0.312 1.728 0.732l0.42-0.624c-0.468-0.468-1.164-0.84-2.148-0.84-1.38 0-2.16 0.768-2.16 1.668 0 1.2 1.116 1.464 2.1 1.692 0.78 0.192 1.488 0.396 1.488 1.032 0 0.564-0.48 0.96-1.368 0.96-0.792 0-1.524-0.384-1.908-0.828l-0.468 0.648zm6.528-5.964c0.336 0 0.612-0.264 0.612-0.6s-0.276-0.612-0.612-0.612c-0.324 0-0.6 0.276-0.6 0.612s0.276 0.6 0.6 0.6zm-0.444 6.732h0.9v-5.796h-0.9v5.796zm5.232 0.144c1.764 0 2.868-1.368 2.868-3.048s-1.104-3.036-2.868-3.036-2.868 1.356-2.868 3.036 1.104 3.048 2.868 3.048zm0-0.804c-1.236 0-1.932-1.056-1.932-2.244 0-1.176 0.696-2.232 1.932-2.232s1.92 1.056 1.92 2.232c0 1.188-0.684 2.244-1.92 2.244zm8.244 0.66h0.9v-4.068c0-1.26-0.636-1.872-1.848-1.872-0.864 0-1.656 0.504-2.064 0.984v-0.84h-0.9v5.796h0.9v-4.236c0.336-0.468 1.008-0.9 1.716-0.9 0.78 0 1.296 0.324 1.296 1.344v3.792zm8.328 0.144c1.764 0 2.868-1.368 2.868-3.048s-1.104-3.036-2.868-3.036-2.868 1.356-2.868 3.036 1.104 3.048 2.868 3.048zm0-0.804c-1.236 0-1.932-1.056-1.932-2.244 0-1.176 0.696-2.232 1.932-2.232s1.92 1.056 1.92 2.232c0 1.188-0.684 2.244-1.92 2.244zm4.584 0.66h0.9v-5.004h1.176v-0.792h-1.176v-0.444c0-0.732 0.324-1.14 0.912-1.14 0.204 0 0.372 0.048 0.516 0.132l0.228-0.672c-0.228-0.144-0.54-0.204-0.876-0.204-1.008 0-1.68 0.684-1.68 1.884v0.444h-0.96v0.792h0.96v5.004z"/>
   <g id="Questex" transform="translate(0 11)">
    <g id="Layer_1">
     <path id="Shape" fill="#3953A4" d="m11.997 11.57c1.075 1.293 1.623 2.939 1.537 4.613 0.058 1.744-0.545 3.447-1.69 4.772-0.749 0.866-1.717 1.519-2.8043 1.891v0.059c4.0133 1.296 5.1663 1.258 5.9643 1.258 0.563 0.026 1.115-0.166 1.538-0.537 0.057-0.043 0.137-0.043 0.194 0l0.19 0.256c0.085 0.113 0.055 0.168-0.025 0.252-0.249 0.226-1.593 1.723-2.995 1.723-1.044 0-2.171-0.364-7.8021-2.91-0.8448-0.029-2.3655-0.226-3.9834-2.034-0.8448-0.931-1.5671-2.541-1.5671-4.801-0.02511-1.763 0.645-3.465 1.867-4.743 1.2483-1.092 2.8443-1.7108 4.5072-1.749 2.3275 0 3.9744 0.734 5.0694 1.95zm-7.7222 0.143c-1.018 1.102-1.3728 2.881-1.3728 4.432-0.0186 1.713 0.5807 3.376 1.6896 4.689 1.1532 1.211 2.0065 1.354 2.5345 1.354 3.1599 0 4.0929-4.038 4.0929-5.649 0-1.891-0.519-3.698-1.2923-4.462-0.9335-0.96-1.6896-1.497-3.0794-1.497-0.9941-0.044-1.9526 0.373-2.5936 1.128l0.0211 0.005z"/>
     <path id="Shape" fill="#3953A4" d="m17.606 11.796c0-0.507-0.11-0.905-0.933-0.905h-0.495c-0.109 0-0.164-0.059-0.164-0.168v-0.705c0-0.0835 0.055-0.1422 0.164-0.1422 0.11 0 1.922 0.0839 2.776 0.0839 0.659 0 2.281-0.0839 2.445-0.0839 0.165 0 0.195 0.0587 0.195 0.1682v0.679c0.001 0.044-0.016 0.087-0.047 0.118-0.031 0.032-0.074 0.05-0.118 0.05h-0.384c-0.879 0-1.183 0.281-1.208 0.507-0.055 0.365-0.026 1.325-0.026 2.374v1.157c0 0.931 0.055 3.191 0.055 3.586-0.01 0.797 0.21 1.582 0.634 2.26 0.627 0.762 1.564 1.207 2.555 1.212 0.92 0 1.808-0.331 2.501-0.931 0.769-0.734 0.908-1.808 0.908-2.936v-3.895c0.017-0.859-0.019-1.717-0.11-2.571-0.055-0.478-0.329-0.763-1.182-0.763h-0.3c-0.11 0-0.165-0.084-0.165-0.227v-0.599c-0.002-0.045 0.014-0.0883 0.045-0.1202 0.032-0.0318 0.075-0.0493 0.12-0.048 0.135 0 1.689 0.0838 2.391 0.0838 0.468 0 1.841-0.0838 2.006-0.0838 0.054-0.0056 0.107 0.0136 0.145 0.052s0.056 0.0922 0.049 0.1452v0.621c0 0.113-0.055 0.197-0.164 0.197h-0.245c-0.963 0-1.044 0.453-1.128 0.763-0.055 0.226-0.055 2.373-0.055 2.709 0 0.256-0.055 3.388-0.085 4.093-0.109 1.468-0.494 2.625-1.512 3.472-0.743 0.679-1.867 1.074-3.654 1.074-0.86 0.03-1.719-0.095-2.534-0.369-1.089-0.38-1.908-1.284-2.171-2.399-0.195-0.839-0.275-2.034-0.275-4.462l-0.034-3.997z"/>
     <path id="Shape" fill="#3953A4" d="m35.85 15.634c0.165 0 1.787-0.084 2.007-0.143 0.714-0.197 0.988-0.591 0.988-1.468 0-0.113 0.026-0.142 0.14-0.142l0.604 0.029c0.109 0 0.194 0.059 0.164 0.168-0.055 0.256-0.055 1.748-0.055 2.004 0 0.621 0.081 1.497 0.11 1.866 0 0.114-0.055 0.143-0.139 0.143l-0.579 0.054c-0.08 0-0.135 0-0.165-0.113-0.135-0.708-0.304-1.157-1.018-1.329-0.677-0.141-1.369-0.207-2.061-0.197v0.96c0 0.99 0.055 2.625 0.055 2.994 0 1.33 0.798 1.414 1.977 1.414 1.178 0 1.977-0.03 2.91-0.793 0.537-0.59 1.025-1.222 1.458-1.891 0.139-0.197 0.274-0.227 0.354-0.168l0.423 0.256c0.069 0.039 0.102 0.121 0.08 0.197l-0.988 2.994c-0.055 0.143-0.195 0.281-0.304 0.281-0.11 0-0.495-0.029-1.623-0.055-1.127-0.025-2.914-0.029-5.799-0.029-0.245 0-0.744 0.029-1.238 0.029s-0.933 0.055-1.098 0.055-0.165-0.084-0.165-0.197v-0.65c0-0.113 0.055-0.168 0.194-0.168h0.25c1.292 0 1.372-0.113 1.372-0.507v-6.018c0-1.497-0.025-3.33-0.055-3.615-0.084-0.591-0.249-0.704-1.347-0.704h-0.275c-0.08 0-0.109-0.059-0.109-0.197v-0.68c-0.004-0.0371 0.009-0.0743 0.035-0.1016 0.025-0.0273 0.062-0.0422 0.1-0.0408 0.422 0 1.922 0.0839 2.336 0.0839l6.154-0.0294c0.275 0 0.634-0.0587 0.744-0.0587s0.11 0.0587 0.164 0.3946c0.055 0.255 0.845 2.683 0.879 2.881 0.03 0.113 0.03 0.172-0.025 0.197l-0.423 0.197c-0.055 0.029-0.164 0.029-0.249-0.113-0.084-0.143-1.373-1.678-1.842-2.097-0.285-0.26-0.656-0.409-1.043-0.42l-2.91-0.058 0.012 4.785z"/>
     <path id="Shape" fill="#3953A4" d="m47.141 22.016c-0.194-0.138-0.359-0.168-0.422 0.059l-0.085 0.226c-0.054 0.143-0.194 0.197-0.422 0.143-0.228-0.055-0.249-0.168-0.22-0.31 0.085-0.793 0.275-3.049 0.305-3.502 0.025-0.113 0.084-0.197 0.19-0.197l0.494 0.054c0.11 0.03 0.22 0.088 0.22 0.197-0.016 0.674 0.155 1.338 0.494 1.921 0.443 0.874 1.35 1.421 2.336 1.409 0.878 0 2.2-0.704 2.2-1.921 0-1.61-1.072-2.314-2.534-2.88-0.981-0.323-1.894-0.82-2.695-1.468-0.629-0.621-0.963-1.522-0.963-2.906 0.05-0.919 0.477-1.777 1.183-2.374 0.731-0.5775 1.647-0.8751 2.581-0.8386 0.671-0.0347 1.34 0.0919 1.951 0.369 0.275 0.1676 0.423 0.1976 0.465 0.0546l0.11-0.1972c0.055-0.0838 0.139-0.0838 0.359-0.0838 0.219 0 0.249 0.1132 0.249 0.256 0 0.931 0.245 2.768 0.274 3.162 0.01 0.075-0.036 0.146-0.109 0.167l-0.495 0.114c-0.08 0.025-0.135-0.03-0.164-0.114-0.165-0.339-0.385-1.325-0.963-2.004-0.457-0.514-1.123-0.795-1.813-0.763-0.489-0.031-0.971 0.134-1.338 0.457-0.366 0.324-0.587 0.78-0.613 1.266-0.008 0.494 0.14 0.978 0.422 1.384 0.423 0.537 1.403 0.96 1.922 1.158 1.268 0.482 2.281 0.792 2.957 1.526 0.549 0.591 0.879 1.3 0.879 2.709 0 2.097-1.318 3.925-3.802 3.925-1.071 0.018-2.115-0.335-2.953-0.998z"/>
     <path id="Shape" fill="#3953A4" d="m61.736 10.949c-0.524 0-2.366-0.029-3.38 0.256-0.689 0.604-1.241 1.346-1.622 2.177-0.055 0.113-0.135 0.197-0.249 0.142l-0.494-0.197c-0.139-0.054-0.139-0.172-0.11-0.281 0.19-0.621 0.845-2.906 0.963-3.4176 0.055-0.1971 0.14-0.281 0.249-0.281 0.081 0.0024 0.159 0.0319 0.22 0.0839l0.22 0.1719c0.309 0.2274 0.689 0.3375 1.073 0.3103 0.959 0.0546 2.006 0.1135 3.599 0.1135h1.098c1.098 0 2.75-0.0589 3.873-0.1135 0.354 0.0116 0.702-0.0819 1.002-0.2683l0.329-0.2265c0.064-0.048 0.14-0.0771 0.22-0.0839 0.11 0 0.164 0.0839 0.249 0.6207 0.055 0.3945 0.52 2.4285 0.659 3.1915 0.029 0.113-0.025 0.172-0.139 0.226l-0.465 0.143c-0.165 0.059-0.249 0.029-0.304-0.113-0.327-0.798-0.792-1.533-1.373-2.173-0.689-0.255-2.995-0.285-3.489-0.285v4.743c0 2.965 0 5.083 0.025 5.309 0.055 0.453 0.194 0.734 0.634 0.734h1.043c0.139 0 0.194 0.084 0.194 0.256v0.591c0.001 0.049-0.02 0.096-0.058 0.129-0.037 0.032-0.087 0.046-0.136 0.039-0.194 0-1.897-0.084-2.801-0.084-0.768 0-2.555 0.084-2.775 0.084-0.219 0-0.219-0.084-0.219-0.252v-0.566c0-0.138 0.054-0.197 0.164-0.197h1.099c0.422 0 0.604-0.226 0.633-0.453 0.085-1.073 0.085-4.261 0.085-4.261l-0.017-6.068z"/>
     <path id="Shape" fill="#3953A4" d="m75.747 15.634c0.165 0 1.787-0.084 2.007-0.143 0.714-0.197 0.988-0.591 0.988-1.468 0-0.113 0.026-0.142 0.135-0.142l0.604 0.029c0.11 0 0.19 0.059 0.165 0.168-0.055 0.256-0.055 1.748-0.055 2.004 0 0.621 0.08 1.497 0.11 1.866 0 0.114-0.055 0.143-0.139 0.143l-0.575 0.054c-0.084 0-0.139 0-0.165-0.113-0.139-0.708-0.304-1.157-1.018-1.329-0.677-0.141-1.369-0.207-2.061-0.197v0.96c0 0.99 0.055 2.625 0.055 2.994 0 1.33 0.798 1.414 1.981 1.414s1.977-0.03 2.915-0.793c0.535-0.59 1.021-1.223 1.453-1.891 0.139-0.197 0.274-0.227 0.359-0.168l0.422 0.256c0.071 0.038 0.106 0.12 0.085 0.197l-0.989 2.994c-0.055 0.143-0.194 0.281-0.304 0.281s-0.494-0.029-1.622-0.055c-1.128-0.025-2.915-0.029-5.8-0.029-0.249 0-0.743 0.029-1.237 0.029-0.495 0-0.934 0.055-1.099 0.055-0.164 0-0.164-0.084-0.164-0.197v-0.65c0-0.113 0.055-0.168 0.194-0.168h0.249c1.293 0 1.373-0.113 1.373-0.507v-6.018c0-1.497-0.03-3.33-0.055-3.615-0.084-0.591-0.245-0.704-1.343-0.704h-0.275c-0.08 0-0.11-0.059-0.11-0.197v-0.68c-0.003-0.0371 0.01-0.0743 0.035-0.1016 0.026-0.0273 0.063-0.0422 0.101-0.0408 0.422 0 1.926 0.0839 2.336 0.0839l6.154-0.0294c0.275 0 0.634-0.0587 0.744-0.0587 0.109 0 0.109 0.0587 0.164 0.3946 0.055 0.255 0.845 2.683 0.879 2.881 0.025 0.113 0.025 0.172-0.03 0.197l-0.422 0.197c-0.055 0.029-0.165 0.029-0.249-0.113-0.085-0.143-1.373-1.678-1.842-2.097-0.285-0.26-0.656-0.409-1.043-0.42l-2.915-0.058 0.004 4.785z"/>
     <path id="Shape" fill="#3953A4" d="m97.869 22.553c0 0.084-0.055 0.197-0.165 0.197s-1.689-0.084-2.534-0.084c-0.604 0-2.391 0.084-2.535 0.084-0.143 0-0.164-0.084-0.164-0.252v-0.595c-0.001-0.049 0.02-0.096 0.058-0.129 0.037-0.032 0.087-0.046 0.136-0.039h0.329c0.359 0 0.524-0.168 0.305-0.537-0.22-0.369-2.535-3.841-2.831-4.193-0.659 0.839-2.859 3.866-3.024 4.151-0.069 0.122-0.065 0.271 0.01 0.388 0.075 0.118 0.209 0.185 0.349 0.174h0.519c0.136 0 0.195 0.084 0.195 0.143v0.65c0 0.113-0.03 0.226-0.195 0.226-0.164 0-1.786-0.083-2.416-0.083-0.422 0-1.787 0.083-1.951 0.083-0.165 0-0.135-0.113-0.135-0.281v-0.566c-0.003-0.044 0.014-0.088 0.045-0.119 0.031-0.032 0.075-0.05 0.119-0.048h0.423c0.389 0.004 0.771-0.113 1.09-0.336 1.237-0.839 3.518-4.038 4.342-5.141-0.549-0.902-3.434-4.886-3.802-5.137-0.259-0.14-0.55-0.208-0.845-0.197h-0.604c-0.044 0.001-0.088-0.017-0.119-0.048-0.031-0.032-0.048-0.076-0.045-0.12v-0.679c-0.003-0.045 0.014-0.0883 0.045-0.1202 0.031-0.0318 0.075-0.0493 0.119-0.048 0.136 0 1.867 0.0838 2.75 0.0838 0.769 0 2.585-0.0838 2.746-0.0838 0.16 0 0.165 0.0838 0.165 0.2262v0.596c0.006 0.053-0.012 0.106-0.05 0.145-0.037 0.038-0.091 0.057-0.145 0.052h-0.494c-0.422 0-0.604 0.281-0.469 0.537 0.135 0.255 1.977 3.019 2.252 3.417 0.329-0.394 2.42-3.191 2.534-3.355 0.195-0.28 0.055-0.591-0.245-0.591h-0.219c-0.11 0-0.165-0.084-0.165-0.197v-0.662c0-0.1137 0.055-0.1976 0.165-0.1976 0.19 0 1.567 0.0839 2.061 0.0839s1.647-0.0839 1.812-0.0839 0.194 0.0839 0.194 0.2266v0.595c0.007 0.054-0.011 0.107-0.049 0.145-0.038 0.039-0.091 0.058-0.145 0.052h-0.469c-0.356-0.03-0.715 0.028-1.043 0.168-0.304 0.143-3.27 3.64-3.874 4.487 0.25 0.42 3.874 5.393 4.178 5.649 0.343 0.374 0.839 0.572 1.348 0.537h0.274c0.045-0.001 0.088 0.016 0.119 0.048 0.032 0.032 0.048 0.075 0.046 0.12l0.004 0.658z"/>
     <polygon id="Shape" points="12.689 5.0994 12.111 5.4474 6.3447 3.1158 0.54069 5.4516 0 5.1035 6.3362 0.0041935" fill="#E06741"/>
    </g>
   </g>
  </g>
 </g>
</svg>
