<svg id="Artwork" xmlns="http://www.w3.org/2000/svg" viewBox="0 0 693.3 149.2"><style>.st0{fill:#1fadb6}</style><path d="M77.1 113.5c.9-13.5-5.4-25-25.8-33.5l-15.4-6.4c-20-8.4-27.4-21.8-26.4-37.1 1.6-23.9 21-35.4 45.2-33.8 16.8 1.1 27 5.4 36.2 11.7l-1.4 20.5-1.7-.1C81.5 15.2 69.2 8.9 54.8 8c-15.5-1-28 8.9-28.8 22-.8 11.4 3 20.6 19.2 27.6l12.1 5.2c16.1 6.8 38.4 16.6 36.6 43.8-1.7 25-20.3 40.7-48.9 38.8-17.8-1.2-32.5-6.1-43.4-14.8l1.6-23.2 1.7.1c9.2 28.7 24.6 30.7 38.4 31.6 21.4 1.6 32.7-10.1 33.8-25.6zm119.8 15.3c0 8.9 3 11 12.1 11h7.9v3.5h-57.6v-3.5h7.1c9.9 0 13-2 13-10.8V11.9h-22.7c-17 0-25.1 7.2-27.8 23.4h-1.7V5.6h122v29.7h-1.7c-2.5-16-10.6-23.4-27.8-23.4H197v116.9zm285.6 0c0 8.9 3 11 12.1 11h7.9v3.5H445v-3.5h7.1c9.9 0 13-2 13-10.8V11.9h-22.7c-17 0-25.1 7.2-27.8 23.4h-1.7V5.6h122v29.7h-1.7c-2.5-16-10.6-23.4-27.8-23.4h-22.7v116.9zM354.4 1.6h2.2L378 129.8c1.7 6.4 5.1 9.9 11.8 9.9h4l-.5 3.5h-48l.5-3.5h3.7c6.7 0 11.2-2 10.1-8.3l-6.2-37.6h-48.9l-14.3 22.8c-12.4 21.1-9.6 23 2.7 23h2.9l-.5 3.5h-40.4l.5-3.5h1.7c9.4 0 12.7-3 24.4-20.9L354.4 1.6zm-42.7 80.9h40L343.4 32l-31.7 50.5z"/><path class="st0" d="M611.5 12.7H627v123.7h-15.5z"/><path class="st0" d="M557.4 66.8h123.7v15.5H557.4z"/></svg>