<svg xmlns="http://www.w3.org/2000/svg" viewBox="0 0 221.25 27.46"><defs><style>.cls-1{fill:#231f20;}.cls-2{fill:#010101;}</style></defs><title>Stat_Plus_Header_1</title><g id="Layer_2" data-name="Layer 2"><g id="Layer_1-2" data-name="Layer 1"><path class="cls-1" d="M125.61,14.51v5.57a34.93,34.93,0,0,0,.15,4.09,2.06,2.06,0,0,0,.79,1.44,4.4,4.4,0,0,0,2.42.47h.88V27H117.72v-.9h.7a4.59,4.59,0,0,0,2.35-.43,2,2,0,0,0,.83-1.34,29.89,29.89,0,0,0,.18-4.23v-13A28.41,28.41,0,0,0,121.6,3a1.75,1.75,0,0,0-.78-1.27,6.17,6.17,0,0,0-2.62-.35h-.49V.49L121,.37q4-.14,6.21-.14a23.85,23.85,0,0,1,6.32.64,7.42,7.42,0,0,1,3.63,2.29,6.11,6.11,0,0,1,1.42,4.14,7.47,7.47,0,0,1-1,3.83,6.22,6.22,0,0,1-2.77,2.52q-1.81.86-6.36.86Zm0-1h1.89a12.2,12.2,0,0,0,3.69-.46,4.4,4.4,0,0,0,2.34-1.92,6.57,6.57,0,0,0,.94-3.61q0-3.28-1.61-4.81t-5.22-1.53a19.86,19.86,0,0,0-2,.08Z"/><path class="cls-1" d="M165.74,19.18l-.2,7.79H143v-.9h.78a4.59,4.59,0,0,0,2.35-.43,2,2,0,0,0,.84-1.34,28.29,28.29,0,0,0,.19-4.23v-13A26.88,26.88,0,0,0,147,3a1.79,1.79,0,0,0-.78-1.27,6.09,6.09,0,0,0-2.61-.35H143V.49h12.71v.9h-1.17a6.45,6.45,0,0,0-2.56.32,1.7,1.7,0,0,0-.81,1.2A24.87,24.87,0,0,0,151,7.09V21a23.63,23.63,0,0,0,.16,3.59,1.67,1.67,0,0,0,.85,1.12,7,7,0,0,0,3,.4h2a11.35,11.35,0,0,0,3.62-.43,5.07,5.07,0,0,0,2.25-1.87,14.67,14.67,0,0,0,1.94-4.59Z"/><path class="cls-1" d="M188.72.49h8.85v.9a4.79,4.79,0,0,0-2.63.79,2.72,2.72,0,0,0-1.06,1.51,17.45,17.45,0,0,0-.2,3.26v8.81a34.63,34.63,0,0,1-.26,5A7,7,0,0,1,191.89,24a8.57,8.57,0,0,1-3.54,2.52,13.81,13.81,0,0,1-5.27.94,13.51,13.51,0,0,1-6-1.2,7.65,7.65,0,0,1-3.5-3.11,10.64,10.64,0,0,1-1-5.11l0-2.71V7.09A26.88,26.88,0,0,0,172.38,3a1.79,1.79,0,0,0-.78-1.27A6.09,6.09,0,0,0,169,1.39h-.61V.49h12.09v.9h-.53a6.45,6.45,0,0,0-2.56.32,1.7,1.7,0,0,0-.81,1.2,24.87,24.87,0,0,0-.21,4.18v8.34a32.48,32.48,0,0,0,.4,6.15A5.38,5.38,0,0,0,179,24.76,8.18,8.18,0,0,0,184,26.11a10.45,10.45,0,0,0,4.4-.91,7.18,7.18,0,0,0,2.95-2.27,6.45,6.45,0,0,0,1.18-2.79,33.81,33.81,0,0,0,.21-4.52v-9a13.23,13.23,0,0,0-.25-3.14A2.42,2.42,0,0,0,191.37,2a5.88,5.88,0,0,0-2.66-.64Z"/><path class="cls-1" d="M203.73,26.7V18.18h1q1.66,8.32,7.87,8.32a5.72,5.72,0,0,0,4.33-1.59,5,5,0,0,0,1.53-3.56A4.54,4.54,0,0,0,217.09,18a16.66,16.66,0,0,0-4.92-2.85,36.17,36.17,0,0,1-4.8-2.39,7.29,7.29,0,0,1-2.53-2.67,7.11,7.11,0,0,1-.91-3.5,6.27,6.27,0,0,1,2-4.72,6.89,6.89,0,0,1,5-1.88A9.08,9.08,0,0,1,214,.55a8.1,8.1,0,0,1,3,2.27,4.19,4.19,0,0,0,1-2.32h.86V7.42h-.86a9.3,9.3,0,0,0-2.63-4.77A6.24,6.24,0,0,0,211.09.92a4.34,4.34,0,0,0-3.47,1.28,4.2,4.2,0,0,0-1.1,2.8,4,4,0,0,0,1.39,3.11A18.87,18.87,0,0,0,212.85,11a51.38,51.38,0,0,1,5,2.45A6.94,6.94,0,0,1,220.31,16a7.5,7.5,0,0,1,.94,3.79A7.24,7.24,0,0,1,219,25.33a8.48,8.48,0,0,1-6.05,2.13,9.24,9.24,0,0,1-7.27-3.34,6.64,6.64,0,0,0-1,2.58Z"/><path class="cls-2" d="M14.29,21.33c.17-2.55-1-4.74-4.88-6.34L6.48,13.77c-3.79-1.6-5.19-4.12-5-7C1.8,2.24,5.46.05,10,.36A12.59,12.59,0,0,1,16.9,2.58l-.26,3.88-.32,0c-1.19-3.72-3.51-4.9-6.24-5.09C7.14,1.16,4.78,3,4.61,5.53c-.15,2.16.57,3.91,3.64,5.23l2.3,1c3,1.29,7.27,3.14,6.92,8.3-.32,4.74-3.84,7.7-9.25,7.34A14.54,14.54,0,0,1,0,24.59L.3,20.2l.32,0c1.74,5.42,4.66,5.81,7.27,6C12,26.49,14.09,24.26,14.29,21.33ZM37,24.24c0,1.69.57,2.07,2.3,2.07h1.5V27H29.87v-.67h1.34c1.88,0,2.46-.38,2.46-2V2.1H29.36c-3.22,0-4.75,1.37-5.26,4.43h-.32V.92h23.1V6.53h-.32c-.48-3-2-4.43-5.26-4.43H37Zm54.07,0c0,1.69.57,2.07,2.3,2.07h1.5V27H83.94v-.67h1.34c1.88,0,2.46-.38,2.46-2V2.1H83.43c-3.22,0-4.75,1.37-5.26,4.43h-.32V.92h23.1V6.53h-.32c-.48-3-2-4.43-5.26-4.43H91.05ZM66.8.15h.41l4,24.28a2.13,2.13,0,0,0,2.23,1.88h.77l-.1.67H65.07l.1-.67h.7c1.28,0,2.12-.38,1.91-1.56l-1.17-7.11H57.35L54.64,22c-2.35,4-1.83,4.36.5,4.36h.54l-.1.67H47.94l.1-.67h.32c1.79,0,2.41-.57,4.63-4Zm-8.1,15.31h7.56L64.7,5.89Z"/></g></g></svg>