<svg preserveAspectRatio="xMinYMin meet" width="726" height="197" viewBox="0 0 726 197" xmlns="http://www.w3.org/2000/svg"><title>logo-aaas</title><g fill="none" fill-rule="evenodd"><path d="M123.133 0c19.217 18.153 67.59 163.084 78.628 196.15V0h-78.628m27.194 195.835C139.29 162.11 97.407 18.803 75.137 0H0v195.826h1.627L74.354 4.856 13.58 195.827h1.944L81.821 17.828 26.623 195.826h2.595L89.288 33.39 40.044 195.668h2.27l31.064-66.625H65.91l30.194-80.089-22.727 80.08h6.816l-27.599 66.8h97.732m497.395-5.251c-1.882 0-4.705-.194-7.476-1.116-4.283-1.22-9.516-4.663-16.13-20.99-8.444-21.017-26.342-67.688-37.028-95.572L578.855 51.5c-2.278-5.875-3.237-7.588-5.154-7.588-1.909 0-2.823 1.748-5.163 8.186l-44.108 120.49c-3.737 10.363-7.476 16.563-15.55 17.617 0 0-.457.035-1.1.08-1.142-.177-2.33-.414-3.534-.818-4.284-1.22-9.517-4.663-16.131-20.99-8.452-21.052-26.368-67.776-37.08-95.696l-8.18-21.28c-2.278-5.875-3.228-7.588-5.154-7.588-1.909 0-2.815 1.748-5.163 8.186L388.43 172.588c-3.738 10.363-7.476 16.563-15.55 17.617 0 0-.457.035-1.099.08-1.143-.177-2.33-.414-3.527-.818-4.292-1.22-9.516-4.663-16.139-20.99-8.443-21.017-26.341-67.688-37.028-95.572L306.855 51.5c-2.278-5.875-3.228-7.588-5.154-7.588-1.908 0-2.814 1.748-5.163 8.186l-44.108 120.49c-3.737 10.363-7.475 16.563-15.55 17.617l-5.514.378c-1.61 0-2.691.852-2.691 2.107 0 2.503 3.131 2.503 4.635 2.503l17.528-.439 4.425-.15 4.933.212 10.22.377c3.193 0 3.862-1.36 3.862-2.503 0-.781-.37-2.107-2.885-2.107h-1.944c-2.489 0-6.438-1.265-6.438-4.682 0-3.407.941-7.913 2.665-12.673.009-.018 11.662-34.357 11.662-34.357.335-.844.704-.914 1.047-.914h41.768c.51 0 .625.08.906.642 0 .017 18.03 47.636 18.03 47.636.282.747.422 1.44.422 2.055 0 .457-.078.861-.246 1.203-.255.536-.615.703-.756.756-1.733.43-2.005 1.598-2.005 2.248 0 1.967 2.19 2.073 5.83 2.257l.889.044c7.3.21 16.13.343 25.312.378.282.009.546.017.775.017l.272-.008c1.39 0 2.797.008 4.196.008.818 0 1.53-.061 2.146-.166l10.906-.273 4.433-.15 4.925.212 10.228.377c3.193 0 3.862-1.36 3.862-2.503 0-.781-.379-2.107-2.885-2.107h-1.944c-2.49 0-6.438-1.265-6.438-4.682 0-3.407.94-7.913 2.665-12.673 0-.018 11.663-34.357 11.663-34.357.334-.844.703-.914 1.046-.914h41.768c.51 0 .625.08.906.642 0 .017 18.03 47.636 18.03 47.636.282.747.422 1.44.422 2.046 0 .466-.078.87-.246 1.212-.255.536-.616.703-.756.756-1.742.43-2.005 1.598-2.005 2.248 0 1.967 2.19 2.073 5.83 2.257l.889.044c7.3.21 16.13.343 25.312.378.282.009.546.017.775.017l.272-.008c1.39 0 2.797.008 4.195.008.818 0 1.53-.061 2.147-.166l10.914-.273 4.424-.15 4.934.212 10.22.377c3.193 0 3.862-1.36 3.862-2.503 0-.781-.379-2.107-2.885-2.107h-1.944c-2.49 0-6.438-1.265-6.438-4.682 0-3.407.941-7.913 2.665-12.673 0-.018 11.662-34.357 11.662-34.357.334-.844.704-.914 1.047-.914h41.768c.51 0 .625.08.906.642 0 .017 18.03 47.636 18.03 47.636.282.747.423 1.44.423 2.055 0 .457-.08.861-.247 1.203-.255.536-.616.703-.757.756-1.74.43-2.004 1.598-2.004 2.248 0 1.967 2.19 2.073 5.83 2.257l.889.044c8.68.255 19.525.395 30.554.395 3.21 0 4.83-.843 4.83-2.503 0-1.395-.969-2.107-2.886-2.107zm-58.197-61.496h-36.72c0-.018.008-.061.008-.061.027-.063 17.125-52.442 17.125-52.442.237-.72.422-1.098.553-1.308.133.21.326.597.563 1.308 0 .018 18.461 52.397 18.461 52.397 0-.008-.008-.008-.008 0 0 .01.008.062.018.106zm-136 0h-36.72c0-.018.008-.061.008-.061.027-.063 17.125-52.442 17.125-52.442.237-.72.422-1.098.554-1.308.14.21.325.588.563 1.308.008.018 18.46 52.397 18.46 52.397 0-.008-.008-.008-.008 0 0 .01.008.062.017.106zm-136 0h-36.72a299663.224 299663.224 0 0 1 17.133-52.503c.237-.72.422-1.098.554-1.308.14.21.325.597.563 1.308.008.018 18.46 52.397 18.46 52.397 0-.008-.008-.008-.008 0 0 .01.018.062.018.106zm336.231 61.689c-2.718-1.361-2.912-2.134-2.912-7.368 0-9.705.775-17.469.968-20.57.194-2.133.589-3.1 1.557-3.1 1.17 0 1.363.58 1.363 2.135 0 1.738 0 4.461.58 7.175 2.911 14.36 15.734 19.787 28.752 19.787 18.655 0 27.784-13.385 27.784-25.803 0-13.385-5.629-21.149-22.34-34.92l-8.743-7.184c-20.598-16.871-25.259-28.904-25.259-42.095 0-20.762 15.54-34.92 40.22-34.92 7.573 0 13.21.773 18.065 1.941 3.694.773 5.251.966 6.8.966 1.555 0 1.943.387 1.943 1.362 0 .966-.774 7.368-.774 20.56 0 3.109-.387 4.461-1.363 4.461-1.161 0-1.355-.966-1.557-2.52-.194-2.327-1.355-7.562-2.524-9.696-1.161-2.135-6.412-10.284-24.284-10.284-13.404 0-23.896 8.343-23.896 22.5 0 11.057 5.435 17.653 23.703 32.592l5.435 4.269c22.93 18.048 28.373 30.071 28.373 45.599 0 7.948-3.113 22.695-16.517 32.206-8.356 5.814-18.848 8.141-29.34 8.141-9.13 0-18.067-1.352-26.034-5.234z" fill="#FFF"/><path d="M653.755 190.776c-2.718-1.361-2.912-2.134-2.912-7.368 0-9.705.775-17.469.968-20.57.194-2.133.589-3.1 1.557-3.1 1.17 0 1.363.58 1.363 2.135 0 1.738 0 4.461.58 7.175 2.911 14.36 15.734 19.787 28.752 19.787 18.655 0 27.784-13.385 27.784-25.803 0-13.385-5.629-21.149-22.34-34.92l-8.743-7.184c-20.598-16.871-25.259-28.904-25.259-42.095 0-20.762 15.54-34.92 40.22-34.92 7.573 0 13.21.773 18.065 1.941 3.694.773 5.251.966 6.8.966 1.555 0 1.943.387 1.943 1.362 0 .966-.774 7.368-.774 20.56 0 3.109-.387 4.461-1.363 4.461-1.161 0-1.355-.966-1.557-2.52-.194-2.327-1.355-7.562-2.524-9.696-1.161-2.135-6.412-10.284-24.284-10.284-13.404 0-23.896 8.343-23.896 22.5 0 11.057 5.435 17.653 23.703 32.592l5.435 4.269c22.93 18.048 28.373 30.071 28.373 45.599 0 7.948-3.113 22.695-16.517 32.206-8.356 5.814-18.848 8.141-29.34 8.141-9.13 0-18.067-1.352-26.034-5.234z" stroke="#FFF" stroke-width=".215"/></g></svg>