<svg width="1010" height="279" preserveAspectRatio="xMinYMin meet" viewBox="0 0 1010 279" xmlns="http://www.w3.org/2000/svg"><title>logo-science</title><g fill="#FFF" fill-rule="evenodd"><path d="M25.89 257.616l-11.445 17.94H2.285l-2.145-89.7h8.583c15.02 40.903 37.193 79.653 81.54 79.653 31.47 0 47.206-19.375 47.206-48.078 0-23.681-11.444-40.903-35.047-50.95-20.027-8.61-33.617-13.634-53.645-22.962-26.464-12.2-42.2-33.727-42.2-67.454 0-40.903 31.472-71.042 73.672-71.042 17.881 0 40.77 7.894 53.644 18.658l10.729-17.223h12.875l2.145 87.547h-8.583c-14.305-43.774-31.471-76.783-77.963-76.783-10.013 0-35.763 9.329-35.763 39.468 0 23.68 10.014 36.597 31.472 49.514 17.166 10.046 35.047 15.07 50.783 22.963 28.61 14.352 50.068 30.139 50.068 69.606 0 46.644-35.048 79.653-82.255 79.653-30.04-2.153-50.783-11.482-61.512-20.81m152.351-73.912c0-47.361 30.04-91.135 77.962-91.135 35.763 0 53.644 20.81 53.644 44.491 0 12.917-7.152 21.528-19.312 21.528-7.152 0-20.742-4.306-20.742-19.375 0-15.787 4.292-16.505 4.292-23.68-2.146-11.482-7.153-13.635-18.597-13.635-20.743 0-40.055 20.093-40.055 78.218 0 46.643 16.451 78.935 46.492 78.935 23.604 0 37.909-12.2 48.638-34.445l7.868 5.741c-12.875 25.116-37.194 45.926-64.374 45.926-50.783 0-75.817-39.467-75.817-92.57M339.172 25.116c0-12.917 10.014-24.398 22.888-24.398 14.305 0 23.604 10.046 23.604 22.963 0 13.634-10.014 25.115-23.604 25.115-12.874 0-22.888-10.764-22.888-23.68zm-16.45 238.24c5.721-.717 10.728-1.435 15.735-2.87 6.437-2.153 9.298-9.329 9.298-17.222v-110.51c-.715-7.893-3.576-15.069-9.298-19.374-4.292-2.87-15.02-7.176-20.743-7.176v-7.176l62.228-4.306 2.145 2.87v143.52c0 7.893 3.577 14.351 9.299 17.939 5.007 2.87 11.444 4.305 15.735 4.305v7.894h-83.685v-7.894h-.715zM507.973 160.74c0-27.985-5.007-58.842-29.326-58.842-20.742 0-35.763 23.68-36.478 60.278l65.804-1.435zm-102.997 22.246c0-45.926 27.18-90.417 73.671-90.417 47.922 0 65.804 34.445 65.804 73.912v3.588H442.169v4.306c0 49.514 14.305 84.676 50.068 84.676 25.75 0 35.048-10.764 47.922-34.445l7.153 4.306c-12.16 27.269-35.763 46.644-64.373 46.644-52.93.717-77.963-41.62-77.963-92.57z"/><path d="M546.597 263.356c5.722-.717 10.729-1.435 15.735-2.87 6.438-2.153 9.299-8.611 9.299-17.222v-110.51c-.716-7.893-3.577-15.786-9.299-20.092-3.576-2.87-11.444-5.74-17.166-6.458v-7.176l57.936-4.306 2.861 2.87v25.834h.715c13.59-14.352 26.465-31.574 55.075-31.574 31.471 0 46.492 24.398 46.492 60.995v88.982c0 8.61 2.86 14.352 8.583 17.222 5.007 2.153 9.298 3.588 15.736 4.305v7.894h-84.4v-7.894c5.721-.717 11.443-1.435 15.735-2.87 6.437-2.153 9.298-8.611 9.298-17.222V152.13c0-26.551-12.874-40.903-27.18-40.903-23.603 0-37.193 15.787-40.77 25.116V241.11c0 8.611 2.862 14.352 8.584 17.222 4.291 2.87 10.729 4.306 15.736 4.306v7.893H545.88v-7.176h.716zm179.529-79.652c0-47.361 30.041-91.135 77.963-91.135 35.763 0 53.645 20.81 53.645 44.491 0 12.917-7.153 21.528-19.312 21.528-7.153 0-20.743-4.306-20.743-19.375 0-15.787 4.292-16.505 4.292-23.68-2.146-11.482-7.153-13.635-18.597-13.635-20.742 0-40.054 20.093-40.054 78.218 0 46.643 16.45 78.935 46.491 78.935 23.604 0 37.91-12.2 48.638-34.445l7.868 5.741c-12.875 25.116-37.194 45.926-64.373 45.926-50.784 0-75.818-39.467-75.818-92.57M970.03 160.74c0-27.985-5.008-58.842-29.326-58.842-20.743 0-35.763 23.68-36.479 60.278l65.804-1.435zm-102.998 22.246c0-45.926 27.18-90.417 73.672-90.417 47.922 0 65.803 34.445 65.803 73.912v3.588H904.225v4.306c0 49.514 14.306 84.676 50.068 84.676 25.75 0 35.048-10.764 47.923-34.445l7.152 4.306c-12.16 27.269-35.763 46.644-64.373 46.644-53.644.717-77.963-41.62-77.963-92.57z"/></g></svg>