<svg id="Layer_1" xmlns="http://www.w3.org/2000/svg" width="95.2" height="25" enable-background="new 0 0 95.2 25"><style>.st0{fill:#FFFFFF;}</style><path class="st0" d="M35.1 14.5zM46.5 22.8h-.1c-.4.1-.7.2-.9.2-.2 0-.3 0-.4-.1-.1-.1-.2-.3-.3-.5 0-.1-.1-.4-.1-.8V6.3h-.8L40 7.8l.3.7h.1c.4-.1.7-.2.9-.2.2 0 .3 0 .5.1.1.1.2.3.2.6 0 .1.1.4.1.8V13.2c-.7-.5-1.6-.8-2.6-.8-1.8 0-3.3.7-4.4 2.1-1.1 1.4-1.7 3-1.7 4.7 0 1.7.5 3.1 1.6 4.2 1 1.1 2.3 1.6 3.7 1.6.7 0 1.3-.1 1.9-.4.5-.2 1-.6 1.6-1.1V25h.8l3.8-1.5-.3-.7zm-9.1-.8c-.8-.9-1.2-2.2-1.2-3.8 0-1.7.4-2.9 1.2-3.8.6-.6 1.3-1 2-1 .4 0 .8.1 1.2.4.4.2.8.6 1 1 .3.5.4 1 .5 1.5v5.9c-.7.7-1.5 1.1-2.2 1.1-.9 0-1.8-.4-2.5-1.3zM63.1 19.7l-.1.2c-.5 1-.9 1.7-1.4 2.1-.7.5-1.4.8-2.3.8-.6 0-1.1-.1-1.6-.4-.5-.3-.9-.6-1.2-1.1-.7-1-1.1-2.2-1.1-3.6 0-1.3.4-2.4 1.1-3.2.5-.6 1.2-.9 2.1-.9.5 0 .9.1 1.2.3.3.2.4.6.5 1 0 .3.1.5.1.7.1.2.1.3.2.4.2.2.3.3.6.4.2.1.5.1.8.1.4 0 .8-.1 1-.3.3-.2.4-.5.4-.9s-.1-.7-.3-1c-.2-.3-.5-.6-.9-1-.8-.6-1.9-.9-3.1-.9-1.7 0-3.1.6-4.3 1.8-1.2 1.2-1.8 2.7-1.8 4.5 0 1.9.5 3.4 1.6 4.6 1.1 1.1 2.3 1.7 3.8 1.7 1.2 0 2.3-.4 3.3-1.3s1.7-2.1 2-3.6V20h-.1l-.5-.3zM62.1 13.4zM11.9 13.9zM19.6 13.9zM21.9 24.1c-.1-.1-.2-.1-.3-.1-.1 0-.2 0-.3-.1-.3-.1-.5-.1-.7-.2-.1-.1-.2-.1-.3-.3-.1-.2-.1-.5-.2-.9v-2-3.7c0-.4 0-1-.1-1.5s-.2-1-.5-1.3c-.6-.9-1.6-1.5-3.1-1.5-2 0-3.1 1.3-3.7 1.8l-.6.7c-.1-.4-.2-.7-.4-1-.6-.9-1.6-1.5-3.1-1.5-1.3 0-2.2.5-2.8 1-.3.3-.6.5-.8.7 0 0 0 .1-.1.1-.1.1-.1.1-.2.1 0 0 0-.1-.1-.1v-1.5-.4c0-.1-.1-.1-.1-.1s-.1-.1-.2-.1-.2 0-.2.1c-.1 0-.1.1-.2.1-1.1.9-2.1 1.6-3.2 2-.1 0-.1 0-.2.1 0 0-.1.1-.1.2s0 .1.1.2c0 .1.1.1.2.1s.2 0 .4.1c.3 0 .6.2.7.3.1.1.2.5.2 1v2c0 2.4 0 3.9-.2 4.8 0 .3-.1.4-.3.5-.1.1-.4.2-.7.2-.2.1-.4.1-.6.1-.1 0-.2.1-.2.1V24.4s0 .1.1.1H6.2c.1 0 .1 0 .1-.1 0 0 .1-.1.1-.2v-.1c0-.1-.1-.1-.2-.1s-.2-.1-.4-.1c-.1 0-.3-.1-.3-.1-.2-.1-.4-.2-.5-.3-.1-.1-.2-.3-.3-.4-.1-.7-.2-1.7-.2-3.8 0-.8 0-1.6.1-2.3.1-.7.2-1.3.4-1.7.2-.3.4-.6.8-.8.4-.3.9-.5 1.4-.5.5 0 .9 0 1.2.2.3.1.6.3.9.7.3.3.4.8.5 1.4.1.7.1 1.5.1 2.6v.4c0 1.9 0 3-.1 3.6 0 .3-.1.5-.3.6-.1.1-.4.2-.6.3-.3.1-.6.2-.8.2-.1 0-.2 0-.3.1 0 0-.1 0-.1.1v.1c0 .1 0 .1.1.1.1.1.1.1.3.1h.4c.3 0 1.9-.1 2.6-.1.7 0 2.2.1 2.5.1h.4c.1 0 .1 0 .1-.1 0 0 .1-.1.1-.2s0-.1-.1-.2h-.2c-.1 0-.2 0-.3-.1-.3-.1-.5-.1-.7-.2-.1-.1-.2-.1-.3-.3-.1-.2-.1-.5-.2-.9v-2-3.7c0-.3 0-.7-.1-1.1l.7-.7c.4-.4 1.1-.8 1.8-.8.5 0 .9 0 1.2.2.3.1.6.3.9.7.3.3.4.8.5 1.4.1.7.1 1.5.1 2.6v.4c0 1.9 0 3-.1 3.6 0 .3-.1.5-.3.6-.1.1-.4.2-.6.3-.2.1-.4.1-.6.2-.1 0-.2 0-.3.1 0 0-.1 0-.1.1v.1c0 .1 0 .1.1.1.1.1.1.1.3.1h.4c.3 0 1.9-.1 2.6-.1.7 0 2.2.1 2.5.1h.4c.1 0 .1 0 .1-.1 0 0 .1-.1.1-.2 0-.2 0-.3-.1-.3zM24.6 17.1c.1-.1.1-.1.2-.1h.4c2.4 0 4.4.2 6.1.2.4 0 .7 0 .9-.1.1-.1.2-.1.3-.3.1-.1.1-.3.1-.5 0-1-.5-2-1.3-2.7-.8-.7-2-1.2-3.3-1.2-1.7 0-3.3.7-4.5 1.8-1.2 1.2-1.9 2.8-1.9 4.8 0 1.8.6 3.4 1.7 4.4 1 1.1 2.5 1.6 4.1 1.6 1.5 0 2.8-.7 3.7-1.4.5-.4.8-.8 1.1-1.1.1-.2.2-.3.3-.4 0-.1.1-.1.1-.2v-.1c0-.1 0-.1-.1-.2s-.1-.1-.2-.1h-.1s-.1.1-.2.1c-.4.4-1.4 1.5-3.3 1.5-1.5 0-2.6-.6-3.2-1.5-.7-.9-1-2.2-1-3.6v-.6c.1-.1.1-.2.1-.3zm3.3-4c.8 0 1.3.3 1.6.6.3.3.4.7.4 1 0 .3-.1.5-.3.7-.3.3-.8.5-1.4.5-.6.1-1.2.1-1.8.1-.6 0-1.1 0-1.3-.1-.1 0-.2-.1-.2-.1v-.1c0-.4.3-1.1.8-1.6.4-.5 1.2-1 2.2-1zM94.9 21.5c-.1 0-.1 0 0 0-.1.1-.2.1-.2.2-.4.4-1.4 1.5-3.3 1.5-1.5 0-2.6-.6-3.3-1.5-.7-.9-1-2.2-1-3.6v-.7c0-.1.1-.2.1-.3l.2-.2h.4c2.4 0 4.4.2 6.1.2.4 0 .7 0 .9-.1.1 0 .2-.1.2-.2.1-.1.1-.3.1-.4 0-2-2-3.9-4.5-3.9-1.7 0-3.3.7-4.5 1.8-1.2 1.2-1.9 2.8-1.9 4.7 0 1.8.6 3.4 1.6 4.4 1 1 2.4 1.6 4 1.6 1.5 0 2.8-.7 3.7-1.4.5-.4.8-.7 1.1-1.1.1-.2.2-.3.3-.4.1-.1.1-.2.1-.3 0-.1 0-.1-.1-.2.1-.1 0-.1 0-.1zm-4.4-8.4c.8 0 1.3.3 1.6.6.3.3.5.8.5 1 0 .3-.1.6-.3.8-.3.3-.8.5-1.4.6-.6.1-1.2.1-1.8.1-.6 0-1.1 0-1.3-.1-.1 0-.2-.1-.2-.1s-.1-.1-.1-.2c0-.4.3-1.1.8-1.7.4-.6 1.2-1 2.2-1zM84.7 24.1c-.1-.1-.2-.1-.3-.1-.1 0-.2 0-.3-.1-.3-.1-.5-.1-.7-.2-.1-.1-.2-.1-.3-.3-.1-.1-.1-.4-.1-.9v-2-3.7c0-.4 0-1-.1-1.5s-.2-1-.5-1.3c-.6-.9-1.6-1.5-3.1-1.5-1.3 0-2.2.5-2.8 1-.3.3-.6.5-.8.7-.1.1-.2.2-.3.2-.1.1-.1.1-.2.1 0 0 0-.1-.1-.1v-1.5-.4c0-.1-.1-.1-.1-.1s-.1-.1-.2-.1-.2 0-.2.1c-.1 0-.1.1-.2.1-1.1.9-2.1 1.6-3.2 2-.1 0-.1 0-.2.1 0 0-.1.1-.1.2s0 .1.1.2h.2c.1 0 .2 0 .4.1.3 0 .6.2.7.3.1.1.2.5.2 1v2c0 2.4 0 3.9-.2 4.8 0 .3-.1.4-.3.5-.1.1-.4.2-.7.2-.2.1-.4.1-.6.1-.1 0-.2.1-.2.1-.1 0-.1.1-.1.2v.1s0 .1.1.1H76.6c.1 0 .1 0 .1-.1 0 0 .1-.1.1-.2v-.1c0-.1-.1-.1-.2-.1s-.2-.1-.4-.1c-.1 0-.3-.1-.3-.1-.2-.1-.4-.2-.5-.3-.1-.1-.2-.3-.3-.4-.1-.7-.2-1.7-.2-3.8 0-.8 0-1.6.1-2.3.1-.7.2-1.3.4-1.7.2-.3.4-.6.8-.8.4-.2.8-.4 1.3-.4s.9 0 1.2.2c.3.1.6.3.9.7.3.3.4.8.5 1.4.1.7.1 1.5.1 2.6v.4c0 1.9 0 3-.1 3.6 0 .3-.1.5-.3.6-.1.1-.4.2-.6.3-.2.1-.4.1-.6.2-.1 0-.2 0-.3.1 0 0-.1 0-.1.1v.1c0 .1 0 .1.1.1.1.1.1.1.3.1h.4c.3 0 1.9-.1 2.6-.1.7 0 2.2.1 2.5.1h.4c.1 0 .1 0 .1-.1 0 0 .1-.1.1-.2v-.2zM66.5 10.7c.4 0 .8-.1 1.1-.4.3-.3.5-.6.4-1 0-.4-.2-.7-.4-1-.3-.3-.6-.4-1.1-.4-.4 0-.8.1-1.1.4-.3.3-.4.6-.4 1s.2.7.5 1c.2.2.6.4 1 .4zM70.1 24.1c-.1 0-.2-.1-.4-.1-.1 0-.3-.1-.3-.1-.2-.1-.4-.2-.5-.3-.1-.1-.2-.3-.3-.4-.1-.7-.2-1.7-.2-3.8V13v-.4c0-.1-.1-.1-.1-.1s-.1-.1-.2-.1-.2 0-.2.1c-.1 0-.1.1-.2.1-1.1.9-2.1 1.6-3.2 2-.1 0-.1 0-.2.1 0 0-.1.1-.1.2s0 .1.1.2.2.1.3.1c.1 0 .2 0 .4.1.3 0 .6.2.7.3.1.1.2.5.2 1v2c0 2.4 0 3.9-.2 4.8 0 .3-.1.4-.3.5-.1.1-.4.2-.7.2-.2.1-.4.1-.6.1-.1 0-.2.1-.2.1-.1 0-.1.1-.1.2v.1s0 .1.1.1H70c.1 0 .1 0 .1-.1 0 0 .1-.1.1-.2v-.1c.1-.2 0-.2-.1-.2zM8.8 8zM.9 8.4h3.6s.1 0 .1-.1v-.1-.1L4.5 8c0 .1-.1 0-.2 0h-.2c-.1-.1-.2-.1-.3-.2-.1-.1-.1-.1-.1-.2-.1-.4-.1-1-.1-2.2V4c0-.4.1-.8.2-1 .1-.2.3-.3.5-.5.2-.1.5-.2.8-.2.3 0 .5 0 .7.1.2 0 .3.1.5.3.1.2.2.4.3.8v1.8c0 1.1 0 1.7-.1 2.1 0 .2-.1.3-.2.4 0 .1-.1.1-.3.2-.1 0-.2.1-.4.1-.1 0-.1 0-.2.1l-.1.1v.2s.1 0 .2.1h.3c.2 0 1.1-.1 1.6-.1.4 0 1.3.1 1.5.1h.2s.1 0 .1-.1v-.1c0-.1 0-.1-.1-.1.1-.2 0-.2-.1-.2C9 8 8.9 8 8.8 8s-.3-.1-.3-.1c-.1 0-.1-.1-.1-.1-.1-.1-.2-.3-.2-.6V6 3.8c0-.3 0-.6-.1-.9 0-.3-.1-.6-.3-.8-.3-.5-.9-.9-1.8-.9-.8 0-1.3.3-1.7.6-.2.2-.3.3-.4.5-.1 0-.1.1-.2.1h-.1v-.9-.3s0-.1-.1-.1h-.1c-.1 0-.1 0-.2.1l-.1.1c-.6.5-1.2 1-1.9 1.2 0 0-.1 0-.1.1l-.1.1s0 .1.1.1c0 0 .1 0 .2.1h.2c.2 0 .3.1.4.1 0 .1.1.3.1.6v1.2C2 6.1 2 7 1.9 7.6c0 .2-.1.2-.2.3 0 0-.1 0-.3.1-.1 0-.3 0-.4.1-.1 0-.1 0-.1.1l-.1.1.1.1zM9.4 3.7c.1.1.2.1.3.1.2 0 .3 0 .5-.1s.3-.2.4-.4c.1-.4.2-.8.5-1.1.2-.3.5-.5 1-.5.2 0 .3 0 .5.1.1.1.2.2.3.4.1.1.1.3.1.6v1.3c0 .2 0 .3-.1.3-.1.1-.2.2-.4.3-.2.1-.5.2-.9.5-.5.2-1 .5-1.4.8-.5.2-.8.7-.8 1.3 0 .3.1.6.3.9.2.3.6.5 1.1.5 1 0 1.7-.6 2.1-1.1.2.5.6 1 1.3 1 .5 0 .9-.2 1.2-.5.1-.1.2-.3.3-.4.1-.1.1-.2.1-.3v-.1l-.1-.1h-.1c-.1 0-.2.1-.3.2-.1.1-.3.2-.5.2-.1 0-.2 0-.2-.1-.1-.1-.2-.2-.2-.3 0-.1-.1-.3-.1-.5 0-.5.1-3.1.1-4.1 0-.3-.1-.6-.2-.8-.2-.3-.5-.5-.8-.6-.3-.1-.7-.1-1.1-.1-1 0-1.8.4-2.3.8-.2.3-.4.6-.5.8-.2.2-.2.5-.2.7 0 .1 0 .2.1.3zm3.4 1.5c0 .8 0 1.5-.3 1.9-.3.4-.5.6-.9.6-.2 0-.4-.1-.5-.2-.2-.1-.3-.3-.3-.6s.1-.5.3-.7c.2-.3.6-.6.9-.8.2-.1.3-.2.4-.2.1 0 .1 0 .2-.1h.2v.1zM36.1 8.6c.9 0 1.6-.4 2.2-.8.3-.2.5-.4.6-.6.1-.2.2-.2.2-.3 0-.1.1-.1.1-.2v-.1l-.1-.1H39s-.1 0-.1.1c-.2.2-.8.9-1.9.9-.9 0-1.5-.3-1.9-.9-.4-.5-.6-1.3-.6-2.1v-.4c0-.1 0-.1.1-.1l.1-.1h.2c1.4 0 2.6.1 3.6.1.2 0 .4 0 .5-.1.1 0 .1-.1.2-.2v-.3c0-1.2-1.2-2.3-2.7-2.3-1 0-2 .4-2.7 1.1-.7.7-1.1 1.7-1.1 2.8 0 1.1.4 2 1 2.6.6.7 1.4 1 2.4 1zm.3-7c.5 0 .7.2.9.4.2.2.3.4.3.6 0 .2-.1.3-.2.4-.2.2-.5.3-.8.3-.3.1-.7.1-1.1.1-.4 0-.6 0-.8-.1-.1 0-.1 0-.1-.1v-.1c0-.2.1-.6.4-1 .4-.2.8-.5 1.4-.5zM27.7 2.8h.1c.2 0 .3 0 .4.1.1 0 .1.1.2.2s.1.3.1.6v3.2c0 .4 0 .6-.1.8 0 .1-.2.2-.3.3h-.3c-.1 0-.2 0-.2.1 0 0-.1 0-.1.1l-.1.1s0 .1.1.1c0 0 .1 0 .2.1h4l.1-.1v-.1c0-.1-.1-.1-.2-.1h-.2c-.2-.2-.4-.2-.6-.3-.1 0-.2-.1-.3-.1-.1 0-.2-.1-.2-.2 0 0 0-.1-.1-.2-.1-.3-.1-.8-.1-1.4v-.8-1.6c0-.4.1-.7.2-.8l.2-.2c.1-.1.1-.1.3-.1.1 0 .2 0 .3.1.1.1.3.2.4.3.1.1.3.2.6.2.2 0 .5-.1.6-.3.2-.2.3-.4.3-.7 0-.3-.1-.5-.3-.7-.2-.2-.5-.3-.8-.3-.6 0-1 .3-1.3.6l-.4.4c0 .1-.1.1-.1.1v-.7c0-.1 0-.2-.1-.3 0-.1-.1-.1-.2-.1h-.2c-.1 0-.1.1-.3.2 0 .3-.3.5-.6.7-.3.2-.6.3-.7.4-.1 0-.2.1-.2.1s-.1 0-.1.1v.1c-.1 0-.1.1 0 .1z"/><path class="st0" d="M15.5 2.3h.8l.1.1v.2c0 .2-.1 3.1-.1 3.7 0 .6.1 1.2.3 1.6.2.4.6.6 1.2.6s1.1-.2 1.5-.5c.2-.1.4-.3.5-.4.1.1.2 0 .2 0v-.1-.1-.1h-.1s-.1 0-.2.1c-.2.1-.6.2-1 .2-.2 0-.3 0-.5-.1-.1-.1-.2-.1-.3-.3V6v-.3c0-1.8 0-2.7.1-3.2v-.2-.1h2.1c.1 0 .1 0 .1.1l.1.1v.3c0 .3-.1 2.9-.1 3.8 0 .8.3 1.3.7 1.7.4.3.9.4 1.3.4.8 0 1.4-.3 1.8-.6.2-.2.4-.3.5-.4.1-.1.1-.1.2-.1V8.6s0 .1.1.1h.2c.1 0 .2-.1.2-.1.6-.3 1.8-.6 2.1-.6.1 0 .2 0 .2-.1 0 0 .1 0 .1-.1v-.1s0-.1-.1-.1l-.1-.1h-.7c-.1 0-.1-.1-.1-.1s0-.1-.1-.2c0-.3-.1-.8-.1-1.5 0-1.5.1-3.3.1-3.9 0-.1 0-.2-.1-.3-.1-.1-.2-.1-.3-.1l-2.3.1c-.1 0-.2 0-.3.1 0 0-.1 0-.1.1v.2s.1.1.2.1h.3c.1 0 .3 0 .4.1.1 0 .2.1.3.1 0 0 .1.1.1.2.1.4.1 1.1.1 2.4V6c0 .2 0 .4-.1.5 0 .1-.1.3-.1.3-.2.4-.8.7-1.4.7-.5 0-.9-.1-1.1-.3-.2-.2-.3-.5-.3-.9V1.9c0-.2 0-.3-.1-.4l-.1-.1h-.2-.1l-3.4.1h-.1v-.1V.3c0-.1 0-.1-.1-.2.2-.1.2-.1.1-.1h-.1l-.1.1-.1.1c-.4.6-1.2 1.2-1.7 1.6l-.2.2s-.1 0-.1.1v.1c-.1.1 0 .1 0 .1zM49.3 10.7c.4 0 .8-.1 1.1-.4.3-.3.5-.6.4-1 0-.4-.2-.7-.4-1-.3-.3-.6-.4-1.1-.4-.4 0-.8.1-1.1.4-.3.3-.4.6-.4 1s.2.7.5 1c.3.2.6.4 1 .4zM52.8 24.1c-.1 0-.2-.1-.4-.1-.1 0-.3-.1-.3-.1-.2-.1-.4-.2-.5-.3-.1-.1-.2-.3-.3-.4-.1-.7-.2-1.7-.2-3.8V13v-.4c0-.1-.1-.1-.1-.1s-.1-.1-.2-.1-.2 0-.2.1c-.1 0-.1.1-.2.1-1.1.9-2.1 1.6-3.2 2-.1 0-.1 0-.2.1 0 0-.1.1-.1.2s0 .1.1.2.2.1.3.1c.1 0 .2 0 .4.1.3 0 .6.2.7.3.1.1.2.5.2 1v2c0 2.4 0 3.9-.2 4.8 0 .3-.1.4-.3.5-.1.1-.4.2-.7.2-.2.1-.4.1-.6.1-.1 0-.2.1-.2.1-.1 0-.1.1-.1.2v.1s0 .1.1.1H52.7c.1 0 .1 0 .1-.1 0 0 .1-.1.1-.2v-.1c0-.2 0-.2-.1-.2z"/></svg>