<svg id="Layer_1" xmlns="http://www.w3.org/2000/svg" width="171.3" height="45" enable-background="new 0 0 171.3 45"><style>.st0{fill:#FFFFFF;}</style><path class="st0" d="M63.3 26.2zM83.8 41l-.2.1c-.7.3-1.3.4-1.7.4-.3 0-.6-.1-.8-.3-.2-.2-.4-.5-.5-1-.1-.2-.1-.8-.1-1.5V11.4H79l-6.9 2.7.5 1.3.2-.1c.7-.2 1.2-.4 1.6-.4.3 0 .6.1.8.2.2.1.4.5.5 1 .1.2.1.7.1 1.5V23.8c-1.3-1-2.8-1.5-4.6-1.5-3.2 0-5.9 1.3-8 3.8-2.1 2.5-3.1 5.3-3.1 8.4 0 3 .9 5.6 2.8 7.5 1.9 1.9 4.1 2.9 6.6 2.9 1.2 0 2.4-.2 3.5-.7.9-.4 1.9-1.1 2.8-2V45h1.4l6.9-2.7-.3-1.3zm-16.6-1.4c-1.4-1.6-2.1-3.9-2.1-6.9 0-3 .7-5.2 2.2-6.8 1.1-1.2 2.3-1.7 3.6-1.7.7 0 1.5.2 2.2.6.8.4 1.4 1 1.9 1.8s.7 1.7.8 2.7v10.6c-1.3 1.3-2.7 1.9-4 1.9-1.6.2-3.2-.6-4.6-2.2zM113.6 35.5l-.1.2c-.8 1.8-1.7 3.1-2.5 3.7-1.2 1-2.6 1.5-4.1 1.5-1.1 0-2-.2-2.9-.7-.8-.5-1.6-1.1-2.2-2.1-1.3-1.9-1.9-4-1.9-6.5 0-2.4.6-4.3 1.9-5.7.9-1.1 2.2-1.6 3.7-1.6 1 0 1.7.2 2.2.6.5.4.8 1 .9 1.9.1.5.1.9.2 1.2.1.3.2.6.4.8.3.3.6.6 1 .7.4.2.9.2 1.4.2.8 0 1.4-.2 1.8-.6.5-.4.7-1 .7-1.6 0-.6-.2-1.3-.6-1.9-.4-.6-.9-1.2-1.7-1.7-1.5-1.1-3.3-1.7-5.6-1.7-3 0-5.6 1.1-7.7 3.2-2.1 2.1-3.2 4.9-3.2 8.2 0 3.4 1 6.2 2.9 8.3 1.9 2 4.2 3.1 6.8 3.1 2.2 0 4.2-.8 6-2.3 1.8-1.5 3-3.7 3.6-6.5V36l-.2-.1-.8-.4zM111.8 24zM21.4 25zM35.4 25zM39.5 43.3c-.1-.1-.3-.2-.5-.2s-.4-.1-.6-.1c-.5-.1-.9-.2-1.2-.4-.2-.1-.3-.2-.5-.5s-.3-.8-.3-1.7v-3.6-6.7c0-.8 0-1.7-.2-2.7-.1-.9-.4-1.8-.8-2.4-1.1-1.6-2.8-2.8-5.7-2.8-3.6 0-5.6 2.4-6.6 3.3l-1 1.2c-.2-.7-.4-1.3-.7-1.7-1.1-1.6-2.8-2.8-5.7-2.8-2.3 0-3.9.9-5.1 1.9-.6.5-1 .9-1.4 1.3-.2.2-.3.3-.5.4 0 .1-.1.2-.2.2h-.1s-.1-.1-.1-.2V23.2c0-.3 0-.5-.1-.7 0-.1-.1-.2-.2-.3-.1-.1-.2-.2-.3-.2-.2 0-.3.1-.4.2-.1.1-.3.2-.3.2-1.9 1.7-3.8 2.9-5.8 3.6-.1 0-.2.1-.3.2-.1.1-.1.2-.1.4 0 .1 0 .2.1.3 0 .1.2.1.4.1s.4.1.7.1c.6.1 1 .3 1.2.5.2.2.3.8.4 1.7.1.9.1 2.1.1 3.5 0 4.3 0 7-.3 8.6-.1.5-.2.8-.5 1-.3.2-.6.3-1.2.4-.4.1-.8.2-1.1.3-.1 0-.3.1-.4.2-.1.2-.2.3-.2.4 0 .1 0 .2.1.2 0 .1.1.1.1.1.2.1.4.1.7.1.2 0 1.2 0 2.2-.1 1 0 2.2-.1 2.6-.1.4 0 1.5 0 2.5.1 1 0 1.9.1 2.2.1h.2c.2 0 .4 0 .6-.1.1 0 .2-.1.3-.1.1-.1.1-.2.1-.3 0-.1 0-.2-.1-.2-.1-.1-.2-.2-.3-.2-.2-.1-.4-.2-.7-.2-.2-.1-.5-.1-.6-.2-.4-.2-.7-.3-.9-.5-.2-.2-.4-.5-.5-.8-.3-1.3-.3-3.1-.3-6.9 0-1.4 0-2.9.1-4.1.1-1.3.3-2.4.7-3.1.3-.5.8-1 1.5-1.5.7-.4 1.5-.7 2.4-.7.9 0 1.6.1 2.2.3.6.2 1.1.6 1.6 1.2.5.5.7 1.4.8 2.5.1 1.2.1 2.7.1 4.6v.8c0 3.5 0 5.3-.2 6.6-.1.6-.3.9-.5 1.2-.3.2-.6.4-1.1.5l-1.2.3c-.2 0-.3.1-.5.2-.1 0-.1.1-.2.1 0 .1-.1.1-.1.2s0 .2.1.3c.1.1.3.1.5.1h.8c.6 0 3.5-.2 4.7-.2 1.3 0 3.9.2 4.5.2.3 0 .5 0 .7-.1.1 0 .2-.1.3-.2.1-.1.1-.2.1-.3 0-.1-.1-.2-.2-.3-.1-.1-.3-.2-.5-.2s-.4-.1-.6-.1c-.5-.1-.9-.2-1.2-.4-.2-.1-.3-.2-.5-.5s-.3-.8-.3-1.7v-3.6V30c0-.6 0-1.3-.1-2l1.3-1.3c.7-.8 1.9-1.5 3.3-1.5.9 0 1.6.1 2.2.3.6.2 1.1.6 1.6 1.2.5.5.7 1.4.8 2.5.1 1.2.1 2.7.1 4.6v.8c0 3.5 0 5.3-.2 6.6-.1.6-.3.9-.5 1.2-.3.2-.6.4-1.1.5l-1.2.3c-.2 0-.3.1-.5.2-.1 0-.1.1-.2.1 0 .1-.1.1-.1.2s0 .2.1.3c.1.1.3.1.5.1h.8c.6 0 3.5-.2 4.7-.2 1.3 0 3.9.2 4.5.2.3 0 .5 0 .7-.1.1 0 .2-.1.3-.2.1-.1.1-.2.1-.3.3 0 .2-.1.2-.2zM44.4 30.8c.1-.1.2-.2.4-.3h.8c4.3 0 7.9.3 10.9.3.7 0 1.2 0 1.6-.2.2-.1.4-.2.5-.5.1-.2.1-.5.1-.8 0-1.8-.9-3.6-2.4-4.9-1.5-1.3-3.5-2.2-5.9-2.2-3.1 0-6 1.2-8.1 3.3-2.1 2.1-3.4 5.1-3.4 8.6 0 3.3 1.1 6.1 3 8 1.9 1.9 4.4 3 7.3 3 2.7 0 5-1.2 6.7-2.5.8-.7 1.5-1.4 2-1.9.2-.3.4-.6.5-.8.1-.1.1-.2.1-.3 0-.1.1-.2.1-.3 0-.1 0-.2-.1-.3-.1-.1-.2-.2-.4-.2-.1 0-.1 0-.2.1s-.2.1-.3.2c-.7.7-2.5 2.6-5.9 2.6-2.7 0-4.6-1.1-5.8-2.7-1.2-1.7-1.8-4-1.8-6.4 0-.5 0-.9.1-1.2 0-.3.1-.5.2-.6zm5.8-7.2c1.4 0 2.3.5 2.9 1.1.6.6.8 1.3.8 1.7 0 .6-.2 1-.6 1.3-.5.5-1.5.8-2.5 1-1.1.3-2.3.3-3.3.3-1.2 0-1.9 0-2.3-.2-.2-.1-.3-.1-.4-.2-.1-.1-.1-.1-.1-.2 0-.8.5-2 1.4-3 .9-1 2.2-1.8 4.1-1.8zM170.7 38.7c-.1 0-.1 0-.2.1s-.2.1-.3.2c-.7.7-2.6 2.6-5.9 2.6-2.8 0-4.7-1.1-5.9-2.7-1.2-1.7-1.8-4-1.8-6.5 0-.5 0-.9.1-1.2 0-.2.1-.4.2-.5.1-.2.2-.2.4-.3h.8c4.3 0 7.9.3 10.9.3.7 0 1.2 0 1.6-.2.2-.1.3-.2.4-.4.1-.2.1-.5.1-.8 0-3.6-3.5-7.1-8.2-7.1-3.1 0-6 1.2-8.1 3.3-2.1 2.1-3.4 5-3.4 8.5 0 3.3 1.1 6 3 7.9 1.8 1.9 4.4 2.9 7.3 2.9 2.7 0 5-1.2 6.7-2.5.8-.7 1.5-1.3 2-1.9.2-.3.4-.6.5-.8.1-.2.2-.4.2-.5 0-.1 0-.2-.1-.3 0 0-.1-.1-.3-.1zm-7.8-15.1c1.4 0 2.3.5 2.9 1.1.6.6.8 1.4.8 1.8 0 .6-.2 1-.6 1.4-.6.5-1.5.8-2.6 1-1.1.2-2.2.2-3.2.2-1.2 0-1.9 0-2.3-.2-.2-.1-.4-.1-.4-.2-.1-.1-.1-.2-.1-.3 0-.8.5-2 1.4-3 .8-1 2.2-1.8 4.1-1.8zM152.4 43.3c-.1-.1-.3-.2-.5-.2s-.4-.1-.6-.1c-.5-.1-.9-.2-1.2-.4-.2-.1-.3-.2-.5-.5s-.3-.8-.3-1.7v-3.6-6.7c0-.8 0-1.7-.2-2.7-.1-.9-.4-1.8-.8-2.4-1.1-1.6-2.8-2.8-5.7-2.8-2.3 0-3.9.9-5.1 1.9-.6.5-1 .9-1.4 1.3-.2.2-.3.3-.5.4-.1.1-.2.1-.3.1h-.1s-.1-.1-.1-.2V23.1c0-.3 0-.5-.1-.7 0-.1-.1-.2-.2-.3-.1-.1-.2-.1-.3-.1-.2 0-.3.1-.4.2-.1.1-.3.2-.3.2-1.9 1.7-3.8 2.9-5.8 3.6-.1 0-.2.1-.3.2-.1.1-.1.2-.1.4 0 .1 0 .2.1.3.1.1.3.1.5.2.2 0 .4.1.7.1.6.1 1 .3 1.2.5.2.2.3.8.4 1.7.1.9.1 2.1.1 3.5 0 4.3 0 7-.3 8.6-.1.5-.2.8-.5 1-.3.2-.6.3-1.2.4-.4.1-.8.2-1.1.3-.1 0-.3.1-.4.2-.1.1-.2.2-.2.3 0 .1 0 .2.1.2 0 .1.1.1.1.1.2.1.4.1.7.1.2 0 1.2 0 2.2-.1 1 0 2.2-.1 2.6-.1.4 0 1.5 0 2.5.1 1 0 1.9.1 2.2.1h.2c.2 0 .4 0 .6-.1.1 0 .2-.1.3-.1.1-.1.1-.2.1-.3 0-.1 0-.2-.1-.2-.1-.1-.2-.2-.3-.2-.2-.1-.4-.2-.7-.2-.2-.1-.5-.1-.6-.2-.4-.2-.7-.3-.9-.5-.2-.2-.4-.5-.5-.8-.3-1.3-.3-3.1-.3-6.9 0-1.4 0-2.9.1-4.1.1-1.3.3-2.4.7-3.1.3-.5.8-1 1.5-1.5.7-.4 1.5-.7 2.4-.7.9 0 1.6.1 2.2.3.6.2 1.1.6 1.6 1.2.5.5.7 1.4.8 2.6.1 1.2.1 2.7.1 4.7v.8c0 3.5 0 5.3-.2 6.6-.1.6-.3.9-.5 1.2-.3.2-.6.4-1.1.5l-1.2.3c-.2 0-.3.1-.5.2-.1 0-.1.1-.2.1 0 .1-.1.1-.1.2s0 .2.1.3c.1.1.3.1.5.1h.8c.6 0 3.5-.2 4.7-.2 1.3 0 3.9.2 4.5.2.3 0 .5 0 .7-.1.1 0 .2-.1.3-.2.1-.1.1-.2.1-.3.1-.2.1-.3 0-.4zM119.7 19.2c.7 0 1.4-.3 1.9-.8s.8-1.1.8-1.8-.3-1.3-.8-1.8-1.2-.8-1.9-.7c-.8 0-1.4.3-2 .8-.5.5-.8 1.1-.8 1.8s.3 1.3.8 1.8c.6.5 1.3.7 2 .7zM126.2 43.3c-.2-.1-.4-.2-.7-.2-.2-.1-.5-.1-.6-.2-.4-.2-.7-.3-.9-.5-.2-.2-.4-.5-.5-.8-.3-1.3-.3-3.1-.3-6.9 0-2.8.1-8.9.1-9.2v-2.3c0-.3 0-.5-.1-.7 0-.1-.1-.2-.2-.3-.1-.1-.2-.1-.3-.1-.2 0-.3.1-.4.2-.1.1-.3.2-.3.2-1.9 1.7-3.8 2.9-5.8 3.6-.1 0-.2.1-.3.2-.1.1-.1.2-.1.4 0 .1 0 .2.1.3.1.1.3.1.5.2.2 0 .4.1.7.1.6.1 1 .3 1.2.5.2.2.3.8.4 1.7.1.9.1 2.1.1 3.5 0 4.3 0 7-.3 8.6-.1.5-.2.8-.5 1-.3.2-.6.3-1.2.4-.4.1-.8.2-1.1.3-.1 0-.3.1-.4.2-.1.1-.2.2-.2.3 0 .1 0 .2.1.2 0 .1.1.1.1.1.2.1.4.1.7.1.2 0 1.2 0 2.2-.1 1 0 2.2-.1 2.6-.1.4 0 1.5 0 2.5.1 1 0 1.9.1 2.2.1h.2c.2 0 .4 0 .6-.1.1 0 .2-.1.3-.1.1-.1.1-.2.1-.3 0-.1 0-.2-.1-.2-.1-.1-.2-.1-.4-.2zM15.9 14.4zM1.6 15.2c.1.1.3.1.5.1.1 0 .7 0 1.3-.1.6 0 1.3-.1 1.5-.1.2 0 .9 0 1.4.1.6 0 1.1.1 1.3.1h.5c.1 0 .1 0 .2-.1.1-.2.1-.2.1-.3 0-.1 0-.1-.1-.2l-.2-.2c-.1-.1-.3-.1-.4-.1-.1 0-.3-.1-.4-.1-.1-.1-.3-.2-.4-.3-.1-.1-.2-.2-.3-.4-.2-.7-.2-1.8-.2-4 0-.8 0-1.7.1-2.4s.2-1.4.4-1.8c.2-.4.5-.7.9-.9.4-.3.8-.5 1.4-.5.5 0 .9 0 1.3.2.3.1.6.3.9.7.3.3.4.8.5 1.5.1.7.1 1.6.1 2.7v.5c0 2.1 0 3.1-.1 3.9 0 .3-.1.5-.3.6-.1.1-.4.2-.6.3-.2.1-.5.1-.7.2-.1 0-.2.1-.3.1l-.1.1v.2c0 .1 0 .1.1.2s.2.1.3.1h.5c.4 0 2.1-.1 2.8-.1.7 0 2.3.1 2.6.1.2 0 .3 0 .4-.1.1 0 .1-.1.2-.1 0-.1.1-.1.1-.2s-.1-.2-.1-.2c-.1-.1-.2-.1-.3-.1-.1 0-.2 0-.4-.1-.3-.1-.5-.1-.7-.2-.3-.2-.4-.2-.4-.3-.1-.2-.2-.5-.2-1v-2.1-4c0-.5 0-1-.1-1.6-.1-.5-.2-1.1-.5-1.4-.7-.9-1.7-1.7-3.4-1.7-1.4 0-2.3.6-3 1.1l-.8.8c-.1.1-.2.2-.3.2l-.1.1v-.1-1.5c0-.2 0-.3-.1-.5 0-.1-.1-.1-.1-.2-.1 0-.1-.1-.2-.1s-.2 0-.3.1c-.2.1-.2.2-.3.2-1.1 1-2.2 1.7-3.4 2.1-.1 0-.1 0-.2.1s-.1.2-.1.3c0 .1 0 .2.1.2.1.1.2.1.3.1.1 0 .3 0 .4.1.3 0 .6.2.7.3.1.1.2.5.2 1v2.1c0 2.5 0 4.1-.2 5.1 0 .3-.1.4-.3.5-.1.1-.4.2-.7.2-.2.1-.5.1-.6.2-.1 0-.2.1-.2.1-.1.1-.1.1-.1.2v.2c.1 0 .1 0 .1.1zM16.9 6.7c.2.1.4.2.5.2.3 0 .6-.1.9-.2.3-.2.5-.4.6-.7.2-.7.4-1.4.9-2 .4-.6 1-1 1.9-1 .3 0 .6 0 .8.1.2.1.4.3.6.6.1.2.1.6.1 1v2.2c0 .3-.1.5-.2.6-.1.2-.3.4-.7.6-.3.3-.9.6-1.6.9-.8.4-1.8.9-2.5 1.5s-1.3 1.4-1.3 2.5c0 .5.2 1.1.6 1.6.4.5 1 .8 1.9.8 1.8 0 3-1.1 3.7-2.1v.1c.3.9 1.1 1.8 2.4 1.8.9 0 1.7-.4 2.2-.9.3-.2.4-.5.6-.7.1-.2.2-.4.2-.6 0-.1 0-.1-.1-.2 0-.1-.1-.1-.2-.1s-.1 0-.1.1c-.1.1-.3.3-.5.4-.2.2-.5.3-.9.3-.2 0-.3 0-.4-.1-.2-.1-.3-.3-.4-.6-.1-.3-.1-.6-.1-.9 0-.9.2-5.6.2-7.3 0-.6-.1-1-.3-1.4-.3-.5-.9-.8-1.5-1-.6-.1-1.3-.2-1.9-.2-1.8 0-3.2.7-4.2 1.5-.4.5-.8.9-1.1 1.4-.3.4-.4.9-.4 1.2l.3.6zm6.2 2.7c0 1.4-.1 2.7-.6 3.4-.5.6-1 1-1.6 1-.3 0-.7-.1-.9-.3-.3-.2-.5-.6-.5-1.1 0-.5.2-.9.5-1.3.4-.6 1.1-1.1 1.6-1.5.3-.2.6-.3.8-.4.1 0 .2-.1.3-.1h.1c.1-.1.2-.1.2 0 .1 0 .1.1.1.3zM65 15.5c1.6 0 3-.7 4-1.5.5-.4.9-.8 1.2-1.1.1-.2.2-.3.3-.5.1-.1.1-.2.1-.3 0-.1 0-.1-.1-.2s-.2-.1-.3-.1h-.1c-.1 0-.1.1-.2.1-.4.4-1.5 1.5-3.5 1.5-1.6 0-2.7-.6-3.4-1.6-.7-1-1-2.3-1-3.8 0-.3 0-.5.1-.7 0-.1.1-.2.1-.3H62.8c2.5 0 4.7.2 6.4.2.4 0 .7 0 1-.1l.3-.3c.1-.1.1-.3.1-.5 0-2.2-2.1-4.2-4.9-4.2-1.8 0-3.5.7-4.8 2-1.2 1.2-2 3-2 5.1 0 2 .7 3.6 1.8 4.7 1 1 2.6 1.6 4.3 1.6zm.6-12.6c.8 0 1.3.3 1.7.6.3.4.5.8.5 1 0 .3-.1.6-.3.8-.3.3-.9.5-1.5.6-.7.1-1.4.1-2 .1-.7 0-1.1 0-1.4-.1-.1 0-.2-.1-.2-.1v-.1c0-.4.3-1.2.8-1.7.5-.6 1.3-1.1 2.4-1.1zM49.9 5.1h.2c.3 0 .6.1.8.1.1.1.2.1.3.3.1.2.2.5.2 1.1V12.4c0 .8-.1 1.1-.2 1.4-.1.2-.3.4-.6.5-.3.1-.5.2-.7.2-.1 0-.3.1-.4.1-.1 0-.1.1-.2.1-.1.1-.1.1-.1.2s0 .2.1.2c.1.1.2.1.3.1h.3c.1 0 .7 0 1.3-.1.6 0 1.3-.1 1.8-.1.4 0 1.2 0 1.9.1.7 0 1.3.1 1.4.1h.4c.1 0 .1 0 .2-.1.1 0 .1-.1.1-.2s0-.2-.1-.2c-.1-.1-.2-.1-.3-.1-.1 0-.2 0-.3-.1-.2 0-.6-.1-1-.2-.2-.1-.4-.1-.5-.2-.2-.1-.3-.2-.3-.3 0-.1-.1-.2-.1-.3-.1-.5-.1-1.4-.1-2.5V9.6c0-1.2 0-2.2.1-2.9.1-.8.2-1.3.4-1.5.1-.2.2-.4.3-.5.1-.1.3-.2.5-.2s.4.1.6.2c.2.1.5.4.7.6.3.2.6.4 1 .4s.9-.2 1.2-.5c.3-.3.5-.7.5-1.2s-.2-1-.5-1.3c-.3-.3-.8-.5-1.4-.5-1 0-1.8.6-2.3 1.1-.4.2-.6.5-.7.7l-.2.2-.1.1V2.7c0-.2 0-.4-.1-.5-.1-.1-.2-.2-.3-.1-.1 0-.2 0-.3.1-.1.1-.3.2-.5.4-.4.4-1 .8-1.5 1.1-.7.3-1.2.6-1.4.6-.2.1-.3.1-.4.2-.1 0-.1.1-.1.1 0 .1-.1.1-.1.2s0 .1.1.1c0 .1.1.2.1.2z"/><path class="st0" d="M27.9 4.2H29c.1 0 .2 0 .3.1.1 0 .1.1.2.2v.4c0 .4-.1 5.5-.1 6.6 0 1.1.1 2.1.5 2.8.4.7 1.1 1.1 2.2 1.1 1 0 2-.4 2.8-.9.4-.2.7-.5.9-.7l.3-.3.1-.1v-.1c0-.1 0-.1-.1-.2-.1 0-.1-.1-.2-.1h-.1c-.1 0-.2.1-.3.1-.4.1-1.1.4-1.7.4-.4 0-.6 0-.8-.1-.2-.1-.4-.2-.5-.5-.2-.4-.3-1.2-.3-2.3v-.5c0-3.3 0-4.8.1-5.8v-.4-.1l.1-.1h3.3c.2 0 .4 0 .5.1.1 0 .2.1.2.1.1.1.1.1.1.3v.6c0 .6-.1 5.2-.1 6.8 0 1.5.5 2.4 1.3 3 .7.6 1.6.8 2.4.8 1.3 0 2.3-.5 3-1.1.4-.3.7-.5.9-.7.1-.1.2-.2.3-.2 0 0 .1 0 .1-.1v1.6c0 .2 0 .3.1.4 0 .1.1.1.1.1H44.9c.1 0 .3-.1.4-.1.9-.4 3.1-.9 3.6-1 .2 0 .3-.1.4-.1.1 0 .1-.1.1-.1v-.2c0-.1 0-.2-.1-.2-.1-.1-.1-.1-.2-.1h-.8c-.3 0-.5 0-.6-.1-.1 0-.2-.1-.3-.2 0-.1-.1-.2-.1-.4-.1-.5-.1-1.5-.1-2.7 0-2.6.2-6 .2-7.1 0-.2 0-.4-.1-.5-.1-.1-.3-.2-.5-.2h-.1l-4.1.1c-.2 0-.3 0-.5.1-.1 0-.1.1-.1.1v.2c0 .1 0 .2.1.2.1.1.2.1.3.1.1 0 .3 0 .5.1.3 0 .5.1.7.1.2 0 .4.1.5.2l.2.4c.1.7.1 2 .1 4.3v2.2c0 .3-.1.7-.1.9 0 .3-.1.5-.2.6-.4.7-1.5 1.2-2.5 1.2-.9 0-1.5-.2-1.9-.6-.4-.4-.5-.9-.5-1.6 0-5.6.1-6.7.1-7.9 0-.3 0-.5-.1-.6l-.2-.2h-.3-.1l-6.2.2c-.1 0-.1 0-.1-.1 0 0-.1-.1-.1-.2 0-.6.1-1.4.1-1.9 0-.1 0-.3-.1-.3h-.1c-.1 0-.1 0-.2.1l-.2.2c-.1.1-.1.2-.2.2-.7 1-2.1 2.1-3 2.8-.2.1-.4.2-.5.3-.1 0-.1.1-.2.2 0 .1-.1.1-.1.2.1.1.1.2.2.2zM88.8 19.2c.7 0 1.4-.3 1.9-.8s.8-1.1.8-1.8-.3-1.3-.8-1.8-1.2-.8-1.9-.7c-.8 0-1.4.3-2 .8-.5.5-.8 1.1-.8 1.8s.3 1.3.8 1.8c.6.5 1.3.7 2 .7zM95.1 43.3c-.2-.1-.4-.2-.7-.2-.2-.1-.5-.1-.6-.2-.4-.2-.7-.3-.9-.5-.2-.2-.4-.5-.5-.8-.3-1.3-.3-3.1-.3-6.9 0-2.8.1-8.9.1-9.2v-2.3c0-.3 0-.5-.1-.7 0-.1-.1-.2-.2-.3-.1-.1-.2-.1-.3-.1-.2 0-.3.1-.4.2-.1.1-.3.2-.3.2-1.9 1.7-3.8 2.9-5.8 3.6-.1 0-.2.1-.3.2-.1.1-.1.2-.1.4 0 .1 0 .2.1.3.1.1.3.1.5.2.2 0 .4.1.7.1.6.1 1 .3 1.2.5.2.2.3.8.4 1.7.1.9.1 2.1.1 3.5 0 4.3 0 7-.3 8.6-.1.5-.2.8-.5 1-.3.2-.6.3-1.2.4-.4.1-.8.2-1.1.3-.1 0-.3.1-.4.2-.1.1-.2.2-.2.3 0 .1 0 .2.1.2 0 .1.1.1.1.1.2.1.4.1.7.1.2 0 1.2 0 2.2-.1 1 0 2.2-.1 2.6-.1.4 0 1.5 0 2.5.1 1 0 1.9.1 2.2.1h.2c.2 0 .4 0 .6-.1.1 0 .2-.1.3-.1.1-.1.1-.2.1-.3 0-.1 0-.2-.1-.2-.2-.1-.3-.1-.4-.2z"/></svg>