<svg xmlns="http://www.w3.org/2000/svg" xmlns:xlink="http://www.w3.org/1999/xlink" viewBox="0 0 366.69 169.45"><defs><linearGradient id="a" x1="352.83" y1="48.71" x2="384.33" y2="44.96" gradientUnits="userSpaceOnUse"><stop offset=".15" stop-color="#71bd00"/><stop offset=".28" stop-color="#6abb00"/><stop offset=".48" stop-color="#56b700"/><stop offset=".7" stop-color="#36b000"/><stop offset=".8" stop-color="#27ac00"/></linearGradient><linearGradient id="b" x1="349.18" y1="44.81" x2="364.69" y2="22.05" xlink:href="#a"/><linearGradient id="c" x1="343.06" y1="42.1" x2="341.87" y2="19.98" xlink:href="#a"/><linearGradient id="d" x1="337.69" y1="45.08" x2="326.11" y2="30.25" xlink:href="#a"/><linearGradient id="e" x1="334.62" y1="50.14" x2="320.21" y2="45.6" xlink:href="#a"/></defs><path d="M2.14 151.14h6.32v1.56h-5l-.56 4.1a3.21 3.21 0 0 1 2.48-1.06c2.14 0 3.56 1.68 3.56 4.66 0 2.64-1.16 4.86-4.12 4.86A3.68 3.68 0 0 1 1 161.38h1.76c0 .74.28 2.6 2.16 2.6s2.32-2.24 2.32-3.68-.58-3.2-2.36-3.2a2.1 2.1 0 0 0-2 1.38l-1.52-.08zm14 3.12a1.85 1.85 0 0 0-1.86-2.08c-2.34 0-2.5 3.52-2.5 4.26v1.12A3 3 0 0 1 14.5 156c2.46 0 3.7 1.84 3.7 4.48s-1.36 4.84-4 4.84c-3.92 0-4.2-3.78-4.2-6.72 0-3.24.2-7.72 4.3-7.72a3.31 3.31 0 0 1 3.58 3.4zM14.2 164c1.76 0 2.24-1.78 2.24-3.28s-.38-3.28-2.24-3.28-2.2 1.76-2.2 3.26.44 3.3 2.2 3.3zm5-5.84c0-3.12.2-7.28 4-7.28s4 3.82 4 7.28c0 3-.2 7.16-4 7.16s-4.04-3.82-4.04-7.18zm4 5.84c2.16 0 2.28-2.86 2.28-5.84s-.12-6-2.28-6-2.28 2.84-2.28 6S21 164 23.2 164zm5.8-1.1h1.84v1.74c0 1.52-.14 2.86-1.84 3.34V167a1.41 1.41 0 0 0 .88-1.54V165H29zm11.7-12h1.68v9.3H44v1.44h-1.6V165h-1.72v-3.4h-5.12V160zm-3.6 9.3h3.6v-6.54zm15.72 4.8H44.9a7.55 7.55 0 0 1 3.06-5.8l1.16-1a4.18 4.18 0 0 0 1.88-3.4c0-1.2-.54-2.54-2.06-2.54-2.18 0-2.24 2.26-2.24 3.06h-1.76c0-2.66 1.12-4.5 4-4.5a3.53 3.53 0 0 1 3.8 3.78c0 2.14-.9 3.34-2.48 4.66l-2 1.74a4.52 4.52 0 0 0-1.54 2.42h6.08zm1.1-6.88c0-3.12.2-7.28 4-7.28s4 3.82 4 7.28c0 3-.2 7.16-4 7.16s-4-3.78-4-7.14zm4 5.84c2.16 0 2.28-2.86 2.28-5.84s-.12-6-2.28-6-2.28 2.84-2.28 6S55.8 164 58 164zm5.78-1.08h1.84v1.74c0 1.52-.14 2.86-1.84 3.34V167a1.41 1.41 0 0 0 .88-1.54V165h-.88zM78.88 165H71a7.55 7.55 0 0 1 3.06-5.8l1.16-1a4.18 4.18 0 0 0 1.88-3.4c0-1.2-.54-2.54-2.06-2.54-2.18 0-2.24 2.26-2.24 3.06H71c0-2.66 1.12-4.5 4-4.5a3.53 3.53 0 0 1 3.8 3.78c0 2.14-.9 3.34-2.48 4.66l-2 1.74a4.52 4.52 0 0 0-1.54 2.42h6.08zm3.58-7.54a2.91 2.91 0 0 1-2.06-3 3.62 3.62 0 0 1 7.24 0 2.91 2.91 0 0 1-2.06 3 3.45 3.45 0 0 1 2.5 3.64c0 1.86-.88 4.18-4.06 4.18S80 163 80 161.12a3.45 3.45 0 0 1 2.46-3.64zM84 164c1.64 0 2.3-1.24 2.3-2.92s-.66-2.92-2.3-2.92-2.3 1.24-2.3 2.92.68 2.92 2.3 2.92zm-1.86-9.48c0 1.34.56 2.32 1.86 2.32s1.86-1 1.86-2.32-.58-2.32-1.86-2.32-1.84.94-1.84 2.3zm6.92 3.64c0-3.12.2-7.28 4-7.28s4 3.82 4 7.28c0 3-.2 7.16-4 7.16s-3.98-3.82-3.98-7.18zm4 5.84c2.16 0 2.28-2.86 2.28-5.84s-.12-6-2.28-6-2.28 2.84-2.28 6S91 164 93.12 164zm5.78-1.08h1.84v1.74c0 1.52-.14 2.86-1.84 3.34v-1a1.41 1.41 0 0 0 .88-1.54V165h-.88zm5.72-9.72c1.78-.1 3.4-.3 3.5-2.32h1.2V165h-1.68v-10.62h-3zm11.48-2.32h1.68v9.3h1.6v1.44h-1.6V165h-1.62v-3.4H111V160zm-3.6 9.3h3.6v-6.54zm7.74-2c0-3.12.2-7.28 4-7.28s4 3.82 4 7.28c0 3-.2 7.16-4 7.16s-3.94-3.84-3.94-7.2zm4 5.84c2.16 0 2.28-2.86 2.28-5.84s-.12-6-2.28-6-2.28 2.84-2.28 6 .22 5.82 2.38 5.82zm8.66-9.68h1.6v1.26a2.89 2.89 0 0 1 2.6-1.54 2.09 2.09 0 0 1 2.32 1.7A3 3 0 0 1 142 154c2.82 0 2.82 2.12 2.82 3.4v7.6h-1.68v-7.4c0-.82-.06-2.16-1.44-2.16a2 2 0 0 0-2 2.16v7.4h-1.68v-7.4c0-.82-.06-2.16-1.44-2.16a2 2 0 0 0-2 2.16v7.4h-1.68zm20.84 10c0 3.2-1.5 4.36-3.64 4.36-.66 0-3.26 0-3.52-2.68h1.68c.08 1 .84 1.36 1.72 1.36 2.16 0 2.08-1.66 2.08-2.4v-1.4a2.57 2.57 0 0 1-2.42 1.44c-3.12 0-3.32-3.94-3.32-5.36 0-2.9.78-5.64 3.5-5.64a2.37 2.37 0 0 1 2.32 1.64v-1.36h1.6zm-5.7-4.68c0 1.74.26 3.92 1.94 3.92 1.84 0 2.18-1.72 2.18-3.92s-.34-4.2-2.16-4.2c-1.44 0-1.86 1.64-1.86 4.2zm12.2-8.48H162v3.12h1.86v1.32H162v6.88c0 .86.22 1.2 1.1 1.2a4.89 4.89 0 0 0 .74-.06V165a5.7 5.7 0 0 1-1.36.12c-1.76 0-2.16-.72-2.16-2.12v-7.4h-1.56v-1.3h1.56zm4.72 6.36c0-2.42 1-3.52 3.6-3.52 3.26 0 3.26 2 3.26 3.08v6c0 .46 0 .86.52.86a.6.6 0 0 0 .4-.1V165a6.41 6.41 0 0 1-1 .1c-.62 0-1.46 0-1.52-1.38a3 3 0 0 1-2.58 1.54c-2 0-2.92-1.2-2.92-3.12a2.76 2.76 0 0 1 2-3l2.26-.68c1.24-.38 1.22-.74 1.22-1.62s-.6-1.58-1.72-1.58a1.82 1.82 0 0 0-1.84 2.1v.1zm5.18 1.64c-.66.66-2.1.76-2.86 1.26a1.71 1.71 0 0 0-.82 1.7c0 1.1.38 1.84 1.52 1.84a2.16 2.16 0 0 0 2.16-2zm3.46-8.44h1.68v4.78a2.6 2.6 0 0 1 2.48-1.5c2.9 0 3.26 3.4 3.26 5.64 0 3-1 5.64-3.5 5.64a2.43 2.43 0 0 1-2.32-1.6v1.3h-1.6zm3.74 13.12c1.54 0 2-1.74 2-4.2s-.42-4.2-2-4.2c-1.82 0-2.16 2.12-2.16 4.2s.44 4.2 2.26 4.2zm5.12-13.12h1.68V165h-1.58zm4.88 9.12c0 1.66 0 4.12 2.06 4.12 1.6 0 1.82-1.66 1.82-2.48h1.68a3.61 3.61 0 0 1-3.6 3.8c-2.64 0-3.72-1.8-3.72-5.5 0-2.66.52-5.78 3.82-5.78s3.58 2.84 3.58 5.16v.68zm3.88-1.32V158c0-1.2-.36-2.62-1.86-2.62-1.76 0-2 2.16-2 2.8v.4zm3.6-7.36h1.68v3.12h1.86v1.32h-1.86v6.88c0 .86.22 1.2 1.1 1.2a4.89 4.89 0 0 0 .74-.06V165a5.7 5.7 0 0 1-1.36.12c-1.76 0-2.16-.72-2.16-2.12v-7.4h-1.46v-1.3h1.56zm8.78 6.26c0-1.36-.36-2.1-1.58-2.1a1.54 1.54 0 0 0-1.74 1.64c0 1.28 1.32 1.52 2.64 1.94s2.62.88 2.62 3a3.15 3.15 0 0 1-3.46 3.36c-3.64 0-3.68-2.7-3.68-3.8h1.68c0 1.3.34 2.48 2 2.48a1.68 1.68 0 0 0 1.78-1.78c0-1.44-1.34-1.76-2.62-2.18s-2.64-.84-2.64-3c0-2 1.56-3 3.42-3 3.12 0 3.26 2.16 3.26 3.42zm23.18-4.26c1.78-.1 3.4-.3 3.5-2.32h1.2V165h-1.68v-10.62h-3zm11.48-2.32h1.8v9.3h1.6v1.44H240v3.4h-1.7v-3.4h-5.12V160zm-3.6 9.3h3.6v-6.54zm7.74-2c0-3.12.2-7.28 4-7.28s4 3.82 4 7.28c0 3-.2 7.16-4 7.16s-3.9-3.82-3.9-7.18zm4 5.84c2.16 0 2.28-2.86 2.28-5.84s-.12-6-2.28-6-2.28 2.84-2.28 6 .26 5.84 2.42 5.84zm5.78-1.08h1.84v1.74c0 1.52-.14 2.86-1.84 3.34v-1a1.41 1.41 0 0 0 .88-1.54V165h-.88zm5.53-11.76h8.09v1.46a21.94 21.94 0 0 0-2.78 4.86 25.5 25.5 0 0 0-1.94 7.56h-2a24.21 24.21 0 0 1 1.72-6.44 26 26 0 0 1 3.36-5.88h-6.49zm9.11 7c0-3.12.19-7.28 4-7.28s4 3.82 4 7.28c0 3-.2 7.16-4 7.16s-3.86-3.82-3.86-7.18zm4 5.84c2.16 0 2.28-2.86 2.28-5.84s-.12-6-2.28-6-2.28 2.84-2.28 6 .3 5.84 2.46 5.84zm8.65-9.68h1.61v1.26a2.91 2.91 0 0 1 2.61-1.54 2.09 2.09 0 0 1 2.32 1.7 3 3 0 0 1 2.54-1.7c2.82 0 2.82 2.12 2.82 3.4V165h-1.68v-7.4c0-.82-.06-2.16-1.44-2.16a2 2 0 0 0-2 2.16v7.4h-1.68v-7.4c0-.82-.06-2.16-1.44-2.16a2 2 0 0 0-2 2.16v7.4h-1.68zm20.85 10c0 3.2-1.5 4.36-3.64 4.36-.66 0-3.27 0-3.53-2.68H295c.08 1 .83 1.36 1.72 1.36 2.16 0 2.08-1.66 2.08-2.4v-1.4a2.57 2.57 0 0 1-2.5 1.44c-3.13 0-3.33-3.94-3.33-5.36 0-2.9.78-5.64 3.51-5.64a2.37 2.37 0 0 1 2.32 1.64v-1.34h1.6zm-5.71-4.68c0 1.74.27 3.92 1.95 3.92 1.84 0 2.18-1.72 2.18-3.92s-.34-4.2-2.16-4.2c-1.36.02-1.79 1.66-1.79 4.22zm16.81-2.1c0-1-.42-2.22-1.71-2.22-1 0-2.1.52-2.1 4.44 0 1.38 0 4.2 2 4.2 1.45 0 1.77-1.52 1.77-2.68H313c0 1.68-.84 4-3.53 4s-3.72-1.8-3.72-5.5c0-2.66.52-5.78 3.82-5.78a3.23 3.23 0 0 1 3.43 3.54zm2.65 0c0-2.42 1-3.52 3.6-3.52 3.27 0 3.27 2 3.27 3.08v6c0 .46 0 .86.52.86a.6.6 0 0 0 .4-.1V165a6.41 6.41 0 0 1-1 .1c-.62 0-1.46 0-1.52-1.38a3 3 0 0 1-2.59 1.54c-2 0-2.92-1.2-2.92-3.12a2.76 2.76 0 0 1 2-3l2.26-.68c1.25-.38 1.23-.74 1.23-1.62s-.61-1.58-1.73-1.58a1.82 1.82 0 0 0-1.84 2.1v.1zm5.19 1.64c-.66.66-2.11.76-2.87 1.26a1.71 1.71 0 0 0-.82 1.7c0 1.1.38 1.84 1.52 1.84a2.16 2.16 0 0 0 2.17-2zm3.8-4.88h1.6v1.32A2.43 2.43 0 0 1 327 154c2.55 0 3.51 2.24 3.51 5.44 0 2.44-.72 5.84-3.51 5.84a2.4 2.4 0 0 1-2.24-1.5v4.74H323zm3.74 9.56c1.54 0 2-1.62 2-4.4 0-2.36-.42-4-2-4-1.84 0-2.16 1.74-2.16 4.2.03 2.08.42 4.2 2.19 4.2zm9.62-6.42c0-1.36-.36-2.1-1.58-2.1a1.54 1.54 0 0 0-1.74 1.64c0 1.28 1.32 1.52 2.64 1.94s2.62.88 2.62 3a3.15 3.15 0 0 1-3.46 3.36c-3.64 0-3.68-2.7-3.68-3.8h1.68c0 1.3.34 2.48 2 2.48a1.68 1.68 0 0 0 1.78-1.78c0-1.44-1.34-1.76-2.62-2.18s-2.64-.84-2.64-3c0-2 1.56-3 3.42-3 3.13 0 3.26 2.16 3.26 3.42zM346.5 165h-1.6v-1.26a2.88 2.88 0 0 1-2.6 1.54c-2.82 0-2.82-2.12-2.82-3.4v-7.6h1.68v7.4c0 .82.06 2.16 1.58 2.16a2.08 2.08 0 0 0 2.12-2.16v-7.4h1.69zm1.79-14.28H350V165h-1.68zm4.88 9.12c0 1.66 0 4.12 2.06 4.12 1.6 0 1.82-1.66 1.82-2.48h1.68a3.61 3.61 0 0 1-3.6 3.8c-2.64 0-3.72-1.8-3.72-5.5 0-2.66.52-5.78 3.82-5.78s3.58 2.84 3.58 5.16v.68zm3.88-1.32V158c0-1.2-.36-2.62-1.86-2.62-1.76 0-2 2.16-2 2.8v.4zm7.7-1.1c0-1.36-.36-2.1-1.58-2.1a1.54 1.54 0 0 0-1.74 1.64c0 1.28 1.32 1.52 2.64 1.94s2.62.88 2.62 3a3.15 3.15 0 0 1-3.46 3.36c-3.64 0-3.68-2.7-3.68-3.8h1.68c0 1.3.34 2.48 2 2.48a1.68 1.68 0 0 0 1.77-1.74c0-1.44-1.34-1.76-2.62-2.18s-2.64-.84-2.64-3c0-2 1.56-3 3.42-3 3.12 0 3.26 2.16 3.26 3.42zm-148.6-9.25h1.35v21.26h-1.35zM8.13 140.94C3.13 133.22 0 125.76 0 116.7a40.41 40.41 0 0 1 8.13-23.88h3.37a42.45 42.45 0 0 0-6.84 23.88 43.66 43.66 0 0 0 6.84 24.24zm11.34-42.39h-4.69v-5.73h4.69zm-4.69 5.12h4.69v28.48h-4.69zM25 92.82h4.68v14.71h.11c1.57-3.14 5.21-4.53 9.12-4.53 8.76 0 13.09 7 13.09 15s-4.29 14.82-13 14.82c-2.86 0-7.16-1.1-9.2-4.46h-.11v3.8H25zm13.22 14.32c-6.33 0-8.7 5.46-8.7 10.74 0 5.57 2.53 10.8 9 10.8s8.54-5.45 8.54-11c.01-5.36-2.75-10.54-8.81-10.54zm18.35-3.47H61v6h.11c2.26-4.63 5.4-6.84 10.47-6.67v5c-7.55 0-10.3 4.24-10.3 11.51v12.67H56.6zm41.31 28.48h-4.4v-4.51h-.11c-2 3.52-5.13 5.17-9.26 5.17-7.49 0-9.81-4.29-9.81-10.41v-18.73H79V123c0 3.53 2.2 5.73 5.78 5.73 5.68 0 8.43-3.8 8.43-8.92v-16.14h4.68zm12.79-28.48h5.67v4.13h-5.64v17.69c0 2.2.6 2.53 3.52 2.53h2.15v4.13h-3.58c-4.85 0-6.78-1-6.78-6.22V107.8h-4.85v-4.13H106v-8.54h4.69zm15-5.12h-4.68v-5.73h4.68zm-4.68 5.12h4.68v28.48h-4.68zm11.18 0h4.41v4.52h.11c2-3.53 5.13-5.18 9.26-5.18 7.49 0 9.8 4.3 9.8 10.41v18.73h-4.68v-19.28c0-3.53-2.2-5.73-5.78-5.73-5.68 0-8.43 3.8-8.43 8.93v16.08h-4.69zm34.82-5.12h-4.68v-5.73h4.68zm-4.68 5.12h4.68v28.48h-4.68zm11.35-10.85h4.68v14.71h.11c1.54-3.14 5.12-4.52 9.09-4.52 8.76 0 13.11 6.94 13.11 15s-4.29 14.82-13 14.82c-2.86 0-7.16-1.1-9.2-4.46h-.11v3.8h-4.68zm13.22 14.32c-6.34 0-8.7 5.46-8.7 10.74 0 5.57 2.53 10.8 9 10.8s8.53-5.45 8.53-11c.04-5.36-2.71-10.54-8.77-10.54zm12.47 33.8a42.44 42.44 0 0 0 6.83-23.88 43.65 43.65 0 0 0-6.83-24.24h3.36c5 7.72 8.14 15.18 8.14 24.24a40.36 40.36 0 0 1-8.14 23.88z" fill="#00629b"/><path d="M0 26.66c0-2.78 2.32-4.56 5.33-4.56s5.34 1.78 5.34 4.56v.46c0 2.79-2.32 4.64-5.34 4.64S0 29.91 0 27.12zm.7 15.23a4.62 4.62 0 0 1 4.63-4.72 4.69 4.69 0 0 1 4.72 4.72v32.3a4.68 4.68 0 0 1-9.35 0zm15.79 0a4.62 4.62 0 0 1 4.64-4.72 4.68 4.68 0 0 1 4.71 4.72v1.93c2.63-3.64 6.19-7 12.45-7 5.87 0 10 2.86 12.21 7.19 3.24-4.33 7.57-7.19 13.75-7.19 8.89 0 14.3 5.65 14.3 15.62v21.75a4.55 4.55 0 0 1-4.63 4.64 4.62 4.62 0 0 1-4.72-4.64V55.26c0-6.5-3-10-8.27-10-5.1 0-8.73 3.55-8.73 10.12v18.81a4.68 4.68 0 0 1-9.35 0v-19c0-6.34-3.1-9.89-8.27-9.89s-8.74 3.86-8.74 10.12v18.77a4.68 4.68 0 0 1-9.35 0zM85 26.27a4.55 4.55 0 0 1 4.64-4.63 4.61 4.61 0 0 1 4.71 4.63v18.17c3-4.26 7.27-7.66 13.92-7.66 9.58 0 18.93 7.58 18.93 21.18v.16c0 13.52-9.27 21.17-18.93 21.17-6.81 0-11.06-3.4-13.92-7.18v2.08a4.68 4.68 0 0 1-9.35 0zm32.69 31.85V58c0-7.88-5.33-13.06-11.67-13.06S94.12 50.19 94.12 58v.16c0 7.8 5.57 13.06 11.9 13.06s11.64-5.07 11.64-13.1zm14.52-16.23a4.62 4.62 0 0 1 4.63-4.72 4.69 4.69 0 0 1 4.72 4.72v4.17c2.16-5.1 6.18-9 10.28-9a4.6 4.6 0 0 1 .92 9.12c-6.64 1.16-11.2 6.26-11.2 15.92v12.09a4.67 4.67 0 0 1-4.72 4.64 4.6 4.6 0 0 1-4.63-4.64zm66 32.3a4.72 4.72 0 0 1-9.43 0v-2.08c-2.68 3.89-6.47 7.18-12.78 7.18-9.2 0-14.53-6.18-14.53-15.69V41.89a4.68 4.68 0 1 1 9.35 0v18.93c0 6.34 3.17 9.89 8.74 9.89 5.41 0 9.19-3.71 9.19-10V41.89a4.72 4.72 0 1 1 9.43 0zm25.28 5H223c-2.55 0-4.25-1.63-5.33-4.1L204 44a7.31 7.31 0 0 1-.54-2.32 4.67 4.67 0 0 1 4.64-4.48c2.55 0 3.86 1.47 4.63 3.4l10.51 27.05 10.67-27.2c.7-1.63 1.93-3.25 4.4-3.25a4.46 4.46 0 0 1 4.57 4.48 5.44 5.44 0 0 1-.55 2.24l-13.6 31.23c-1.05 2.36-2.73 4.07-5.3 4.07zm23.91-52.56c0-2.78 2.32-4.56 5.33-4.56s5.27 1.81 5.27 4.59v.46c0 2.79-2.32 4.64-5.34 4.64s-5.33-1.85-5.33-4.64zm.7 15.23a4.62 4.62 0 0 1 4.63-4.72 4.69 4.69 0 0 1 4.72 4.72v32.3a4.68 4.68 0 0 1-9.35 0zm14.71 16.38v-.15A21.07 21.07 0 0 1 284 36.78a20.63 20.63 0 0 1 14.3 5.11 4.4 4.4 0 0 1 1.47 3.24 4.25 4.25 0 0 1-4.33 4.25 4.72 4.72 0 0 1-2.78-.93 13 13 0 0 0-8.73-3.45c-6.8 0-11.83 5.87-11.83 13v.16c0 7.26 5 13.06 12.21 13.06a13.6 13.6 0 0 0 9.12-3.64 3.95 3.95 0 0 1 6.57 3.1 3.63 3.63 0 0 1-1.31 2.93 20 20 0 0 1-14.84 5.8 20.84 20.84 0 0 1-21.1-21.14zm41.09 8.43v-.16c0-8.81 6.88-13.14 16.85-13.14a34.26 34.26 0 0 1 11 1.7v-1c0-5.8-3.56-8.89-10.13-8.89a24.34 24.34 0 0 0-9 1.62 5.08 5.08 0 0 1-1.47.23 3.89 3.89 0 0 1-3.94-3.86 4.08 4.08 0 0 1 2.55-3.71 34.91 34.91 0 0 1 13.14-2.4c6.1 0 10.66 1.63 13.52 4.56 3 2.94 4.41 7.27 4.41 12.6v20.1a4.45 4.45 0 0 1-4.56 4.48c-2.71 0-4.56-1.86-4.56-3.94v-1.52a16.61 16.61 0 0 1-13.3 6c-7.77-.05-14.57-4.45-14.57-12.64zm28-2.94V61a25.85 25.85 0 0 0-9.27-1.63c-6 0-9.59 2.55-9.59 6.8v.16c0 3.94 3.48 6.18 8 6.18 6.07-.02 10.78-3.57 10.78-8.75zm12.73-18.85a7.73 7.73 0 1 1 15.45 0 7.73 7.73 0 1 1-15.45 0zm13.6 0a5.88 5.88 0 1 0-11.76 0 5.88 5.88 0 1 0 11.76 0zm-9.33-3.08a1.17 1.17 0 0 1 1.15-1.15h2.76c2 0 3.42.88 3.42 2.79a2.59 2.59 0 0 1-1.51 2.45l1 1.19a1.16 1.16 0 0 1 .31.8 1.14 1.14 0 0 1-1.14 1.12 1.06 1.06 0 0 1-.88-.44l-1.74-2.18h-1.06v1.47a1.16 1.16 0 0 1-2.31 0zm3.77 2.75c.8 0 1.25-.4 1.25-1s-.45-1-1.25-1h-1.46v1.95z" fill="#009fdf"/><path d="M368.59 41c-8.73 1.06-15.83 4.56-15.86 7.81s7 5 15.74 4 15.83-4.56 15.86-7.82-7.01-5.11-15.74-3.99z" transform="translate(-42 -20)" fill="url(#a)"/><path d="M364.73 22c-2.66-1.83-8.3 1.79-12.6 8.07s-5.61 12.85-2.94 14.67 8.31-1.79 12.6-8.07 5.61-12.83 2.94-14.67z" transform="translate(-42 -20)" fill="url(#b)"/><path d="M347.12 30.7c-.33-6.14-2.69-10.92-5.26-10.69s-4.38 5.39-4 11.53 2.69 10.92 5.25 10.68 4.34-5.39 4.01-11.52z" transform="translate(-42 -20)" fill="url(#c)"/><path d="M335 34.74c-3.22-4.12-7.21-6.15-8.91-4.52s-.47 6.29 2.75 10.41 7.21 6.14 8.91 4.51.47-6.28-2.75-10.4z" transform="translate(-42 -20)" fill="url(#d)"/><path d="M330 44.63c-4-1.25-8.36-.8-9.71 1s.81 4.28 4.82 5.53 8.35.79 9.7-1-.81-4.29-4.81-5.53z" transform="translate(-42 -20)" fill="url(#e)"/></svg>