<svg xmlns="http://www.w3.org/2000/svg" width="456" height="90"><path data-name="Category 1: Based upon high-level evidence, there is uniform N" d="M174.889 28.37a11.194 11.194 0 0 1 1.128.465l.684-1.723a6.726 6.726 0 0 0-2.926-.7 4.826 4.826 0 0 0-2.492.625 4.1 4.1 0 0 0-1.63 1.8 6.2 6.2 0 0 0-.567 2.731 5.6 5.6 0 0 0 1.155 3.8 4.191 4.191 0 0 0 3.336 1.323 7.079 7.079 0 0 0 2.748-.513v-1.786a7.93 7.93 0 0 1-2.55.526q-2.508 0-2.509-3.343a4.179 4.179 0 0 1 .657-2.505 2.159 2.159 0 0 1 1.852-.9 3.362 3.362 0 0 1 1.114.2zm9.287 8.176v-5.093a2.475 2.475 0 0 0-.82-2.037 3.644 3.644 0 0 0-2.358-.67 6.212 6.212 0 0 0-2.926.69l.69 1.408a5.423 5.423 0 0 1 2.154-.554 1.039 1.039 0 0 1 1.189 1.162v.335l-1.326.041a4.931 4.931 0 0 0-2.567.639 2.018 2.018 0 0 0-.851 1.794 2.417 2.417 0 0 0 .632 1.791 2.349 2.349 0 0 0 1.733.629 3.505 3.505 0 0 0 1.453-.256 3.082 3.082 0 0 0 1.083-.919h.055l.4 1.039h1.456zm-2.071-2.912a1.466 1.466 0 0 1-.434 1.107 1.6 1.6 0 0 1-1.159.417.841.841 0 0 1-1.011-.882 1.031 1.031 0 0 1 .444-.916 2.582 2.582 0 0 1 1.353-.328l.807-.032v.629zm6.358 1.176a.812.812 0 0 1-.25-.656v-3.686h2.14V28.9h-2.14v-1.624h-1.333l-.6 1.613-1.149.7v.882h1v3.685a2.755 2.755 0 0 0 .571 1.9 2.344 2.344 0 0 0 1.822.632 4.68 4.68 0 0 0 1.914-.349v-1.557a4.515 4.515 0 0 1-1.312.239.983.983 0 0 1-.663-.212zm7.315-4.146a1.736 1.736 0 0 1 .4 1.193h-2.926a1.947 1.947 0 0 1 .431-1.193 1.323 1.323 0 0 1 1.039-.42 1.367 1.367 0 0 1 1.056.419zm.759 5.886a4.914 4.914 0 0 0 1.169-.407v-1.614a6.531 6.531 0 0 1-1.286.458 5.728 5.728 0 0 1-1.3.143 1.851 1.851 0 0 1-1.381-.5 2.009 2.009 0 0 1-.527-1.388h4.929v-1.01a3.493 3.493 0 0 0-.9-2.55 3.368 3.368 0 0 0-2.523-.923 3.418 3.418 0 0 0-2.655 1.049 4.239 4.239 0 0 0-.961 2.97 3.855 3.855 0 0 0 1.039 2.885 3.946 3.946 0 0 0 2.885 1.019 7.374 7.374 0 0 0 1.511-.133zm6.863-7.65q-.123-.027-.564-.085a5.974 5.974 0 0 0-.762-.058 3.52 3.52 0 0 0-2.325.684 2.388 2.388 0 0 0-.813 1.935 2.535 2.535 0 0 0 .352 1.353 2.054 2.054 0 0 0 .954.834 2.939 2.939 0 0 0-.732.571 1.1 1.1 0 0 0-.013 1.388 1.392 1.392 0 0 0 .56.448 2.451 2.451 0 0 0-1.265.663 1.635 1.635 0 0 0-.43 1.155 1.769 1.769 0 0 0 .844 1.562 4.443 4.443 0 0 0 2.444.557 5.82 5.82 0 0 0 3.209-.738 2.353 2.353 0 0 0 1.118-2.078 1.93 1.93 0 0 0-.66-1.586 2.964 2.964 0 0 0-1.917-.54h-1.3q-1.149 0-1.148-.451a.694.694 0 0 1 .321-.547l.305.033.376.02a3.717 3.717 0 0 0 2.383-.687 2.319 2.319 0 0 0 .858-1.918 2.091 2.091 0 0 0-.328-1.148l1.2-.308V28.9H203.4zm-2.847 8.008a1.632 1.632 0 0 1 .96-.27h1.08a3.078 3.078 0 0 1 1.162.164.6.6 0 0 1 .376.595.938.938 0 0 1-.635.841 4.107 4.107 0 0 1-1.757.308 2.277 2.277 0 0 1-1.159-.246.755.755 0 0 1-.414-.677.832.832 0 0 1 .384-.712zm1.521-6.887a1.125 1.125 0 0 1 1.134 1.381 1.6 1.6 0 0 1-.273.984 1.008 1.008 0 0 1-.861.362 1.03 1.03 0 0 1-.865-.362 1.557 1.557 0 0 1-.284-.984 1.13 1.13 0 0 1 1.149-1.381zm6.86.981a1.57 1.57 0 0 1 2.413 0 3.158 3.158 0 0 1 .369 1.7 3.252 3.252 0 0 1-.366 1.719 1.309 1.309 0 0 1-1.2.578 1.334 1.334 0 0 1-1.214-.581 3.211 3.211 0 0 1-.372-1.716 3.155 3.155 0 0 1 .367-1.697zm4.464-.393a3.2 3.2 0 0 0-1.292-1.374 3.859 3.859 0 0 0-1.942-.479 3.591 3.591 0 0 0-2.748 1.039 4.087 4.087 0 0 0-.977 2.912 4.649 4.649 0 0 0 .451 2.105 3.206 3.206 0 0 0 1.292 1.384 3.837 3.837 0 0 0 1.941.482 3.571 3.571 0 0 0 2.742-1.053 4.108 4.108 0 0 0 .984-2.919 4.606 4.606 0 0 0-.449-2.094zm4.7-1.459a2.875 2.875 0 0 0-.96 1.036h-.1l-.31-1.286h-1.579v7.643h2.085v-3.89a1.851 1.851 0 0 1 .557-1.436 2.209 2.209 0 0 1 1.555-.513 2.4 2.4 0 0 1 .615.068l.157-1.955a3.353 3.353 0 0 0-.7-.062 2.37 2.37 0 0 0-1.318.398zm4.929 7.338l-.123.376a2.192 2.192 0 0 1-.646 1.022 1.48 1.48 0 0 1-.967.338 3.561 3.561 0 0 1-.82-.089v1.654a4.83 4.83 0 0 0 1.059.116 3.2 3.2 0 0 0 1.925-.595 3.738 3.738 0 0 0 1.268-1.791l3.233-8.62h-2.235l-1.415 4.3a5.845 5.845 0 0 0-.294 1.326h-.041a5.993 5.993 0 0 0-.253-1.326l-1.443-4.3h-2.283zm13.509-9.94H234.8l-3.22 2.563 1.019 1.271 1.148-.923q.205-.164.731-.69l-.034 1.039-.02.95v5.783h2.112v-9.99zm2.9 9.874a1.227 1.227 0 0 0 .889.3 1.191 1.191 0 0 0 .875-.311 1.329 1.329 0 0 0 0-1.712 1.211 1.211 0 0 0-.878-.3 1.246 1.246 0 0 0-.9.294 1.353 1.353 0 0 0 .016 1.733zm0-5.643a1.235 1.235 0 0 0 .889.3 1.21 1.21 0 0 0 .872-.3 1.334 1.334 0 0 0 .006-1.719 1.211 1.211 0 0 0-.878-.3 1.246 1.246 0 0 0-.9.294 1.358 1.358 0 0 0 .013 1.729zm6.325 5.763h3.61a4.045 4.045 0 0 0 2.615-.762 2.567 2.567 0 0 0 .94-2.109 2.37 2.37 0 0 0-.5-1.583 2.583 2.583 0 0 0-1.548-.783v-.064a2.013 2.013 0 0 0 1.3-.732 2.3 2.3 0 0 0 .452-1.456 2.107 2.107 0 0 0-.92-1.9 5.63 5.63 0 0 0-2.984-.6h-2.967v9.994zm1.634-8.627h1.415a3.182 3.182 0 0 1 1.617.314 1.107 1.107 0 0 1 .509 1.018 1.244 1.244 0 0 1-.471 1.1 2.694 2.694 0 0 1-1.5.325H247.4v-2.753zm1.655 4.088a2.828 2.828 0 0 1 1.62.376 1.319 1.319 0 0 1 .533 1.155 1.45 1.45 0 0 1-.523 1.241 2.556 2.556 0 0 1-1.548.393H247.4v-3.161h1.655zm11.242 4.539v-5.089a2.462 2.462 0 0 0-.735-1.976 3.271 3.271 0 0 0-2.177-.629 6.2 6.2 0 0 0-1.381.168 5.587 5.587 0 0 0-1.347.489l.52 1.148a8.364 8.364 0 0 1 1.025-.4 3.627 3.627 0 0 1 1.114-.171 1.382 1.382 0 0 1 1.05.359 1.531 1.531 0 0 1 .338 1.084v.4l-1.306.041a5 5 0 0 0-2.645.649 2 2 0 0 0-.868 1.764 2.25 2.25 0 0 0 .625 1.7 2.407 2.407 0 0 0 1.74.6 3.481 3.481 0 0 0 1.422-.249 3.091 3.091 0 0 0 1.1-.94h.055l.321 1.053h1.149zm-4.444-1.371a1.012 1.012 0 0 1-.3-.783 1.153 1.153 0 0 1 .516-1.036 3.321 3.321 0 0 1 1.651-.379l.97-.041v.656a1.769 1.769 0 0 1-.53 1.371 1.988 1.988 0 0 1-1.4.489 1.3 1.3 0 0 1-.905-.273zm11.14-1.723a1.991 1.991 0 0 0-.629-.694A6.63 6.63 0 0 0 265 32.1a7.286 7.286 0 0 1-1.446-.677.729.729 0 0 1-.332-.6q0-.725 1.272-.725a5.605 5.605 0 0 1 2.057.506l.52-1.21a6.034 6.034 0 0 0-2.523-.54 3.715 3.715 0 0 0-2.129.537 1.724 1.724 0 0 0-.783 1.507 1.871 1.871 0 0 0 .464 1.302 4.826 4.826 0 0 0 1.767 1.012 9.386 9.386 0 0 1 1.046.465 1.963 1.963 0 0 1 .54.4.711.711 0 0 1 .164.478q0 .9-1.484.9a5.96 5.96 0 0 1-2.481-.615v1.388a5.46 5.46 0 0 0 2.427.458 3.86 3.86 0 0 0 2.31-.591 1.978 1.978 0 0 0 .807-1.7 2.005 2.005 0 0 0-.206-.943zm6.2 3.114a4.937 4.937 0 0 0 1.19-.4v-1.298a6.555 6.555 0 0 1-1.241.42 5.825 5.825 0 0 1-1.248.127 2.072 2.072 0 0 1-1.579-.591 2.483 2.483 0 0 1-.6-1.692h5.038v-.869a3.473 3.473 0 0 0-.868-2.5 3.114 3.114 0 0 0-2.365-.909 3.188 3.188 0 0 0-2.536 1.06 4.286 4.286 0 0 0-.923 2.912 3.906 3.906 0 0 0 1 2.834 3.656 3.656 0 0 0 2.758 1.029 7.3 7.3 0 0 0 1.373-.119zm-.465-6.019a2.091 2.091 0 0 1 .451 1.418h-3.431a2.309 2.309 0 0 1 .55-1.415 1.615 1.615 0 0 1 1.227-.485 1.542 1.542 0 0 1 1.202.486zm8.248 5.007h.075l.281.991h1.257V25.909h-1.614v2.755a9.7 9.7 0 0 0 .116 1.285H281a2.606 2.606 0 0 0-2.269-1.1 2.657 2.657 0 0 0-2.225 1.036 4.62 4.62 0 0 0-.8 2.9 4.613 4.613 0 0 0 .792 2.878 2.634 2.634 0 0 0 2.208 1.025 2.568 2.568 0 0 0 2.263-1.128zm-3.165-.831a3.435 3.435 0 0 1-.444-1.917 3.515 3.515 0 0 1 .458-1.959 1.476 1.476 0 0 1 1.305-.687 1.726 1.726 0 0 1 1.457.6 3.4 3.4 0 0 1 .464 2.03v.226a2.938 2.938 0 0 1-.464 1.808 1.75 1.75 0 0 1-1.443.557 1.5 1.5 0 0 1-1.334-.653zm16.469 1.822v-7.556h-1.615v3.767a3.332 3.332 0 0 1-.475 2.027 1.772 1.772 0 0 1-1.486.6 1.358 1.358 0 0 1-1.115-.434 2.023 2.023 0 0 1-.355-1.3v-4.66h-1.62v4.942a2.834 2.834 0 0 0 .676 2.073 2.773 2.773 0 0 0 2.051.684 3.191 3.191 0 0 0 1.412-.3 2.278 2.278 0 0 0 .953-.827h.083l.225.991h1.265zm7.923-.9a4.629 4.629 0 0 0 .8-2.892 4.626 4.626 0 0 0-.789-2.878 2.626 2.626 0 0 0-2.205-1.025A2.516 2.516 0 0 0 297.75 30h-.082q-.171-.8-.225-1.012h-1.3v10.921h1.606v-3.1q0-.205-.1-1.162h.1a2.9 2.9 0 0 0 4.451-.004zm-1.292-4.83a3.411 3.411 0 0 1 .448 1.924 3.537 3.537 0 0 1-.451 1.948 1.452 1.452 0 0 1-1.286.684 1.626 1.626 0 0 1-1.428-.619 3.533 3.533 0 0 1-.438-2v-.236a2.9 2.9 0 0 1 .441-1.791 1.67 1.67 0 0 1 1.4-.561 1.494 1.494 0 0 1 1.308.654zm9.29-.909a3.329 3.329 0 0 0-2.6-1.056 3.42 3.42 0 0 0-2.659 1.032 4.1 4.1 0 0 0-.937 2.874 4.675 4.675 0 0 0 .438 2.078 3.151 3.151 0 0 0 1.251 1.374 3.622 3.622 0 0 0 1.873.478 3.4 3.4 0 0 0 2.645-1.039 4.124 4.124 0 0 0 .95-2.892 4.08 4.08 0 0 0-.957-2.851zm-4.091.926a1.644 1.644 0 0 1 1.466-.67q1.929 0 1.928 2.591 0 2.618-1.914 2.618-1.935 0-1.934-2.618a3.41 3.41 0 0 1 .449-1.918zm13.126.786q0-2.769-2.721-2.769a3.257 3.257 0 0 0-1.4.294 2.232 2.232 0 0 0-.97.834h-.082l-.226-.991h-1.258v7.561h1.607v-3.764a3.325 3.325 0 0 1 .471-2.017 1.778 1.778 0 0 1 1.491-.6 1.36 1.36 0 0 1 1.117.431 2.032 2.032 0 0 1 .352 1.306v4.649h1.614v-4.931zm11.683 0a2.438 2.438 0 0 0-2.748-2.769 2.942 2.942 0 0 0-1.364.3 2.229 2.229 0 0 0-.912.848h-.1a12.522 12.522 0 0 0 .082-1.388v-2.7h-1.606v10.641h1.606v-3.753a3.332 3.332 0 0 1 .475-2.027 1.774 1.774 0 0 1 1.487-.605 1.363 1.363 0 0 1 1.118.431 2.039 2.039 0 0 1 .348 1.308v4.649h1.613v-4.932zm3.422-2.632h-1.607v7.561h1.607v-7.558zm-1.467-1.357a.913.913 0 0 0 .674.236.891.891 0 0 0 .659-.236.87.87 0 0 0 .236-.646.887.887 0 0 0-.236-.663.9.9 0 0 0-.659-.232.922.922 0 0 0-.674.232.89.89 0 0 0-.235.663.873.873 0 0 0 .234.649zm7.11 1.357a4.25 4.25 0 0 0-.53-.092 5.4 5.4 0 0 0-.673-.044 3.26 3.26 0 0 0-2.211.677 2.393 2.393 0 0 0-.776 1.907 2.421 2.421 0 0 0 .366 1.336 2.1 2.1 0 0 0 .953.824 2.781 2.781 0 0 0-.711.581 1.142 1.142 0 0 0-.031 1.357 1.209 1.209 0 0 0 .53.441 2.366 2.366 0 0 0-1.234.66 1.658 1.658 0 0 0-.441 1.172 1.769 1.769 0 0 0 .814 1.559 4.225 4.225 0 0 0 2.358.547 5.581 5.581 0 0 0 3.063-.7 2.237 2.237 0 0 0 1.059-1.982 1.875 1.875 0 0 0-.649-1.538 2.932 2.932 0 0 0-1.9-.533h-1.32a2.1 2.1 0 0 1-.892-.13.418.418 0 0 1-.243-.39.906.906 0 0 1 .52-.752 3.6 3.6 0 0 0 .656.055 3.376 3.376 0 0 0 2.222-.67 2.262 2.262 0 0 0 .807-1.839 2.3 2.3 0 0 0-.117-.738 2.061 2.061 0 0 0-.294-.588l1.292-.239v-.878h-2.618zm-2.915 7.858a1.709 1.709 0 0 1 1.1-.325h1.217a2.828 2.828 0 0 1 1.309.209.75.75 0 0 1 .352.7 1.127 1.127 0 0 1-.643 1 3.976 3.976 0 0 1-1.955.376 2.574 2.574 0 0 1-1.316-.28.884.884 0 0 1-.468-.8 1.065 1.065 0 0 1 .403-.877zm.642-6.566a1.355 1.355 0 0 1 1.056-.4 1.312 1.312 0 0 1 1.05.4 1.691 1.691 0 0 1 .345 1.138 1.277 1.277 0 0 1-1.395 1.49 1.383 1.383 0 0 1-1.049-.383 1.52 1.52 0 0 1-.366-1.094 1.668 1.668 0 0 1 .358-1.148zm12.524 1.34a2.438 2.438 0 0 0-2.748-2.769 2.945 2.945 0 0 0-1.364.3 2.236 2.236 0 0 0-.912.848h-.1a12.522 12.522 0 0 0 .082-1.388v-2.7h-1.606v10.641h1.606v-3.753a3.339 3.339 0 0 1 .475-2.027 1.775 1.775 0 0 1 1.487-.605 1.361 1.361 0 0 1 1.118.431 2.039 2.039 0 0 1 .352 1.306v4.649h1.613v-4.93zm4.673 1.859v-1.364h-3.514v1.367h3.511zm2.834-7.567h-1.607v10.64h1.607V25.909zm6.553 10.657a4.944 4.944 0 0 0 1.189-.4v-1.299a6.532 6.532 0 0 1-1.241.42 5.822 5.822 0 0 1-1.247.127 2.07 2.07 0 0 1-1.579-.591 2.483 2.483 0 0 1-.6-1.692h5.038v-.869a3.477 3.477 0 0 0-.868-2.5 3.115 3.115 0 0 0-2.365-.909 3.19 3.19 0 0 0-2.537 1.06 4.286 4.286 0 0 0-.922 2.912 3.906 3.906 0 0 0 .994 2.834 3.658 3.658 0 0 0 2.758 1.029 7.318 7.318 0 0 0 1.379-.119zm-.465-6.019a2.1 2.1 0 0 1 .451 1.418h-3.432a2.315 2.315 0 0 1 .55-1.415 1.616 1.616 0 0 1 1.228-.485 1.544 1.544 0 0 1 1.202.485zm6.894 6l2.885-7.561h-1.709l-1.538 4.4a12.049 12.049 0 0 0-.479 1.791h-.054a8.76 8.76 0 0 0-.479-1.791l-1.538-4.4h-1.695l2.871 7.561h1.736zm8.289.02a4.937 4.937 0 0 0 1.19-.4v-1.3a6.555 6.555 0 0 1-1.241.42 5.825 5.825 0 0 1-1.248.127 2.072 2.072 0 0 1-1.579-.591 2.483 2.483 0 0 1-.6-1.692h5.039v-.869a3.473 3.473 0 0 0-.869-2.5 3.114 3.114 0 0 0-2.365-.909 3.188 3.188 0 0 0-2.536 1.06 4.286 4.286 0 0 0-.923 2.912 3.906 3.906 0 0 0 1 2.834 3.656 3.656 0 0 0 2.758 1.029 7.3 7.3 0 0 0 1.373-.119zm-.465-6.019a2.091 2.091 0 0 1 .451 1.418h-3.431a2.309 2.309 0 0 1 .55-1.415 1.615 1.615 0 0 1 1.227-.485 1.542 1.542 0 0 1 1.202.484zm5.042-4.638h-1.606v10.639h1.606V25.909zM174.1 53.566a4.937 4.937 0 0 0 1.19-.4v-1.302a6.532 6.532 0 0 1-1.241.42 5.822 5.822 0 0 1-1.247.127 2.073 2.073 0 0 1-1.58-.591 2.482 2.482 0 0 1-.594-1.692h5.038v-.869a3.477 3.477 0 0 0-.868-2.5 3.118 3.118 0 0 0-2.366-.909 3.188 3.188 0 0 0-2.536 1.06 4.286 4.286 0 0 0-.923 2.912 3.906 3.906 0 0 0 1 2.834 3.658 3.658 0 0 0 2.758 1.029 7.3 7.3 0 0 0 1.369-.119zm-.464-6.019a2.1 2.1 0 0 1 .451 1.419h-3.432a2.315 2.315 0 0 1 .55-1.415 1.615 1.615 0 0 1 1.227-.485 1.545 1.545 0 0 1 1.2.481zm6.894 6l2.885-7.561H181.7l-1.538 4.4a12.049 12.049 0 0 0-.479 1.791h-.053a8.681 8.681 0 0 0-.478-1.791l-1.538-4.4h-1.695l2.871 7.561h1.736zm5.22-7.561h-1.607v7.561h1.607v-7.562zm-1.467-1.357a.913.913 0 0 0 .674.236.891.891 0 0 0 .659-.236.87.87 0 0 0 .236-.646.887.887 0 0 0-.236-.663.9.9 0 0 0-.659-.232.922.922 0 0 0-.674.232.891.891 0 0 0-.236.663.874.874 0 0 0 .232.645zm8.156 7.926h.075l.28.991h1.258V42.909h-1.613v2.755a9.7 9.7 0 0 0 .116 1.285h-.082a2.606 2.606 0 0 0-2.269-1.1 2.657 2.657 0 0 0-2.225 1.036 4.62 4.62 0 0 0-.8 2.9 4.613 4.613 0 0 0 .793 2.878 2.634 2.634 0 0 0 2.208 1.025 2.568 2.568 0 0 0 2.263-1.128zm-3.165-.831a3.435 3.435 0 0 1-.444-1.917 3.515 3.515 0 0 1 .458-1.959 1.476 1.476 0 0 1 1.305-.687 1.724 1.724 0 0 1 1.456.6 3.388 3.388 0 0 1 .465 2.03v.226a2.93 2.93 0 0 1-.465 1.808 1.746 1.746 0 0 1-1.442.557 1.5 1.5 0 0 1-1.337-.658zm11.326 1.842a4.93 4.93 0 0 0 1.189-.4v-1.302a6.524 6.524 0 0 1-1.24.42 5.831 5.831 0 0 1-1.248.127 2.072 2.072 0 0 1-1.579-.591 2.483 2.483 0 0 1-.6-1.692h5.038v-.869a3.473 3.473 0 0 0-.868-2.5 3.115 3.115 0 0 0-2.365-.909 3.186 3.186 0 0 0-2.536 1.06 4.286 4.286 0 0 0-.923 2.912 3.906 3.906 0 0 0 1 2.834 3.656 3.656 0 0 0 2.758 1.029 7.3 7.3 0 0 0 1.374-.119zm-.465-6.019a2.091 2.091 0 0 1 .451 1.419h-3.431a2.309 2.309 0 0 1 .55-1.415 1.615 1.615 0 0 1 1.227-.485 1.544 1.544 0 0 1 1.204.481zm10.087 1.07q0-2.769-2.721-2.769a3.252 3.252 0 0 0-1.394.294 2.235 2.235 0 0 0-.971.834h-.082l-.226-.991h-1.257v7.561h1.606v-3.767a3.317 3.317 0 0 1 .472-2.017 1.776 1.776 0 0 1 1.49-.6 1.363 1.363 0 0 1 1.118.431 2.039 2.039 0 0 1 .352 1.306v4.648h1.613v-4.93zm6.05 4.956a3.179 3.179 0 0 0 .92-.362v-1.4a4.112 4.112 0 0 1-2.031.533 1.692 1.692 0 0 1-1.432-.639 3.118 3.118 0 0 1-.489-1.911q0-2.6 1.962-2.6a4.869 4.869 0 0 1 1.682.4l.485-1.292a5.056 5.056 0 0 0-2.153-.444 3.461 3.461 0 0 0-2.7 1.025 4.208 4.208 0 0 0-.933 2.933 4.182 4.182 0 0 0 .892 2.874 3.31 3.31 0 0 0 2.608 1 5.518 5.518 0 0 0 1.19-.117zm6.953-.007a4.93 4.93 0 0 0 1.189-.4v-1.302a6.532 6.532 0 0 1-1.241.42 5.822 5.822 0 0 1-1.247.127 2.07 2.07 0 0 1-1.579-.591 2.483 2.483 0 0 1-.6-1.692h5.038v-.869a3.473 3.473 0 0 0-.868-2.5 3.115 3.115 0 0 0-2.365-.909 3.186 3.186 0 0 0-2.536 1.06 4.281 4.281 0 0 0-.923 2.912 3.906 3.906 0 0 0 .994 2.834 3.658 3.658 0 0 0 2.759 1.029 7.3 7.3 0 0 0 1.38-.119zm-.465-6.019a2.1 2.1 0 0 1 .451 1.419h-3.431a2.316 2.316 0 0 1 .551-1.415 1.612 1.612 0 0 1 1.227-.485 1.544 1.544 0 0 1 1.203.481zm5 4.372h-1.579a33.781 33.781 0 0 1-.7 3.432h1.182a22.924 22.924 0 0 0 1.2-3.274zm7.024.188a1.138 1.138 0 0 1-.29-.858V47.2h2.153v-1.215H234.5V44.3h-.991l-.547 1.6-1.108.588v.712h1.033v4.074q0 2.406 2.283 2.406a4.732 4.732 0 0 0 .871-.079 3.221 3.221 0 0 0 .687-.195V52.2a3.9 3.9 0 0 1-1.175.185 1.061 1.061 0 0 1-.767-.278zm9.681-3.49a2.438 2.438 0 0 0-2.748-2.769 2.939 2.939 0 0 0-1.364.3 2.232 2.232 0 0 0-.913.848h-.1a12.769 12.769 0 0 0 .082-1.388v-2.7h-1.607v10.638h1.607v-3.753a3.332 3.332 0 0 1 .475-2.027 1.773 1.773 0 0 1 1.487-.6 1.36 1.36 0 0 1 1.117.431 2.032 2.032 0 0 1 .352 1.306v4.648h1.614v-4.934zm6.491 4.949a4.93 4.93 0 0 0 1.189-.4v-1.302a6.509 6.509 0 0 1-1.241.42 5.822 5.822 0 0 1-1.247.127 2.07 2.07 0 0 1-1.579-.591 2.483 2.483 0 0 1-.595-1.692h5.038v-.869a3.473 3.473 0 0 0-.868-2.5 3.115 3.115 0 0 0-2.365-.909 3.186 3.186 0 0 0-2.536 1.06 4.281 4.281 0 0 0-.923 2.912 3.906 3.906 0 0 0 .994 2.834 3.658 3.658 0 0 0 2.759 1.029 7.3 7.3 0 0 0 1.376-.119zm-.465-6.019a2.1 2.1 0 0 1 .451 1.419h-3.432a2.316 2.316 0 0 1 .551-1.415 1.612 1.612 0 0 1 1.227-.485 1.544 1.544 0 0 1 1.205.481zm5.968-1.3a3 3 0 0 0-.981 1.073h-.078l-.212-1.333h-1.258v7.561h1.607v-3.954a2.272 2.272 0 0 1 .6-1.634 2.057 2.057 0 0 1 1.562-.629 3.037 3.037 0 0 1 .711.082l.157-1.5a3.873 3.873 0 0 0-.8-.068 2.33 2.33 0 0 0-1.306.4zm7.759 7.321a4.937 4.937 0 0 0 1.19-.4v-1.304a6.532 6.532 0 0 1-1.241.42 5.825 5.825 0 0 1-1.248.127 2.072 2.072 0 0 1-1.579-.591 2.482 2.482 0 0 1-.594-1.692h5.038v-.869a3.477 3.477 0 0 0-.868-2.5 3.118 3.118 0 0 0-2.366-.909 3.188 3.188 0 0 0-2.536 1.06 4.286 4.286 0 0 0-.923 2.912 3.906 3.906 0 0 0 1 2.834 3.656 3.656 0 0 0 2.758 1.029 7.3 7.3 0 0 0 1.371-.119zm-.465-6.019a2.1 2.1 0 0 1 .452 1.419h-3.432a2.315 2.315 0 0 1 .55-1.415 1.615 1.615 0 0 1 1.227-.485 1.541 1.541 0 0 1 1.205.479zm8.259-1.562h-1.606v7.561h1.606v-7.563zm-1.466-1.357a.909.909 0 0 0 .673.236.892.892 0 0 0 .66-.236.874.874 0 0 0 .236-.646.815.815 0 0 0-.9-.9.917.917 0 0 0-.673.232.891.891 0 0 0-.236.663.874.874 0 0 0 .242.649zm8.217 5.824a1.981 1.981 0 0 0-.629-.694 6.63 6.63 0 0 0-1.36-.663 7.286 7.286 0 0 1-1.446-.677.729.729 0 0 1-.332-.6q0-.725 1.272-.725a5.605 5.605 0 0 1 2.057.506l.52-1.21a6.033 6.033 0 0 0-2.522-.54 3.717 3.717 0 0 0-2.13.537 1.724 1.724 0 0 0-.783 1.507 1.871 1.871 0 0 0 .462 1.313 4.826 4.826 0 0 0 1.767 1.012 9.3 9.3 0 0 1 1.046.465 1.963 1.963 0 0 1 .54.4.711.711 0 0 1 .164.478q0 .9-1.483.9a5.961 5.961 0 0 1-2.482-.615v1.388a5.46 5.46 0 0 0 2.427.458 3.86 3.86 0 0 0 2.31-.591 1.978 1.978 0 0 0 .807-1.7 2.005 2.005 0 0 0-.203-.951zm11.337 3.092v-7.561h-1.614v3.767a3.332 3.332 0 0 1-.475 2.027 1.772 1.772 0 0 1-1.486.6 1.358 1.358 0 0 1-1.115-.434 2.023 2.023 0 0 1-.355-1.3v-4.66h-1.62v4.942a2.834 2.834 0 0 0 .676 2.073 2.773 2.773 0 0 0 2.051.684 3.191 3.191 0 0 0 1.412-.3 2.278 2.278 0 0 0 .953-.827h.083l.225.991h1.265zm8.521-4.929q0-2.769-2.721-2.769a3.252 3.252 0 0 0-1.394.294 2.241 2.241 0 0 0-.971.834h-.082l-.225-.991h-1.258v7.561h1.606v-3.767a3.317 3.317 0 0 1 .472-2.017 1.776 1.776 0 0 1 1.49-.6 1.361 1.361 0 0 1 1.118.431 2.039 2.039 0 0 1 .352 1.306v4.648h1.613v-4.93zm3.422-2.632h-1.606v7.561h1.606v-7.561zm-1.466-1.357a.909.909 0 0 0 .673.236.9.9 0 0 0 .66-.236.873.873 0 0 0 .235-.646.89.89 0 0 0-.235-.663.9.9 0 0 0-.66-.232.917.917 0 0 0-.673.232.887.887 0 0 0-.236.663.87.87 0 0 0 .236.646zm7.137 1.357h-1.846v-.492a1.7 1.7 0 0 1 .25-1.015.922.922 0 0 1 .8-.338 3.711 3.711 0 0 1 1.135.191l.424-1.217a5.129 5.129 0 0 0-1.668-.28 2.57 2.57 0 0 0-1.921.646 2.748 2.748 0 0 0-.629 1.986v.492l-1.244.492v.75h1.244v6.344h1.613V47.2h1.846v-1.215zm6.614.919a3.331 3.331 0 0 0-2.6-1.056 3.42 3.42 0 0 0-2.659 1.032 4.1 4.1 0 0 0-.943 2.871 4.689 4.689 0 0 0 .437 2.078 3.163 3.163 0 0 0 1.251 1.374 3.627 3.627 0 0 0 1.873.478 3.406 3.406 0 0 0 2.646-1.039 4.128 4.128 0 0 0 .95-2.892 4.08 4.08 0 0 0-.955-2.85zm-4.091.926a1.643 1.643 0 0 1 1.466-.67q1.928 0 1.928 2.591 0 2.618-1.914 2.618-1.935 0-1.935-2.618a3.41 3.41 0 0 1 .455-1.92zm9.006-1.586a3 3 0 0 0-.981 1.073h-.082l-.211-1.333h-1.258v7.561h1.606v-3.951a2.272 2.272 0 0 1 .6-1.634 2.059 2.059 0 0 1 1.562-.629 3.037 3.037 0 0 1 .711.082l.157-1.5a3.863 3.863 0 0 0-.8-.068 2.335 2.335 0 0 0-1.304.4zm9.457 3.296a3.015 3.015 0 0 1 .434-1.794 1.594 1.594 0 0 1 1.371-.584 1.22 1.22 0 0 1 1.028.427 2.1 2.1 0 0 1 .332 1.3v4.662h1.606v-4.934a3.03 3.03 0 0 0-.618-2.085 2.54 2.54 0 0 0-1.972-.684 3 3 0 0 0-1.4.314 2.3 2.3 0 0 0-.943.875h-.11a2.3 2.3 0 0 0-2.31-1.189 2.943 2.943 0 0 0-1.316.294 2.1 2.1 0 0 0-.913.834h-.079l-.225-.991h-1.258v7.561h1.606v-3.767a3.553 3.553 0 0 1 .434-2.013 1.565 1.565 0 0 1 1.364-.6 1.212 1.212 0 0 1 1.026.427 2.119 2.119 0 0 1 .328 1.3v4.662h1.615V49.54zm18.307-5.988h-1.5v5.236q0 .554.041 1.542t.055 1.145h-.041l-4.9-7.923h-1.983v9.994h1.484v-5.2q0-1.053-.1-2.324l-.034-.444h.054L345 53.546h2v-9.995zm7.657 1.439a8.769 8.769 0 0 1 1.07.42l.588-1.36a6.3 6.3 0 0 0-2.83-.643 4.993 4.993 0 0 0-2.536.622 4.066 4.066 0 0 0-1.651 1.791 6.141 6.141 0 0 0-.571 2.727 5.561 5.561 0 0 0 1.176 3.8 4.26 4.26 0 0 0 3.37 1.33 7.5 7.5 0 0 0 2.666-.444v-1.4q-.644.2-1.238.325a5.885 5.885 0 0 1-1.23.127 2.742 2.742 0 0 1-2.246-.943 4.3 4.3 0 0 1-.775-2.782 4.265 4.265 0 0 1 .806-2.755 2.694 2.694 0 0 1 2.215-1 3.855 3.855 0 0 1 1.184.184zm8.453 0a8.769 8.769 0 0 1 1.07.42l.588-1.36a6.293 6.293 0 0 0-2.83-.643 4.993 4.993 0 0 0-2.536.622 4.066 4.066 0 0 0-1.651 1.791 6.141 6.141 0 0 0-.571 2.727 5.561 5.561 0 0 0 1.176 3.8 4.26 4.26 0 0 0 3.37 1.33 7.5 7.5 0 0 0 2.666-.444v-1.4q-.643.2-1.237.325a5.9 5.9 0 0 1-1.231.127 2.742 2.742 0 0 1-2.246-.943 4.3 4.3 0 0 1-.775-2.782 4.265 4.265 0 0 1 .806-2.755 2.694 2.694 0 0 1 2.215-1 3.855 3.855 0 0 1 1.184.184zm11.341-1.439h-1.5v5.236q0 .554.041 1.542t.055 1.145h-.041l-4.9-7.923h-1.983v9.994h1.484v-5.2q0-1.053-.1-2.324l-.034-.444h.054l4.915 7.964h2v-9.991zm9.5 10.021a3.173 3.173 0 0 0 .919-.362v-1.4a4.109 4.109 0 0 1-2.03.533 1.69 1.69 0 0 1-1.432-.639 3.118 3.118 0 0 1-.489-1.911q0-2.6 1.962-2.6a4.865 4.865 0 0 1 1.681.4l.486-1.292a5.056 5.056 0 0 0-2.153-.444 3.461 3.461 0 0 0-2.7 1.025 4.208 4.208 0 0 0-.933 2.933 4.182 4.182 0 0 0 .892 2.874 3.309 3.309 0 0 0 2.608 1 5.524 5.524 0 0 0 1.187-.117zm8.025-6.668a3.329 3.329 0 0 0-2.6-1.056 3.42 3.42 0 0 0-2.659 1.032 4.1 4.1 0 0 0-.944 2.871 4.675 4.675 0 0 0 .438 2.078 3.151 3.151 0 0 0 1.252 1.37 3.622 3.622 0 0 0 1.873.478 3.4 3.4 0 0 0 2.645-1.039 4.124 4.124 0 0 0 .951-2.892 4.08 4.08 0 0 0-.958-2.847zm-4.091.926a1.644 1.644 0 0 1 1.466-.67q1.929 0 1.928 2.591 0 2.618-1.914 2.618-1.935 0-1.934-2.618a3.41 3.41 0 0 1 .452-1.921zm13.126.786q0-2.769-2.721-2.769a3.257 3.257 0 0 0-1.4.294 2.232 2.232 0 0 0-.97.834h-.082l-.226-.991h-1.258v7.561h1.607v-3.767a3.325 3.325 0 0 1 .471-2.017 1.778 1.778 0 0 1 1.491-.6 1.36 1.36 0 0 1 1.117.431 2.032 2.032 0 0 1 .353 1.307v4.648h1.614v-4.931zm6.689 1.835a1.981 1.981 0 0 0-.629-.694 6.63 6.63 0 0 0-1.36-.663 7.286 7.286 0 0 1-1.446-.677.729.729 0 0 1-.332-.6q0-.725 1.272-.725a5.605 5.605 0 0 1 2.057.506l.52-1.21a6.033 6.033 0 0 0-2.522-.54 3.717 3.717 0 0 0-2.13.537 1.724 1.724 0 0 0-.783 1.507 1.871 1.871 0 0 0 .462 1.313 4.826 4.826 0 0 0 1.767 1.012 9.3 9.3 0 0 1 1.046.465 1.963 1.963 0 0 1 .54.4.711.711 0 0 1 .164.478q0 .9-1.483.9a5.961 5.961 0 0 1-2.482-.615v1.388a5.46 5.46 0 0 0 2.427.458 3.86 3.86 0 0 0 2.31-.591 1.978 1.978 0 0 0 .807-1.7 2.005 2.005 0 0 0-.207-.949zm6.2 3.114a4.937 4.937 0 0 0 1.19-.4v-1.302a6.532 6.532 0 0 1-1.241.42 5.825 5.825 0 0 1-1.248.127 2.072 2.072 0 0 1-1.579-.591 2.483 2.483 0 0 1-.6-1.692h5.039v-.869a3.473 3.473 0 0 0-.869-2.5 3.114 3.114 0 0 0-2.365-.909 3.188 3.188 0 0 0-2.536 1.06 4.286 4.286 0 0 0-.923 2.912 3.906 3.906 0 0 0 1 2.834 3.656 3.656 0 0 0 2.758 1.029 7.3 7.3 0 0 0 1.367-.119zm-.465-6.019a2.091 2.091 0 0 1 .451 1.419h-3.431a2.315 2.315 0 0 1 .55-1.415 1.615 1.615 0 0 1 1.227-.485 1.541 1.541 0 0 1 1.198.481zm10.087 1.07q0-2.769-2.721-2.769a3.252 3.252 0 0 0-1.394.294 2.241 2.241 0 0 0-.971.834h-.082l-.225-.991h-1.258v7.561h1.606v-3.767a3.317 3.317 0 0 1 .472-2.017 1.776 1.776 0 0 1 1.49-.6 1.363 1.363 0 0 1 1.118.431 2.039 2.039 0 0 1 .352 1.306v4.648h1.613v-4.93zm6.689 1.835a1.978 1.978 0 0 0-.628-.694 6.617 6.617 0 0 0-1.361-.663 7.286 7.286 0 0 1-1.446-.677.728.728 0 0 1-.331-.6q0-.725 1.271-.725a5.614 5.614 0 0 1 2.058.506l.52-1.21a6.034 6.034 0 0 0-2.523-.54 3.711 3.711 0 0 0-2.129.537 1.724 1.724 0 0 0-.783 1.507 1.875 1.875 0 0 0 .461 1.313 4.844 4.844 0 0 0 1.767 1.012 9.22 9.22 0 0 1 1.046.465 1.932 1.932 0 0 1 .54.4.706.706 0 0 1 .164.478q0 .9-1.483.9a5.953 5.953 0 0 1-2.481-.615v1.388a5.452 5.452 0 0 0 2.426.458 3.864 3.864 0 0 0 2.311-.591 1.978 1.978 0 0 0 .807-1.7 2.005 2.005 0 0 0-.211-.949zm8.119 3.093v-7.56h-1.614v3.767a3.332 3.332 0 0 1-.475 2.027 1.774 1.774 0 0 1-1.487.6 1.358 1.358 0 0 1-1.114-.434 2.023 2.023 0 0 1-.355-1.3v-4.66h-1.62v4.942a2.834 2.834 0 0 0 .671 2.073 2.771 2.771 0 0 0 2.051.684 3.191 3.191 0 0 0 1.412-.3 2.278 2.278 0 0 0 .953-.827h.082l.226.991h1.265zm6.744-3.093a1.991 1.991 0 0 0-.629-.694 6.617 6.617 0 0 0-1.361-.663 7.3 7.3 0 0 1-1.445-.677.729.729 0 0 1-.332-.6q0-.725 1.272-.725a5.61 5.61 0 0 1 2.057.506l.52-1.21a6.034 6.034 0 0 0-2.523-.54 3.713 3.713 0 0 0-2.129.537 1.724 1.724 0 0 0-.783 1.507 1.871 1.871 0 0 0 .462 1.313 4.826 4.826 0 0 0 1.767 1.012 9.386 9.386 0 0 1 1.046.465 1.963 1.963 0 0 1 .54.4.711.711 0 0 1 .164.478q0 .9-1.484.9a5.957 5.957 0 0 1-2.481-.615v1.388a5.454 5.454 0 0 0 2.427.458 3.863 3.863 0 0 0 2.31-.591 1.978 1.978 0 0 0 .807-1.7 2.017 2.017 0 0 0-.21-.949zm-273.6 18.654a1.134 1.134 0 0 1-.291-.858V64.2h2.154v-1.215h-2.154V61.3h-.991l-.547 1.6-1.107.588v.712h1.032v4.074q0 2.406 2.283 2.406a4.751 4.751 0 0 0 .872-.079 3.256 3.256 0 0 0 .687-.195V69.2a3.91 3.91 0 0 1-1.176.185 1.058 1.058 0 0 1-.768-.278zm9.68-3.49a2.438 2.438 0 0 0-2.748-2.769 2.942 2.942 0 0 0-1.364.3 2.232 2.232 0 0 0-.913.848h-.1a12.522 12.522 0 0 0 .082-1.388v-2.7H174.5v10.639h1.606v-3.753a3.332 3.332 0 0 1 .475-2.027 1.774 1.774 0 0 1 1.487-.605 1.363 1.363 0 0 1 1.118.431 2.039 2.039 0 0 1 .352 1.306v4.648h1.613v-4.929zm7.694 4.929v-5.092a2.462 2.462 0 0 0-.735-1.976 3.269 3.269 0 0 0-2.177-.629 6.2 6.2 0 0 0-1.381.167 5.6 5.6 0 0 0-1.347.489l.52 1.148a8.427 8.427 0 0 1 1.025-.4 3.633 3.633 0 0 1 1.115-.171 1.38 1.38 0 0 1 1.049.359 1.527 1.527 0 0 1 .338 1.083v.4l-1.305.041a5.008 5.008 0 0 0-2.646.649 2 2 0 0 0-.868 1.764 2.251 2.251 0 0 0 .626 1.7 2.4 2.4 0 0 0 1.739.6 3.481 3.481 0 0 0 1.422-.249 3.1 3.1 0 0 0 1.1-.94h.054l.322 1.053h1.148zm-4.443-1.371a1.009 1.009 0 0 1-.3-.783 1.153 1.153 0 0 1 .516-1.036 3.321 3.321 0 0 1 1.651-.379l.971-.041v.656a1.773 1.773 0 0 1-.53 1.371 1.991 1.991 0 0 1-1.405.489 1.291 1.291 0 0 1-.909-.276zm8.32-.068a1.134 1.134 0 0 1-.291-.858V64.2h2.153v-1.215h-2.153V61.3h-.991l-.55 1.6-1.108.588v.712h1.033v4.074q0 2.406 2.283 2.406a4.732 4.732 0 0 0 .871-.079 3.25 3.25 0 0 0 .688-.195V69.2a3.91 3.91 0 0 1-1.176.185 1.057 1.057 0 0 1-.765-.278zm8.3 0a1.134 1.134 0 0 1-.29-.858V64.2h2.153v-1.215h-2.153V61.3h-.992l-.55 1.6-1.108.588v.712h1.032v4.074q0 2.406 2.284 2.406a4.74 4.74 0 0 0 .871-.079 3.256 3.256 0 0 0 .687-.195V69.2a3.91 3.91 0 0 1-1.176.185 1.06 1.06 0 0 1-.765-.278zm9.68-3.49a2.438 2.438 0 0 0-2.748-2.769 2.945 2.945 0 0 0-1.364.3 2.236 2.236 0 0 0-.912.848h-.1a12.522 12.522 0 0 0 .082-1.388v-2.7h-1.606v10.639h1.606v-3.753a3.339 3.339 0 0 1 .475-2.027 1.775 1.775 0 0 1 1.487-.605 1.361 1.361 0 0 1 1.118.431 2.032 2.032 0 0 1 .352 1.306v4.648h1.613v-4.929zm6.491 4.949a4.937 4.937 0 0 0 1.19-.4v-1.301a6.532 6.532 0 0 1-1.241.42 5.822 5.822 0 0 1-1.247.126 2.073 2.073 0 0 1-1.58-.591 2.482 2.482 0 0 1-.594-1.692h5.038v-.868a3.477 3.477 0 0 0-.868-2.5 3.118 3.118 0 0 0-2.366-.909 3.189 3.189 0 0 0-2.536 1.06 4.286 4.286 0 0 0-.923 2.912 3.906 3.906 0 0 0 1 2.834 3.658 3.658 0 0 0 2.758 1.029 7.3 7.3 0 0 0 1.366-.119zm-.464-6.019a2.1 2.1 0 0 1 .451 1.419h-3.432a2.315 2.315 0 0 1 .55-1.415 1.615 1.615 0 0 1 1.227-.485 1.545 1.545 0 0 1 1.197.482zm8.258-1.562h-1.606v7.561h1.606v-7.56zm-1.466-1.357a.911.911 0 0 0 .673.236.892.892 0 0 0 .66-.236.874.874 0 0 0 .236-.646.815.815 0 0 0-.9-.9.919.919 0 0 0-.673.232.891.891 0 0 0-.236.663.874.874 0 0 0 .233.652zm9.994 3.989q0-2.769-2.72-2.769a3.253 3.253 0 0 0-1.4.294 2.241 2.241 0 0 0-.971.834h-.084l-.225-.991h-1.258v7.561h1.607v-3.766a3.325 3.325 0 0 1 .471-2.017 1.778 1.778 0 0 1 1.49-.6 1.361 1.361 0 0 1 1.118.431 2.032 2.032 0 0 1 .352 1.306v4.648h1.613v-4.93zm3.87 3.49a1.134 1.134 0 0 1-.291-.858V64.2h2.154v-1.215H237.1V61.3h-.991l-.547 1.6-1.107.588v.712h1.032v4.074q0 2.406 2.283 2.406a4.743 4.743 0 0 0 .872-.079 3.256 3.256 0 0 0 .687-.195V69.2a3.91 3.91 0 0 1-1.176.185 1.06 1.06 0 0 1-.765-.278zm7.7 1.46a4.937 4.937 0 0 0 1.19-.4v-1.302a6.532 6.532 0 0 1-1.241.42 5.822 5.822 0 0 1-1.247.126 2.07 2.07 0 0 1-1.579-.591 2.483 2.483 0 0 1-.595-1.692h5.038v-.868a3.477 3.477 0 0 0-.868-2.5 3.115 3.115 0 0 0-2.365-.909 3.19 3.19 0 0 0-2.537 1.06 4.286 4.286 0 0 0-.922 2.912 3.906 3.906 0 0 0 .994 2.834 3.658 3.658 0 0 0 2.758 1.029 7.3 7.3 0 0 0 1.371-.119zm-.464-6.019a2.1 2.1 0 0 1 .451 1.419h-3.432a2.315 2.315 0 0 1 .55-1.415 1.616 1.616 0 0 1 1.228-.485 1.544 1.544 0 0 1 1.2.481zm5.968-1.3a2.994 2.994 0 0 0-.981 1.073h-.082l-.212-1.333h-1.258v7.561h1.607v-3.954a2.272 2.272 0 0 1 .6-1.634 2.056 2.056 0 0 1 1.562-.629 3.037 3.037 0 0 1 .711.082l.157-1.5a3.873 3.873 0 0 0-.8-.068 2.33 2.33 0 0 0-1.303.4zm6.542 7.3l2.885-7.561h-1.709l-1.538 4.4a12.049 12.049 0 0 0-.479 1.791h-.054a8.76 8.76 0 0 0-.479-1.791l-1.538-4.4h-1.695l2.871 7.561h1.736zm8.289.021a4.937 4.937 0 0 0 1.19-.4v-1.304a6.532 6.532 0 0 1-1.241.42 5.825 5.825 0 0 1-1.248.126 2.072 2.072 0 0 1-1.579-.591 2.482 2.482 0 0 1-.594-1.692h5.038v-.868a3.473 3.473 0 0 0-.869-2.5 3.114 3.114 0 0 0-2.365-.909 3.188 3.188 0 0 0-2.536 1.06 4.286 4.286 0 0 0-.923 2.912 3.906 3.906 0 0 0 1 2.834 3.656 3.656 0 0 0 2.758 1.029 7.3 7.3 0 0 0 1.366-.119zm-.465-6.019a2.1 2.1 0 0 1 .452 1.419h-3.432a2.315 2.315 0 0 1 .55-1.415 1.615 1.615 0 0 1 1.227-.485 1.541 1.541 0 0 1 1.2.479zm10.087 1.07q0-2.769-2.72-2.769a3.253 3.253 0 0 0-1.395.294 2.241 2.241 0 0 0-.971.834h-.082l-.225-.991H268.4v7.561h1.6v-3.769a3.324 3.324 0 0 1 .472-2.017 1.776 1.776 0 0 1 1.49-.6 1.361 1.361 0 0 1 1.118.431 2.032 2.032 0 0 1 .352 1.306v4.648h1.613v-4.93zm3.87 3.49a1.134 1.134 0 0 1-.291-.858V64.2h2.154v-1.215h-2.154V61.3h-.991l-.547 1.6-1.107.588v.712h1.032v4.074q0 2.406 2.283 2.406a4.751 4.751 0 0 0 .872-.079 3.256 3.256 0 0 0 .687-.195V69.2a3.91 3.91 0 0 1-1.176.185 1.058 1.058 0 0 1-.765-.278zm4.635-6.122h-1.607v7.561h1.607v-7.563zm-1.466-1.357a.909.909 0 0 0 .673.236.9.9 0 0 0 .66-.236.873.873 0 0 0 .235-.646.89.89 0 0 0-.235-.663.9.9 0 0 0-.66-.232.917.917 0 0 0-.673.232.887.887 0 0 0-.236.663.87.87 0 0 0 .233.644zm9.089 2.27a3.331 3.331 0 0 0-2.6-1.056 3.42 3.42 0 0 0-2.659 1.032 4.1 4.1 0 0 0-.943 2.871 4.675 4.675 0 0 0 .437 2.078 3.163 3.163 0 0 0 1.251 1.374 3.625 3.625 0 0 0 1.873.478 3.406 3.406 0 0 0 2.646-1.039 4.128 4.128 0 0 0 .95-2.892 4.08 4.08 0 0 0-.955-2.846zm-4.091.926a1.643 1.643 0 0 1 1.466-.67q1.927 0 1.928 2.591 0 2.618-1.914 2.618-1.935 0-1.935-2.618a3.4 3.4 0 0 1 .455-1.916zm13.125.786q0-2.769-2.721-2.769a3.252 3.252 0 0 0-1.394.294 2.235 2.235 0 0 0-.971.834h-.082l-.226-.991h-1.257v7.561h1.606v-3.762a3.317 3.317 0 0 1 .472-2.017 1.776 1.776 0 0 1 1.49-.6 1.363 1.363 0 0 1 1.118.431 2.039 2.039 0 0 1 .351 1.307v4.648h1.613v-4.931zm6.638-2.632h-1.606v7.561h1.606v-7.556zm-1.466-1.357a.911.911 0 0 0 .673.236.892.892 0 0 0 .66-.236.874.874 0 0 0 .236-.646.815.815 0 0 0-.9-.9.919.919 0 0 0-.673.232.891.891 0 0 0-.236.663.874.874 0 0 0 .24.656zm8.217 5.824a1.972 1.972 0 0 0-.629-.694 6.6 6.6 0 0 0-1.36-.663 7.286 7.286 0 0 1-1.446-.677.728.728 0 0 1-.331-.6q0-.724 1.271-.725a5.614 5.614 0 0 1 2.058.506l.519-1.21a6.03 6.03 0 0 0-2.522-.54 3.711 3.711 0 0 0-2.129.537 1.724 1.724 0 0 0-.783 1.507 1.875 1.875 0 0 0 .461 1.313 4.844 4.844 0 0 0 1.767 1.012 9.22 9.22 0 0 1 1.046.465 1.932 1.932 0 0 1 .54.4.706.706 0 0 1 .164.478q0 .9-1.483.9a5.961 5.961 0 0 1-2.482-.615v1.388a5.46 5.46 0 0 0 2.427.458 3.864 3.864 0 0 0 2.309-.596 1.98 1.98 0 0 0 .806-1.7 2.005 2.005 0 0 0-.206-.939zm10.617 3.093v-5.087a2.465 2.465 0 0 0-.734-1.976 3.272 3.272 0 0 0-2.178-.629 6.2 6.2 0 0 0-1.381.167 5.6 5.6 0 0 0-1.346.489l.519 1.148a8.378 8.378 0 0 1 1.026-.4 3.627 3.627 0 0 1 1.114-.171 1.378 1.378 0 0 1 1.049.359 1.527 1.527 0 0 1 .339 1.083v.4l-1.306.041a5.008 5.008 0 0 0-2.646.649 2 2 0 0 0-.868 1.764 2.251 2.251 0 0 0 .626 1.7 2.407 2.407 0 0 0 1.74.6 3.479 3.479 0 0 0 1.421-.249 3.093 3.093 0 0 0 1.1-.94h.055l.321 1.053h1.148zm-4.443-1.371a1.009 1.009 0 0 1-.3-.783 1.153 1.153 0 0 1 .516-1.036 3.324 3.324 0 0 1 1.651-.379l.971-.041v.656a1.773 1.773 0 0 1-.53 1.371 1.989 1.989 0 0 1-1.405.489 1.293 1.293 0 0 1-.903-.271zm12.323.474a5.622 5.622 0 0 0 .013-5.769 2.623 2.623 0 0 0-2.2-1.025A2.516 2.516 0 0 0 327.649 64h-.082q-.171-.8-.226-1.012h-1.3v10.921h1.606v-3.1q0-.205-.1-1.162h.1a2.9 2.9 0 0 0 4.453-.004zm-1.292-4.83a3.411 3.411 0 0 1 .448 1.924 3.528 3.528 0 0 1-.452 1.948 1.449 1.449 0 0 1-1.285.684 1.625 1.625 0 0 1-1.428-.619 3.533 3.533 0 0 1-.438-2v-.238a2.9 2.9 0 0 1 .441-1.791 1.67 1.67 0 0 1 1.4-.561 1.494 1.494 0 0 1 1.306.654zm9.594 4.83a5.619 5.619 0 0 0 .014-5.769 2.623 2.623 0 0 0-2.2-1.025A2.516 2.516 0 0 0 335.952 64h-.082q-.171-.8-.226-1.012h-1.3v10.921h1.607v-3.1q0-.205-.1-1.162h.1a2.9 2.9 0 0 0 4.449-.004zm-1.292-4.83a3.4 3.4 0 0 1 .448 1.924 3.528 3.528 0 0 1-.451 1.948 1.45 1.45 0 0 1-1.285.684 1.628 1.628 0 0 1-1.429-.619 3.534 3.534 0 0 1-.437-2v-.238a2.9 2.9 0 0 1 .441-1.791 1.669 1.669 0 0 1 1.4-.561 1.493 1.493 0 0 1 1.309.654zm6.075-1.569a2.985 2.985 0 0 0-.981 1.073h-.082l-.212-1.333h-1.258v7.561h1.606v-3.951a2.277 2.277 0 0 1 .6-1.634 2.059 2.059 0 0 1 1.562-.629 3.031 3.031 0 0 1 .711.082l.158-1.5a3.88 3.88 0 0 0-.8-.068 2.33 2.33 0 0 0-1.308.4zm8.832.66a3.331 3.331 0 0 0-2.6-1.056 3.42 3.42 0 0 0-2.659 1.032 4.1 4.1 0 0 0-.943 2.871 4.689 4.689 0 0 0 .437 2.078A3.163 3.163 0 0 0 349.5 70.2a3.627 3.627 0 0 0 1.873.478 3.4 3.4 0 0 0 2.646-1.039 4.128 4.128 0 0 0 .95-2.892 4.08 4.08 0 0 0-.956-2.847zm-4.091.926a1.644 1.644 0 0 1 1.466-.67q1.928 0 1.928 2.591 0 2.618-1.914 2.618-1.935 0-1.935-2.618a3.41 3.41 0 0 1 .451-1.92zm12.527 4.813a5.625 5.625 0 0 0 .014-5.769 2.626 2.626 0 0 0-2.205-1.025A2.516 2.516 0 0 0 358 64h-.08q-.171-.8-.225-1.012h-1.3v10.921H358v-3.1q0-.205-.1-1.162h.1a2.9 2.9 0 0 0 4.449-.004zm-1.292-4.83a3.411 3.411 0 0 1 .448 1.924 3.537 3.537 0 0 1-.451 1.948 1.452 1.452 0 0 1-1.286.684 1.626 1.626 0 0 1-1.428-.619 3.533 3.533 0 0 1-.438-2v-.238a2.9 2.9 0 0 1 .441-1.791 1.67 1.67 0 0 1 1.4-.561 1.494 1.494 0 0 1 1.31.654zm6.074-1.569a3 3 0 0 0-.981 1.073h-.082l-.212-1.333h-1.26v7.561h1.607v-3.951a2.272 2.272 0 0 1 .6-1.634 2.057 2.057 0 0 1 1.562-.629 3.037 3.037 0 0 1 .711.082l.157-1.5a3.867 3.867 0 0 0-.8-.068 2.332 2.332 0 0 0-1.306.4zm4.69-.26h-1.606v7.561h1.606v-7.56zm-1.466-1.357a.909.909 0 0 0 .673.236.893.893 0 0 0 .66-.236.874.874 0 0 0 .236-.646.891.891 0 0 0-.236-.663.9.9 0 0 0-.66-.232.917.917 0 0 0-.673.232.887.887 0 0 0-.236.663.87.87 0 0 0 .232.647zm9.222 8.917v-5.091a2.462 2.462 0 0 0-.735-1.976 3.271 3.271 0 0 0-2.177-.629 6.2 6.2 0 0 0-1.381.167 5.587 5.587 0 0 0-1.347.489l.52 1.148a8.427 8.427 0 0 1 1.025-.4 3.632 3.632 0 0 1 1.114-.171 1.382 1.382 0 0 1 1.05.359 1.531 1.531 0 0 1 .338 1.083v.4l-1.306.041a5 5 0 0 0-2.645.649 2 2 0 0 0-.868 1.764 2.25 2.25 0 0 0 .625 1.7 2.407 2.407 0 0 0 1.74.6 3.481 3.481 0 0 0 1.422-.249 3.091 3.091 0 0 0 1.1-.94h.055l.321 1.053h1.149zm-4.444-1.371a1.012 1.012 0 0 1-.3-.783 1.153 1.153 0 0 1 .516-1.036 3.321 3.321 0 0 1 1.651-.379l.97-.041v.656a1.772 1.772 0 0 1-.529 1.371 1.993 1.993 0 0 1-1.4.489 1.3 1.3 0 0 1-.912-.275zm8.32-.068a1.134 1.134 0 0 1-.29-.858V64.2h2.153v-1.215h-2.153V61.3h-.992l-.546 1.6-1.108.588v.712h1.032v4.074q0 2.406 2.284 2.406a4.74 4.74 0 0 0 .863-.08 3.256 3.256 0 0 0 .687-.195V69.2a3.91 3.91 0 0 1-1.176.185 1.06 1.06 0 0 1-.758-.278zm7.7 1.46a4.93 4.93 0 0 0 1.189-.4v-1.301a6.532 6.532 0 0 1-1.241.42 5.822 5.822 0 0 1-1.247.126 2.07 2.07 0 0 1-1.579-.591 2.483 2.483 0 0 1-.595-1.692h5.038v-.868a3.473 3.473 0 0 0-.868-2.5 3.115 3.115 0 0 0-2.365-.909 3.186 3.186 0 0 0-2.536 1.06 4.281 4.281 0 0 0-.923 2.912 3.906 3.906 0 0 0 .994 2.834 3.658 3.658 0 0 0 2.759 1.029 7.3 7.3 0 0 0 1.375-.119zm-.465-6.019a2.1 2.1 0 0 1 .451 1.419h-3.432a2.316 2.316 0 0 1 .551-1.415 1.612 1.612 0 0 1 1.227-.485 1.544 1.544 0 0 1 1.204.482zm3.456 5.916a1.148 1.148 0 0 0 1.507 0 1.083 1.083 0 0 0 .263-.769 1.06 1.06 0 0 0-.259-.755 1.186 1.186 0 0 0-1.511-.01 1.053 1.053 0 0 0-.26.766 1.093 1.093 0 0 0 .261.77z" fill-rule="evenodd"/></svg>